<svg width="228" height="44" viewBox="0 0 228 44" fill="none" xmlns="http://www.w3.org/2000/svg">
<path d="M2 2H226V42H2V2Z" fill="#271E11" fill-opacity="0.71"/>
<path d="M0.502217 27.8896C0.484226 27.2603 0.581504 26.3721 0.586629 25.6297C0.609124 22.52 0.676557 21.3676 0.714803 18.554C0.771611 14.3821 0.643755 2.00031 1.31958 2C1.3196 2 1.31961 2 1.31963 2C1.32626 2 1.33296 2.00119 1.33974 2.0036C1.46849 2.047 1.60905 3.10013 1.75466 3.25641C1.90033 3.41244 2.84071 3.29543 2.89358 4.7912C2.96325 6.95995 2.72213 12.1625 2.73281 13.3192C2.74018 14.11 2.82567 15.0835 2.84085 16.0947C2.88977 19.355 2.82725 21.0609 3.05947 23.9983C2.9371 25.1732 2.81472 26.3481 2.69235 27.5231C2.74909 29.056 2.58769 31.3794 2.59658 32.3107C2.60389 33.0748 2.70066 33.5225 2.70516 34.3188C2.71075 35.212 2.6063 36.5836 2.62203 38.2082C2.64166 40.2738 2.79792 41.0225 2.88202 42L2 41.118C2.28286 41.0936 2.58487 41.0753 2.94349 41.0682C4.60065 41.035 7.17769 41.1722 9.29214 41.0833C9.55733 41.0556 9.82255 41.0278 10.0877 41C9.89775 40.9372 9.70772 40.8744 9.51773 40.8116C10.5827 40.7824 11.0407 40.9111 12.0193 40.9134C13.1708 40.9162 13.7582 40.7942 14.533 40.7948C15.1677 40.7953 16.0283 40.8932 16.8513 40.8871C18.0512 40.8786 17.7887 40.7373 18.4344 40.7109C18.6921 40.7006 23.4549 40.6227 23.7236 40.6216C25.7672 40.616 25.9451 40.8094 27.5747 40.8263C32.0943 40.8724 36.7339 40.7161 40.9145 40.6571C42.7813 40.6307 44.7291 40.6419 46.5904 40.6728C43.6586 41.1677 50.1469 41.5529 47.7204 40.7785C49.7914 40.8886 51.2597 40.6796 53.2231 40.7149C54.4929 40.738 55.3717 40.8454 57.1849 40.8426C60.4022 40.8369 63.9215 40.5317 64.8468 41.0833C68.6236 40.9861 71.8947 41.1862 73.256 40.6992C74.2299 40.6694 76.7257 40.9595 77.818 40.9989C78.8511 41.0361 86.7775 41.167 88.0741 41.1744C89.3709 41.1817 91.6408 41.1896 92.7329 41.1469C94.105 41.094 95.0637 40.5889 97.5065 41.1795C100.347 41.1317 101.359 41.1486 104 41.2172C104.478 41.2296 104.532 41.3173 104.812 41.3174C105.387 41.3174 106.367 41.2526 107.394 41.2447C109.083 41.2317 110.048 41.4162 109.859 41.1344C110.973 41.0872 112.087 41.04 113.201 40.9927C113.592 41.0471 113.982 41.1015 114.373 41.1559C114.969 41.0966 115.564 41.0373 116.16 40.9781C115.46 41.3858 119.652 41.1452 118.291 40.9112C120.45 40.9956 122.609 41.0799 124.768 41.1643C124.467 41.6277 129.509 41.2178 129.085 40.9658C129.332 40.9662 129.579 40.9665 129.826 40.9669C131.989 41.0901 133.975 40.9893 136.611 41.072C139.248 41.1547 139 41.1998 139.802 41.4129C140.422 41.4007 141.043 41.3885 141.663 41.3763C144.918 40.792 144.343 41.8037 149.917 41.3554C151.698 41.7227 156.088 41.5298 158.999 41.4184C159.338 41.4055 159.343 41.3342 159.794 41.3122C160.897 41.2594 163.712 41.351 163.615 41.1211C164.59 41.1876 165.564 41.2541 166.538 41.3207C167.334 41.2788 168.13 41.237 168.927 41.1952C168.923 41.1234 168.919 41.0517 168.915 40.9799C170.518 41.2245 173.038 41.1305 174.28 41.189C174.528 41.2009 174.581 41.2999 175.35 41.3269C176.248 41.3589 177.923 41.3296 178.994 41.3606C179.41 41.2509 179.826 41.1412 180.242 41.0315C182.157 40.972 182.83 41.2615 183.954 41.284C184.157 41.2879 187.85 41.2671 188.049 41.261C189.678 41.212 189.217 40.9653 193.929 41.0182C194.768 41.0277 195.446 41.1131 196.205 41.1165C197.544 41.1227 201.581 40.9291 201.899 40.7503C203.523 40.9741 207.871 40.8826 209.152 40.9473C209.538 40.9672 209.625 41.1098 210.813 41.1401C211.776 41.1649 214.257 41.0507 215.478 41.0698C216.775 41.0906 217.238 41.2104 217.819 41.2188C218.367 41.2267 218.873 41.13 219.621 41.1306C221.956 41.134 224.07 41.2896 225.915 41.2925C225.944 41.2925 225.972 41.2925 226 41.2925L225.293 42C225.291 39.366 225.009 37.0348 224.884 34.8255C224.902 34.2713 224.964 33.7268 224.964 33.1457C224.973 25.9576 225.026 17.849 225.087 10.6394C225.106 8.44034 225.28 4.09308 225.213 2L226 2.78688C224.907 2.82168 224.429 2.92207 225.191 3.14443C224.028 3.25798 215.571 2.99658 213.962 2.99264C212.354 2.98874 211.079 3.105 209.815 3.10671C206 3.11178 203.314 3.028 198.67 3.12924C197.471 3.1557 196.186 3.29344 195.476 3.29184C194.621 3.28959 193.7 3.15638 192.592 3.14791C189.95 3.12879 185.027 3.17261 182.493 3.14956C182.03 3.14506 181.867 3.0281 181.206 2.99154C178.628 2.8487 175.74 2.86109 176.251 3.23452C172.948 3.02251 169.892 3.2159 166.831 3.22775C160.358 3.25193 148.567 3.16477 142.928 3.32168C139.373 3.42067 139.464 3.58816 134.229 3.44363C133.067 3.41158 131.91 3.36834 130.501 3.3301C127.198 3.24012 124.167 2.93071 121.649 3.30355C117.98 3.20685 115.058 3.27543 112.335 2.95657C112.014 3.03305 111.693 3.10952 111.373 3.186C110.923 3.18789 110.473 3.18978 110.023 3.19168C109.883 3.11874 109.742 3.0458 109.602 2.97286C106.38 2.95322 102.291 3.25301 99.5635 3.25082C94.9901 3.24744 83.2107 3.13098 78.874 3.03256C76.5717 2.98029 76.4478 3.13651 75.1297 2.81539C74.6148 2.83773 74.0998 2.86007 73.5848 2.88241C73.2626 2.95272 72.9403 3.02304 72.618 3.09335C69.6643 3.09616 66.1608 2.98694 63.3468 2.98806C58.2193 2.99031 50.5196 3.18383 45.3704 3.05673C44.0793 3.02467 42.4654 2.87967 41.2011 2.88131C39.361 2.88356 38.9137 3.12419 36.5786 3.12869C32.554 3.136 25.0589 2.85646 21.2548 2.87783C20.125 2.88402 19.5979 2.97356 18.8177 2.98312C15.5464 3.02417 12.8606 3.01688 9.72376 3.15524C6.35562 2.92465 6.64659 2.62701 5.60278 2.32668C4.81172 2.10001 2.38607 1.5747 2.04174 1.37618C1.79987 1.23671 2.70294 1.05729 2.36401 0.903768C6.39933 0.781165 8.09464 0.916135 11.3713 1.1321C17.4226 1.1235 23.4738 1.11489 29.525 1.10628C30.0755 1.19008 30.6261 1.27389 31.1766 1.35769C31.1766 1.35787 31.1766 1.35805 31.1766 1.35824C33.5005 1.45495 34.4854 1.23913 35.7387 1.19015C47.7372 0.721091 71.3529 1.08821 84.562 1.14107C87.4085 1.15232 96.6678 1.03939 98.6209 1.1755C99.1266 1.21094 99.2672 1.34016 99.8052 1.34579C104.612 1.26894 109.418 1.1921 114.225 1.11526C124.109 1.31604 134.327 1.15022 144.286 1.11928C171.231 1.03548 197.907 0.933627 224.411 0.964559C224.928 0.965183 225.458 0.96476 226 0.963558L227.031 0.957703L227.036 2C227.047 6.82943 227.12 12.5395 227.064 17.0485C227.038 19.1413 226.83 20.0133 226.985 22.7627C226.929 22.7915 226.873 22.8204 226.817 22.8493C226.885 25.2486 227.012 26.7819 227.025 29.4718C227.036 31.7371 227.044 37.7303 227.022 39.732C227.012 40.7703 226.907 40.3835 226.908 41.3514C226.908 41.5438 226.91 41.7617 226.914 42L226.919 42.9085L226 42.9137C224.186 42.9411 221.185 43.0539 219.164 43.0539C217.092 43.0539 213.6 42.9336 212.008 42.951C206.272 43.0129 200.025 43.1913 193.912 43.1435C192.224 43.1299 190.052 42.9945 189.524 42.9983C188.491 43.0061 188.183 43.1377 187.489 43.1546C183.965 43.2401 178.472 43.0838 175.018 43.0776C163.762 43.0573 151.837 43.1147 140.63 43.0906C133.549 43.0754 121.782 43.0985 115.245 42.9996C113.836 42.9782 114.211 42.834 113.028 42.834C111.715 42.8341 111.004 42.9314 110.391 42.9393C106.146 42.9944 96.7734 43.0929 92.7651 42.9933C92.0017 42.9742 91.4478 42.8613 90.9907 42.8617C90.7593 42.8617 90.2366 42.9388 89.5103 42.9466C83.0967 43.0164 78.4205 42.9714 72.1361 42.945C60.1002 42.8949 46.1543 43.0383 33.5105 42.9607C30.7556 42.9439 28.8664 42.7204 28.4791 42.7227C27.629 42.7272 27.0848 42.8775 25.3632 42.9146C19.6387 43.0366 11.9292 42.8762 6.48439 42.9516C5.15307 42.9699 3.57518 43.026 2 43.083L0.923232 43.0891L0.917044 42C0.858872 40.3925 0.799659 38.7879 0.77834 37.4509C0.7446 35.3366 0.819427 30.3434 0.735677 29.4063C0.685078 28.8362 0.522562 28.5724 0.502217 27.8896ZM59.1165 40.968C58.7399 41.2278 62.6983 41.0119 61.2133 40.8724C60.8788 40.841 59.2139 40.9005 59.1165 40.968ZM225.419 23.526C225.345 23.5623 225.271 23.5985 225.197 23.6348C225.227 24.1545 225.258 24.6741 225.289 25.1938C225.334 24.9017 225.378 24.6097 225.423 24.3176C225.422 24.0537 225.42 23.7899 225.419 23.526Z" fill="white"/>
</svg>
