<svg width="441" height="276" viewBox="0 0 441 276" fill="none" xmlns="http://www.w3.org/2000/svg">
<path d="M439.841 101.621C440.087 102.157 439.935 103.05 440.072 103.709C440.605 106.499 440.445 107.588 440.389 110.11C440.351 111.97 440.153 115.722 438.994 118.753C437.887 121.804 436.064 123.94 434.89 123.288C434.89 123.288 434.89 123.288 434.89 123.288C434.866 123.275 434.843 123.262 434.82 123.248C434.386 122.973 434.261 121.97 433.781 121.615C433.3 121.26 429.894 119.702 430.064 118.771C430.396 117.466 432.115 114.488 432.121 113.682C432.164 113.166 431.889 112.505 431.862 111.861C431.752 109.8 431.894 108.629 430.666 107.005C431.014 106.209 431.313 105.367 431.558 104.488C431.067 103.602 431.091 101.954 430.777 101.397C430.531 100.947 430.052 100.859 429.788 100.412C429.606 100.108 429.502 99.627 429.29 99.098C429.29 99.098 429.29 99.098 429.29 99.098C429.153 98.7556 428.972 98.395 428.705 98.0636C427.567 96.6872 426.572 97.142 425.805 96.5007C425.011 95.8489 424.141 94.3402 422.826 93.8619C422.626 93.8568 422.427 93.8549 422.229 93.8561C422.187 94.1303 422.141 94.4029 422.091 94.6738C421.505 94.4141 421.552 93.8348 421.041 93.5208C420.437 93.1571 419.895 93.4295 419.486 93.2257C419.152 93.0595 418.842 92.4886 418.368 92.3244C417.679 92.0897 417.63 92.6812 417.24 92.6536C417.087 92.592 414.349 92.2022 414.196 92.2306C413.357 92.1051 413.122 91.6801 412.677 91.3874C412.468 91.2758 412.226 91.1834 411.901 91.1358C408.586 90.654 405.109 90.9706 402.006 90.9301C400.62 90.9123 399.188 90.739 397.826 90.493C400.164 88.7147 395.518 86.7522 397.031 89.9976C395.543 89.4221 394.386 90.1581 392.951 89.8878C392.023 89.7122 391.413 89.2265 390.075 89.1181C387.701 88.9285 384.998 89.9124 384.512 87.6535C381.693 87.7918 379.352 86.7788 378.175 88.6294C377.446 88.6837 375.709 87.3633 374.918 87.1343C374.17 86.9183 368.372 85.8737 367.419 85.759C366.465 85.6444 364.795 85.463 363.974 85.5612C363.796 85.582 363.621 85.6577 363.447 85.7556C362.652 86.229 361.952 87.2131 360.635 85.208C358.65 85.3415 357.958 85.2836 356.1 85.0871C355.764 85.0543 355.706 84.7069 355.51 84.718C355.104 84.7419 354.436 85.0476 353.723 85.1466C352.554 85.3093 351.788 84.6733 352.061 85.7728C351.317 86.0572 350.583 86.3575 349.859 86.6728C349.558 86.5036 349.253 86.3371 348.946 86.1731C348.582 86.4823 348.224 86.7952 347.873 87.1115C348.01 85.4021 345.36 86.999 346.508 87.6935C344.994 87.7101 343.468 87.7942 341.934 87.9476C341.54 86.0987 338.714 88.8737 339.4 89.7127C339.242 89.7737 339.084 89.8355 338.927 89.898C337.359 90.0075 336.27 90.9351 334.504 91.468C332.733 92.0213 332.804 91.801 331.89 91.3324C331.531 91.5924 331.176 91.8565 330.825 92.1244C330.14 95.3112 328.214 91.647 326.041 95.4635C325.063 95.2505 324.038 95.8463 323.135 96.7261C323.135 96.7261 323.135 96.7261 323.135 96.7261C322.29 97.5464 321.561 98.6069 320.994 99.4548C320.858 99.6592 321.053 99.866 320.888 100.152C320.478 100.837 318.854 102.029 319.582 102.605C318.929 102.923 318.278 103.257 317.631 103.608C317.394 104.144 317.169 104.681 316.952 105.22C317.178 105.397 317.405 105.574 317.631 105.751C316.169 106.002 315.421 107.657 314.746 108.235C314.609 108.351 314.26 108.156 313.868 108.546C313.406 109.001 312.869 110.06 312.375 110.645C312.599 111.123 312.829 111.597 313.065 112.065C312.616 113.322 311.386 113.183 310.937 113.846C310.844 113.959 309.789 116.332 309.769 116.475C309.497 117.607 310.468 117.672 309.132 120.627C308.9 121.157 308.425 121.49 308.247 121.987C307.91 122.866 307.915 125.767 308.578 126.136C307.421 126.986 307.211 129.996 306.849 130.82C306.739 131.056 306.221 131.048 305.97 131.72C305.955 131.764 305.94 131.811 305.927 131.86C305.737 132.555 305.954 134.434 305.762 135.321C305.556 136.262 305.037 136.54 304.948 136.963C304.865 137.361 305.201 137.782 305.127 138.331C304.892 140.043 304.074 141.516 303.887 142.869C303.615 144.826 304.527 146.703 304.819 148.408C304.692 148.805 304.397 149.173 304.339 149.6C303.773 153.753 303.045 158.312 302.307 162.632C302.145 163.51 302.082 164.399 302.112 165.267C302.127 166.14 302.085 167.72 302.492 168.946C302.492 168.946 302.492 168.946 302.492 168.946C302.951 170.368 303.755 171.113 304.57 169.83C304.919 169.975 305.447 171.09 306.251 172.141C307.03 173.204 308.092 174.152 308.485 174.361C309.271 174.798 310.093 174.616 310.725 174.803C310.938 174.866 311.145 174.924 311.349 174.979C313.647 175.578 315.451 176.249 318.509 176.62C319.397 176.727 320.451 176.416 320.961 176.546C321.574 176.705 322.11 177.383 322.899 177.61C324.782 178.146 328.364 178.835 330.166 179.368C330.494 179.466 330.501 179.949 330.942 180.207C332.661 181.212 334.751 181.669 334.736 180.128C334.948 180.265 335.162 180.386 335.377 180.494C337.229 181.458 339.232 181.19 341.099 181.412C345.463 182.074 353.621 182.359 357.339 181.093C357.455 181.057 357.565 181.022 357.669 180.986C359.854 180.275 359.894 179.686 363.617 179.716C363.796 179.717 363.974 179.721 364.155 179.725C364.801 179.749 365.471 179.782 366.248 179.772C368.526 179.747 370.906 180.468 372.209 178.576C374.758 178.294 376.567 177.401 378.79 177.94C378.895 177.575 378.997 177.21 379.095 176.845C379.383 176.727 379.671 176.607 379.957 176.485C380.155 176.72 380.354 176.955 380.554 177.189C382.699 176.421 384.769 174.12 386.418 173.251C389.271 171.913 396.299 167.756 398.815 166.008C400.185 165.13 399.824 164.602 401.374 164.943C401.585 164.634 401.793 164.323 401.998 164.01C401.973 163.65 401.946 163.29 401.915 162.932C403.401 161.519 405.41 160.055 406.705 158.562C409.109 155.861 411.625 151.08 413.853 148.251C414.423 147.547 415.487 146.844 415.904 146.055C416.058 145.764 416.126 145.5 416.154 145.244C416.255 144.457 416.014 143.753 416.601 142.603C417.957 139.951 421.523 135.555 422.754 133.021C423.12 132.268 422.984 131.757 423.218 131.227C424.196 129.006 425.145 127.259 425.732 124.945C427.706 123.164 428.661 123.908 430.084 123.781C431.159 123.683 433.853 123.067 434.675 123.21C435.252 123.31 435.578 124.236 436.238 124.298C435.286 127.172 434.226 128.033 432.335 129.781C430.286 133.765 428.238 137.748 426.19 141.732C425.704 141.938 425.218 142.143 424.732 142.349C424.731 142.348 424.73 142.348 424.73 142.347C423.589 143.692 424.015 144.738 423.758 145.651C423.491 146.597 423.143 147.615 422.729 148.688C419.337 158.234 407.801 169.602 400.187 174.544C398.452 175.891 392.566 180.09 390.927 180.255C390.515 180.315 390.178 179.909 389.803 180.081C386.679 182.061 383.391 183.824 379.97 185.343C375.156 186.477 370.341 187.743 365.406 188.602C363.232 188.984 361.063 189.382 358.903 189.741C358.425 189.82 357.946 189.892 357.467 189.957C349.44 191.047 341.224 190.69 333.337 188.891C325.296 187.067 317.289 185.223 309.324 183.316C304.499 182.174 300.172 179.11 297.496 174.957C296.87 173.992 296.269 172.92 295.756 171.762C295.756 171.762 295.756 171.762 295.756 171.762C294.34 168.644 293.731 164.82 294.257 161.59C294.326 161.16 294.401 160.742 294.481 160.339C294.782 158.815 295.688 158.282 295.336 156.184C295.561 156.192 295.785 156.199 296.01 156.207C295.97 154.411 295.611 153.22 295.816 151.238C295.989 149.57 296.525 145.166 296.8 143.707C296.942 142.951 297.319 143.288 297.409 142.577C297.56 141.36 297.324 138.686 297.541 137.008C297.738 135.487 298.547 132.985 298.629 131.807C298.654 131.467 298.675 131.124 298.694 130.778C298.942 126.561 299.435 121.908 301.142 117.725C301.648 116.466 302.811 115.074 302.964 114.688C303.258 113.925 302.88 113.487 303.049 112.953C303.895 110.218 306.616 106.667 308.195 104.433C311.259 99.974 314.962 95.7083 319.179 92.0766C321.944 89.6901 324.922 87.5768 328.002 85.8276C332.83 82.8907 341.706 79.5213 346.914 79.0544C348.028 78.9259 347.838 79.5489 348.752 79.3901C349.765 79.2206 350.264 78.7606 350.74 78.6642C353.841 77.941 360.757 77.3992 364.131 78.105C364.3 78.1364 364.459 78.169 364.608 78.2027C365.164 78.3292 365.533 78.8157 365.87 78.8442C366.04 78.8595 366.453 78.5869 366.992 78.6034C371.745 78.7485 375.177 79.236 379.801 79.7558C388.657 80.749 398.991 81.0974 408.286 82.2404C410.311 82.4893 411.624 83.504 411.91 83.5206C412.374 83.5488 412.743 83.2496 413.42 83.0772C413.695 83.019 414.014 82.9808 414.401 82.9896C419.41 82.9917 425.405 86.3708 429.031 89.2161C430.894 90.5443 433.639 92.441 435.092 94.3314C435.255 94.5367 435.435 94.7895 435.623 95.0775C435.623 95.0775 435.623 95.0775 435.623 95.0775C436.845 96.8434 438.03 100.031 438.513 100.619C438.876 101.027 439.571 101.044 439.841 101.621ZM388.696 88.491C389.066 87.4806 386.071 88.0799 387.116 88.7335C387.351 88.8807 388.6 88.7533 388.696 88.491ZM301.62 156.428C301.918 156.439 302.216 156.451 302.514 156.462C302.44 156.065 302.367 155.668 302.294 155.27C302.089 155.462 301.885 155.653 301.68 155.845C301.66 156.039 301.64 156.234 301.62 156.428Z" fill="white"/>
<path d="M24.2647 125.785C23.7892 125.72 23.125 126.119 22.5656 126.148C22.0877 126.173 21.6714 126.205 21.2934 126.241C20.2969 126.299 19.4514 126.482 18.665 126.737C18.665 126.737 18.665 126.737 18.665 126.737C17.2765 127.216 15.9135 127.856 14.3163 129.279C11.8323 131.104 9.16268 137.187 11.5889 141.842C12.6477 144.145 14.6411 145.721 16.1775 146.225C17.7316 146.752 18.7353 146.467 18.9241 145.837C18.9241 145.836 18.9241 145.836 18.9242 145.836C18.932 145.811 18.9387 145.785 18.9443 145.758C19.0253 145.26 18.2629 144.365 18.4207 143.775C18.5857 143.202 20.1571 139.808 20.0188 139.44C19.8702 139.153 19.4487 138.968 19.0806 138.471C18.7077 137.998 18.5315 137.307 18.602 137.093C18.6879 136.781 19.1297 136.554 19.3364 136.331C19.8523 135.789 20.2171 135.483 20.9438 135.644C20.9438 135.644 20.9438 135.644 20.9438 135.644C21.1174 135.709 21.294 135.834 21.4357 136.039C21.4501 136.044 21.4645 136.05 21.479 136.056C22.3579 135.554 23.2367 135.051 24.1156 134.549C25.2748 134.759 27.0174 134.088 27.7202 134.113C28.2967 134.134 28.64 134.516 29.2407 134.526C29.9145 134.538 30.9428 134.106 32.1687 134.151C34.1785 134.223 34.5505 135.227 35.7574 135.338C37.0089 135.452 38.9442 134.875 40.5437 135.208C40.7453 135.316 40.9469 135.424 41.1485 135.532C41.0089 135.785 40.8692 136.039 40.7296 136.292C41.5344 136.397 41.8723 135.877 42.6101 135.857C43.4781 135.833 43.9282 136.315 44.5124 136.304C44.991 136.295 45.6342 135.894 46.2552 135.91C47.1604 135.93 46.9708 136.498 47.4592 136.597C47.6541 136.635 51.2501 136.895 51.4527 136.896C52.994 136.896 53.117 136.121 54.3448 136.036C57.7501 135.802 61.2577 136.376 64.4136 136.566C65.8228 136.651 67.2908 136.585 68.6926 136.441C66.4531 134.494 71.3233 132.882 69.5385 136.006C71.0938 135.543 72.2132 136.363 73.6916 136.2C74.6477 136.094 75.3042 135.655 76.6716 135.646C79.098 135.633 81.7694 136.816 82.4351 134.599C85.2887 134.947 87.7437 134.11 88.7984 136.043C89.5346 136.152 91.3997 134.964 92.2211 134.795C92.9979 134.635 98.9672 134.024 99.9446 133.981C100.922 133.937 102.633 133.88 103.459 134.039C104.497 134.236 105.249 136.245 107.057 133.857C109.201 134.017 109.963 133.938 111.951 133.635C112.311 133.58 112.347 133.229 112.557 133.225C112.991 133.219 113.734 133.467 114.509 133.488C115.783 133.521 116.5 132.773 116.374 133.902C117.217 134.078 118.059 134.255 118.902 134.432C119.194 134.21 119.485 133.988 119.777 133.766C120.229 133.997 120.682 134.227 121.134 134.458C120.583 132.835 123.757 133.751 122.745 134.702C124.368 134.341 125.991 133.98 127.615 133.619C127.36 131.769 131.186 133.353 130.881 134.365C131.067 134.361 131.253 134.357 131.44 134.353C133.064 133.837 134.567 134.218 136.55 133.858C137.61 133.666 138.05 133.526 138.32 133.305C138.548 133.114 138.651 132.861 138.923 132.462C139.381 132.506 139.839 132.554 140.296 132.605C142.646 134.975 142.326 130.878 146.369 132.886C147.772 131.49 150.993 132.534 153.058 133.252C153.3 133.335 153.268 133.618 153.586 133.748C153.798 133.833 154.107 133.889 154.442 133.945C155.358 134.097 156.458 134.237 156.314 134.893C157.078 134.73 157.842 134.567 158.606 134.404C159.178 134.652 159.75 134.9 160.322 135.147C160.28 135.431 160.238 135.715 160.195 135.999C161.527 135.196 163.358 135.828 164.318 135.725C164.509 135.703 164.604 135.317 165.193 135.289C165.881 135.255 167.116 135.544 167.933 135.532C168.184 136.009 168.435 136.487 168.686 136.964C170.083 137.398 170.745 136.32 171.597 136.347C171.75 136.352 174.498 136.816 174.643 136.861C175.834 137.223 175.354 138.153 178.902 138.43C179.535 138.479 180.088 138.211 180.657 138.276C181.661 138.389 184.571 139.573 184.71 140.314C186.046 139.595 189.244 140.407 190.236 140.283C190.535 140.244 190.679 139.688 191.583 139.69C192.034 139.691 192.885 139.959 193.688 140.178C194.004 140.288 194.29 140.406 194.511 140.438C195.112 140.528 195.511 140.196 195.802 140.294C196.075 140.394 196.112 140.854 196.413 141.051C196.998 141.433 197.647 141.717 198.207 142.12C198.666 142.511 199.092 142.893 199.428 143.308C200.633 144.791 200.885 146.763 201.466 148.357C201.451 148.384 201.435 148.408 201.419 148.43C201.5 148.415 201.742 148.343 201.768 148.402C201.904 148.681 201.821 149.209 201.411 149.428C201.411 149.428 201.411 149.428 201.411 149.428C201.33 149.476 201.239 149.512 201.141 149.533C198.487 149.722 195.844 149.932 193.345 150.144C190.827 150.356 184.617 152.156 186.188 149.499C185.294 149.08 178.962 150.376 177.751 150.439C176.54 150.503 175.56 150.076 174.608 150.107C171.732 150.2 169.721 150.615 166.206 150.348C165.298 150.278 164.308 149.765 163.773 149.793C163.129 149.827 162.456 150.387 161.623 150.454C159.635 150.609 155.918 150.58 154.012 150.748C153.664 150.779 153.56 151.252 153.067 151.417C151.148 152.065 148.969 152.101 149.295 150.594C146.84 151.539 144.506 150.857 142.198 150.901C140.825 150.928 139.138 151.002 137.325 151.085L137.632 151.083C132.994 151.006 127.54 150.935 124.494 150.414C121.823 149.956 121.907 149.288 117.947 149.776C117.068 149.884 116.192 150.037 115.125 150.165C112.627 150.468 110.313 151.653 108.449 150.119C105.674 150.442 103.477 150.117 101.395 151.346C101.16 151.034 100.925 150.723 100.691 150.411C100.352 150.396 100.013 150.381 99.6736 150.365C99.5611 150.655 99.4487 150.944 99.3362 151.233C96.9048 151.256 93.8499 149.987 91.7932 149.948C88.3448 149.883 79.4532 150.145 76.1746 150.464C74.434 150.633 74.3549 150.006 73.3317 151.268C72.9455 151.169 72.5593 151.071 72.1731 150.973C71.9365 150.686 71.7 150.4 71.4635 150.113C69.2368 150.051 66.5854 150.427 64.4639 150.374C62.3624 150.321 59.693 150.029 57.0686 149.84C55.9855 149.743 54.9467 149.518 54.0025 149.282C53.3842 149.117 52.7875 148.981 52.2221 148.884C51.2541 148.718 49.9199 148.912 49.0111 148.623C47.6883 148.204 47.6511 147.185 45.9744 146.646C43.0841 145.719 37.3541 145.114 34.6393 144.183C33.8328 143.907 33.5591 143.447 33.0085 143.236C30.7007 142.349 28.7575 141.777 26.6618 140.548C23.9626 140.677 23.8196 141.879 22.7121 142.793C21.8738 143.483 19.5044 144.948 19.0212 145.63C18.6818 146.108 19.1198 146.996 18.6938 147.506C21.4553 148.876 22.8363 148.739 25.4524 148.645C29.801 150.03 34.1496 151.414 38.4982 152.798C38.9941 152.601 39.4899 152.403 39.9857 152.206C39.9859 152.205 39.9861 152.205 39.9864 152.204C41.7748 152.353 42.2287 153.398 43.0734 153.865C45.292 155.092 48.2149 156.273 51.4864 157.398C53.1637 157.964 54.9962 158.296 56.874 158.336C65.0676 158.512 74.166 158.116 80.2897 158.126C82.4368 158.13 89.4075 158.742 90.8924 158.231C91.2769 158.098 91.3948 157.584 91.8009 157.571C95.4177 157.961 99.0344 158.351 102.651 158.741C110.121 158.109 117.81 158.949 125.316 159.244C129.363 159.404 133.402 159.566 137.434 159.726L137.666 159.724C153.872 159.357 169.957 158.965 185.945 158.235C189.804 158.058 194.717 158.251 198.486 157.853C199.665 157.729 200.311 157.217 201.443 157.195C202.112 157.173 202.872 157.14 203.816 156.999C203.784 156.774 203.75 156.55 203.713 156.327C203.829 156.298 203.943 156.268 204.056 156.237C204.056 156.237 204.056 156.237 204.056 156.237C206.687 155.427 208.911 154.011 209.847 150.537C210.316 148.955 210.139 145.396 208.133 143.041C207.256 141.94 206.41 140.902 205.945 140.381C205.423 139.796 205.278 140.284 204.825 139.712C204.488 139.285 204.068 138.581 203.613 137.81C202.755 136.451 201.469 135.113 200.278 134.391C198.91 133.501 196.522 132.862 194.712 132.765C194.221 132.739 193.789 132.702 193.467 132.638C189.216 131.801 184.646 130.449 180.054 130.007C178.786 129.887 177.089 130.199 176.696 130.13C175.929 129.992 175.771 129.439 175.262 129.3C172.676 128.597 168.487 128.65 165.903 128.318C162.464 127.876 158.949 127.371 155.422 126.856C150.113 126.081 144.713 125.672 139.513 125.748C139.098 125.753 138.663 125.761 138.21 125.77C132.82 125.887 124.883 125.95 120.327 126.383C119.265 126.484 119.557 127.056 118.664 127.069C117.675 127.083 117.133 126.702 116.67 126.677C113.466 126.503 106.393 126.212 103.376 126.654C102.802 126.739 102.39 127.197 102.046 127.2C101.871 127.203 101.473 126.9 100.924 126.876C96.0843 126.668 92.5607 126.899 87.8235 127.073C78.7506 127.405 68.2263 126.985 58.6966 127.434C56.6203 127.531 55.2088 128.445 54.9165 128.441C54.2753 128.432 53.8562 127.837 52.5558 127.707C48.2321 127.282 42.428 128.008 38.318 127.766C36.2874 127.647 33.4891 126.925 31.4905 126.785C29.8943 126.673 26.1335 127.027 25.4219 126.702C24.9891 126.506 24.7808 125.859 24.2647 125.785ZM78.1209 135.123C77.8217 134.088 80.8192 134.908 79.7075 135.482C79.4571 135.612 78.1982 135.392 78.1209 135.123ZM202.167 150.931C202.056 150.655 201.941 150.381 201.821 150.109C201.998 150.162 202.187 150.19 202.388 150.184C202.433 150.379 202.456 150.584 202.451 150.796C202.36 150.846 202.266 150.891 202.167 150.931Z" fill="white"/>
<path d="M134.226 261.096C134.383 261.402 134.129 261.961 134.211 262.349C134.552 263.977 134.45 264.641 134.689 266.133C135.044 268.344 137.242 274.602 134.63 275.299C134.63 275.299 134.63 275.299 134.63 275.299C134.604 275.306 134.578 275.312 134.551 275.318C134.048 275.428 133.36 275.029 132.775 275.099C132.191 275.168 128.572 276.198 128.162 275.48C127.595 274.433 127.811 271.5 127.61 270.914C127.473 270.513 127.009 270.099 126.811 269.593C126.173 267.961 126.18 267.016 124.878 265.739C125.189 265.007 125.501 264.274 125.812 263.542C125.382 262.809 125.686 261.444 125.523 260.973C125.39 260.586 124.954 260.454 124.827 260.048C124.683 259.593 124.898 258.777 124.614 257.955C124.149 256.607 123.108 256.622 122.765 255.831C122.408 255.01 122.584 253.539 121.95 252.539C121.806 252.431 121.662 252.322 121.518 252.214C121.302 252.377 121.085 252.54 120.868 252.702C120.609 252.183 121.043 251.814 120.918 251.307C120.77 250.709 120.218 250.532 120.113 250.132C120.028 249.804 120.288 249.259 120.151 248.84C119.953 248.23 119.443 248.511 119.252 248.205C119.177 248.082 118.22 245.705 118.179 245.567C117.876 244.518 118.599 244.227 118.44 243.369C117.997 240.989 116.754 238.756 115.951 236.659C115.592 235.723 115.367 234.706 115.231 233.714C117.547 234.717 118.143 230.971 115.484 233.022C115.624 231.839 114.614 231.297 114.481 230.247C114.395 229.568 114.689 229.004 114.429 228.071C113.964 226.417 112.3 224.915 114.305 223.869C113.41 222.02 113.733 220.126 111.663 219.925C111.414 219.453 112.192 217.866 112.194 217.262C112.195 216.691 111.611 212.465 111.461 211.788C111.311 211.112 111.029 209.932 110.714 209.413C110.32 208.759 108.236 208.785 110.183 206.916C109.607 205.499 109.533 204.959 109.435 203.525C109.417 203.266 109.748 203.148 109.71 203.003C109.632 202.711 109.258 202.281 109.082 201.77L109.048 200.356C109.049 200.348 109.05 200.339 109.052 200.331C109.191 199.438 110.021 199.09 108.898 198.951C108.839 198.329 108.779 197.708 108.72 197.087C108.976 196.929 109.233 196.77 109.489 196.612C109.325 196.251 109.16 195.89 108.995 195.53C110.511 196.238 110.041 193.847 108.973 194.361C109.546 193.304 110.119 192.248 110.691 191.192C112.47 191.739 111.434 188.761 110.401 188.771C110.43 188.642 110.459 188.514 110.488 188.385C111.213 187.359 111.043 186.237 111.663 184.93C112.282 183.624 112.431 183.791 113.355 183.552C113.377 183.218 113.399 182.883 113.421 182.549C111.502 180.357 115.393 181.51 114.267 178.222C115.904 177.602 115.643 175.147 115.535 173.533C115.523 173.346 115.244 173.282 115.209 173.028C115.127 172.408 115.801 171.016 114.891 170.872C115.261 170.42 115.631 169.967 116.001 169.515C115.927 169.064 115.853 168.613 115.779 168.162C115.498 168.103 115.217 168.045 114.935 167.987C116.072 167.356 115.988 165.961 116.357 165.361C116.431 165.242 116.824 165.298 117.016 164.919C117.242 164.477 117.316 163.578 117.558 163.045C117.175 162.735 116.793 162.426 116.411 162.116C116.394 161.066 117.602 160.958 117.816 160.39C117.854 160.288 118.188 158.342 118.186 158.233C118.178 157.341 117.162 157.374 117.898 154.959C118.03 154.529 118.44 154.246 118.539 153.853C118.714 153.159 118.411 150.888 117.747 150.572C118.805 149.912 118.936 147.565 119.333 146.951C119.454 146.766 120.022 146.84 120.274 146.246C120.415 145.915 120.38 145.155 120.413 144.51L120.43 146.129C120.319 145.865 120.23 145.611 120.206 145.407C120.127 144.713 120.532 144.343 120.497 144.046C120.461 143.758 120.023 143.585 119.932 143.19C119.659 141.972 120.004 140.717 119.793 139.765C119.483 138.359 118.081 137.39 117.319 136.353C117.324 136.048 117.497 135.707 117.428 135.401C116.595 131.65 115.828 127.366 115.216 123.552C114.929 121.78 115.472 117.093 113.201 118.82C112.621 118.315 112.658 113.659 112.491 112.814C112.32 111.964 111.724 111.41 111.57 110.739C111.12 108.76 111.138 107.256 110.228 104.907C109.989 104.288 109.314 103.748 109.24 103.36C109.153 102.9 109.574 102.304 109.49 101.726C109.274 100.301 108.583 97.7282 108.42 96.3506C108.391 96.0959 108.834 95.921 108.914 95.5476C109.215 94.0508 108.913 92.497 107.485 93.0178C107.81 91.7444 107.552 90.9718 107.347 89.2084C107.263 88.1331 107.207 87.505 107.256 86.7594C107.532 83.095 108.727 76.9528 108.516 73.8547C108.377 71.9621 107.717 71.8385 108.67 69.1846C108.883 68.5852 109.145 67.9673 109.398 67.2643C109.998 65.5745 111.453 64.1294 110.164 62.592C110.827 60.6696 110.769 59.133 112.241 57.8458C111.962 57.6346 111.683 57.4231 111.405 57.2113C111.431 56.974 111.457 56.7361 111.484 56.4977C111.783 56.4649 112.082 56.432 112.382 56.3991C112.704 54.696 111.825 52.3771 112.042 50.9254C112.401 48.514 113.756 42.3414 114.473 40.1075C114.854 38.9237 114.245 38.7639 115.617 38.2488C115.567 37.9635 115.518 37.6785 115.468 37.3938C115.214 37.1837 114.96 36.9738 114.706 36.764C114.916 35.2135 115.615 33.399 115.82 31.9272C116.2 29.191 116.002 25.0561 116.888 22.3796C117.108 21.7282 117.803 20.9452 117.889 20.27C118.016 19.2882 117.092 18.9451 117.245 17.7021C117.511 15.5597 119.152 11.7536 119.326 9.74818C119.376 9.17551 119.062 8.80546 119.077 8.39327C119.132 6.67417 119.337 5.27802 118.985 3.53015C120.093 1.97436 121.27 2.12456 122.519 1.74563C123.459 1.50947 125.687 0.284791 126.485 0.227503C127.051 0.150199 127.727 0.672398 128.354 0.551452C128.631 2.89971 127.986 3.66071 126.914 5.3822C126.555 8.64888 126.168 11.8359 125.77 15.0489C125.398 15.2995 125.026 15.5526 124.653 15.8081C124.652 15.808 124.652 15.8079 124.651 15.8078C124.103 16.9682 124.887 17.6048 124.989 18.3044C125.981 24.9217 122.744 37.2336 121.532 44.1879C121.272 45.6868 121.016 50.6555 120.331 51.6016C120.152 51.849 119.63 51.8517 119.566 52.1342C119.506 54.7242 119.447 57.3064 119.389 59.8921C117.848 65.0152 117.742 70.4938 117.145 75.7753C116.649 80.3323 116.016 85.4783 115.853 89.2084C117.128 97.2204 119.724 107.41 121.619 116.511C122.19 119.181 123.333 122.476 123.684 125.138C123.832 126.252 123.125 126.884 124.058 128.18C123.843 128.245 123.628 128.31 123.414 128.375C123.962 129.553 124.644 130.248 125.016 131.631C125.329 132.797 126.086 135.909 126.245 136.963C126.327 137.502 125.875 137.405 125.995 137.911C126.204 138.774 127.194 140.467 127.477 141.666C127.646 142.381 127.689 143.522 127.771 144.388L127.788 146.098C127.641 146.506 127.526 146.873 127.49 147.147C127.087 150.194 127.081 153.606 126.207 156.757C125.964 157.627 125.19 158.647 125.146 158.926C125.06 159.472 125.54 159.744 125.528 160.12C125.466 162.032 124.237 164.769 123.824 166.567C122.479 172.427 121.363 178.701 120.008 184.533C119.152 188.217 117.919 194.38 116.797 197.71C116.555 198.428 116.033 198.11 115.9 198.728C115.753 199.413 116.054 199.867 116.015 200.193C115.964 200.642 115.896 201.196 115.814 201.814L115.769 199.987C116.611 202.362 117.712 205.752 117.846 207.493C117.877 207.907 117.516 208.309 117.581 208.545C117.613 208.664 117.983 208.854 118.113 209.221C119.265 212.459 119.735 214.918 120.497 218.189C121.96 224.452 124.433 231.501 125.873 238.106C126.187 239.545 125.584 240.75 125.646 240.948C125.78 241.382 126.436 241.508 126.816 242.358C128.075 245.186 128.516 249.33 129.557 252.063C130.07 253.412 131.316 255.124 131.844 256.446C132.265 257.502 132.663 260.156 133.115 260.554C133.389 260.796 134.054 260.764 134.226 261.096ZM114.648 226.945C115.704 226.872 114.325 225.052 113.99 225.962C113.915 226.167 114.374 226.964 114.648 226.945ZM118.045 129.979C117.76 130.064 117.475 130.149 117.19 130.235C117.372 130.477 117.554 130.717 117.737 130.964C117.876 130.771 118.014 130.576 118.154 130.386C118.117 130.25 118.081 130.115 118.045 129.979Z" fill="white"/>
</svg>
