<svg width="543" height="255" viewBox="0 0 543 255" fill="none" xmlns="http://www.w3.org/2000/svg">
<path d="M251.926 88.7231C252.291 89.6324 252.315 91.0459 252.611 92.1482C253.822 96.7849 253.957 98.5619 254.676 102.819C256.116 109.062 257.698 128.023 254.722 128C254.722 128 254.722 128 254.721 128C254.695 128 254.668 127.998 254.641 127.995C254.128 127.926 253.556 126.352 252.968 126.131C252.378 125.912 248.634 126.125 248.36 124.007C248.049 120.943 248.31 113.443 247.989 111.795C247.81 110.675 247.269 109.35 246.968 107.93C245.981 103.385 245.68 100.921 243.727 97.121C243.768 95.3804 243.772 93.6354 243.736 91.8809C242.871 89.8413 242.371 86.4945 241.851 85.2429C241.433 84.2214 240.838 83.7622 240.394 82.7101C239.894 81.5353 239.516 79.5459 238.479 77.4453C236.764 74.0139 235.523 73.8705 234.359 71.9172C233.145 69.8958 231.794 66.4232 229.868 64.0599C229.572 63.7994 229.275 63.5409 228.977 63.2843C228.913 63.6475 228.847 64.0099 228.779 64.3713C227.871 63.1671 227.945 62.3453 227.175 61.1889C226.264 59.8301 225.382 59.4345 224.745 58.5465C224.223 57.8194 223.814 56.6076 223.083 55.695C222.018 54.3682 221.798 55.0134 221.151 54.3653C220.927 54.0742 216.356 49.1665 216.067 48.924C214.117 46.8215 214.498 46.1142 212.932 44.4185C208.562 39.7309 203.135 35.929 198.259 32.6585C196.081 31.1919 193.848 29.6137 191.702 28.1081C196.299 28.675 189.254 22.4346 190.575 26.9056C188.307 24.9998 186.079 24.6962 183.713 23.2793C182.176 22.3689 181.26 21.4129 178.937 20.3281C174.791 18.385 169.746 17.7861 169.256 15.2744C164.086 13.8084 159.764 11.8397 157.42 13.2625C156.082 13.0349 152.882 11.129 151.383 10.6921C150.011 10.1332 138.85 8.11284 136.981 8.09703C135.121 7.92756 131.891 7.76857 130.319 7.92594C129.681 7.98504 129.104 8.23908 128.5 8.47656C127.232 8.97543 125.888 9.38801 123.477 7.88508C119.421 8.26794 117.999 8.32233 114.197 8.47185C113.51 8.50391 113.39 8.16658 112.991 8.21682C112.167 8.32183 110.822 8.76683 109.367 9.03166C106.981 9.4672 105.491 9.02013 105.966 10.0734C104.445 10.5544 102.922 11.0684 101.423 11.6097C100.833 11.5231 100.241 11.4409 99.648 11.3631C98.8811 11.7964 98.1177 12.238 97.3604 12.6875C97.8936 10.8287 92.3834 13.413 94.5231 13.7687C91.4952 14.3159 88.475 14.9847 85.4687 15.7768C85.1865 13.849 79.0804 18.1564 80.089 18.8611C79.7675 19.0023 79.4468 19.1449 79.1268 19.2888C76.1264 20.119 73.7595 21.7349 70.3211 23.2634C66.8832 24.8259 67.1149 24.5264 65.683 24.3846C64.9431 24.8913 64.2097 25.4056 63.4828 25.9275C60.8913 30.4472 59.1875 26.5405 53.8439 32.8695C50.8952 33.2744 46.495 38.0311 43.8442 41.3024C43.5313 41.6811 43.7248 41.8899 43.3267 42.409C42.3402 43.6597 39.3055 46.3593 40.0862 46.8865C38.9493 47.7316 37.8242 48.5992 36.7111 49.4902C36.0936 50.4686 35.4911 51.4544 34.905 52.4456C35.1319 52.6215 35.3588 52.7976 35.5856 52.9736C33.3781 54.1273 31.5048 57.2523 30.2997 58.5692C30.0572 58.8313 29.6868 58.6629 28.9685 59.5113C28.1234 60.5022 26.8947 62.5724 25.9752 63.8154C26.0283 64.5563 26.0884 65.2944 26.1558 66.0289C24.9576 68.4783 23.4924 68.7457 22.6292 70.1204C22.4497 70.3552 20.0919 75.1012 20.0146 75.3832C19.2069 77.5869 20.2612 77.3506 17.5003 83.4519C17.021 84.544 16.3552 85.3252 15.9648 86.3382C15.2367 88.1132 14.2149 93.8403 14.8103 94.4618C13.259 96.401 12.1506 102.493 11.5781 104.231C11.3941 104.752 10.8025 104.758 10.3758 106.405C10.019 107.744 9.92367 111.313 9.64718 113.027C9.33962 114.849 8.80202 115.472 8.68666 116.29C8.58052 117.068 8.90116 117.821 8.8184 118.885C8.55472 122.222 7.84483 125.201 7.83024 127.878C7.83001 127.919 7.82993 127.959 7.82999 128C7.83834 131.815 9.13014 135.09 9.89328 138.164C9.88548 138.952 9.71242 139.737 9.79624 140.562C10.7795 150.738 13.3013 162.05 16.8703 171.709C18.3253 176.233 22.4633 187.567 23.3032 183.516C24.329 184.818 29.6818 195.572 31.1551 197.38C32.4746 199.252 33.9442 200.413 35.0583 201.812C38.4485 206.01 40.7232 209.133 45.7082 213.455C47.0023 214.564 48.7117 215.387 49.4508 216.057C50.3398 216.868 50.9672 218.126 52.1492 219.162C54.9373 221.663 60.6509 225.669 63.6281 227.663C64.1669 228.034 64.1058 228.553 64.824 229.181C67.6176 231.638 71.2882 233.575 71.363 231.912C75.0499 234.909 79.3311 236.085 83.3275 237.684C91.6949 241.35 107.928 245.62 115.953 245.556C120.968 245.611 120.848 245.03 128.177 245.725C128.284 245.734 128.392 245.743 128.5 245.751C130.032 245.876 131.578 246.011 133.429 246.079C138.07 246.252 142.534 247.019 145.836 245.025C151.023 244.647 154.969 243.488 159.025 243.747C159.39 243.334 159.751 242.92 160.107 242.505C160.719 242.329 161.328 242.148 161.935 241.962C162.207 242.186 162.48 242.41 162.755 242.632C167.201 241.412 172.22 238.254 175.722 236.715C181.773 234.441 196.345 226.318 201.31 222.601C204.024 220.75 203.739 220.145 206.01 219.924C206.516 219.38 207.016 218.833 207.51 218.281C207.671 217.766 207.828 217.252 207.98 216.737C211.096 213.946 214.92 210.723 217.584 207.724C222.538 202.32 228.298 192.999 232.258 186.868C233.278 185.341 234.874 183.589 235.681 181.969C236.846 179.606 236.26 178.629 237.583 175.602C239.935 170.442 244.334 160.637 245.377 155.269C245.716 153.691 245.52 152.875 245.703 151.781C246.451 147.198 247.023 143.4 246.884 138.923C248.198 134.257 249.3 134.685 250.583 133.244C251.551 132.158 253.713 128.6 254.495 128.063C255.054 127.696 255.768 129.069 256.384 128.557C256.805 134.712 256.059 137.31 254.694 142.133C253.722 151.226 251.762 160.22 248.849 168.897C248.264 169.578 247.674 170.248 247.078 170.91C247.077 170.909 247.076 170.909 247.076 170.909C245.516 174.048 245.743 175.719 245.19 177.542C240.824 195.667 216.396 223.724 198.952 233.605C195.481 236.137 183.339 243.221 180.336 243.752C179.58 243.934 179.179 243.547 178.428 243.847C171.927 246.988 165.129 249.576 158.13 251.564C148.453 253.338 138.506 254.62 128.5 254.787C123.287 254.875 118.111 254.666 112.985 254.084C72.3631 249.752 35.0436 224.302 16.1532 188.636C12.4288 181.814 8.24805 172.787 6.30467 165.388C5.49265 162.311 5.92118 160.824 4.35906 156.929C4.56701 156.836 4.77502 156.743 4.9831 156.65C3.91785 153.172 2.97051 150.998 2.29935 146.954C1.66364 143.585 0.865297 134.471 0.956029 131.451C0.962319 129.873 1.39086 130.454 1.37248 128.986C1.36947 128.693 1.35947 128.363 1.34508 128C1.22001 125.241 0.936576 120.693 1.20046 117.617C1.42493 114.486 2.58506 109.28 2.93782 106.895C4.10523 98.2991 5.9474 88.8487 9.62096 80.2601C10.6205 77.8894 12.4774 75.0906 12.8049 74.3653C13.438 72.9344 13.1709 72.2866 13.5779 71.3049C15.6082 66.2978 20.4339 59.3745 23.4912 55.1206C33.2754 41.0827 46.5357 28.1889 61.1244 19.3096C70.1691 13.4218 86.7921 6.35359 96.6026 4.52543C98.693 4.08501 98.2766 4.78324 100.016 4.37574C101.946 3.93509 102.93 3.34381 103.83 3.13307C109.497 1.6727 121.714 0.0541942 128.5 0.436127C129.189 0.460107 129.82 0.495528 130.38 0.540281C131.54 0.633905 132.364 1.11113 133.051 1.13342C133.4 1.14592 134.196 0.865715 135.297 0.891906C145.016 1.18883 152.067 2.49203 161.252 4.97465C178.837 9.68508 198.298 19.218 212.453 32.2474C215.551 35.059 216.94 37.7239 217.361 38.1202C218.278 39.0091 219.293 39.1568 221.191 40.9501C227.566 46.8922 234.056 56.711 238.398 63.6999C240.601 67.1223 243.861 71.7809 245.657 75.4142C247.172 78.2917 249.587 85.5342 250.311 86.7982C250.781 87.56 251.527 87.7423 251.926 88.7231ZM176.653 18.7373C177.571 17.9779 172.026 16.5928 173.768 17.9224C174.157 18.2114 176.418 18.9224 176.653 18.7373ZM10.2157 154.439C10.4941 154.324 10.7726 154.208 11.0513 154.094C10.77 153.394 10.4939 152.685 10.2258 151.98C10.1332 152.424 10.0445 152.876 9.95756 153.325C10.0419 153.697 10.1279 154.069 10.2157 154.439Z" fill="white"/>
<path d="M537.926 88.7231C538.291 89.6324 538.315 91.0459 538.611 92.1482C539.822 96.7849 539.957 98.5619 540.676 102.819C542.116 109.062 543.698 128.023 540.722 128C540.722 128 540.722 128 540.721 128C540.695 128 540.668 127.998 540.641 127.995C540.128 127.926 539.556 126.352 538.968 126.131C538.378 125.912 534.634 126.125 534.36 124.007C534.049 120.943 534.31 113.443 533.989 111.795C533.81 110.675 533.269 109.35 532.968 107.93C531.981 103.385 531.68 100.921 529.727 97.121C529.768 95.3804 529.772 93.6354 529.736 91.8809C528.871 89.8413 528.371 86.4945 527.851 85.2429C527.433 84.2214 526.838 83.7622 526.394 82.7101C525.894 81.5353 525.516 79.5459 524.479 77.4453C522.764 74.0139 521.523 73.8705 520.359 71.9172C519.145 69.8958 517.794 66.4232 515.868 64.0599C515.572 63.7994 515.275 63.5409 514.977 63.2843C514.913 63.6475 514.847 64.0099 514.779 64.3713C513.871 63.1671 513.945 62.3453 513.175 61.1889C512.264 59.8301 511.382 59.4345 510.745 58.5465C510.223 57.8194 509.814 56.6076 509.083 55.695C508.018 54.3682 507.798 55.0134 507.151 54.3653C506.927 54.0742 502.356 49.1665 502.067 48.924C500.117 46.8215 500.498 46.1142 498.932 44.4185C494.562 39.7309 489.135 35.929 484.259 32.6585C482.081 31.1919 479.848 29.6137 477.702 28.1081C482.299 28.675 475.254 22.4346 476.575 26.9056C474.307 24.9998 472.079 24.6962 469.713 23.2793C468.176 22.3689 467.26 21.4129 464.937 20.3281C460.791 18.385 455.746 17.7861 455.256 15.2744C450.086 13.8084 445.764 11.8397 443.42 13.2625C442.082 13.0349 438.882 11.129 437.383 10.6921C436.011 10.1332 424.85 8.11284 422.981 8.09703C421.121 7.92756 417.891 7.76857 416.319 7.92594C415.681 7.98504 415.104 8.23908 414.5 8.47656C413.232 8.97543 411.888 9.38801 409.477 7.88508C405.421 8.26794 403.999 8.32233 400.197 8.47185C399.51 8.50391 399.39 8.16658 398.991 8.21682C398.167 8.32183 396.822 8.76683 395.367 9.03166C392.981 9.4672 391.491 9.02013 391.966 10.0734C390.445 10.5544 388.922 11.0684 387.423 11.6097C386.833 11.5231 386.241 11.4409 385.648 11.3631C384.881 11.7964 384.118 12.238 383.36 12.6875C383.894 10.8287 378.383 13.413 380.523 13.7687C377.495 14.3159 374.475 14.9847 371.469 15.7768C371.186 13.849 365.08 18.1564 366.089 18.8611C365.768 19.0023 365.447 19.1449 365.127 19.2888C362.126 20.119 359.759 21.7349 356.321 23.2634C352.883 24.8259 353.115 24.5264 351.683 24.3846C350.943 24.8913 350.21 25.4056 349.483 25.9275C346.891 30.4472 345.187 26.5405 339.844 32.8695C336.895 33.2744 332.495 38.0311 329.844 41.3024C329.531 41.6811 329.725 41.8899 329.327 42.409C328.34 43.6597 325.306 46.3593 326.086 46.8865C324.949 47.7316 323.824 48.5992 322.711 49.4902C322.094 50.4686 321.491 51.4544 320.905 52.4456C321.132 52.6215 321.359 52.7976 321.586 52.9736C319.378 54.1273 317.505 57.2523 316.3 58.5692C316.057 58.8313 315.687 58.6629 314.969 59.5113C314.123 60.5022 312.895 62.5724 311.975 63.8154C312.028 64.5563 312.088 65.2944 312.156 66.0289C310.958 68.4783 309.492 68.7457 308.629 70.1204C308.45 70.3552 306.092 75.1012 306.015 75.3832C305.207 77.5869 306.261 77.3506 303.5 83.4519C303.021 84.544 302.355 85.3252 301.965 86.3382C301.237 88.1132 300.215 93.8403 300.81 94.4618C299.259 96.401 298.151 102.493 297.578 104.231C297.394 104.752 296.802 104.758 296.376 106.405C296.019 107.744 295.924 111.313 295.647 113.027C295.34 114.849 294.802 115.472 294.687 116.29C294.581 117.068 294.901 117.821 294.818 118.885C294.555 122.222 293.845 125.201 293.83 127.878C293.83 127.919 293.83 127.959 293.83 128C293.838 131.815 295.13 135.09 295.893 138.164C295.885 138.952 295.712 139.737 295.796 140.562C296.779 150.738 299.301 162.05 302.87 171.709C304.325 176.233 308.463 187.567 309.303 183.516C310.329 184.818 315.682 195.572 317.155 197.38C318.475 199.252 319.944 200.413 321.058 201.812C324.448 206.01 326.723 209.133 331.708 213.455C333.002 214.564 334.712 215.387 335.451 216.057C336.34 216.868 336.967 218.126 338.149 219.162C340.937 221.663 346.651 225.669 349.628 227.663C350.167 228.034 350.106 228.553 350.824 229.181C353.618 231.638 357.288 233.575 357.363 231.912C361.05 234.909 365.331 236.085 369.327 237.684C377.695 241.35 393.928 245.62 401.953 245.556C406.968 245.611 406.848 245.03 414.177 245.725C414.284 245.734 414.392 245.743 414.5 245.751C416.032 245.876 417.578 246.011 419.429 246.079C424.07 246.252 428.534 247.019 431.836 245.025C437.023 244.647 440.969 243.488 445.025 243.747C445.39 243.334 445.751 242.92 446.107 242.505C446.719 242.329 447.328 242.148 447.935 241.962C448.207 242.186 448.48 242.41 448.755 242.632C453.201 241.412 458.22 238.254 461.722 236.715C467.773 234.441 482.345 226.318 487.31 222.601C490.024 220.75 489.739 220.145 492.01 219.924C492.516 219.38 493.016 218.833 493.51 218.281C493.671 217.766 493.828 217.252 493.98 216.737C497.096 213.946 500.92 210.723 503.584 207.724C508.538 202.32 514.298 192.999 518.258 186.868C519.278 185.341 520.874 183.589 521.681 181.969C522.846 179.606 522.26 178.629 523.583 175.602C525.935 170.442 530.334 160.637 531.377 155.269C531.716 153.691 531.52 152.875 531.703 151.781C532.451 147.198 533.023 143.4 532.884 138.923C534.198 134.257 535.3 134.685 536.583 133.244C537.551 132.158 539.713 128.6 540.495 128.063C541.054 127.696 541.768 129.069 542.384 128.557C542.805 134.712 542.059 137.31 540.694 142.133C539.722 151.226 537.762 160.22 534.849 168.897C534.264 169.578 533.674 170.248 533.078 170.91C533.077 170.909 533.076 170.909 533.076 170.909C531.516 174.048 531.743 175.719 531.19 177.542C526.824 195.667 502.396 223.724 484.952 233.605C481.481 236.137 469.339 243.221 466.336 243.752C465.58 243.934 465.179 243.547 464.428 243.847C457.927 246.988 451.129 249.576 444.13 251.564C434.453 253.338 424.506 254.62 414.5 254.787C409.287 254.875 404.111 254.666 398.985 254.084C358.363 249.752 321.044 224.302 302.153 188.636C298.429 181.814 294.248 172.787 292.305 165.388C291.493 162.311 291.921 160.824 290.359 156.929C290.567 156.836 290.775 156.743 290.983 156.65C289.918 153.172 288.971 150.998 288.299 146.954C287.664 143.585 286.865 134.471 286.956 131.451C286.962 129.873 287.391 130.454 287.372 128.986C287.369 128.693 287.359 128.363 287.345 128C287.22 125.241 286.937 120.693 287.2 117.617C287.425 114.486 288.585 109.28 288.938 106.895C290.105 98.2991 291.947 88.8487 295.621 80.2601C296.621 77.8894 298.477 75.0906 298.805 74.3653C299.438 72.9344 299.171 72.2866 299.578 71.3049C301.608 66.2978 306.434 59.3745 309.491 55.1206C319.275 41.0827 332.536 28.1889 347.124 19.3096C356.169 13.4218 372.792 6.35359 382.603 4.52543C384.693 4.08501 384.277 4.78324 386.016 4.37574C387.946 3.93509 388.93 3.34381 389.83 3.13307C395.497 1.6727 407.714 0.0541942 414.5 0.436127C415.189 0.460107 415.82 0.495528 416.38 0.540281C417.54 0.633905 418.364 1.11113 419.051 1.13342C419.4 1.14592 420.196 0.865715 421.297 0.891906C431.016 1.18883 438.067 2.49203 447.252 4.97465C464.837 9.68508 484.298 19.218 498.453 32.2474C501.551 35.059 502.94 37.7239 503.361 38.1202C504.278 39.0091 505.293 39.1568 507.191 40.9501C513.566 46.8922 520.056 56.711 524.398 63.6999C526.601 67.1223 529.861 71.7809 531.657 75.4142C533.172 78.2917 535.587 85.5342 536.311 86.7982C536.781 87.56 537.527 87.7423 537.926 88.7231ZM462.653 18.7373C463.571 17.9779 458.026 16.5928 459.768 17.9224C460.157 18.2114 462.418 18.9224 462.653 18.7373ZM296.216 154.439C296.494 154.324 296.773 154.208 297.051 154.094C296.77 153.394 296.494 152.685 296.226 151.98C296.133 152.424 296.044 152.876 295.958 153.325C296.042 153.697 296.128 154.069 296.216 154.439Z" fill="white"/>
<path d="M297.107 131.009C297.177 130.937 297.277 131.326 297.36 131.347C297.707 131.436 297.836 131.706 298.15 131.859C298.616 132.086 300 131.575 300 134.278C300 134.278 300 134.278 300 134.279C300 134.305 300 134.332 300 134.359C299.995 134.874 299.877 135.436 299.86 136.019C299.842 136.601 299.855 140.363 299.688 140.574C299.446 140.853 298.864 139.889 298.735 139.931C298.647 139.961 298.538 140.303 298.425 140.363C298.061 140.559 297.87 140.309 297.542 141.238C297.411 140.748 297.279 140.259 297.148 139.769C296.977 139.996 296.717 139.351 296.613 139.386C296.528 139.416 296.478 139.803 296.389 139.821C296.289 139.843 296.136 139.425 295.954 139.488C295.656 139.589 295.603 140.599 295.425 140.727C295.24 140.86 294.952 140.311 294.715 140.667C294.686 140.778 294.656 140.889 294.627 141C294.648 141.251 294.669 141.502 294.69 141.754C294.571 141.87 294.52 141.356 294.411 141.346C294.282 141.335 294.216 141.823 294.13 141.821C294.059 141.819 293.963 141.427 293.871 141.452C293.737 141.486 293.766 142.051 293.694 142.156C293.665 142.197 293.133 142.509 293.103 142.514C292.874 142.536 292.855 141.763 292.673 141.695C292.167 141.51 291.649 142.135 291.182 142.372C290.973 142.477 290.756 142.432 290.548 142.309C290.875 140.329 290.15 138.788 290.421 141.886C290.19 141.445 290.026 142.282 289.807 142.14C289.665 142.048 289.566 141.618 289.364 141.63C289.004 141.652 288.611 142.873 288.508 140.667C288.086 141.056 287.72 140.255 287.568 142.203C287.459 142.322 287.18 141.162 287.058 141.004C286.943 140.856 286.057 140.332 285.912 140.303C285.767 140.273 285.514 140.242 285.392 140.412C285.238 140.624 285.131 142.644 284.858 140.282C284.541 140.473 284.428 140.406 284.133 140.131C284.079 140.082 284.073 139.731 284.042 139.731C283.978 139.731 283.868 139.99 283.753 140.021C283.565 140.073 283.457 139.335 283.478 140.462C283.353 140.651 283.229 140.84 283.104 141.029C283.061 140.812 283.017 140.594 282.973 140.377C282.907 140.614 282.84 140.851 282.774 141.088C282.852 139.457 282.384 140.419 282.536 141.355C282.294 141.018 282.053 140.68 281.812 140.343C281.846 138.489 281.282 140.129 281.33 141.137C281.302 141.135 281.274 141.134 281.247 141.132C281.005 140.64 280.783 141.043 280.488 140.712C280.194 140.381 280.222 140.201 280.132 139.348C280.063 139.397 279.993 139.446 279.924 139.495C279.56 141.832 279.625 137.785 279.002 139.578C278.803 138.109 278.312 138.881 277.987 139.326C277.949 139.378 277.948 139.663 277.898 139.751C277.775 139.963 277.46 139.596 277.471 140.516C277.362 140.25 277.253 139.983 277.144 139.717C277.055 139.885 276.966 140.052 276.878 140.219C276.878 140.506 276.878 140.793 276.879 141.08C276.7 140.102 276.418 140.478 276.279 140.244C276.252 140.197 276.246 139.801 276.16 139.692C276.059 139.564 275.872 139.681 275.753 139.558C275.706 139.996 275.66 140.435 275.613 140.874C275.399 141.112 275.324 139.954 275.198 139.864C275.176 139.848 274.763 139.931 274.741 139.956C274.559 140.152 274.61 141.139 274.084 140.927C273.99 140.889 273.914 140.548 273.829 140.534C273.68 140.509 273.229 141.283 273.193 141.999C273.012 141.104 272.526 141.47 272.383 141.211C272.339 141.131 272.33 140.561 272.197 140.44C272.089 140.341 271.812 140.797 271.676 140.721C271.531 140.638 271.479 140.158 271.414 140.125C271.353 140.093 271.296 140.48 271.213 140.478C270.952 140.464 270.716 139.842 270.509 139.83C270.211 139.812 269.948 140.957 269.698 141.466C269.636 141.391 269.576 141.146 269.511 141.143C268.707 141.107 267.801 140.896 266.996 140.651C266.622 140.539 265.692 138.984 265.94 141.578C265.81 142.032 264.865 140.986 264.685 140.971C264.505 140.955 264.363 141.42 264.222 141.427C263.795 141.447 263.495 141.112 262.976 141.517C262.842 141.623 262.699 142.174 262.619 142.167C262.524 142.158 262.421 141.626 262.297 141.592C262.002 141.515 261.452 141.69 261.169 141.598C261.117 141.58 261.099 141.112 261.025 140.966C260.737 140.395 260.414 140.444 260.471 141.938C260.102 141.09 259.761 141.864 259.419 141.911C258.695 142.008 257.378 141.659 256.748 142.287C256.35 142.683 256.361 143.353 255.776 142.775C255.646 142.646 255.517 142.473 255.359 142.32C254.99 141.96 254.651 140.723 254.37 142.214C253.96 141.827 253.633 142.102 253.329 140.826C253.293 141.132 253.257 141.438 253.222 141.744C253.171 141.752 253.121 141.759 253.071 141.767C253.055 141.475 253.039 141.183 253.024 140.891C252.664 140.813 252.207 142.012 251.902 142.003C251.391 141.99 250.075 141.524 249.59 141.13C249.333 140.921 249.319 141.546 249.172 140.262C249.114 140.351 249.057 140.44 248.999 140.53C248.963 140.811 248.927 141.092 248.891 141.373C248.561 141.385 248.169 140.948 247.855 140.952C247.282 140.961 246.422 141.735 245.846 141.227C245.702 141.099 245.522 140.519 245.38 140.525C245.175 140.534 245.125 141.497 244.864 141.515C244.414 141.544 243.577 140.426 243.152 140.511C243.025 140.536 242.966 140.894 242.879 140.932C242.514 141.097 242.214 141.068 241.863 141.621C241.487 140.699 241.519 139.508 241.403 138.307C241.314 137.4 241.043 135.299 241.005 134.505C240.978 133.947 241.079 133.229 241.041 132.615C241.492 132.125 241.681 132.665 242.047 133.528C242.723 133.494 243.4 133.46 244.076 133.425C244.137 133.76 244.199 134.096 244.26 134.431C244.26 134.431 244.26 134.432 244.26 134.433C244.52 134.82 244.63 133.957 244.77 133.761C246.111 131.884 248.75 133.353 250.226 133.564C250.544 133.609 251.578 133.158 251.797 133.702C251.853 133.844 251.869 134.361 251.929 134.383C252.466 134.076 253.003 133.768 253.54 133.461C254.645 134.264 255.787 133.601 256.899 133.477C259.91 133.142 262.891 132.735 265.853 132.858C266.425 132.883 267.152 132.496 267.712 132.745C267.946 132.849 268.043 133.679 268.35 133.06C268.354 133.284 268.357 133.508 268.36 133.731C268.628 133.461 268.799 132.952 269.1 132.901C269.353 132.858 270.023 132.825 270.247 132.91C270.363 132.953 270.319 133.371 270.428 133.369C270.613 133.362 271.008 132.784 271.264 132.784C271.495 132.784 271.886 133.266 272.064 133.196C272.704 132.948 273.403 132.235 274.086 132.426C274.274 132.48 274.517 133.022 274.576 133.007C274.691 132.975 274.726 132.449 274.803 132.381C275.197 132.039 275.811 132.665 276.197 132.69C277.455 132.771 278.787 132.541 280.039 132.638C280.831 132.699 282.146 132.606 282.876 133.002C283.034 133.087 282.992 133.664 283.124 133.664C283.27 133.664 283.35 133.274 283.418 133.243C283.893 133.022 284.94 132.629 285.388 133.027C285.473 133.103 285.535 133.555 285.586 133.553C285.612 133.553 285.671 133.245 285.752 133.213C286.468 132.935 286.991 133.114 287.693 133.22C289.038 133.42 290.596 132.847 292.009 133.157C292.317 133.225 292.528 134.118 292.571 134.109C292.666 134.091 292.727 133.49 292.92 133.342C293.559 132.854 294.421 133.495 295.029 133.194C295.33 133.045 295.743 132.282 296.039 132.113C296.275 131.978 296.833 132.278 296.938 131.943C297.001 131.74 297.031 131.09 297.107 131.009ZM289.148 141.128C289.19 140.089 288.748 140.952 288.914 141.51C288.951 141.636 289.137 141.398 289.148 141.128ZM268.436 139.323C268.44 139.62 268.444 139.917 268.448 140.214C268.506 140.09 268.564 139.967 268.622 139.843C268.589 139.665 268.557 139.486 268.524 139.308C268.495 139.313 268.465 139.318 268.436 139.323Z" fill="white"/>
<path d="M46.0576 102.632C46.1238 102.748 45.7277 102.889 45.7016 103.023C45.589 103.58 45.3136 103.781 45.1502 104.291C45.0763 104.523 45.0708 104.896 45.0265 105.302C44.9258 106.309 44.5985 107.5 42.7217 107.5C42.7216 107.5 42.7215 107.5 42.7215 107.5C42.695 107.5 42.6682 107.5 42.641 107.499C42.126 107.491 41.5638 107.28 40.9814 107.249C40.3987 107.218 36.6371 107.241 36.4257 106.943C36.1668 106.541 36.9807 105.616 37.0634 105.302C37.0697 105.277 37.0718 105.255 37.0688 105.238C37.0395 105.072 36.6985 104.866 36.64 104.652C36.4525 103.96 36.7115 103.612 35.8053 102.954C36.3037 102.721 36.8033 102.494 37.3042 102.273C37.0926 101.94 37.7657 101.492 37.743 101.299C37.724 101.139 37.3442 101.02 37.338 100.852C37.3291 100.664 37.7669 100.411 37.7326 100.07C37.6791 99.5107 36.6845 99.3161 36.5902 98.9653C36.4931 98.6004 37.0977 98.1201 36.7994 97.6347C36.6959 97.5654 36.5925 97.4959 36.4893 97.4261C36.235 97.4352 35.9807 97.4448 35.7263 97.4548C35.6384 97.2122 36.1617 97.1791 36.198 96.973C36.2413 96.7306 35.775 96.5395 35.8003 96.3739C35.8215 96.2382 36.2351 96.1106 36.2367 95.9328C36.2411 95.6735 35.6742 95.6447 35.5907 95.4904C35.5564 95.4299 35.4144 94.3572 35.4221 94.2979C35.4762 93.8542 36.2449 93.9521 36.3745 93.6199C36.7316 92.6998 36.3237 91.5984 36.2994 90.6557C36.2879 90.2361 36.4315 89.8327 36.6501 89.4706C38.4188 90.5545 40.2473 89.6066 37.1199 89.3371C37.6571 89.0155 36.9298 88.4965 37.1794 88.1211C37.3417 87.8798 37.8059 87.8136 37.903 87.4364C38.0706 86.7717 37.1357 85.6714 39.2993 86.1508C39.1723 85.2642 40.1542 84.8721 38.4111 83.9547C38.3686 83.7133 39.6426 83.5957 39.8701 83.4343C40.0811 83.2729 41.1719 81.8965 41.3059 81.6597C41.4353 81.4172 41.6476 80.9888 41.5804 80.7103C41.4966 80.3668 39.7283 79.362 42.0999 79.8387C42.117 79.6798 42.1399 79.5504 42.1724 79.4393C42.1724 79.4393 42.1724 79.4393 42.1724 79.4393C42.2676 79.1144 42.4428 78.9464 42.8034 78.6583C42.891 78.5884 43.2131 78.7276 43.2382 78.6751C43.2894 78.5666 43.1432 78.2703 43.2085 78.0623C43.3166 77.7197 44.0682 77.8658 43.0397 77.4027C42.9742 77.1082 42.9108 76.8123 42.8495 76.5152C43.0812 76.5393 43.3126 76.5642 43.5438 76.59C43.39 76.3702 43.2372 76.1493 43.0853 75.9273C44.4638 76.8094 44.0201 75.5845 43.0599 75.3998C43.5742 75.1486 44.0896 74.9062 44.6057 74.6726C46.1928 75.6288 45.278 73.9167 44.3658 73.4848C44.3933 73.4398 44.421 73.3949 44.4487 73.35C45.1054 73.1994 44.973 72.6312 45.5473 72.3238C46.1208 72.0203 46.2477 72.1614 47.0593 72.4704C47.086 72.3354 47.1133 72.2003 47.141 72.0652C45.5409 70.2291 48.8681 72.526 48.0097 70.5813C49.4335 71.0941 49.299 69.9287 49.2932 69.1753C49.2922 69.088 49.0613 68.9206 49.0451 68.7928C49.0083 68.4809 49.652 68.225 48.9017 67.6935C49.2381 67.6865 49.5737 67.6823 49.9086 67.6807C49.8755 67.4473 49.8437 67.2132 49.8132 66.9785C49.5851 66.8041 49.357 66.6298 49.1289 66.4554C50.1116 66.7819 50.1407 66.1362 50.4883 66.0764C50.5579 66.0653 50.8743 66.3036 51.0589 66.2463C51.2759 66.1806 51.405 65.8359 51.6427 65.7425C51.3592 65.3966 51.077 65.0494 50.7962 64.701C50.875 64.2344 51.853 64.8723 52.073 64.7525C52.1113 64.7298 52.5537 64.0907 52.5636 64.0437C52.6082 63.8225 52.3631 63.5374 52.3015 63.2192C52.25 62.9889 52.2962 62.7446 52.6301 62.5047C52.7699 62.405 53.115 62.5305 53.2258 62.4265C53.422 62.2431 53.3786 61.1266 52.886 60.6039C53.7707 60.9564 54.0736 60.0647 54.4368 60.0455C54.5475 60.0407 54.9853 60.4066 55.2335 60.31C55.4352 60.2321 55.4228 59.5588 55.6419 59.4273C55.876 59.2892 56.2955 59.5384 56.3978 59.4743C56.4941 59.4133 56.2722 59.0809 56.373 58.9708C56.6927 58.6315 57.4383 58.7297 57.6915 58.462C57.8472 58.2984 57.8394 58.0044 57.7723 57.6689C57.6874 57.2053 57.4965 56.6627 57.4597 56.2665C57.5925 56.2303 57.8508 56.3114 57.934 56.2234C58.9687 55.1391 60.2895 54.0623 61.5213 53.1812C62.094 52.7625 64.4049 52.6975 62.2807 51.1427C62.1421 50.6407 64.1496 50.1922 64.4063 49.9849C64.6634 49.7712 64.5485 49.2482 64.7408 49.0662C65.3223 48.5183 65.9612 48.4013 66.4336 47.4626C66.5549 47.2193 66.4044 46.6246 66.5231 46.5328C66.6668 46.4233 67.1575 46.7069 67.357 46.5846C67.4345 46.5363 67.5175 46.4748 67.6043 46.4046C67.6043 46.4046 67.6043 46.4046 67.6043 46.4046C68.0478 46.045 68.5954 45.4594 68.9911 45.2431C69.0781 45.1967 69.3961 45.5414 69.5948 45.5704C70.3691 45.6848 70.8081 45.2821 69.8093 44.1663C70.8752 44.4124 70.911 43.4139 71.4005 42.99C72.4319 42.0914 74.6506 40.9569 75.2913 39.7819C75.6947 39.0381 75.3147 38.4829 76.5612 38.366C76.8376 38.3408 77.1369 38.355 77.4698 38.3256C78.2545 38.2558 79.4342 38.9834 79.1125 37.4347C79.9718 37.3668 80.3657 36.8172 81.496 37.6365C81.4005 37.3383 81.3055 37.0399 81.2111 36.7412C81.2891 36.6876 81.3671 36.6341 81.4452 36.5807C81.6157 36.8193 81.7859 37.058 81.9559 37.2969C82.573 37.0343 82.7367 35.5718 83.2481 35.3046C84.0977 34.8491 86.5117 34.1314 87.4969 34.0983C88.0186 34.077 87.7733 33.5023 88.5739 34.543C88.6314 34.4165 88.6891 34.2901 88.7473 34.1637C88.6872 33.881 88.6276 33.598 88.5686 33.3149C89.1229 33.041 89.969 33.1335 90.5004 32.8912C91.4644 32.4473 92.6476 31.1038 93.839 31.1752C94.1372 31.1933 94.6625 31.6088 94.9033 31.5074C95.2506 31.3621 94.9986 30.4484 95.4302 30.2439C95.4346 30.2418 95.4389 30.2398 95.4434 30.2379C96.1836 29.9246 97.9796 30.437 98.6587 30.0868C98.8606 29.9834 98.8314 29.6113 98.9633 29.5201C99.515 29.1342 100.026 28.9706 100.414 28.2306C101.371 28.8532 101.74 29.9864 102.363 31.0349C102.833 31.8259 104.034 33.6172 104.381 34.3348C104.624 34.8389 104.711 35.5737 104.993 36.1235C104.415 36.8685 103.907 36.4845 102.988 35.91C101.872 36.3721 100.755 36.8343 99.6389 37.2964C99.4168 37.0223 99.1948 36.7481 98.9728 36.474C98.9725 36.4733 98.9723 36.4726 98.972 36.472C98.4009 36.2756 98.5245 37.1523 98.3605 37.4244C98.3216 37.4889 98.2807 37.552 98.2378 37.6138C96.6412 39.9844 92.1551 40.4218 89.8321 41.3843C89.3179 41.5869 87.956 42.8098 87.3696 42.513C87.2165 42.4346 86.9462 41.9932 86.8437 42.0233C86.1712 42.7389 85.5138 43.4625 84.8716 44.1935C82.8201 44.4611 81.484 46.0823 79.973 47.2495C77.5793 49.0964 75.3181 51.0649 73.1136 53.0538C73.1136 53.0538 73.1136 53.0538 73.1136 53.0538C71.5343 54.4786 69.9832 55.9144 68.4218 57.3346C67.6955 57.9927 67.0901 59.1372 66.2466 59.6462C65.8952 59.8587 65.1791 59.4047 65.2629 60.2132C65.0971 60.063 64.9313 59.9128 64.7655 59.7627C64.6424 60.2841 64.8128 60.8456 64.5022 61.2571C64.2706 61.561 63.6679 62.269 63.3124 62.5935C63.2615 62.6402 63.2153 62.6792 63.1755 62.7084C63.0059 62.8349 62.7449 62.4996 62.6181 62.6454C62.4034 62.8971 62.3657 63.8091 62.0625 64.1502C61.7878 64.4592 60.965 64.6604 60.8059 64.9443C60.2303 65.9643 59.9352 67.3703 58.9818 68.1551C58.781 68.3191 58.3327 68.3377 58.1032 68.3762C58.0332 68.3855 57.9844 68.3975 57.9715 68.4177C57.8674 68.5829 58.2255 68.973 58.1926 69.1135C58.0246 69.8229 56.8992 70.1935 56.4783 70.6816C55.1068 72.2594 54.0134 74.1931 52.8327 75.8945C52.0746 76.9691 51.0834 78.902 50.183 79.8054C49.987 79.9996 49.5054 79.6752 49.4044 79.8741C49.2927 80.0953 49.582 80.3888 49.5594 80.5052C49.4648 80.9953 49.2845 81.826 49.0232 82.5222C49.0232 82.5222 49.0232 82.5222 49.0232 82.5222C48.8518 82.9768 48.6435 83.3748 48.3837 83.5851C48.258 83.686 47.8012 83.6071 47.7696 83.6873C47.7528 83.7276 47.9998 83.9364 47.9775 84.0737C47.7829 85.2874 47.3104 86.0325 46.825 87.1096C45.8946 89.183 45.7535 91.8437 44.9825 94.0822C44.8135 94.5701 43.8707 94.7532 43.8655 94.8284C43.8536 94.9907 44.4254 95.2013 44.5152 95.5443C44.807 96.6771 43.9685 98.0077 44.1562 99.0607C44.2465 99.5795 44.94 100.334 45.0696 100.829C45.1704 101.224 44.8126 102.119 45.1394 102.309C45.3358 102.424 45.9824 102.506 46.0576 102.632ZM38.5008 87.1803C39.4734 87.5526 38.8886 86.5019 38.2637 86.6405C38.1223 86.6728 38.2477 87.0842 38.5008 87.1803ZM60.6191 56.0081C60.3987 55.8091 60.1782 55.6102 59.9576 55.4113C59.9734 55.5742 59.9897 55.7368 60.0063 55.8993C60.1774 55.978 60.3483 56.0569 60.519 56.1362C60.5523 56.0935 60.5857 56.0508 60.6191 56.0081Z" fill="white"/>
</svg>
