<svg width="369" height="277" viewBox="0 0 369 277" fill="none" xmlns="http://www.w3.org/2000/svg">
<path d="M199.2 5.45338L256.29 37.606C256.65 37.8089 257.064 37.8951 257.476 37.8529L303.182 33.1593C303.894 33.0862 304.591 33.3994 305.009 33.9806L363.567 115.344C363.846 115.732 363.977 116.207 363.936 116.684L355.532 214.047C355.496 214.47 355.325 214.871 355.046 215.191L313.455 262.782C313.075 263.216 312.526 263.466 311.949 263.466H286.82C286.335 263.466 285.867 263.642 285.502 263.961L277.994 270.539C277.102 271.32 275.73 271.159 275.044 270.191L250.208 235.151C249.793 234.566 249.097 234.248 248.383 234.317L176.6 241.273C175.302 241.398 174.469 242.713 174.911 243.94L183.67 268.302C184.224 269.84 182.797 271.357 181.228 270.898L156.282 263.614C155.95 263.517 155.649 263.335 155.408 263.087L121.376 228.04C119.807 226.424 117.178 228.233 118.127 230.276L136.19 269.157C136.806 270.483 135.838 272 134.376 272H86.8568C86.5352 272 86.2184 271.922 85.9332 271.774L64.9276 260.838C62.9829 259.825 61.0613 262.228 62.4765 263.903L66.5385 268.709C67.6372 270.009 66.7131 272 65.0109 272H56.7824C56.235 272 55.7115 271.776 55.334 271.379L6.55168 220.155C6.19753 219.783 6 219.289 6 218.775V150.587C6 150.256 6.08223 149.93 6.23932 149.638L55.5659 58.0914C55.7974 57.6618 56.178 57.3316 56.6359 57.1631L197.527 5.31906C198.078 5.11663 198.689 5.16573 199.2 5.45338Z" fill="#100E0B" fill-opacity="0.4"/>
<path d="M305.644 45.1183C304.752 44.0026 303.892 42.1411 302.926 40.7633C301.988 39.4252 301.198 38.275 300.492 37.2317C301.283 38.3017 302.59 38.7794 303.743 38.6266C300.654 38.8281 298.125 38.9436 294.105 39.2593C285.856 39.9066 263.501 42.5705 257.843 41.4283C255.572 41.3405 254.778 40.2009 254.954 39.9774C254.954 39.9774 254.954 39.9773 254.954 39.9773C254.967 39.9542 254.986 39.934 255.01 39.9164C255.214 39.7665 256.492 40.1433 257.668 39.7228C258.317 39.3634 259.031 38.9877 259.185 38.6639C259.477 38.0481 258.829 34.3334 262.18 33.7767C267.042 32.9972 278.872 32.752 281.476 32.4416C283.256 32.2292 285.417 31.6636 287.69 31.3691C293.98 30.5544 297.724 30.331 302.783 29.2712C304.747 28.9816 306.991 29.7659 308.384 31.5519C308.518 31.6944 308.655 31.8383 308.794 31.9836C309.952 34.4312 311.111 36.8789 312.269 39.3265C314.483 42.0143 317.036 46.666 318.298 48.3587C319.333 49.7473 320.24 50.345 321.309 51.7996C322.51 53.4297 323.987 56.1974 326.189 59.1496C329.798 63.9906 331.245 64.2726 333.465 67.1378C335.767 70.1091 338.734 75.1711 341.823 78.8537C342.264 79.2768 342.705 79.6998 343.146 80.1228C343.099 79.6265 343.051 79.1302 343.003 78.6338C344.509 80.5249 344.697 81.6683 345.985 83.4742C347.501 85.5993 348.675 86.3949 349.699 87.8217C350.538 88.9908 351.359 90.8028 352.469 92.3026C354.085 94.4904 354.197 93.6776 355.137 94.8037C355.512 95.2537 362.072 103.834 362.431 104.326C365.155 108.073 364.763 108.852 366.866 111.89C367.032 112.13 367.199 112.37 367.366 112.609C368.288 113.893 368.729 115.511 368.586 117.085C367.703 126.556 367.422 136.228 366.885 144.985C366.627 149.21 366.202 153.605 365.716 157.798C364.315 151.006 361.516 165.527 365.075 160.313C364.232 164.952 364.779 168.34 364.255 172.762C363.916 175.622 363.317 177.57 362.974 181.666C362.37 188.934 362.9 196.986 360.521 198.886C360.27 205.058 359.454 210.584 359.646 214.402C359.59 215.775 359.082 217.054 358.322 218.054C357.878 218.865 357.583 219.62 357.474 220.32C356.111 222.06 351.514 225.557 349.766 227.318C348.113 228.983 335.895 242.167 333.939 244.361C331.983 246.555 328.573 250.409 327.073 252.385C325.185 254.866 325.276 257.832 319.854 260.447C318.3 262.335 317.112 263.749 316.008 265.013C314.975 266.202 313.455 266.858 311.949 266.845C309.873 266.816 307.829 266.731 304.903 266.597C303.819 266.547 303.696 266.197 303.063 266.196C301.759 266.196 299.539 266.455 297.21 266.487C293.38 266.539 291.195 265.801 291.622 266.928C290.021 267.048 288.421 267.168 286.82 267.287C287.257 267.325 287.72 267.196 288.092 266.917C287.779 267.235 287.466 267.553 287.154 267.871C286.344 268.291 285.535 268.711 284.725 269.131C283.866 270.199 283.007 271.267 282.148 272.335C282.195 271.418 281.163 272.009 280.108 272.952C278.846 274.118 276.827 274.59 275.238 274.212C273.612 273.878 272.487 272.842 271.977 272.365C271.757 272.273 271.627 272.33 271.645 272.601C271.772 272.885 272.004 273.299 272.456 273.787C272.098 273.455 271.782 273.084 271.517 272.691C269.042 268.634 266.566 264.576 264.091 260.519C265.998 260.004 258.051 251.628 257.785 252.995C257.463 252.538 257.14 252.08 256.817 251.622C254.384 247.337 251.452 243.897 248.265 238.83C247.885 238.224 247.556 237.696 247.272 237.232C247.749 237.782 248.354 237.817 248.713 237.72C246.822 237.685 246.668 237.43 245.372 236.968C243.977 237.153 242.582 237.337 241.187 237.521C234.068 240.559 234.976 236.405 222.572 239.408C218.413 238.336 208.582 240.063 202.058 241.143C201.298 241.269 201.313 241.554 200.303 241.74C197.836 242.191 191.451 242.442 191.756 243.336C189.533 243.284 187.309 243.232 185.086 243.181C183.305 243.521 181.525 243.862 179.744 244.202C179.781 244.487 179.818 244.772 179.855 245.057C178.973 244.909 177.982 244.848 176.946 244.842C177.899 244.642 178.431 243.591 178.091 242.796C178.782 244.873 179.515 246.819 179.875 248.158C180.02 248.702 179.688 248.95 180.176 250.626C180.745 252.586 182.139 256.118 182.844 258.444C183.576 259.183 184.308 259.923 185.04 260.662C186.332 263.718 186.304 265.506 186.564 267.262C186.917 268.529 186.786 270.055 186.055 271.317C185.954 271.477 185.596 272.204 184.665 272.902C183.777 273.601 182.056 274.163 180.421 273.66C177.883 272.942 174.381 271.962 174.095 271.895C170.496 271.048 171.223 272.288 161.03 269.092C159.215 268.522 157.834 267.763 156.188 267.268C155.932 267.191 155.629 267.106 155.288 267.017C154.445 266.781 153.568 266.314 152.836 265.584C149.994 262.918 145.045 258.735 144.2 258.72C142.276 255.454 135.148 248.639 133.311 246.376C132.758 245.692 133.03 245.153 131.241 243.136C129.791 241.501 125.547 237.786 123.673 235.746C121.685 233.58 121.298 232.493 120.404 231.525C119.993 231.08 119.527 230.72 119.021 230.327C119.066 230.444 119.236 230.647 119.533 230.772C119.826 230.899 120.194 230.912 120.465 230.811C120.821 230.675 121.072 230.453 121.25 230.032C121.438 229.615 121.337 229.017 121.207 228.846C122.723 232.519 123.912 235.99 125.284 238.964C127.817 244.458 131.106 248.822 133.7 253.198C134.162 254.369 134.459 255.592 135.012 256.787C136.609 260.245 138.245 263.81 139.9 267.434C141.828 271.21 138.637 276.234 134.376 276.063C122.544 275.972 110.333 275.82 99.0869 275.651C96.0606 275.606 91.2396 275.332 86.8568 275.183C86.0202 275.173 85.1972 274.956 84.4775 274.57C79.0879 271.556 74.6527 269.39 76.5216 272.035C75.0099 271.552 68.5814 267.913 62.9277 264.679C63.2807 264.861 64.0191 264.982 64.6032 264.788C65.1935 264.604 65.5672 264.266 65.8109 263.892C66.0527 263.517 66.197 263.019 66.1432 262.472C66.0956 261.925 65.818 261.454 65.6152 261.25C66.8688 262.856 67.8677 264.125 68.3962 264.756C68.7994 265.237 69.1991 265.692 69.5939 266.127C73.1523 270.048 69.724 276.464 65.0109 276.293C63.9772 276.367 62.9773 276.424 61.9803 276.427C60.1556 276.431 58.4449 276.42 56.7824 276.403C55.0367 276.403 53.3313 275.653 52.1591 274.403C48.3534 270.31 44.78 266.424 39.3432 261.138C37.3918 259.242 34.9841 257.513 33.8785 256.342C32.5478 254.932 31.4944 253.053 29.7865 251.211C25.7124 246.822 17.8896 238.862 13.9945 234.638C13.2842 233.866 13.3689 233.276 12.4402 232.089C8.82519 227.465 4.27341 222.757 3.99075 224.626C3.6912 224.23 3.38824 223.842 3.08223 223.459C1.91529 222.176 1.28531 220.462 1.32189 218.775C1.7149 212.417 1.13002 206.421 1.08901 200.416C1.00221 187.25 1.274 164.38 0.877329 150.587C0.866673 149.393 1.16182 148.218 1.70313 147.194C2.2398 146.116 2.73473 145.104 3.1807 144.169C6.65502 136.886 5.96743 136.75 12.1049 126.578C13.4671 124.32 14.8632 122.094 16.5133 119.354C20.3823 112.932 24.7304 107.471 26.125 101.739C30.4106 94.6008 33.311 88.6395 37.361 83.812C37.4367 83.0265 37.5125 82.241 37.5882 81.4554C38.0652 80.5542 38.5423 79.6529 39.0193 78.7517C39.427 78.6101 39.8347 78.4684 40.2424 78.3268C43.7765 71.9335 47.1167 63.2062 50.0574 57.767C50.3921 57.1477 50.7644 56.4631 51.1691 55.7223C51.935 54.2948 53.2651 53.0837 54.9146 52.4852C66.2294 48.4197 87.3033 41.1021 95.68 38.395C100.65 36.789 100.698 36.1056 103.945 36.2792C105.01 35.7922 106.075 35.3053 107.139 34.8183C107.728 34.3021 108.316 33.7859 108.905 33.2697C115.184 30.9469 122.788 28.6144 128.773 26.4074C139.678 22.3851 155.79 15.6314 166.92 12.0778C169.711 11.1875 173.344 10.4684 176.032 9.47257C179.943 8.02368 180.562 6.77028 185.524 4.92546C188.371 3.86738 192.08 2.6275 196.06 1.33132C197.746 0.724665 199.699 0.898506 201.252 1.80928C208.004 5.97058 215.287 10.545 219.983 13.1284C222.227 14.3636 223.443 14.6379 225.003 15.4724C231.545 18.9682 236.835 21.9811 243.302 24.9882C249.502 29.5384 248.343 30.2521 249.815 32.4599C250.933 34.1298 254.693 38.6588 254.983 39.7338C255.187 40.4889 253.051 40.1097 253.419 41.0218C245.208 36.9604 242.125 34.6042 236.077 30.2067C224.108 23.5056 212.14 16.8045 200.171 10.1034C199.4 9.34763 198.629 8.59184 197.858 7.83603C197.95 7.82482 198.034 7.79547 198.102 7.75334C198.102 7.75262 198.103 7.75191 198.103 7.75119C198.216 7.74557 198.313 7.7117 198.391 7.66636C194.115 9.02957 192.395 10.4659 189.988 11.5451C165.111 22.6983 114.366 39.8065 86.1925 49.9481C80.6859 51.9309 64.0959 58.4275 57.8188 60.3776C58.1958 60.2066 58.406 59.9076 58.4885 59.6661C58.4507 59.7213 58.4141 59.7739 58.3789 59.8236C57.7104 60.7654 57.1041 60.8009 56.5058 61.8638C51.6084 71.6012 46.7109 81.3385 41.8135 91.0758C30.479 110.419 20.076 131.124 9.47648 151.057C9.43167 151.141 9.38683 151.226 9.34203 151.31C9.46298 151.09 9.52828 150.839 9.52987 150.587C9.65544 173.397 9.79049 196.123 9.9036 218.775C9.90766 218.292 9.71804 217.81 9.38399 217.457C25.7816 234.506 42.1063 251.514 58.3411 268.516C57.9418 268.092 57.3649 267.844 56.7824 267.845C59.5261 267.842 62.269 267.839 65.0109 267.838C63.2455 267.784 62.1777 270.082 63.358 271.397C62.0033 269.795 60.6494 268.193 59.2962 266.59C57.4454 264.681 57.3929 260.739 59.1916 258.762C60.7269 256.573 64.5828 255.762 66.8492 257.147C70.8965 259.258 74.9404 261.371 78.981 263.485C81.7677 264.943 84.7717 266.481 87.8688 268.056C87.5601 267.892 87.2099 267.802 86.8568 267.799C95.9349 267.71 105.61 267.57 113.615 267.745C118.359 267.849 120.336 268.679 126.568 268.06C126.633 268.284 126.699 268.508 126.764 268.731C129.622 268.589 131.937 268.382 134.376 268.209C133.213 268.06 131.946 269.42 132.545 270.85C132.066 269.917 131.569 268.917 131.045 267.813C128.843 263.174 123.089 250.867 121.255 246.716C120.302 244.564 121.051 245.183 120.124 243.194C118.941 240.659 116.474 236.111 114.389 232.013C113.332 230.109 113.738 226.938 115.281 225.354C116.73 223.694 118.948 222.894 121.121 223.312C122.38 223.543 123.589 224.255 124.394 225.11C127.654 228.563 132.199 233.817 134.551 236.148C142.199 243.73 150.631 251.66 158.708 259.883C158.398 259.561 158.002 259.321 157.573 259.194C159.539 259.762 161.5 260.343 163.448 260.941C167.107 262.066 171.68 263.966 172.835 264.288C175.091 264.914 175.908 264.604 177.437 264.98C179.001 265.365 180.728 265.838 182.551 266.367C180.609 265.702 178.44 267.859 179.258 269.888C177.153 263.756 175.033 257.066 173.331 252.286C172.517 250 171.696 247.701 170.869 245.393C169.422 241.736 172.243 237.258 176.186 237C198.287 234.863 221.156 232.489 242.857 230.47C244.461 230.321 246.171 230.16 247.964 229.99C250.143 229.76 252.453 230.776 253.752 232.639C261.377 243.434 271.228 257.313 278.426 267.794C277.688 266.748 276.124 266.668 275.3 267.464C276.381 266.552 277.411 265.69 278.378 264.887C280.838 262.846 280.577 263.841 282.596 262.073C282.844 261.855 283.077 261.645 283.295 261.442C284.343 260.503 285.636 260.072 286.82 260.042C288.38 259.925 289.451 259.73 290.416 259.709C295.512 259.592 303.867 259.426 311.949 259.356C311.346 259.348 310.747 259.616 310.35 260.068C314.635 255.095 318.744 250.43 321.463 247.58C322.66 246.327 323.826 245.679 324.507 244.898C324.852 244.503 325.399 243.408 326.459 242.147C335.756 231.089 342.835 223.255 352.198 212.702C352.145 212.764 352.096 212.83 352.052 212.898C351.893 213.144 351.796 213.43 351.773 213.723C354.279 186.783 356.407 155.655 359.148 127.471C359.708 121.709 360.831 117.688 361.044 116.434C361.049 116.48 361.053 116.516 361.054 116.545C361.057 116.728 361.085 116.901 361.155 117.08C360.195 116.042 359.044 115.123 357.157 112.7C349.181 102.454 339.493 87.8946 332.039 78.0533C328.357 73.1909 322.843 66.8359 319.201 62.0642C316.292 58.2531 309.923 48.8917 308.41 47.3632C307.491 46.4325 306.614 46.327 305.644 45.1183ZM362.098 185.985C361.136 185.045 361.225 194.059 362.07 190.753C362.261 190.008 362.348 186.228 362.098 185.985ZM128.298 274.323C128.38 274.62 128.462 274.917 128.545 275.214C129.723 275.09 130.9 274.967 132.078 274.843C131.416 274.665 130.754 274.486 130.092 274.308C129.494 274.313 128.896 274.318 128.298 274.323Z" fill="white"/>
</svg>
