<svg width="3243" height="25" viewBox="0 0 3243 25" fill="none" xmlns="http://www.w3.org/2000/svg">
<path d="M3083.98 4.6373C3087.85 4.59035 3093.31 5.12075 3097.86 5.1893C3116.97 5.488 3124.04 5.87226 3141.32 6.20475C3166.95 6.66608 3243 6.95745 3243 9.44843C3243 9.44849 3243 9.44855 3243 9.44862C3243 9.47347 3242.99 9.49857 3242.98 9.52392C3242.71 10.0031 3236.24 10.5101 3235.28 11.0654C3234.32 11.6211 3235.04 15.1925 3225.86 15.4684C3212.54 15.8474 3180.58 15.0651 3173.48 15.1324C3168.62 15.189 3162.64 15.5932 3156.43 15.6993C3136.4 16.0468 3125.93 15.8036 3107.89 17.0306C3100.67 16.5035 3093.45 15.9574 3086.24 15.3925C3076.82 15.7218 3062.55 14.9809 3056.83 15.0442C3052.14 15.0999 3049.39 15.6099 3044.5 15.6574C3039.01 15.7146 3030.59 15.2032 3020.61 15.3259C3004.25 15.5248 3001.34 16.9215 2991.52 17.1608C2981.35 17.4126 2965.52 16.7231 2952.53 17.3062C2950.9 17.4764 2949.27 17.6474 2947.64 17.8193C2948.81 18.1774 2949.98 18.5342 2951.14 18.8895C2944.6 19.1097 2941.79 18.3785 2935.78 18.4042C2928.71 18.4342 2925.1 19.186 2920.34 19.2192C2916.44 19.2459 2911.16 18.6933 2906.1 18.7637C2898.73 18.8646 2900.34 19.7175 2896.38 19.9105C2894.8 19.9829 2865.54 20.7036 2863.89 20.7268C2851.34 20.8663 2850.25 19.6359 2840.24 19.5932C2812.48 19.4744 2783.98 20.6995 2758.3 21.3038C2746.84 21.5703 2734.87 21.5817 2723.44 21.4409C2741.45 17.8362 2701.6 15.2643 2716.5 20.7336C2703.78 20.0204 2694.76 21.5853 2682.7 21.4105C2674.9 21.2932 2669.51 20.5333 2658.37 20.6164C2638.61 20.7565 2616.99 23.2361 2611.31 19.0317C2588.11 19.8915 2568.02 18.3925 2559.66 22.2865C2553.68 22.5621 2538.35 20.333 2531.64 20.0395C2525.3 19.7779 2476.61 18.89 2468.65 18.848C2460.68 18.8143 2446.74 18.7911 2440.03 19.1724C2431.61 19.6345 2425.72 23.9587 2410.71 18.9904C2393.27 19.4514 2387.05 19.3319 2370.83 18.7832C2367.89 18.684 2367.56 17.924 2365.84 17.9274C2362.31 17.9355 2356.29 18.5144 2349.98 18.6005C2339.61 18.7426 2333.69 17.1344 2334.84 19.6087C2328 20.044 2321.16 20.4824 2314.32 20.9236C2311.92 20.4498 2309.52 19.9746 2307.12 19.4982C2303.46 20.0347 2299.8 20.5732 2296.14 21.1137C2300.44 17.4662 2274.7 19.6787 2283.06 21.755C2269.79 21.0447 2256.53 20.3224 2243.27 19.5892C2245.12 15.3763 2214.15 19.1585 2216.76 21.471C2215.24 21.472 2213.72 21.4731 2212.21 21.4742C2198.92 20.3802 2186.72 21.3403 2170.53 20.6151C2154.34 19.8852 2155.86 19.46 2150.93 17.4794C2147.12 17.599 2143.31 17.7189 2139.5 17.839C2119.51 23.3607 2123.04 13.8386 2088.8 18.111C2077.87 14.6428 2050.9 16.4875 2033.02 17.5816C2030.94 17.7081 2030.91 18.3925 2028.14 18.6074C2021.36 19.1253 2004.08 18.264 2004.67 20.4826C1998.69 19.8501 1992.7 19.2152 1986.72 18.5781C1981.83 18.9887 1976.94 19.4002 1972.05 19.8127C1972.07 20.5094 1972.1 21.2062 1972.12 21.903C1962.27 19.5436 1946.8 20.4756 1939.16 19.9155C1937.65 19.8016 1937.32 18.8356 1932.6 18.5763C1927.08 18.2685 1916.79 18.5648 1910.22 18.2676C1907.66 19.3449 1905.1 20.4233 1902.55 21.5029C1890.79 22.103 1886.65 19.2622 1879.75 19.0462C1878.5 19.0089 1855.82 19.233 1854.6 19.2949C1844.59 19.7862 1847.42 22.2223 1818.48 21.7278C1813.33 21.638 1809.16 20.7953 1804.5 20.7648C1796.28 20.7091 1771.48 22.6503 1769.53 24.4321C1759.55 22.2142 1732.85 23.1411 1724.98 22.5002C1722.61 22.3031 1722.07 20.8812 1714.78 20.5811C1708.86 20.3363 1693.63 21.4814 1686.13 21.2928C1678.16 21.0872 1675.32 19.8908 1671.75 19.8068C1668.38 19.7287 1665.27 20.6957 1660.68 20.6909C1646.34 20.6596 1633.35 19.1041 1622.02 19.0754C1621.85 19.075 1621.67 19.0748 1621.5 19.075C1605.32 19.0908 1591 21.9053 1577.43 23.159C1574.03 22.9727 1570.69 22.3578 1567.12 22.3512C1522.97 22.25 1473.16 21.6925 1428.88 21.0476C1408.32 20.7473 1357.2 16.8746 1370.85 23.2734C1363.71 24.3807 1311.76 21.7351 1301.88 21.6854C1292 21.633 1284.17 22.7518 1276.41 22.7539C1252.98 22.758 1236.48 21.9222 1207.96 22.8333C1200.59 23.0716 1192.7 24.3697 1188.34 24.3422C1183.08 24.3062 1177.43 23.0211 1170.62 22.9244C1154.4 22.7042 1124.16 23.0382 1108.59 22.7767C1105.75 22.7265 1104.75 21.6279 1100.69 21.2761C1084.86 19.9026 1067.12 19.9841 1070.26 23.4535C1049.97 21.4267 1031.2 23.1593 1012.4 23.1947C972.641 23.2673 900.223 22.226 865.589 23.4216C843.752 24.174 844.31 25.5938 812.158 24.1885C805.021 23.8781 797.916 23.4761 789.26 23.1111C768.969 22.2403 750.354 19.6422 734.889 22.5997C712.353 21.6982 694.405 22.1332 677.685 19.5402C675.714 20.1345 673.742 20.7269 671.771 21.3171C669.008 21.3172 666.246 21.3171 663.483 21.3169C662.621 20.742 661.759 20.1679 660.897 19.5947C641.104 19.3662 615.994 21.5317 599.24 21.401C571.149 21.2 498.8 19.8987 472.164 19.0833C458.023 18.6504 457.262 19.6952 449.166 17.49C446.003 17.6261 442.84 17.7609 439.677 17.8944C437.698 18.3543 435.719 18.8118 433.739 19.2669C415.597 19.1689 394.079 18.3311 376.795 18.2418C345.301 18.0962 298.009 18.909 266.383 17.9545C258.453 17.7169 248.541 16.8524 240.775 16.8193C229.473 16.7693 226.726 18.0482 212.383 17.9595C187.664 17.7844 141.629 16.0838 118.264 16.063C111.325 16.0491 108.087 16.4361 103.295 16.4446C83.2024 16.4822 66.7062 16.3405 47.4397 16.7484C26.7524 15.6303 28.5396 14.4845 22.1284 13.2804C17.2697 12.3627 2.37128 10.3784 0.256364 9.65945C-1.22924 9.1466 4.31751 8.43447 2.23574 7.87025C27.0209 7.19239 37.4336 7.59252 57.5592 8.36711C94.7261 8.09125 131.893 7.8168 169.06 7.54453C172.441 7.94144 175.823 8.34429 179.204 8.75303C179.204 8.75395 179.204 8.75488 179.204 8.7558C193.477 9.18951 199.527 8.05549 207.225 7.75199C280.92 4.7665 425.969 5.78719 507.1 5.94635C524.583 5.95537 581.454 4.8589 593.45 5.82638C596.556 6.07906 597.42 7.04616 600.724 7.07827C630.246 6.40644 659.767 5.70565 689.289 4.9802C749.996 6.36086 812.757 4.84609 873.927 4.36284C1039.43 3.12559 1203.27 1.70842 1366.06 1.80619C1397.52 1.82874 1437.45 0.826757 1468.25 1.42299C1481.1 1.66998 1486.46 3.7338 1503.34 2.18365C1503.52 2.74078 1503.7 3.29792 1503.88 3.85509C1518.61 3.17588 1528.03 1.90186 1544.55 1.76622C1558.46 1.65341 1595.28 1.56233 1607.57 1.77607C1613.95 1.88253 1611.57 2.92732 1617.52 2.92187C1618.7 2.91989 1620.04 2.89867 1621.5 2.86271C1632.64 2.58881 1651.07 1.46222 1663.49 1.46507C1676.21 1.4677 1697.66 2.67669 1707.44 2.50641C1742.67 1.90079 1781.04 0.154566 1818.58 0.670844C1828.95 0.816469 1842.29 2.17069 1845.54 2.1364C1851.88 2.06523 1853.77 0.768434 1858.03 0.607134C1879.68 -0.206701 1913.42 1.38313 1934.64 1.47561C2003.77 1.77998 2077.01 1.38869 2145.85 1.80719C2189.34 2.06007 2261.61 2.0874 2301.76 3.104C2310.42 3.32238 2308.11 4.59448 2315.38 4.6143C2323.44 4.63551 2327.81 3.7896 2331.58 3.7327C2357.65 3.32 2415.22 2.70869 2439.83 3.64798C2444.52 3.82739 2447.93 4.78606 2450.73 4.79172C2452.15 4.79631 2455.37 4.16349 2459.83 4.1151C2499.22 3.68735 2527.94 4.18814 2566.54 4.55632C2640.46 5.23366 2726.12 4.61256 2803.78 5.58486C2820.7 5.79546 2832.3 7.30943 2834.68 7.30149C2839.9 7.29323 2843.25 6.33489 2853.82 6.15566C2888.98 5.58526 2936.33 6.84201 2969.77 6.59616C2986.3 6.47788 3009 5.5892 3025.26 5.50585C3038.24 5.43701 3068.91 6.07241 3074.67 5.7033C3078.17 5.48139 3079.79 4.69293 3083.98 4.6373ZM2646.51 19.7427C2648.82 17.7814 2624.51 19.5149 2633.63 20.5301C2635.68 20.7561 2645.91 20.2505 2646.51 19.7427ZM1508.03 17.7906C1508.25 18.5306 1508.48 19.2706 1508.7 20.0106C1511.89 19.7041 1515.08 19.3973 1518.28 19.0904C1516.48 18.6447 1514.69 18.1992 1512.89 17.7537C1511.27 17.766 1509.65 17.7783 1508.03 17.7906Z" fill="white"/>
</svg>
