<svg width="168" height="170" viewBox="0 0 168 170" fill="none" xmlns="http://www.w3.org/2000/svg">
<g opacity="0.9">
<path d="M51.6079 165.022L33.8551 155.973C30.8655 154.449 28.3733 152.095 26.6815 149.198C24.1195 144.809 23.6208 139.547 25.1992 134.762C26.7204 130.151 28.1409 125.545 28.1034 124.615L27.3086 104.909C27.0958 99.6348 24.9041 94.613 21.1696 90.8402L13.4355 83.027C10.5737 80.1359 8.59897 76.49 7.74858 72.5277L3.9931 55.029C3.04667 50.6191 3.54008 46.0383 5.40058 41.9621L13.0227 25.2628C15.8458 19.0774 21.5194 14.6853 28.2328 13.488L86.1281 3.16237C88.5297 2.73404 90.9926 2.72872 93.4058 3.14665L144.746 12.038C154.606 13.7456 161.979 22.14 162.382 32.1158L163.128 50.6239C163.315 55.2529 161.965 59.796 159.289 63.5459L133.573 99.5785C131.259 102.821 129.929 106.668 129.74 110.666L128.66 133.532C128.327 140.585 124.463 146.957 118.379 150.486L101.844 160.079C99.5676 161.4 97.0566 162.276 94.4435 162.662L64.2866 167.113C59.9608 167.751 55.5278 167.02 51.6079 165.022Z" fill="#271E11" fill-opacity="0.71" stroke="#FFEEEE" stroke-width="5"/>
<path d="M7.43038 71.1942V71.1942C12.7702 75.8514 20.2189 77.1987 26.7764 74.6935L33.5389 72.1099C36.6636 70.9162 39.9727 70.2573 43.3283 70.1607L72.1636 69.3305C75.6647 69.2297 79.1636 69.7426 82.5015 70.8458L93.9826 74.6406C100.084 76.6572 106.648 76.6779 112.716 74.6998L129.06 69.3717C132.79 68.1557 136.235 66.2154 139.201 63.6613L152.606 52.1137" stroke="#FFEEEE" stroke-width="5" stroke-linecap="round"/>
<path d="M98.3398 18.5156L154.695 41.5308" stroke="#FFEEEE" stroke-width="5" stroke-linecap="round"/>
<path d="M51.5726 17.771L12.4758 32.3074" stroke="#FFEEEE" stroke-width="5" stroke-linecap="round"/>
<path d="M26.7179 101.187C32.8986 101.381 32.107 92.687 32.083 92.0916C32.059 91.4963 27.242 85.0289 25.0566 81.8633" stroke="#FFEEEE" stroke-width="5" stroke-linecap="round"/>
<path d="M93.4258 82.502L96.2966 88.0134C99.9274 94.984 106.459 100.012 114.115 101.729V101.729C118.728 102.764 123.52 102.543 127.989 101.09L132.477 99.6313" stroke="#FFEEEE" stroke-width="5" stroke-linecap="round"/>
</g>
</svg>
