<svg width="220" height="214" viewBox="0 0 220 214" fill="none" xmlns="http://www.w3.org/2000/svg">
<path d="M73.0501 3.36795C73.8153 3.00384 75.1156 3.2086 76.0618 2.9618C80.0566 1.94956 81.6275 1.99164 85.2983 1.45277C90.6575 0.328134 106.931 -1.37669 106.879 2.91748C106.879 2.91758 106.879 2.91769 106.879 2.91779C106.879 2.95755 106.877 2.99777 106.874 3.03846C106.815 3.80898 105.496 4.661 105.319 5.53971C105.144 6.41913 105.352 12.0469 103.65 12.4155C101.191 12.8601 95.0635 11.9988 93.7198 12.2946C92.8147 12.4634 91.7719 13.1395 90.6341 13.4284C86.992 14.3735 84.9455 14.4635 82.0598 16.6796C80.5701 16.3267 79.0692 16.0066 77.5335 15.7287C75.9359 16.5892 73.0657 16.6017 72.0554 17.0588C71.2331 17.4257 70.9631 18.1595 70.1177 18.5392C69.1738 18.968 67.4406 19.0296 65.7569 19.9311C62.9981 21.4244 63.221 23.0466 61.6984 24.0824C60.1245 25.1604 57.1356 25.9628 55.3784 27.7525C55.2135 28.0587 55.0507 28.3653 54.8901 28.6723C55.28 28.8655 55.6681 29.0609 56.0545 29.2582C55.1469 30.0656 54.2851 29.718 53.3595 30.3456C52.2732 31.0873 52.167 32.0751 51.4639 32.5935C50.8877 33.0185 49.7538 33.1453 49.0407 33.7569C48.0036 34.6473 48.7725 35.1218 48.3103 35.7037C48.0951 35.9111 44.3896 39.7855 44.205 40.0201C42.5706 41.6124 41.62 40.932 40.2495 42.1799C36.4599 45.6681 33.8337 50.3684 31.4579 54.4007C30.3878 56.2075 29.1502 57.9918 27.9157 59.6882C27.1084 55.2596 21.285 60.5371 26.7232 60.4597C24.9722 62.1652 25.2905 64.2297 24.1218 66.1009C23.3675 67.3222 22.3545 67.9383 21.5406 69.8329C20.0836 73.2186 20.5405 77.5199 17.0748 77.4938C16.2754 81.7719 14.2575 85.1899 16.787 87.321C16.7194 88.4204 14.4864 90.8496 14.0629 92.0742C13.5471 93.1641 11.8653 102.206 11.888 103.727C11.8323 104.595 11.7796 105.848 11.8126 107C11.8126 107 11.8126 107 11.8126 107C11.8356 107.834 11.9016 108.609 12.0212 109.138C12.3828 110.75 15.4275 111.609 12.1066 114.669C12.6731 117.91 12.7189 119.084 12.776 122.171C12.791 122.733 12.2833 122.882 12.3373 123.204C12.45 123.87 13.0336 124.925 13.3171 126.081C13.7853 127.989 12.9815 129.334 14.5742 128.735C15.1435 129.921 15.7358 131.09 16.3513 132.245C16.1569 132.763 15.9667 133.285 15.781 133.811C16.3163 134.371 16.8552 134.917 17.4013 135.462C14.805 135.439 17.7304 139.604 18.549 137.644C18.8749 140.128 19.3093 142.626 19.8498 145.118C17.1289 145.935 21.8974 150.28 23.0405 149.103C23.1655 149.356 23.2917 149.609 23.419 149.861C23.9017 152.403 25.5406 154.11 26.7151 156.937C27.9217 159.769 27.5677 159.665 27.0277 161.163C27.4987 161.726 27.9754 162.282 28.4577 162.832C33.5205 163.782 28.2168 167.029 34.5613 170.34C34.2642 173.388 38.7645 176.446 41.7479 178.221C42.0947 178.432 42.3871 178.12 42.8671 178.375C44.022 179.009 46.1944 181.54 46.9844 180.392C47.6026 181.412 48.2448 182.427 48.9108 183.434C49.8048 183.798 50.699 184.145 51.5965 184.479C51.8432 184.125 52.0899 183.772 52.3366 183.419C52.9781 185.696 55.7465 186.847 56.7828 187.892C56.9894 188.103 56.7285 188.643 57.414 189.248C58.213 189.959 59.9991 190.785 61.0152 191.543C61.7576 191.198 62.493 190.845 63.2214 190.483C65.3252 191.175 65.2652 193.063 66.3971 193.747C66.5901 193.89 70.5904 195.503 70.8238 195.532C72.7021 195.944 72.7046 194.473 77.7017 196.5C78.5994 196.852 79.1933 197.572 80.0264 197.839C81.5035 198.35 86.2929 198.332 86.8599 197.331C88.3621 199.076 93.3705 199.372 94.7579 199.908C95.1808 200.08 95.1698 200.949 96.5201 201.282C97.6203 201.561 100.516 201.115 101.921 201.291C103.398 201.489 103.912 202.217 104.587 202.286C105.225 202.348 105.822 201.778 106.69 201.783C106.753 201.784 106.816 201.785 106.879 201.786C109.646 201.847 112.155 202.738 114.352 202.755C114.386 202.755 114.42 202.755 114.455 202.755C117.562 202.744 120.188 200.916 122.616 199.95C123.253 200.006 123.899 200.315 124.567 200.247C132.753 199.461 141.881 197.523 149.717 194.728C153.366 193.607 163.037 191.084 158.89 188.871C159.763 187.767 168.716 183.98 170.177 182.767C171.678 181.688 172.395 180.236 173.499 179.321C176.813 176.537 179.461 174.827 182.651 170.562C183.469 169.454 183.811 167.819 184.337 167.222C184.973 166.504 186.256 166.22 187.086 165.269C189.09 163.022 192.097 158.301 193.692 155.91C193.99 155.477 194.686 155.686 195.264 155.148C197.531 153.052 198.998 150.013 196.732 149.518C199.588 146.765 199.952 143.067 201.102 139.835C203.781 133.054 207.016 119.978 206.296 113.54C206.034 110.425 205.347 109.802 205.464 107C205.464 107 205.464 107 205.464 107C205.492 106.161 205.584 105.132 205.737 103.785C205.884 102.491 206.076 101.177 206.18 99.5829C206.431 95.8855 207.75 92.1097 205.018 89.7192C204.809 85.5412 203.566 82.4899 204.477 78.9629C203.929 78.7463 203.381 78.5359 202.832 78.3315C202.664 77.8502 202.492 77.3708 202.317 76.8934C202.679 76.6015 203.041 76.3076 203.401 76.0118C202.304 72.4454 198.81 68.8611 197.458 66.1355C195.429 61.3945 188.621 49.8971 185.615 45.8782C184.117 43.6775 183.327 44.2325 183.699 41.802C183.192 41.4592 182.682 41.1221 182.171 40.7907C181.609 40.8196 181.049 40.8536 180.491 40.8926C178.112 38.5257 175.551 35.372 173.009 33.3684C168.409 29.626 160.385 25.9279 155.434 22.756C154.2 21.9378 152.873 20.3765 151.518 19.8129C149.551 19.0043 148.544 20.1456 146.051 19.2607C141.809 17.6747 133.878 13.9273 129.457 13.4475C128.157 13.2807 127.489 13.733 126.594 13.6739C122.84 13.4469 119.754 13.1894 116.174 13.947C115.48 13.6822 114.917 13.4136 114.455 13.1368C112.263 11.8961 112.31 10.4335 111.27 8.9601C110.306 7.60007 107.349 4.44822 106.93 3.25709C106.635 2.42025 107.736 1.34375 107.323 0.422608C110.44 -0.0437044 112.412 0.110995 114.455 0.616835C115.715 0.909553 116.988 1.33769 118.502 1.8691C126.251 2.10974 133.984 3.20281 141.515 5.14656C142.072 5.81417 142.616 6.4859 143.147 7.16137C143.146 7.16243 143.146 7.16348 143.146 7.16454C145.792 8.53714 147.365 7.71494 148.982 7.95946C165.063 9.46903 189.873 29.7886 198.778 44.1657C201.049 46.9997 207.829 56.8574 208.085 59.5474C208.188 60.2215 207.574 60.727 207.844 61.3536C210.936 66.6186 213.58 72.1949 215.719 78.002C217.492 87.5245 219.205 97.1786 219.508 107C219.508 107 219.508 107 219.508 107C219.604 110.089 219.562 113.149 219.342 116.2C217.132 150.805 196.302 183.488 166.025 199.874C160.252 203.1 152.668 206.977 146.314 208.527C143.669 209.176 142.272 208.297 139.063 210.034C138.949 209.716 138.836 209.399 138.723 209.081C135.825 210.17 134.038 211.311 130.595 211.929C127.734 212.51 119.968 213.228 117.393 213.095C116.049 213.062 116.538 212.426 115.291 212.444C115.043 212.447 114.763 212.461 114.455 212.482C112.46 212.631 109.289 213.196 106.879 213.305C106.6 213.317 106.33 213.323 106.073 213.321C103.374 213.324 98.9139 212.347 96.8777 212.239C89.5184 211.936 81.2437 211.382 73.7319 208.618C71.6527 207.865 69.3 206.117 68.659 205.888C67.3992 205.448 66.7352 206.027 65.8602 205.776C61.3767 204.521 55.3858 200.412 51.6229 198.021C39.1924 190.382 27.4696 179.796 19.3118 167.707C13.9302 160.245 7.16476 146.362 5.49038 138.007C5.08955 136.227 6.05845 136.451 5.64843 134.992C5.20297 133.371 4.42223 132.629 4.18933 131.873C2.40864 126.692 0.288812 114.632 0.946158 109.424C1.03895 108.434 1.71237 107.714 1.70894 107.127C1.7089 107.09 1.70184 107.048 1.68942 107C1.68942 107 1.68942 107 1.68942 107C1.60123 106.66 1.24176 106.038 1.21388 105.215C0.98785 96.9475 2.00922 90.9017 3.93594 83.0503C7.57182 68.0418 14.9291 51.0725 25.938 38.918C28.3132 36.258 30.9751 35.4371 31.2971 35.0732C32.0248 34.276 31.8512 33.1416 33.2785 31.4314C38.0185 25.6847 46.5461 20.3595 52.3262 16.4371C55.1538 14.4483 58.8643 11.1841 61.9225 9.51246C64.3357 8.11016 70.5967 6.16415 71.5983 5.33449C72.2045 4.80395 72.2234 3.76732 73.0501 3.36795ZM19.9923 71.5655C18.6919 70.5697 18.256 75.301 19.6515 73.9986C19.957 73.7084 20.3197 71.8222 19.9923 71.5655ZM136.014 201.099C135.873 200.674 135.733 200.249 135.594 199.824C135.047 200.138 134.494 200.448 133.936 200.752C134.325 200.945 134.716 201.136 135.109 201.324C135.412 201.25 135.713 201.175 136.014 201.099Z" fill="white"/>
<path d="M96.8213 34.3601C97.1204 34.1513 97.751 34.5693 98.1435 34.4885C99.8035 34.1616 100.499 34.416 102.011 34.3396C104.198 34.0992 110.8 32.9646 110.736 37.1138C110.736 37.1139 110.736 37.114 110.736 37.1141C110.736 37.1538 110.736 37.1941 110.734 37.2347C110.71 38.0065 110.215 38.8531 110.161 39.7285C110.106 40.6042 110.223 46.2417 109.683 46.575C108.909 47.0002 106.821 45.7437 106.364 45.8843C106.065 45.9689 105.772 46.5305 105.41 46.6839C104.258 47.1809 103.513 46.9661 102.825 48.586C102.223 47.987 101.595 47.4043 100.939 46.84C100.478 47.3379 99.31 46.724 98.9744 46.9103C98.7052 47.0592 98.7531 47.6638 98.4779 47.804C98.1732 47.9636 97.4294 47.595 96.8828 47.9507C95.9895 48.5358 96.5139 49.9784 96.0808 50.4214C95.6377 50.8791 94.3797 50.6498 93.9871 51.5313C93.9924 51.7251 93.9992 51.9184 94.0076 52.1113C94.2707 52.39 94.5318 52.6703 94.7908 52.9522C94.5694 53.3018 94.0104 52.7454 93.7072 52.9333C93.3509 53.1554 93.6017 53.876 93.3794 54.032C93.1973 54.1593 92.6004 53.8704 92.3856 54.0813C92.0736 54.3857 92.6722 54.9956 92.5945 55.259C92.5504 55.3583 91.6036 56.7749 91.5524 56.8457C91.0632 57.3377 90.2214 56.5403 89.7335 56.876C88.3811 57.8226 88.0065 59.7114 87.4568 61.0665C87.2057 61.6768 86.7785 62.1831 86.2785 62.6255C84.3595 60.1049 81.0913 60.9655 85.5323 62.6235C84.5817 62.9103 85.4102 63.9915 84.9097 64.482C84.5841 64.805 83.8648 64.7937 83.6032 65.387C83.1283 66.4714 84.4258 68.2221 81.2007 67.4144C81.2786 68.9039 79.8033 69.7925 82.5197 70.9755C82.6113 71.3287 80.7197 71.8089 80.4119 72.1718C80.089 72.4735 78.9141 75.3242 78.8721 75.8346C78.791 76.326 78.7093 77.1896 78.9621 77.61C79.0623 77.7806 79.4484 77.936 79.8047 78.0926C79.8047 78.0926 79.8047 78.0926 79.8047 78.0926C80.5499 78.4298 81.1602 78.7199 78.7904 79.4315C79.1281 80.501 79.0578 80.8676 78.7617 81.9237C78.7095 82.1143 78.1904 82.2006 78.2037 82.309C78.2324 82.5338 78.6684 82.8538 78.7777 83.2368C78.9567 83.8623 77.9447 84.4362 79.5909 84.0489C79.9473 84.4067 80.3107 84.756 80.679 85.0896C80.3935 85.3028 80.1099 85.5202 79.8284 85.7415C80.2274 85.8745 80.6272 86.0004 81.0273 86.1186C78.5898 86.5012 80.4236 87.6567 81.6239 86.7541C81.3604 87.6443 81.137 88.5638 80.958 89.51C78.3099 90.4063 81.3623 91.3465 82.6716 90.5382C82.7063 90.6215 82.7412 90.7046 82.7766 90.7876C82.4367 91.8212 83.3048 92.2164 83.3415 93.305C83.3948 94.4076 83.1254 94.4634 82.1912 95.3949C82.3819 95.5676 82.574 95.7375 82.7675 95.9045C86.3764 95.0051 81.2248 98.2915 84.7505 98.4829C83.4483 100.409 85.5557 101.099 86.834 101.432C86.9838 101.474 87.2903 101.176 87.5078 101.208C88.0282 101.289 88.453 102.441 89.3589 101.396C89.3594 101.938 89.3742 102.485 89.4039 103.035C89.8034 103.047 90.2006 103.051 90.5947 103.047C90.8642 102.711 91.1338 102.376 91.4034 102.04C90.9427 103.559 92.0688 103.699 92.2458 104.251C92.2819 104.363 91.9549 104.861 92.1106 105.165C92.292 105.526 92.9356 105.741 93.1935 106.12C93.6821 105.65 94.1631 105.173 94.6362 104.69C95.4177 104.745 94.7739 106.372 95.0973 106.705C95.1524 106.771 96.4806 107.317 96.5687 107.309C97.2684 107.311 97.716 105.924 99.1858 106.877C99.4498 107.044 99.5021 107.613 99.7639 107.732C100.231 107.956 102.023 107.31 102.413 106.298C102.582 107.76 104.266 107.606 104.637 108.066C104.751 108.21 104.614 109.057 105.023 109.318C105.36 109.533 106.385 109 106.816 109.165C107.278 109.348 107.383 110.079 107.598 110.152C107.804 110.219 108.046 109.658 108.326 109.682C109.199 109.768 109.971 110.726 110.703 110.744C110.714 110.744 110.725 110.744 110.736 110.744C111.783 110.734 112.604 109 113.321 108.182C113.528 108.276 113.759 108.625 113.972 108.606C116.59 108.397 119.549 108.011 122.194 107.359C123.385 107.13 127.332 107.709 124.751 104.66C124.791 103.913 128.181 103.679 128.692 103.293C129.191 102.965 129.141 102.126 129.489 101.838C130.533 100.964 131.627 100.676 132.37 99.0512C132.559 98.6288 132.257 97.7357 132.426 97.5609C132.633 97.351 133.449 97.6327 133.745 97.3591C134.453 96.7122 135.288 95.1403 135.885 94.4557C135.997 94.3323 136.619 94.6642 136.935 94.5746C138.174 94.2247 138.646 93.2028 136.585 92.2997C138.27 91.8763 137.717 90.3373 138.051 89.3395C138.843 87.2424 140.339 83.2473 139.541 81.1752C139.061 79.888 138.075 79.9144 138.971 78.1706C138.983 78.1447 138.996 78.1187 139.01 78.0926C139.01 78.0926 139.01 78.0926 139.01 78.0926C139.197 77.7228 139.431 77.3436 139.627 76.8818C140.124 75.7532 141.846 74.387 139.501 73.8232C139.884 72.4591 139.27 71.5827 140.871 70.1421C140.397 70.1436 139.924 70.1505 139.451 70.1628C139.398 70.0122 139.343 69.8623 139.288 69.7131C139.694 69.5426 140.099 69.37 140.504 69.1953C140.272 67.9897 138.066 67.231 137.704 66.3821C137.164 64.8937 135.651 60.9685 135.069 59.3692C134.792 58.5043 134.046 59.0817 135.205 57.4631C134.976 57.3995 134.747 57.339 134.519 57.2815C134.121 57.4682 133.727 57.659 133.335 57.8538C132.619 57.0748 132.174 55.7069 131.387 55.0149C129.949 53.7171 127.043 53.0552 125.813 51.5081C125.505 51.1106 125.386 50.0596 124.952 49.8525C124.321 49.5535 123.555 50.7846 122.786 50.4731C121.504 49.9255 119.403 47.4658 117.928 47.2834C117.504 47.2237 117.198 47.7089 116.907 47.708C115.686 47.7151 114.696 47.5307 113.496 48.2527C112.412 46.7741 112.574 45.0106 112.237 43.188C111.993 41.8117 110.947 38.6408 110.756 37.4534C110.635 36.6162 111.092 35.541 110.925 34.6193C113.023 33.9064 113.931 34.7901 115.418 36.2467C118.437 36.5287 121.435 37.1401 124.336 38.0715C124.436 38.6367 124.526 39.2012 124.606 39.7647C124.606 39.7658 124.605 39.7668 124.605 39.7678C125.456 40.6966 126.363 39.6762 127.059 39.6496C134.043 39.114 142.821 48.9648 145.718 54.7512C146.503 55.9124 149.335 59.7239 148.933 60.9852C148.842 61.3029 148.16 61.6777 148.232 61.9307C149.581 63.8927 150.777 66.0091 151.787 68.2524C151.772 71.6037 152.306 74.7886 152.563 78.0926C152.563 78.0926 152.563 78.0926 152.563 78.0926C152.695 79.8084 152.75 81.5309 152.605 83.2395C151.59 96.7549 143.38 109.764 131.218 116.033C128.915 117.26 126.007 119.101 123.4 119.487C122.313 119.65 121.582 118.567 120.449 119.79C120.359 119.467 120.269 119.143 120.18 118.82C119.105 119.479 118.483 120.38 117.124 120.666C115.996 120.93 112.917 121.238 111.898 121.108C111.365 121.056 111.552 120.426 111.064 120.435C110.967 120.437 110.857 120.45 110.736 120.471C110.736 120.471 110.736 120.471 110.736 120.471C109.824 120.641 108.274 121.261 107.228 121.172C106.162 121.095 104.484 120.149 103.679 120.112C100.775 120.012 97.2996 120.176 94.4245 118.706C93.632 118.304 92.9403 117.1 92.6924 117.008C92.1966 116.829 91.7115 117.469 91.34 117.4C89.436 117.052 87.4177 114.767 86.0073 113.716C81.3141 110.332 76.7459 106.017 73.813 100.986C71.8773 97.889 69.3668 92.2467 69.1965 88.8203C69.1444 88.0914 70.0314 88.0734 69.8968 87.4989C69.7514 86.8629 69.1095 86.6282 69.0028 86.3332C68.2865 84.4971 67.3398 80.3838 67.744 78.0926C67.744 78.0926 67.744 78.0926 67.744 78.0926C67.78 77.8609 67.8268 77.6493 67.8844 77.462C68.0049 77.0727 68.6909 76.8137 68.6963 76.587C68.7004 76.4721 68.2475 76.1934 68.2196 75.823C67.9941 72.5493 68.6437 70.1775 69.5931 67.1423C71.374 61.3664 73.9933 54.5113 78.6596 49.9666C79.6672 48.9737 81.2966 49.2445 81.4147 49.1034C81.6887 48.7903 81.2402 47.958 81.7205 47.1978C83.3346 44.6379 87.079 43.0532 89.2135 41.3158C90.2615 40.4345 91.4366 38.5392 92.6192 37.7374C93.5538 37.0702 96.1706 36.5617 96.481 35.9458C96.6694 35.5621 96.5007 34.5906 96.8213 34.3601ZM82.6299 65.7089C81.2523 64.9525 81.8727 66.8248 82.8599 66.6312C83.0775 66.5934 82.9832 65.907 82.6299 65.7089ZM118.029 110.706C117.918 110.275 117.808 109.843 117.698 109.411C117.545 109.635 117.386 109.858 117.225 110.08C117.389 110.32 117.556 110.558 117.726 110.796C117.827 110.767 117.928 110.737 118.029 110.706Z" fill="white"/>
<path d="M188.612 171.983C188.699 172.263 188.089 172.603 188.035 172.92C187.802 174.251 187.362 174.718 187.044 175.913C186.572 177.686 186.944 183.079 182.9 182.781C182.9 182.781 182.9 182.781 182.9 182.781C182.86 182.779 182.82 182.775 182.78 182.771C182.011 182.696 181.203 182.18 180.337 182.049C179.47 181.917 173.839 181.554 173.57 180.886C173.222 179.921 174.83 177.785 174.802 177.281C174.783 176.937 174.303 176.48 174.244 176.038C174.054 174.611 174.483 173.903 173.186 172.535C173.956 172.083 174.725 171.63 175.495 171.178C175.204 170.492 176.243 169.562 176.219 169.157C176.2 168.824 175.635 168.589 175.633 168.243C175.628 167.856 176.297 167.311 176.254 166.604C176.187 165.445 174.691 165.13 174.55 164.427C174.404 163.698 175.307 162.648 174.842 161.697C174.835 161.691 174.827 161.685 174.819 161.679L175.07 163.775C174.885 163.72 174.701 163.666 174.518 163.614C174.184 163.806 173.85 163.998 173.516 164.19C173.211 163.815 173.889 163.404 173.776 163.014C173.638 162.543 172.873 162.563 172.772 162.254C172.69 161.998 173.137 161.491 172.989 161.175C172.779 160.723 172.015 161.107 171.781 160.918C171.686 160.821 170.603 159.209 170.558 159.124C170.244 158.393 171.3 157.909 171.161 157.29C170.804 155.619 169.065 154.249 168.579 154.246C168.541 154.237 168.513 154.233 168.445 154.168C168.369 154.086 168.268 154.003 167.853 153.403C168.107 153.78 168.222 153.913 168.313 154.027C168.401 154.135 168.452 154.193 168.49 154.236C168.563 154.318 168.582 154.337 168.583 154.338C168.587 154.341 168.573 154.323 168.548 154.294C168.492 154.227 168.419 154.137 168.356 154.053C168.291 153.966 168.206 153.854 168.128 153.744C168.066 153.649 167.999 153.546 167.93 153.434C170.843 152.124 170.55 148.622 168.03 152.649C167.883 151.59 166.557 152.061 166.107 151.344C165.824 150.887 165.969 150.139 165.412 149.642C164.38 148.724 162.051 149.07 163.999 146.364C162.416 145.703 162.187 143.876 159.798 145.657C159.364 145.505 159.751 143.512 159.557 143.021C159.371 142.551 157.375 139.732 156.977 139.331C156.588 138.932 155.894 138.264 155.371 138.151C154.716 138.004 152.442 140.043 153.958 136.676C152.851 136.108 152.592 135.755 151.996 134.716C151.888 134.528 152.208 134.111 152.117 134.034C151.929 133.876 151.36 133.907 150.995 133.666C150.395 133.268 150.779 132.152 149.767 133.508C149.221 133.426 148.681 133.35 148.139 133.274C148.216 132.917 148.293 132.559 148.37 132.201C147.95 132.319 147.532 132.438 147.115 132.56C148.878 130.836 146.594 130.86 146.17 132.317C145.773 131.355 145.386 130.408 144.973 129.452C146.77 127.323 143.581 127.992 142.828 129.32C142.748 129.258 142.668 129.196 142.589 129.134C142.323 128.017 141.31 128.026 140.72 127.008C140.129 125.995 140.38 125.845 140.81 124.592C140.554 124.508 140.302 124.43 140.055 124.357C137.117 126.65 140.443 121.517 137.25 122.839C137.601 121.19 136.41 120.852 135.775 121.217L135.721 121.204C135.3 121.279 134.881 121.394 134.515 121.486C134.354 121.526 134.249 121.941 134.028 122.022C133.49 122.215 132.441 121.39 132.15 122.739C131.837 122.251 131.524 121.762 131.212 121.273C130.817 121.434 130.423 121.595 130.029 121.756C129.927 122.175 129.826 122.593 129.724 123.012C129.404 121.421 128.211 121.707 127.774 121.237C127.687 121.143 127.808 120.56 127.524 120.323C127.193 120.043 126.449 120.04 126.044 119.749C125.711 120.345 125.379 120.94 125.046 121.536C124.157 121.684 124.292 119.928 123.853 119.68C123.773 119.637 122.194 119.375 122.102 119.39C121.348 119.507 121.186 120.991 119.286 120.195C118.947 120.052 118.786 119.484 118.472 119.386C118.331 119.341 118.096 119.354 117.818 119.416L119.135 119.576C118.395 119.942 117.404 120.789 117.302 121.587C116.6 120.244 114.722 120.793 114.168 120.405C114.001 120.286 113.963 119.43 113.45 119.248C113.034 119.1 111.962 119.785 111.434 119.67C110.874 119.545 110.674 118.827 110.423 118.776C110.186 118.729 109.967 119.309 109.644 119.305C108.635 119.285 107.721 118.351 106.924 118.334C105.771 118.307 104.752 120.025 103.787 120.787C103.548 120.676 103.312 120.307 103.061 120.304C100.153 120.253 96.897 119.973 93.937 119.635L95.2669 119.474C95.0654 119.5 94.8651 119.525 94.6663 119.55C93.2216 119.733 89.1709 118.332 91.0356 121.878C90.711 122.66 86.7869 122.014 86.1064 122.158C85.4261 122.302 85.0585 123.111 84.5306 123.252C82.9375 123.677 81.6901 123.467 79.8877 124.538C79.4226 124.816 79.0817 125.751 78.7814 125.816C78.4193 125.891 77.8414 125.211 77.3643 125.276C76.4028 125.414 74.8203 125.983 73.6921 126.233L73.8349 126.196C73.6669 126.236 73.5115 126.267 73.373 126.285C73.2083 126.304 72.9564 125.646 72.6616 125.506C71.5115 124.953 70.4976 125.409 71.4556 127.444C69.9197 126.652 69.3317 128.171 68.4301 128.696C66.4665 129.747 62.6464 131.728 61.7384 133.818C61.1614 135.112 61.8871 135.786 59.9541 136.466C59.527 136.621 59.0455 136.743 58.5258 136.961C57.3228 137.451 55.1238 137.163 56.2534 139.319C54.9314 140.025 54.6075 141.151 52.4387 140.9C52.7395 141.269 53.0424 141.636 53.3475 142.001C53.2573 142.149 53.168 142.298 53.0796 142.447C52.6882 142.244 52.2962 142.042 51.9035 141.841C51.0838 142.829 51.7527 145.145 51.2125 146.038C50.2642 147.518 47.5498 151.295 46.336 152.673C45.6725 153.403 46.5295 153.791 44.5444 153.539C44.5855 153.788 44.6288 154.034 44.6743 154.277C45.0156 154.556 45.3585 154.834 45.7028 155.108C45.278 156.204 44.1825 157.267 43.8241 158.338C43.5909 159.033 43.4616 159.963 43.368 160.871C43.3169 161.34 43.2832 161.77 43.2364 162.208C43.2221 162.391 43.1923 162.628 43.1823 162.763C43.1792 162.821 43.1671 162.918 43.1716 162.925C43.1743 162.924 43.1734 162.947 43.187 162.868C43.1972 162.772 43.2335 162.68 43.2423 162.084C43.2427 162.81 43.1729 163.326 42.9871 163.863C42.8009 164.379 41.9464 165.05 41.9741 165.566C42.015 166.315 43.4636 166.43 43.5415 167.354C43.6621 168.94 42.2827 172.091 42.6373 173.605C42.7377 174.054 43.2998 174.178 43.4035 174.477C43.8454 175.72 43.995 176.777 45.059 177.785C43.9845 179.344 42.2358 179.663 40.5844 180.507C39.3357 181.136 36.5607 182.975 35.462 183.461C34.686 183.795 33.5342 183.666 32.6883 184.065C31.469 182.36 32.0742 181.335 33.0327 179.577C32.4209 176.816 31.9809 174.045 31.6702 171.282C32.1471 170.981 32.6255 170.685 33.1058 170.398C33.1069 170.398 33.108 170.398 33.1091 170.397C33.6002 169.305 32.282 168.961 31.952 168.403C30.9701 166.775 30.4952 164.428 30.4052 162.084C30.4567 160.672 30.5318 160.766 30.5699 160.425C30.6254 160.12 30.6572 159.963 30.704 159.747C30.8082 159.276 30.8803 158.993 30.9958 158.572C31.0942 158.217 31.2011 157.863 31.3236 157.483C31.4324 157.15 31.554 156.797 31.6882 156.426C32.1934 155.044 32.7849 153.709 33.4209 152.4C34.6673 149.849 36.0485 147.542 37.0568 145.699C37.6523 144.542 39.0831 140.435 40.277 140.07C40.578 139.977 41.2785 140.315 41.4323 140.122C42.1588 137.996 42.9847 135.889 43.9422 133.793C47.625 130.783 50.0432 126.6 53.6587 123.346C58.3925 119.068 64.1381 115.6 70.4679 113.71L70.5914 113.678C76.2437 112.077 81.8928 110.567 87.5726 109.261C89.0602 108.92 90.752 108.226 92.3782 107.777L93.937 107.587C94.697 107.567 95.432 107.591 96.1051 107.707C97.0095 107.862 97.3863 109.107 98.5744 108.179C98.5869 108.515 98.5994 108.85 98.6118 109.186C99.6487 108.781 100.311 108.018 101.474 107.94C102.453 107.876 105.042 107.826 105.907 107.954C106.356 108.018 106.189 108.645 106.607 108.642C107.323 108.632 108.853 107.765 109.842 107.765C110.737 107.765 112.246 108.487 112.934 108.383C114.908 108.087 117.022 107.348 119.135 107.204L120.787 107.406C121.32 107.5 121.845 107.631 122.353 107.817C123.042 108.071 123.758 109.085 123.985 109.118C124.43 109.179 124.748 108.445 125.063 108.418C126.665 108.286 128.744 109.766 130.184 110.161C132.714 110.854 135.358 111.435 137.989 112.028L137.869 112C142.26 113.199 143.89 114.596 146.076 116.005C148.887 117.947 153.143 121.062 155.028 123.359C155.435 123.853 154.761 124.42 155.169 124.752C155.617 125.116 156.229 124.863 156.469 124.999C158.136 125.931 161.678 128.159 162.613 129.767C162.793 130.074 162.532 130.745 162.685 130.875C162.761 130.941 163.238 130.743 163.508 130.916C165.903 132.453 167.26 134.023 169.194 135.986C170.608 137.42 172.205 138.811 173.858 140.236C174.673 140.938 175.511 141.657 176.348 142.398C176.531 142.558 176.781 142.784 176.979 142.962C177.082 143.054 177.178 143.141 177.276 143.231C177.391 143.337 177.501 143.438 177.606 143.534C177.711 143.632 177.806 143.72 177.904 143.813C178.026 143.928 178.138 144.035 178.242 144.135C178.294 144.185 178.343 144.233 178.391 144.28C178.462 144.35 178.529 144.417 178.594 144.482C178.658 144.547 178.719 144.609 178.783 144.676C178.834 144.729 178.914 144.814 179.005 144.916C179.11 145.044 179.188 145.098 179.542 145.61C179.331 145.307 179.492 145.533 179.625 145.704C179.77 145.894 179.932 146.117 180.082 146.337C180.377 146.772 180.63 147.195 180.849 147.594C181.288 148.398 181.61 149.128 181.889 149.849C182.387 151.153 181.47 152.48 181.554 152.641C181.726 152.991 182.659 152.888 183.159 153.557C184.538 155.412 184.899 158.232 185.648 160.374L185.901 162.494C185.881 162.924 185.887 163.339 185.932 163.729C186.069 164.905 187.094 166.582 187.262 167.741C187.397 168.667 186.791 170.786 187.263 171.227C187.547 171.495 188.512 171.68 188.612 171.983ZM165.316 148.524C166.502 147.497 164.38 147.297 164.279 148.344C164.259 148.582 165.014 148.795 165.316 148.524ZM98.9043 117.574C98.9199 118.019 98.9356 118.465 98.9513 118.91C99.1758 118.725 99.4004 118.539 99.625 118.354C99.4988 118.086 99.3725 117.819 99.2463 117.551C99.1323 117.558 99.0183 117.566 98.9043 117.574Z" fill="white"/>
</svg>
