<svg width="6914" height="3492" viewBox="0 0 6914 3492" fill="none" xmlns="http://www.w3.org/2000/svg">
<path d="M2223.2 708.627C2222.32 707.856 2221.4 706.42 2220.43 705.439C2216.36 701.322 2215 699.637 2211.36 695.875C2205.93 690.317 2189.25 674.452 2190.61 672.993C2190.61 672.993 2190.61 672.993 2190.61 672.993C2190.62 672.979 2190.64 672.965 2190.65 672.954C2190.97 672.728 2192.68 673.766 2193.2 673.64C2193.71 673.512 2195.5 671.274 2197.69 673.008C2200.84 675.536 2207.49 682.588 2209.1 684.015C2210.21 684.984 2211.76 685.982 2213.19 687.201C2217.81 691.131 2220 693.436 2224.67 696.441C2225.98 698.239 2227.28 700.048 2228.57 701.868C2230.83 703.618 2233.59 706.997 2234.89 708.14C2235.96 709.076 2236.85 709.345 2237.95 710.327C2239.2 711.425 2240.79 713.463 2243.06 715.451C2246.79 718.711 2248.2 718.494 2250.51 720.38C2252.9 722.333 2256.03 726.003 2259.22 728.342C2259.67 728.579 2260.13 728.815 2260.58 729.05C2260.52 728.6 2260.45 728.15 2260.39 727.701C2261.96 728.922 2262.18 729.931 2263.53 731.156C2265.11 732.598 2266.32 732.903 2267.39 733.866C2268.27 734.655 2269.14 736.069 2270.3 737.071C2271.98 738.533 2272.09 737.701 2273.08 738.407C2273.47 738.691 2280.34 744.306 2280.71 744.633C2283.57 747.142 2283.14 748.088 2285.33 750.178C2287.41 752.152 2289.58 754.055 2291.79 755.9L2293.85 757.907L2293.79 760.5C2294.09 766.059 2294.63 771.556 2294.94 776.681C2295.16 780.152 2295.17 783.773 2295.05 787.234C2292.17 781.783 2290.11 793.847 2294.49 789.335C2293.92 793.186 2295.17 795.916 2295.03 799.566C2294.93 801.927 2294.33 803.561 2294.39 806.932C2294.51 812.914 2296.49 819.457 2293.13 821.178C2293.81 828.2 2292.61 834.282 2295.73 836.813C2295.95 838.624 2294.17 843.264 2293.93 845.295C2293.72 847.216 2293.01 861.953 2292.98 864.364C2292.95 866.775 2292.93 870.995 2293.24 873.026C2293.61 875.577 2297.07 877.359 2293.09 881.901C2293.46 887.182 2293.37 889.063 2292.93 893.975C2292.85 894.864 2292.24 894.964 2292.24 895.484C2292.25 896.554 2292.71 898.375 2292.78 900.285C2292.89 903.426 2291.61 905.218 2293.59 904.868C2293.94 906.939 2294.29 909.01 2294.64 911.081C2294.26 911.808 2293.88 912.534 2293.5 913.261C2293.93 914.368 2294.36 915.475 2294.79 916.582C2291.87 915.282 2293.64 923.075 2295.3 920.544C2294.74 924.559 2294.16 928.573 2293.57 932.588C2290.2 932.028 2293.23 941.402 2295.08 940.613C2295.08 941.073 2295.08 941.532 2295.08 941.991C2294.2 946.013 2294.97 949.706 2294.39 954.608C2293.81 959.509 2293.47 959.049 2291.88 960.54C2291.98 961.693 2292.08 962.846 2292.17 964C2296.59 970.052 2288.97 968.982 2292.39 979.346C2289.61 982.658 2291.09 990.82 2291.97 996.232C2292.07 996.862 2292.61 996.872 2292.79 997.711C2293.2 999.762 2292.51 1004.99 2294.29 1004.82C2293.78 1006.63 2293.27 1008.44 2292.76 1010.25C2293.09 1011.73 2293.42 1013.21 2293.75 1014.69C2294.31 1014.68 2294.86 1014.68 2295.42 1014.67C2293.53 1017.65 2294.28 1022.33 2293.83 1024.64C2293.74 1025.1 2292.97 1025.2 2292.76 1026.63C2292.51 1028.3 2292.75 1031.42 2292.51 1033.41C2293.38 1034.18 2294.24 1034.96 2295.1 1035.73C2295.58 1039.29 2293.31 1040.54 2293.14 1042.63C2293.11 1043.01 2293.29 1049.87 2293.34 1050.24C2293.73 1053.27 2295.68 1052.42 2295.28 1061.18C2295.21 1062.74 2294.54 1064 2294.51 1065.41C2294.47 1067.9 2296.02 1075.4 2297.45 1075.99C2295.67 1079.02 2296.41 1087.1 2295.9 1089.48C2295.74 1090.2 2294.6 1090.36 2294.36 1092.57C2294.17 1094.36 2295.09 1098.97 2294.93 1101.24C2294.77 1103.65 2293.81 1104.51 2293.75 1105.59C2293.68 1106.61 2294.46 1107.55 2294.45 1108.95C2294.43 1113.29 2293.18 1117.22 2293.16 1120.65C2293.16 1120.7 2293.16 1120.75 2293.16 1120.81C2293.17 1125.7 2295.42 1130.04 2296.43 1134.14C2296.28 1135.17 2295.79 1136.19 2295.78 1137.27C2295.7 1150.63 2295.25 1165.71 2294.74 1179.11C2294.5 1185.34 2291.4 1200.81 2296.52 1196.68C2297.4 1198.84 2295.29 1214.57 2295.25 1217.56C2295.21 1220.55 2296.1 1222.92 2296.1 1225.27C2296.11 1232.36 2295.44 1237.36 2296.17 1245.99C2296.36 1248.22 2297.4 1250.61 2297.37 1251.93C2297.34 1253.52 2296.32 1255.23 2296.24 1257.29C2296.06 1262.2 2296.33 1271.36 2296.12 1276.07C2296.08 1276.93 2295.2 1277.23 2294.92 1278.46C2293.82 1283.25 2293.89 1288.62 2296.66 1287.67C2295.04 1293.81 2296.43 1299.5 2296.46 1305.19C2296.51 1317.22 2295.68 1339.14 2296.64 1349.63C2297.24 1356.24 2298.38 1356.07 2297.25 1365.8C2297 1367.96 2296.68 1370.11 2296.39 1372.73C2295.69 1378.88 2293.61 1384.51 2295.98 1389.19C2295.26 1396.01 2295.61 1401.45 2293.53 1406.51C2294.01 1407.11 2294.48 1407.7 2294.95 1408.3C2294.95 1409.14 2294.95 1409.97 2294.95 1410.81C2294.49 1411.07 2294.03 1411.33 2293.58 1411.59C2293.39 1417.58 2295.13 1425.18 2295.02 1430.26C2294.86 1438.76 2293.82 1460.66 2293.17 1468.72C2292.82 1473 2293.66 1473.23 2291.89 1475.68C2292 1476.64 2292.11 1477.6 2292.22 1478.56C2292.58 1479.16 2292.95 1479.76 2293.31 1480.35C2293.24 1485.85 2292.56 1492.36 2292.49 1497.59C2292.38 1507.13 2293.03 1521.44 2292.26 1531.02C2292.12 1532.85 2291.68 1535.03 2291.47 1537L2291.42 1538.99L2290 1540.09C2289.48 1540.42 2288.99 1540.76 2288.55 1541.11C2285.87 1543.23 2285.87 1544.55 2282.45 1547.23C2276.55 1551.83 2264.87 1559.55 2259.36 1563.99C2257.72 1565.3 2257.15 1566.16 2256.03 1567.08C2251.33 1570.93 2247.37 1573.98 2243.05 1577.91C2237.62 1581.16 2237.46 1580.11 2235.35 1580.58C2233.74 1580.93 2229.24 1582.54 2228.38 1582.5C2227.77 1582.46 2228.72 1580.96 2227.95 1581.01C2233.43 1575.86 2236.08 1574.13 2241.21 1570.77C2249.81 1563.52 2258.41 1556.26 2267.02 1549.01C2268.01 1548.61 2269.01 1548.22 2270.01 1547.83C2270.01 1547.83 2270.01 1547.83 2270.01 1547.83C2273.59 1545.38 2274.44 1543.52 2276.1 1541.87C2278.59 1539.39 2281.53 1536.62 2284.8 1533.67L2283.21 1537C2281.88 1513.33 2282.59 1478.86 2282.66 1458.15C2282.66 1452.86 2281.79 1435.64 2282.56 1432.01C2282.76 1431.07 2283.54 1430.81 2283.56 1429.81C2283.03 1420.87 2282.46 1411.93 2281.88 1403C2282.99 1384.62 2281.78 1365.62 2281.39 1347.1C2280.4 1297.01 2279.27 1247.41 2279.34 1198.13C2279.36 1188.61 2278.56 1176.52 2279.04 1167.2C2279.24 1163.31 2280.89 1161.68 2279.65 1156.57C2280.09 1156.52 2280.54 1156.47 2280.98 1156.41C2280.44 1151.95 2279.42 1149.1 2279.31 1144.1C2279.22 1139.89 2279.15 1128.74 2279.32 1125.02C2279.41 1123.09 2280.24 1123.81 2280.24 1122.01C2280.24 1121.65 2280.22 1121.25 2280.19 1120.81C2279.97 1117.43 2279.07 1111.85 2279.07 1108.1C2279.07 1104.24 2280.04 1097.75 2279.91 1094.79C2279.42 1084.13 2278.02 1072.51 2278.44 1061.15C2278.55 1058.01 2279.64 1053.97 2279.61 1052.99C2279.55 1051.07 2278.51 1050.49 2278.39 1049.2C2277.73 1042.65 2279.01 1032.44 2279.08 1026.02C2279.32 1005.09 2279.01 982.917 2279.35 962.079C2279.55 948.914 2279.57 927.036 2280.38 914.882C2280.56 912.261 2281.58 912.96 2281.59 910.759C2281.61 908.319 2280.93 906.997 2280.89 905.857C2280.56 897.963 2280.07 880.538 2280.82 873.086C2280.96 871.666 2281.73 870.636 2281.73 869.786C2281.74 869.356 2281.23 868.384 2281.19 867.034C2280.85 855.109 2281.25 846.415 2281.55 834.731C2282.09 812.353 2281.59 786.423 2282.37 762.915C2282.4 762.064 2282.45 761.257 2282.53 760.5L2284.11 764.138C2281.59 761.27 2280.3 758.925 2279.86 758.519C2278.7 757.446 2277.44 757.317 2275 755.239C2266.9 748.317 2257.1 737.809 2249.56 731.051C2245.84 727.71 2240.32 723.545 2236.68 720.238C2233.76 717.598 2227.32 710.897 2225.84 709.925C2224.95 709.333 2224.16 709.46 2223.2 708.627ZM2293.69 810.524C2292.13 809.823 2293.51 817.183 2294.32 814.422C2294.5 813.8 2294.1 810.705 2293.69 810.524ZM2292.13 1155.15C2292.72 1155.09 2293.32 1155.02 2293.91 1154.95C2293.66 1153.98 2293.42 1153.02 2293.17 1152.05C2292.82 1152.6 2292.46 1153.14 2292.1 1153.68C2292.11 1154.17 2292.12 1154.66 2292.13 1155.15Z" fill="white"/>
<path d="M4459.25 703.498C4458.74 702.428 4458.45 700.726 4457.94 699.425C4455.8 693.968 4455.21 691.858 4453.32 686.901C4450.49 679.561 4441.31 658.126 4443.13 657.322C4443.13 657.322 4443.13 657.322 4443.13 657.322C4443.15 657.314 4443.17 657.308 4443.19 657.304C4443.57 657.225 4444.74 658.876 4445.27 658.967C4445.79 659.057 4448.32 657.704 4449.66 660.193C4451.58 663.809 4454.95 673.029 4455.88 675.001C4456.52 676.346 4457.56 677.894 4458.4 679.602C4461.13 685.11 4462.25 688.129 4465.37 692.796C4465.88 694.991 4466.37 697.192 4466.85 699.4C4468.25 701.936 4469.47 706.179 4470.23 707.764C4470.85 709.063 4471.56 709.671 4472.2 711.028C4472.92 712.549 4473.58 715.078 4474.91 717.839C4477.07 722.365 4478.45 722.732 4479.84 725.409C4481.28 728.185 4482.73 732.849 4484.77 736.305C4485.09 736.708 4485.42 737.11 4485.74 737.511C4485.86 737.069 4485.98 736.626 4486.1 736.184C4487.06 737.949 4486.88 738.974 4487.64 740.652C4488.53 742.627 4489.53 743.398 4490.14 744.722C4490.64 745.808 4490.89 747.469 4491.57 748.865C4492.55 750.901 4492.98 750.174 4493.61 751.224C4493.86 751.645 4498 759.622 4498.22 760.078C4499.87 763.555 4499.11 764.259 4500.31 767.081C4503.65 774.91 4508.07 782.512 4511.68 789.523C4513.3 792.655 4514.78 796.009 4516.09 799.262C4511.23 795.371 4514.27 807.383 4516.43 801.438C4517.48 805.238 4519.74 807.264 4521.1 810.705C4521.98 812.931 4522.09 814.691 4523.52 817.789C4526.07 823.29 4530.55 828.557 4528.18 831.507C4531.67 837.739 4533.06 843.861 4536.94 844.952C4537.88 846.542 4538.14 851.562 4538.76 853.54C4539.35 855.405 4544.71 869.353 4545.66 871.602C4546.62 873.848 4548.33 877.768 4549.44 879.527C4550.82 881.743 4554.71 882.002 4552.93 887.814C4555.42 892.561 4556.1 894.344 4557.7 899.074C4557.99 899.93 4557.47 900.268 4557.69 900.749C4558.13 901.738 4559.3 903.239 4560.14 904.983C4561.53 907.849 4561.08 910.029 4562.75 908.907C4563.91 910.687 4565.08 912.465 4566.25 914.243C4566.2 915.069 4566.15 915.896 4566.09 916.723C4566.94 917.576 4567.78 918.429 4568.63 919.282C4565.43 919.251 4570.23 925.763 4570.72 922.748C4571.84 926.699 4572.95 930.653 4574.05 934.611C4570.73 935.45 4577.33 942.922 4578.7 941.445C4578.89 941.87 4579.08 942.296 4579.26 942.721C4580.1 946.802 4582.31 949.916 4583.78 954.694C4585.25 959.473 4584.75 959.184 4583.91 961.204C4584.47 962.235 4585.02 963.265 4585.58 964.296C4592.1 968.127 4584.69 970.204 4592.04 978.436C4590.86 982.623 4595.54 989.596 4598.55 994.26C4598.9 994.803 4599.4 994.593 4599.9 995.301C4601.12 997.035 4602.62 1002.16 4604.17 1001.28C4604.45 1003.17 4604.72 1005.05 4605 1006.93C4605.9 1008.17 4606.81 1009.41 4607.71 1010.65C4608.22 1010.42 4608.73 1010.19 4609.23 1009.96C4608.72 1013.48 4611.32 1017.53 4611.85 1019.85C4611.95 1020.31 4611.29 1020.71 4611.68 1022.12C4612.14 1023.77 4613.62 1026.56 4614.22 1028.5C4615.23 1028.84 4616.25 1029.18 4617.26 1029.52L4617.89 1032.5C4617.96 1032.56 4618.03 1032.63 4618.1 1032.69C4618.58 1036.3 4616.31 1037.57 4616.14 1039.68C4616.11 1040.06 4616.29 1047.02 4616.34 1047.39C4616.73 1050.46 4618.68 1049.59 4618.28 1058.47C4618.21 1060.05 4617.54 1061.32 4617.51 1062.75C4617.47 1065.28 4619.02 1072.88 4620.45 1073.48C4618.67 1076.54 4619.41 1084.72 4618.9 1087.13C4618.74 1087.86 4617.6 1088.03 4617.36 1090.26C4617.17 1092.08 4618.09 1096.75 4617.93 1099.05C4617.77 1101.49 4616.81 1102.36 4616.75 1103.46C4616.68 1104.49 4617.46 1105.44 4617.45 1106.85C4617.43 1111.25 4616.18 1115.23 4616.16 1118.71C4616.16 1118.76 4616.16 1118.81 4616.16 1118.86C4616.17 1123.83 4618.42 1128.22 4619.43 1132.38C4619.28 1133.42 4618.79 1134.45 4618.78 1135.54C4618.7 1149.08 4618.25 1164.35 4617.74 1177.92C4617.5 1184.23 4614.4 1199.9 4619.52 1195.72C4620.4 1197.91 4618.29 1213.84 4618.25 1216.86C4618.21 1219.89 4619.1 1222.29 4619.1 1224.67C4619.11 1231.86 4618.44 1236.92 4619.17 1245.66C4619.36 1247.92 4620.4 1250.34 4620.37 1251.68C4620.34 1253.29 4619.32 1255.02 4619.24 1257.11C4619.06 1262.09 4619.33 1271.36 4619.12 1276.13C4619.08 1277 4618.2 1277.31 4617.92 1278.55C4616.82 1283.41 4616.89 1288.85 4619.66 1287.88C4618.04 1294.11 4619.43 1299.86 4619.46 1305.62C4619.51 1317.81 4618.68 1340.02 4619.64 1350.64C4620.24 1357.33 4621.38 1357.16 4620.25 1367.02C4620 1369.21 4619.68 1371.39 4619.39 1374.04C4618.69 1380.26 4616.61 1385.97 4618.98 1390.71C4618.72 1393.13 4618.61 1395.38 4618.47 1397.5L4618.35 1396.12C4618.77 1400.03 4619.05 1403.53 4618.31 1407.04C4618.88 1407.55 4619.45 1408.07 4620.02 1408.58C4620.17 1409.42 4620.32 1410.25 4620.46 1411.08C4620.06 1411.42 4619.65 1411.76 4619.24 1412.1C4620.12 1418.11 4623.16 1425.39 4623.95 1430.47C4625.28 1438.98 4628.11 1461.01 4628.89 1469.16C4629.3 1473.49 4630.16 1473.58 4628.85 1476.33C4629.13 1477.27 4629.4 1478.2 4629.68 1479.14C4630.15 1479.67 4630.61 1480.21 4631.08 1480.74C4631.96 1486.23 4632.45 1492.85 4633.3 1498.08C4634.86 1507.61 4638.02 1521.78 4638.95 1531.46C4639.08 1532.77 4639.09 1534.29 4639.14 1535.77L4637.69 1533.27C4638.53 1534.21 4639.38 1535.11 4640.21 1535.82C4642.85 1538.07 4644.15 1537.82 4647.49 1540.69C4653.23 1545.64 4663.21 1555.72 4668.7 1560.31C4670.33 1561.68 4671.29 1562.08 4672.43 1563.01C4677.18 1566.93 4681 1570.25 4685.75 1573.78C4690.05 1578.52 4689.04 1578.88 4689.94 1580.87C4690.61 1582.39 4693.11 1586.53 4693.24 1587.39C4693.33 1588 4691.66 1587.35 4691.86 1588.1C4685.67 1583.66 4683.42 1581.37 4679.07 1576.95C4670.17 1569.83 4661.27 1562.71 4652.37 1555.59C4651.78 1554.68 4651.19 1553.77 4650.6 1552.86C4650.6 1552.86 4650.6 1552.85 4650.6 1552.85C4647.46 1549.79 4645.45 1549.3 4643.48 1547.98C4640.14 1545.73 4636.32 1542.97 4632.2 1539.87L4631.03 1538.94L4630.69 1537.26C4625.34 1513.94 4620.17 1480.6 4616.68 1460.44C4615.75 1455.16 4611.86 1438.14 4611.99 1434.38C4612.02 1433.41 4612.74 1433.01 4612.58 1432.01C4610.48 1423.19 4608.36 1414.37 4606.22 1405.56C4605.94 1403.18 4605.63 1400.8 4605.28 1398.42L4605.2 1397.5C4605.7 1381.15 4604.72 1364.43 4604.39 1348.08C4603.4 1297.34 4602.27 1247.1 4602.34 1197.19C4602.36 1187.54 4601.56 1175.3 4602.04 1165.85C4602.24 1161.91 4603.89 1160.27 4602.65 1155.09C4603.09 1155.04 4603.54 1154.98 4603.98 1154.93C4603.44 1150.41 4602.42 1147.52 4602.31 1142.46C4602.22 1138.19 4602.15 1126.91 4602.32 1123.14C4602.41 1121.18 4603.24 1121.91 4603.24 1120.09C4603.24 1119.72 4603.22 1119.31 4603.19 1118.86C4602.97 1115.45 4602.07 1109.8 4602.07 1105.99C4602.07 1102.09 4603.04 1095.51 4602.91 1092.51C4602.42 1081.71 4601.02 1069.95 4601.44 1058.44C4601.55 1055.26 4602.64 1051.17 4602.61 1050.17C4602.55 1048.23 4601.51 1047.65 4601.39 1046.34C4601.01 1042.48 4601.28 1037.38 4601.59 1032.5L4602.34 1036.09C4601.13 1032.78 4599.98 1029.57 4598.91 1027.06C4590.59 1007.56 4581.26 987.135 4573.06 967.682C4567.87 955.396 4558.97 935.105 4554.75 923.51C4553.84 921.009 4555.06 921.247 4554.17 919.201C4553.19 916.932 4552.04 915.979 4551.53 914.94C4548.01 907.755 4540.45 891.798 4538.09 884.586C4537.65 883.213 4537.93 881.949 4537.59 881.159C4537.41 880.759 4536.55 880.062 4535.97 878.826C4530.79 867.909 4527.61 859.687 4523.11 848.736C4514.47 827.772 4503.44 803.934 4494.56 781.827C4492.62 777.011 4492.3 773.267 4492 772.602C4491.35 771.139 4490.23 770.51 4488.79 767.6C4484.03 757.917 4479.1 744.223 4474.79 734.918C4472.67 730.319 4469.21 724.234 4467.14 719.698C4465.49 716.076 4462.16 707.265 4461.18 705.768C4460.59 704.857 4459.81 704.657 4459.25 703.498ZM4524.35 821.4C4522.63 821.383 4526.9 827.648 4526.52 824.761C4526.43 824.111 4524.8 821.405 4524.35 821.4ZM4615.13 1153.66C4615.72 1153.59 4616.32 1153.52 4616.91 1153.45C4616.66 1152.47 4616.42 1151.49 4616.17 1150.51C4615.82 1151.06 4615.46 1151.61 4615.1 1152.16C4615.11 1152.66 4615.12 1153.16 4615.13 1153.66Z" fill="white"/>
<path d="M4233.46 1894.61C4235.54 1894.57 4238.48 1895 4240.93 1895.05C4251.2 1895.29 4255.01 1895.6 4264.31 1895.86C4278.09 1896.23 4319 1896.47 4319 1898.46C4319 1898.46 4319 1898.46 4319 1898.46C4319 1898.48 4319 1898.5 4318.99 1898.52C4318.84 1898.9 4315.36 1899.31 4314.85 1899.75C4314.33 1900.2 4314.72 1903.05 4309.78 1903.27C4302.61 1903.58 4285.42 1902.95 4281.6 1903.01C4278.99 1903.05 4275.77 1903.37 4272.43 1903.46C4261.66 1903.74 4256.02 1903.54 4246.32 1904.52C4242.44 1904.1 4238.55 1903.67 4234.67 1903.21C4229.61 1903.48 4221.93 1902.88 4218.85 1902.94C4216.33 1902.98 4214.85 1903.39 4212.22 1903.43C4209.27 1903.47 4204.74 1903.06 4199.37 1903.16C4190.57 1903.32 4189 1904.44 4183.72 1904.63C4178.25 1904.83 4169.73 1904.28 4162.75 1904.74C4161.87 1904.88 4161 1905.02 4160.12 1905.16C4160.75 1905.44 4161.37 1905.73 4162 1906.01C4158.48 1906.19 4156.97 1905.6 4153.74 1905.62C4149.93 1905.65 4147.99 1906.25 4145.43 1906.28C4143.33 1906.3 4140.49 1905.85 4137.77 1905.91C4133.81 1905.99 4134.68 1906.67 4132.54 1906.83C4131.69 1906.89 4115.95 1907.46 4115.07 1907.48C4108.31 1907.59 4107.73 1906.61 4102.34 1906.57C4087.41 1906.48 4072.08 1907.46 4058.27 1907.94C4052.1 1908.16 4045.67 1908.17 4039.52 1908.05C4049.2 1905.17 4027.76 1903.11 4035.78 1907.49C4028.94 1906.92 4024.09 1908.17 4017.6 1908.03C4013.41 1907.93 4010.5 1907.33 4004.51 1907.39C3993.88 1907.51 3982.25 1909.49 3979.2 1906.13C3966.72 1906.81 3955.91 1905.61 3951.41 1908.73C3948.19 1908.95 3939.95 1907.17 3936.34 1906.93C3932.93 1906.72 3906.74 1906.01 3902.45 1905.98C3898.17 1905.95 3890.67 1905.93 3887.06 1906.24C3882.53 1906.61 3879.36 1910.07 3871.29 1906.09C3861.91 1906.46 3858.56 1906.37 3849.83 1905.93C3848.25 1905.85 3848.08 1905.24 3847.15 1905.24C3845.25 1905.25 3842.02 1905.71 3838.62 1905.78C3833.04 1905.89 3829.85 1904.61 3830.48 1906.59C3826.8 1906.94 3823.12 1907.29 3819.44 1907.64C3818.14 1907.26 3816.85 1906.88 3815.56 1906.5C3813.6 1906.93 3811.63 1907.36 3809.66 1907.79C3811.97 1904.87 3798.12 1906.64 3802.62 1908.3C3795.49 1907.74 3788.35 1907.16 3781.22 1906.57C3782.21 1903.2 3765.55 1906.23 3766.96 1908.08C3766.14 1908.08 3765.32 1908.08 3764.51 1908.08C3757.36 1907.2 3750.8 1907.97 3742.09 1907.39C3733.38 1906.81 3734.2 1906.47 3731.55 1904.88C3729.5 1904.98 3727.45 1905.08 3725.4 1905.17C3714.64 1909.59 3716.54 1901.97 3698.13 1905.39C3692.24 1902.61 3677.74 1904.09 3668.12 1904.97C3667 1905.07 3666.98 1905.61 3665.49 1905.79C3661.85 1906.2 3652.55 1905.51 3652.87 1907.29C3649.65 1906.78 3646.43 1906.27 3643.21 1905.76C3640.58 1906.09 3637.95 1906.42 3635.32 1906.75C3635.33 1907.31 3635.35 1907.86 3635.36 1908.42C3630.06 1906.53 3621.74 1907.28 3617.63 1906.83C3616.81 1906.74 3616.64 1905.97 3614.1 1905.76C3611.13 1905.51 3605.6 1905.75 3602.06 1905.51C3600.68 1906.38 3599.31 1907.24 3597.93 1908.1C3591.61 1908.58 3589.38 1906.31 3585.67 1906.14C3585 1906.11 3572.8 1906.29 3572.14 1906.34C3566.76 1906.73 3568.28 1908.68 3552.71 1908.28C3549.94 1908.21 3547.7 1907.54 3545.19 1907.51C3540.77 1907.47 3527.43 1909.02 3526.38 1910.45C3521.01 1908.67 3506.65 1909.41 3502.42 1908.9C3501.14 1908.74 3500.85 1907.6 3496.93 1907.36C3493.74 1907.17 3485.55 1908.09 3481.51 1907.93C3477.23 1907.77 3475.7 1906.81 3473.78 1906.75C3471.97 1906.68 3470.3 1907.46 3467.83 1907.45C3460.11 1907.43 3453.13 1906.18 3447.03 1906.16C3446.94 1906.16 3446.84 1906.16 3446.75 1906.16C3438.05 1906.17 3430.35 1908.42 3423.05 1909.43C3421.21 1909.28 3419.42 1908.79 3417.5 1908.78C3393.75 1908.7 3366.96 1908.25 3343.14 1907.74C3332.08 1907.5 3304.58 1904.4 3311.92 1909.52C3308.07 1910.4 3280.13 1908.29 3274.82 1908.25C3269.5 1908.21 3265.29 1909.1 3261.12 1909.1C3248.51 1909.11 3239.64 1908.44 3224.29 1909.17C3220.33 1909.36 3216.09 1910.4 3213.74 1910.37C3210.91 1910.34 3207.87 1909.32 3204.21 1909.24C3195.48 1909.06 3179.22 1909.33 3170.84 1909.12C3169.31 1909.08 3168.78 1908.2 3166.59 1907.92C3158.08 1906.82 3148.53 1906.89 3150.22 1909.66C3139.31 1908.04 3129.21 1909.43 3119.1 1909.46C3097.71 1909.51 3058.75 1908.68 3040.12 1909.64C3028.38 1910.24 3028.68 1911.38 3011.38 1910.25C3007.54 1910 3003.72 1909.68 2999.06 1909.39C2988.15 1908.69 2978.14 1906.61 2969.82 1908.98C2957.69 1908.26 2948.04 1908.61 2939.05 1906.53C2937.99 1907.01 2936.92 1907.48 2935.86 1907.95C2934.38 1907.95 2932.89 1907.95 2931.41 1907.95C2930.94 1907.49 2930.48 1907.03 2930.01 1906.58C2919.37 1906.39 2905.86 1908.13 2896.85 1908.02C2881.74 1907.86 2842.82 1906.82 2828.49 1906.17C2820.88 1905.82 2820.47 1906.66 2816.12 1904.89C2814.42 1905 2812.72 1905.11 2811.01 1905.22C2809.95 1905.58 2808.89 1905.95 2807.82 1906.31C2798.06 1906.24 2786.49 1905.56 2777.19 1905.49C2760.25 1905.38 2734.81 1906.03 2717.79 1905.26C2713.53 1905.07 2708.2 1904.38 2704.02 1904.36C2697.94 1904.32 2696.46 1905.34 2688.75 1905.27C2675.45 1905.13 2650.69 1903.77 2638.12 1903.75C2634.38 1903.74 2632.64 1904.05 2630.07 1904.06C2619.26 1904.09 2610.38 1903.97 2600.02 1904.3C2588.89 1903.4 2589.85 1902.49 2586.4 1901.52C2583.79 1900.79 2575.78 1899.2 2574.64 1898.63C2573.84 1898.22 2576.82 1897.65 2575.7 1897.2C2589.04 1896.65 2594.64 1896.97 2605.46 1897.59C2625.46 1897.37 2645.45 1897.15 2665.44 1896.94C2667.26 1897.25 2669.08 1897.58 2670.9 1897.9C2670.9 1897.9 2670.9 1897.9 2670.9 1897.9C2678.58 1898.25 2681.83 1897.34 2685.97 1897.1C2725.61 1894.71 2803.64 1895.53 2847.28 1895.66C2856.69 1895.66 2887.28 1894.79 2893.73 1895.56C2895.4 1895.76 2895.87 1896.54 2897.65 1896.56C2913.53 1896.03 2929.41 1895.46 2945.29 1894.88C2977.94 1895.99 3011.7 1894.78 3044.61 1894.39C3133.64 1893.4 3221.77 1892.27 3309.34 1892.34C3326.27 1892.36 3347.74 1891.56 3364.31 1892.04C3371.23 1892.24 3374.11 1893.89 3383.19 1892.65C3383.29 1893.09 3383.38 1893.54 3383.48 1893.98C3391.4 1893.44 3396.47 1892.42 3405.36 1892.31C3412.84 1892.22 3432.64 1892.15 3439.26 1892.32C3442.69 1892.41 3441.41 1893.24 3444.61 1893.24C3445.24 1893.24 3445.96 1893.22 3446.75 1893.19C3452.74 1892.97 3462.66 1892.07 3469.34 1892.07C3476.18 1892.07 3487.72 1893.04 3492.98 1892.91C3511.93 1892.42 3532.57 1891.02 3552.77 1891.44C3558.35 1891.55 3565.52 1892.64 3567.27 1892.61C3570.68 1892.55 3571.7 1891.51 3573.99 1891.39C3585.63 1890.73 3603.78 1892.01 3615.19 1892.08C3652.38 1892.32 3691.78 1892.01 3728.81 1892.35C3752.21 1892.55 3791.08 1892.57 3812.68 1893.38C3817.34 1893.56 3816.1 1894.58 3820.01 1894.59C3824.34 1894.61 3826.69 1893.93 3828.72 1893.89C3842.75 1893.56 3873.71 1893.07 3886.95 1893.82C3889.48 1893.96 3891.31 1894.73 3892.82 1894.73C3893.58 1894.74 3895.31 1894.23 3897.71 1894.19C3918.9 1893.85 3934.35 1894.25 3955.11 1894.55C3994.88 1895.09 4040.96 1894.59 4082.73 1895.37C4091.83 1895.54 4098.07 1896.75 4099.35 1896.74C4102.16 1896.73 4103.96 1895.97 4109.65 1895.82C4128.56 1895.37 4154.04 1896.37 4172.02 1896.18C4180.91 1896.08 4193.13 1895.37 4201.87 1895.3C4208.86 1895.25 4225.35 1895.76 4228.45 1895.46C4230.33 1895.29 4231.21 1894.65 4233.46 1894.61ZM3998.13 1906.69C3999.37 1905.13 3986.3 1906.51 3991.2 1907.32C3992.31 1907.5 3997.81 1907.1 3998.13 1906.69ZM3385.71 1905.13C3385.83 1905.72 3385.95 1906.32 3386.07 1906.91C3387.79 1906.66 3389.51 1906.42 3391.22 1906.17C3390.26 1905.82 3389.29 1905.46 3388.33 1905.1C3387.46 1905.11 3386.58 1905.12 3385.71 1905.13Z" fill="white"/>
<path d="M59.8902 2931.06C59.9277 2936.06 59.5034 2943.13 59.4486 2949.04C59.2096 2973.77 58.9022 2982.94 58.6362 3005.32C58.2671 3038.51 58.034 3137 56.0413 3137C56.0412 3137 56.0412 3137 56.0411 3137C56.0212 3137 56.0011 3136.99 55.9809 3136.97C55.5975 3136.63 55.1919 3128.25 54.7477 3127.01C54.3031 3125.76 51.446 3126.7 51.2253 3114.8C50.922 3097.55 51.548 3056.16 51.4941 3046.96C51.4488 3040.67 51.1254 3032.93 51.0405 3024.88C50.7626 2998.95 50.9571 2985.38 49.9755 2962.01C50.3972 2952.67 50.8341 2943.32 51.286 2933.98C51.0225 2921.78 51.6153 2903.3 51.5646 2895.89C51.5201 2889.81 51.1121 2886.25 51.0741 2879.92C51.0283 2872.81 51.4374 2861.9 51.3393 2848.98C51.1802 2827.79 50.0628 2824.02 49.8713 2811.31C49.6699 2798.13 50.2215 2777.63 49.7551 2760.81C49.6189 2758.7 49.4821 2756.59 49.3446 2754.48C49.058 2756 48.7726 2757.51 48.4884 2759.02C48.3122 2750.55 48.8972 2746.9 48.8766 2739.12C48.8527 2729.96 48.2512 2725.29 48.2247 2719.12C48.2033 2714.08 48.6454 2707.23 48.589 2700.68C48.5083 2691.14 47.826 2693.23 47.6716 2688.09C47.6137 2686.04 47.0371 2648.15 47.0186 2646.02C46.9069 2629.76 47.8913 2628.35 47.9255 2615.38C48.0205 2579.43 47.0404 2542.53 46.557 2509.27C46.3438 2494.42 46.3346 2478.93 46.4473 2464.12C49.331 2487.44 51.3886 2435.83 47.0131 2455.13C47.5837 2438.66 46.3318 2426.98 46.4716 2411.36C46.5654 2401.26 47.1734 2394.27 47.1069 2379.85C46.9948 2354.25 45.0112 2326.26 48.3746 2318.9C47.6868 2288.86 48.886 2262.84 45.7708 2252.01C45.5503 2244.26 47.3336 2224.41 47.5684 2215.72C47.7777 2207.5 48.488 2144.45 48.5216 2134.14C48.5486 2123.82 48.5671 2105.77 48.2621 2097.08C47.8924 2086.17 44.433 2078.54 48.4077 2059.11C48.0389 2036.51 48.1345 2028.47 48.5735 2007.45C48.6528 2003.65 49.2608 2003.22 49.2581 2001C49.2516 1996.42 48.7884 1988.63 48.7196 1980.46C48.6059 1967.02 49.8925 1959.35 47.9131 1960.85C47.5648 1951.99 47.2141 1943.13 46.8611 1934.27C47.2402 1931.16 47.6203 1928.05 48.0015 1924.94C47.5723 1920.2 47.1414 1915.47 46.709 1910.73C49.6271 1916.29 47.857 1882.95 46.196 1893.78C46.7643 1876.6 47.3421 1859.43 47.9287 1842.25C51.299 1844.65 48.2732 1804.54 46.4232 1807.92C46.4224 1805.95 46.4215 1803.99 46.4207 1802.02C47.2958 1784.82 46.5278 1769.02 47.1079 1748.05C47.6918 1727.07 48.032 1729.04 49.6164 1722.67C49.5208 1717.73 49.4249 1712.8 49.3288 1707.86C44.9115 1681.97 52.5291 1686.55 49.1112 1642.21C51.8857 1628.04 50.41 1593.12 49.5348 1569.96C49.4336 1567.27 48.886 1567.22 48.7141 1563.63C48.2998 1554.86 48.9888 1532.48 47.2139 1533.24C47.7199 1525.49 48.2278 1517.74 48.7376 1509.99C48.4091 1503.66 48.0798 1497.33 47.7499 1490.99C47.1925 1491.02 46.635 1491.06 46.0776 1491.09C47.9651 1478.33 47.2195 1458.29 47.6676 1448.41C47.7587 1446.44 48.5316 1446.01 48.7389 1439.9C48.9852 1432.75 48.7481 1419.43 48.9859 1410.92C48.1241 1407.6 47.2613 1404.29 46.3977 1400.98C45.9176 1385.75 48.1903 1380.4 48.3631 1371.45C48.3929 1369.84 48.2136 1340.46 48.1641 1338.88C47.7711 1325.92 45.8221 1329.59 46.2178 1292.11C46.2896 1285.44 46.9638 1280.04 46.9882 1274.01C47.0327 1263.35 45.4798 1231.24 44.0543 1228.72C45.8286 1215.79 45.0872 1181.21 45.5998 1171.02C45.7576 1167.95 46.8951 1167.25 47.1351 1157.8C47.3309 1150.14 46.4149 1130.41 46.5658 1120.7C46.7302 1110.38 47.6874 1106.7 47.7545 1102.08C47.817 1097.71 47.0434 1093.69 47.0473 1087.74C47.0723 1069.17 48.3167 1052.35 48.3396 1037.67C48.34 1037.45 48.3401 1037.22 48.34 1037C48.3274 1016.05 46.0758 997.504 45.0728 979.93C45.2218 975.522 45.7138 971.19 45.719 966.568C45.8 909.39 46.246 844.89 46.762 787.541C47.0022 760.918 50.1003 694.712 44.9813 712.383C44.0955 703.13 46.2119 635.858 46.2517 623.061C46.2936 610.269 45.3985 600.128 45.3969 590.073C45.3936 559.728 46.0623 538.36 45.3334 501.424C45.1427 491.885 44.1042 481.663 44.1263 476.014C44.1551 469.209 45.1831 461.886 45.2605 453.071C45.4366 432.058 45.1695 392.897 45.3786 372.737C45.4188 369.057 46.2976 367.764 46.5791 362.5C47.678 341.999 47.6127 319.02 44.8372 323.086C46.4586 296.81 45.0725 272.503 45.0442 248.152C44.9862 196.665 45.8192 102.876 44.8627 58.0221C44.3945 35.9926 43.5994 31.5614 43.8049 11L43.8406 0.76947L54 0.804925C59.8358 0.863091 66.9705 1.00179 76.1759 1.24923C85.4193 1.49749 94.6212 1.81916 105.832 2.11111C132.111 2.80774 156.218 4.8862 176.248 2.52021C205.434 3.24146 228.678 2.89346 250.333 4.96787C252.885 4.49237 255.438 4.01852 257.991 3.54632C261.569 3.54627 265.147 3.54632 268.725 3.54648C269.842 4.00642 270.958 4.46568 272.074 4.92425C297.707 5.10708 330.229 3.37463 351.926 3.47917C388.306 3.64001 482.006 4.68107 516.502 5.33339C534.816 5.67966 535.801 4.84382 546.286 6.60796C550.383 6.49914 554.479 6.3913 558.575 6.28447C561.139 5.91657 563.702 5.55058 566.266 5.18649C589.762 5.26489 617.63 5.93515 640.014 6.00658C680.801 6.12304 742.049 5.4728 783.008 6.2364C793.278 6.42647 806.116 7.11811 816.173 7.14457C830.81 7.18453 834.368 6.16145 852.943 6.2324C884.957 6.37245 944.577 7.73298 974.836 7.7496C983.824 7.76073 988.017 7.4511 994.223 7.44431C1020.24 7.41421 1041.61 7.5276 1066.56 7.20125C1093.35 8.09579 1091.04 9.01243 1099.34 9.97567C1105.63 10.7098 1124.93 12.2973 1127.67 12.8724C1129.59 13.2827 1122.41 13.8524 1125.1 14.3038C1093.01 14.8461 1079.52 14.526 1053.46 13.9063C1005.32 14.127 957.186 14.3466 909.051 14.5644C904.672 14.2468 900.293 13.9246 895.913 13.5976C895.913 13.5968 895.913 13.5961 895.913 13.5954C877.428 13.2484 869.593 14.1556 859.624 14.3984C764.181 16.7868 576.329 15.9703 471.257 15.8429C448.614 15.8357 374.961 16.7129 359.425 15.9389C355.402 15.7367 354.284 14.9631 350.004 14.9374C311.771 15.4748 273.537 16.0355 235.304 16.6158C175.712 15.7872 114.592 16.2586 54 16.7287L59.7287 11C59.8767 30.3496 60.0207 49.6455 60.1097 68.8207C61.0995 283.158 62.2333 495.355 62.155 706.182C62.137 746.927 62.9386 798.633 62.4616 838.522C62.264 855.17 60.613 862.106 61.8531 883.976C61.4074 884.205 60.9617 884.435 60.5159 884.665C61.0593 903.75 62.0785 915.947 62.187 937.344C62.2773 955.363 62.3501 1003.04 62.1791 1018.96C62.094 1027.22 61.2581 1024.14 61.2625 1031.84C61.2641 1033.37 61.2811 1035.1 61.3098 1037C61.5289 1051.43 62.4302 1075.3 62.4279 1091.38C62.4258 1107.85 61.4586 1135.63 61.5949 1148.3C62.0794 1193.93 63.4763 1243.62 63.0633 1292.24C62.9468 1305.67 61.8635 1322.95 61.8909 1327.15C61.9478 1335.37 62.9853 1337.82 63.1143 1343.34C63.7654 1371.37 62.4935 1415.06 62.4195 1442.54C62.176 1532.08 62.4891 1626.93 62.1543 1716.08C61.9519 1772.4 61.9301 1866 61.1168 1918C60.9421 1929.22 59.9244 1926.23 59.9086 1935.64C59.8916 1946.08 60.5683 1951.74 60.6138 1956.62C60.944 1990.39 61.433 2064.94 60.6816 2096.82C60.5381 2102.9 59.7711 2107.3 59.7666 2110.94C59.763 2112.78 60.2692 2116.94 60.3079 2122.71C60.6501 2173.73 60.2495 2210.93 59.9549 2260.92C59.4131 2356.66 59.9099 2467.59 59.1321 2568.17C58.9636 2590.08 57.7525 2605.11 57.7588 2608.19C57.7654 2614.95 58.5321 2619.28 58.6755 2632.97C59.1318 2678.51 58.1264 2739.84 58.3231 2783.15C58.4177 2804.54 59.1286 2833.95 59.1953 2855C59.2504 2871.82 58.7421 2911.54 59.0374 2919C59.2149 2923.53 59.8457 2925.63 59.8902 2931.06ZM47.8059 2364.48C49.3749 2367.48 47.9881 2335.99 47.1759 2347.8C46.9951 2350.46 47.3996 2363.71 47.8059 2364.48ZM49.3675 890.048C48.7756 890.336 48.1835 890.625 47.5915 890.913C47.8367 895.047 48.0821 899.18 48.3277 903.314C48.6842 900.991 49.0407 898.668 49.397 896.345C49.3872 894.246 49.3774 892.147 49.3675 890.048Z" fill="white"/>
<path d="M6859.11 2931.06C6859.07 2936.06 6859.5 2943.13 6859.55 2949.04C6859.79 2973.77 6860.1 2982.94 6860.36 3005.32C6860.73 3038.51 6860.97 3137 6862.96 3137C6862.96 3137 6862.96 3137 6862.96 3137C6862.98 3137 6863 3136.99 6863.02 3136.97C6863.4 3136.63 6863.81 3128.25 6864.25 3127.01C6864.7 3125.76 6867.55 3126.7 6867.77 3114.8C6868.08 3097.55 6867.45 3056.16 6867.51 3046.96C6867.55 3040.67 6867.87 3032.93 6867.96 3024.88C6868.24 2998.95 6868.04 2985.38 6869.02 2962.01C6868.6 2952.67 6868.17 2943.32 6867.71 2933.98C6867.98 2921.78 6867.38 2903.3 6867.44 2895.89C6867.48 2889.81 6867.89 2886.25 6867.93 2879.92C6867.97 2872.81 6867.56 2861.9 6867.66 2848.98C6867.82 2827.79 6868.94 2824.02 6869.13 2811.31C6869.33 2798.13 6868.78 2777.63 6869.24 2760.81C6869.38 2758.7 6869.52 2756.59 6869.66 2754.48C6869.94 2756 6870.23 2757.51 6870.51 2759.02C6870.69 2750.55 6870.1 2746.9 6870.12 2739.12C6870.15 2729.96 6870.75 2725.29 6870.78 2719.12C6870.8 2714.08 6870.35 2707.23 6870.41 2700.68C6870.49 2691.14 6871.17 2693.23 6871.33 2688.09C6871.39 2686.04 6871.96 2648.15 6871.98 2646.02C6872.09 2629.76 6871.11 2628.35 6871.07 2615.38C6870.98 2579.43 6871.96 2542.53 6872.44 2509.27C6872.66 2494.42 6872.67 2478.93 6872.55 2464.12C6869.67 2487.44 6867.61 2435.83 6871.99 2455.13C6871.42 2438.66 6872.67 2426.98 6872.53 2411.36C6872.43 2401.26 6871.83 2394.27 6871.89 2379.85C6872.01 2354.25 6873.99 2326.26 6870.63 2318.9C6871.31 2288.86 6870.11 2262.84 6873.23 2252.01C6873.45 2244.26 6871.67 2224.41 6871.43 2215.72C6871.22 2207.5 6870.51 2144.45 6870.48 2134.14C6870.45 2123.82 6870.43 2105.77 6870.74 2097.08C6871.11 2086.17 6874.57 2078.54 6870.59 2059.11C6870.96 2036.51 6870.87 2028.47 6870.43 2007.45C6870.35 2003.65 6869.74 2003.22 6869.74 2001C6869.75 1996.42 6870.21 1988.63 6870.28 1980.46C6870.39 1967.02 6869.11 1959.35 6871.09 1960.85C6871.44 1951.99 6871.79 1943.13 6872.14 1934.27C6871.76 1931.16 6871.38 1928.05 6871 1924.94C6871.43 1920.2 6871.86 1915.47 6872.29 1910.73C6869.37 1916.29 6871.14 1882.95 6872.8 1893.78C6872.24 1876.6 6871.66 1859.43 6871.07 1842.25C6867.7 1844.65 6870.73 1804.54 6872.58 1807.92C6872.58 1805.95 6872.58 1803.99 6872.58 1802.02C6871.7 1784.82 6872.47 1769.02 6871.89 1748.05C6871.31 1727.07 6870.97 1729.04 6869.38 1722.67C6869.48 1717.73 6869.58 1712.8 6869.67 1707.86C6874.09 1681.97 6866.47 1686.55 6869.89 1642.21C6867.11 1628.04 6868.59 1593.12 6869.47 1569.96C6869.57 1567.27 6870.11 1567.22 6870.29 1563.63C6870.7 1554.86 6870.01 1532.48 6871.79 1533.24C6871.28 1525.49 6870.77 1517.74 6870.26 1509.99C6870.59 1503.66 6870.92 1497.33 6871.25 1490.99C6871.81 1491.02 6872.36 1491.06 6872.92 1491.09C6871.03 1478.33 6871.78 1458.29 6871.33 1448.41C6871.24 1446.44 6870.47 1446.01 6870.26 1439.9C6870.01 1432.75 6870.25 1419.43 6870.01 1410.92C6870.88 1407.6 6871.74 1404.29 6872.6 1400.98C6873.08 1385.75 6870.81 1380.4 6870.64 1371.45C6870.61 1369.84 6870.79 1340.46 6870.84 1338.88C6871.23 1325.92 6873.18 1329.59 6872.78 1292.11C6872.71 1285.44 6872.04 1280.04 6872.01 1274.01C6871.97 1263.35 6873.52 1231.24 6874.95 1228.72C6873.17 1215.79 6873.91 1181.21 6873.4 1171.02C6873.24 1167.95 6872.1 1167.25 6871.86 1157.8C6871.67 1150.14 6872.59 1130.41 6872.43 1120.7C6872.27 1110.38 6871.31 1106.7 6871.25 1102.08C6871.18 1097.71 6871.96 1093.69 6871.95 1087.74C6871.93 1069.17 6870.68 1052.35 6870.66 1037.67C6870.66 1037.45 6870.66 1037.22 6870.66 1037C6870.67 1016.05 6872.92 997.504 6873.93 979.93C6873.78 975.522 6873.29 971.19 6873.28 966.568C6873.2 909.39 6872.75 844.89 6872.24 787.541C6872 760.918 6868.9 694.712 6874.02 712.383C6874.9 703.13 6872.79 635.858 6872.75 623.061C6872.71 610.269 6873.6 600.128 6873.6 590.073C6873.61 559.728 6872.94 538.36 6873.67 501.424C6873.86 491.885 6874.9 481.663 6874.87 476.014C6874.84 469.209 6873.82 461.886 6873.74 453.071C6873.56 432.058 6873.83 392.897 6873.62 372.737C6873.58 369.057 6872.7 367.764 6872.42 362.5C6871.32 341.999 6871.39 319.02 6874.16 323.086C6872.54 296.81 6873.93 272.503 6873.96 248.152C6874.01 196.665 6873.18 102.876 6874.14 58.0221C6874.61 35.9926 6875.4 31.5614 6875.2 11L6875.16 0.76947L6865 0.804925C6859.16 0.863091 6852.03 1.00179 6842.82 1.24923C6833.58 1.49749 6824.38 1.81916 6813.17 2.11111C6786.89 2.80774 6762.78 4.8862 6742.75 2.52021C6713.57 3.24146 6690.32 2.89346 6668.67 4.96787C6666.11 4.49237 6663.56 4.01852 6661.01 3.54632C6657.43 3.54627 6653.85 3.54632 6650.27 3.54648C6649.16 4.00642 6648.04 4.46568 6646.93 4.92425C6621.29 5.10708 6588.77 3.37463 6567.07 3.47917C6530.69 3.64001 6436.99 4.68107 6402.5 5.33339C6384.18 5.67966 6383.2 4.84382 6372.71 6.60796C6368.62 6.49914 6364.52 6.3913 6360.42 6.28447C6357.86 5.91657 6355.3 5.55058 6352.73 5.18649C6329.24 5.26489 6301.37 5.93515 6278.99 6.00658C6238.2 6.12304 6176.95 5.4728 6135.99 6.2364C6125.72 6.42647 6112.88 7.11811 6102.83 7.14457C6088.19 7.18453 6084.63 6.16145 6066.06 6.2324C6034.04 6.37245 5974.42 7.73298 5944.16 7.7496C5935.18 7.76073 5930.98 7.4511 5924.78 7.44431C5898.76 7.41421 5877.39 7.5276 5852.44 7.20125C5825.65 8.09579 5827.96 9.01243 5819.66 9.97567C5813.37 10.7098 5794.07 12.2973 5791.33 12.8724C5789.41 13.2827 5796.59 13.8524 5793.9 14.3038C5825.99 14.8461 5839.48 14.526 5865.54 13.9063C5913.68 14.127 5961.81 14.3466 6009.95 14.5644C6014.33 14.2468 6018.71 13.9246 6023.09 13.5976C6023.09 13.5968 6023.09 13.5961 6023.09 13.5954C6041.57 13.2484 6049.41 14.1556 6059.38 14.3984C6154.82 16.7868 6342.67 15.9703 6447.74 15.8429C6470.39 15.8357 6544.04 16.7129 6559.58 15.9389C6563.6 15.7367 6564.72 14.9631 6569 14.9374C6607.23 15.4748 6645.46 16.0355 6683.7 16.6158C6743.29 15.7872 6804.41 16.2586 6865 16.7287L6859.27 11C6859.12 30.3496 6858.98 49.6455 6858.89 68.8207C6857.9 283.158 6856.77 495.355 6856.84 706.182C6856.86 746.927 6856.06 798.633 6856.54 838.522C6856.74 855.17 6858.39 862.106 6857.15 883.976C6857.59 884.205 6858.04 884.435 6858.48 884.665C6857.94 903.75 6856.92 915.947 6856.81 937.344C6856.72 955.363 6856.65 1003.04 6856.82 1018.96C6856.91 1027.22 6857.74 1024.14 6857.74 1031.84C6857.74 1033.37 6857.72 1035.1 6857.69 1037C6857.47 1051.43 6856.57 1075.3 6856.57 1091.38C6856.57 1107.85 6857.54 1135.63 6857.41 1148.3C6856.92 1193.93 6855.52 1243.62 6855.94 1292.24C6856.05 1305.67 6857.14 1322.95 6857.11 1327.15C6857.05 1335.37 6856.01 1337.82 6855.89 1343.34C6855.23 1371.37 6856.51 1415.06 6856.58 1442.54C6856.82 1532.08 6856.51 1626.93 6856.85 1716.08C6857.05 1772.4 6857.07 1866 6857.88 1918C6858.06 1929.22 6859.08 1926.23 6859.09 1935.64C6859.11 1946.08 6858.43 1951.74 6858.39 1956.62C6858.06 1990.39 6857.57 2064.94 6858.32 2096.82C6858.46 2102.9 6859.23 2107.3 6859.23 2110.94C6859.24 2112.78 6858.73 2116.94 6858.69 2122.71C6858.35 2173.73 6858.75 2210.93 6859.05 2260.92C6859.59 2356.66 6859.09 2467.59 6859.87 2568.17C6860.04 2590.08 6861.25 2605.11 6861.24 2608.19C6861.23 2614.95 6860.47 2619.28 6860.32 2632.97C6859.87 2678.51 6860.87 2739.84 6860.68 2783.15C6860.58 2804.54 6859.87 2833.95 6859.8 2855C6859.75 2871.82 6860.26 2911.54 6859.96 2919C6859.79 2923.53 6859.15 2925.63 6859.11 2931.06ZM6871.19 2364.48C6869.63 2367.48 6871.01 2335.99 6871.82 2347.8C6872 2350.46 6871.6 2363.71 6871.19 2364.48ZM6869.63 890.048C6870.22 890.336 6870.82 890.625 6871.41 890.913C6871.16 895.047 6870.92 899.18 6870.67 903.314C6870.32 900.991 6869.96 898.668 6869.6 896.345C6869.61 894.246 6869.62 892.147 6869.63 890.048Z" fill="white"/>
<path opacity="0.42" d="M-3.5 3480H6913.5" stroke="#C90707" stroke-width="24" stroke-dasharray="48 48"/>
</svg>
