<svg width="108" height="911" viewBox="0 0 108 911" fill="none" xmlns="http://www.w3.org/2000/svg">
<path d="M33.1987 36.6267C32.3171 35.8565 31.3983 34.4201 30.4259 33.439C26.359 29.3222 25.0012 27.6367 21.3555 23.8755C15.9326 18.3172 -0.749882 2.45155 0.608327 0.993312C0.608361 0.993275 0.608396 0.993238 0.60843 0.993201C0.622003 0.978677 0.637296 0.965481 0.654405 0.953695C0.974787 0.728252 2.68376 1.76648 3.19919 1.63958C3.71454 1.51214 5.50325 -0.726305 7.68825 1.00824C10.8449 3.53551 17.4945 10.5881 19.1045 12.0149C20.211 12.9842 21.7557 13.9817 23.1889 15.2014C27.813 19.1307 30.0008 21.4355 34.6653 24.4408C35.9759 26.2386 37.2762 28.0476 38.5662 29.8675C40.8309 31.618 43.587 34.9967 44.8883 36.1402C45.9579 37.0761 46.8451 37.3452 47.9541 38.3268C49.2002 39.4255 50.7869 41.4635 53.0635 43.451C56.7946 46.7106 58.2011 46.4939 60.5052 48.3795C62.8965 50.3328 66.0257 54.003 69.2197 56.342C69.6733 56.5786 70.1273 56.8146 70.5817 57.0502C70.5186 56.5997 70.4548 56.1501 70.3901 55.7013C71.9588 56.9224 72.183 57.9309 73.5281 59.1563C75.1105 60.5984 76.3196 60.903 77.3916 61.8657C78.2695 62.6547 79.1386 64.0689 80.2965 65.071C81.9835 66.5328 82.0918 65.7011 83.0753 66.4066C83.4652 66.6908 90.3366 72.3064 90.7147 72.6334C93.5705 75.1422 93.1414 76.0879 95.3346 78.1785C97.4079 80.1516 99.5819 82.0547 101.787 83.8995L103.847 85.9069L103.789 88.5C104.085 94.0591 104.628 99.5557 104.943 104.681C105.156 108.152 105.165 111.773 105.053 115.234C102.169 109.783 100.111 121.847 104.487 117.335C103.916 121.186 105.168 123.916 105.028 127.566C104.935 129.927 104.327 131.561 104.393 134.932C104.505 140.914 106.489 147.457 103.125 149.178C103.813 156.2 102.614 162.282 105.729 164.813C105.95 166.624 104.166 171.264 103.932 173.295C103.722 175.216 103.012 189.953 102.978 192.364C102.951 194.775 102.933 198.995 103.238 201.026C103.608 203.577 107.067 205.359 103.092 209.901C103.461 215.182 103.365 217.063 102.927 221.975C102.847 222.864 102.239 222.964 102.242 223.484C102.248 224.554 102.712 226.375 102.78 228.285C102.894 231.426 101.608 233.218 103.587 232.868C103.935 234.939 104.286 237.01 104.639 239.081C104.26 239.808 103.88 240.534 103.499 241.261C103.928 242.368 104.359 243.475 104.791 244.582C101.873 243.282 103.643 251.075 105.304 248.544C104.736 252.559 104.158 256.573 103.571 260.588C100.201 260.028 103.227 269.402 105.077 268.613C105.078 269.073 105.078 269.532 105.079 269.991C104.204 274.013 104.972 277.706 104.392 282.608C103.808 287.509 103.468 287.049 101.884 288.54C101.979 289.693 102.075 290.846 102.171 292C106.589 298.052 98.9709 296.982 102.389 307.346C99.6143 310.658 101.09 318.82 101.965 324.232C102.066 324.862 102.614 324.872 102.786 325.711C103.2 327.762 102.511 332.994 104.286 332.815C103.78 334.627 103.272 336.438 102.762 338.249C103.091 339.73 103.42 341.21 103.75 342.691C104.308 342.683 104.865 342.676 105.422 342.668C103.535 345.649 104.28 350.334 103.832 352.644C103.741 353.104 102.968 353.204 102.761 354.633C102.515 356.304 102.752 359.417 102.514 361.407C103.376 362.181 104.239 362.955 105.102 363.729C105.582 367.289 103.31 368.541 103.137 370.631C103.107 371.008 103.286 377.874 103.336 378.244C103.729 381.273 105.678 380.415 105.282 389.176C105.21 390.736 104.536 391.997 104.512 393.407C104.467 395.898 106.02 403.404 107.446 403.994C105.671 407.015 106.413 415.098 105.9 417.479C105.742 418.198 104.605 418.36 104.365 420.569C104.169 422.359 105.085 426.971 104.934 429.242C104.77 431.653 103.813 432.514 103.745 433.594C103.683 434.614 104.457 435.555 104.453 436.945C104.428 441.286 103.183 445.217 103.16 448.648C103.16 448.7 103.16 448.753 103.16 448.805C103.173 453.703 105.424 458.037 106.427 462.145C106.278 463.175 105.786 464.187 105.781 465.268C105.7 478.632 105.254 493.708 104.738 507.113C104.498 513.336 101.4 528.811 106.519 524.68C107.405 526.843 105.288 542.567 105.248 545.558C105.206 548.548 106.101 550.918 106.103 553.269C106.106 560.361 105.438 565.356 106.167 573.989C106.357 576.219 107.396 578.608 107.374 579.928C107.345 581.519 106.317 583.231 106.24 585.291C106.063 590.203 106.331 599.356 106.121 604.068C106.081 604.928 105.202 605.23 104.921 606.461C103.822 611.253 103.887 616.624 106.663 615.673C105.041 621.815 106.427 627.496 106.456 633.188C106.514 645.223 105.681 667.144 106.637 677.628C107.239 684.239 108.375 684.07 107.251 693.802C107.003 695.963 106.681 698.114 106.389 700.734C105.692 706.876 103.614 712.511 105.98 717.193C105.259 724.015 105.607 729.448 103.532 734.509C104.008 735.106 104.481 735.703 104.954 736.299C104.954 737.136 104.954 737.972 104.954 738.808C104.494 739.069 104.034 739.33 103.576 739.591C103.393 745.583 105.125 753.184 105.021 758.256C104.86 766.759 103.819 788.66 103.167 796.723C102.82 801.004 103.656 801.234 101.892 803.685C102.001 804.642 102.109 805.599 102.216 806.557C102.583 807.156 102.949 807.755 103.314 808.354C103.235 813.846 102.565 820.36 102.493 825.592C102.377 835.126 103.027 849.442 102.264 859.015C102.12 860.846 101.68 863.026 101.471 865L101.419 866.995L100 868.085C99.4816 868.421 98.9922 868.762 98.5544 869.108C95.8712 871.231 95.8692 872.549 92.4514 875.228C86.5495 879.83 74.866 887.546 69.3606 891.986C67.7215 893.3 67.1549 894.158 66.0323 895.076C61.3257 898.929 57.3746 901.985 53.0488 905.91C47.6203 909.158 47.4635 908.105 45.3492 908.579C43.7443 908.934 39.241 910.54 38.3814 910.496C37.7737 910.461 38.7196 908.961 37.9458 909.007C43.4335 903.862 46.084 902.126 51.2074 898.772C59.8096 891.517 68.4126 884.263 77.0166 877.011C78.0117 876.613 79.0099 876.219 80.0111 875.829C80.0115 875.829 80.012 875.83 80.0125 875.83C83.5878 873.38 84.4394 871.522 86.0969 869.866C88.5875 867.386 91.5313 864.623 94.8008 861.669L93.2128 865C91.8769 841.327 92.5914 806.858 92.6571 786.147C92.6643 780.855 91.7871 763.639 92.5611 760.008C92.7633 759.068 93.5369 758.806 93.5626 757.806C93.0252 748.87 92.4645 739.933 91.8842 730.997C92.9887 712.62 91.7769 693.621 91.3903 675.104C90.4005 625.006 89.2667 575.408 89.345 526.129C89.363 516.606 88.5614 504.52 89.0384 495.197C89.236 491.306 90.887 489.684 89.6469 484.573C90.0926 484.519 90.5383 484.465 90.9841 484.412C90.4407 479.951 89.4215 477.1 89.313 472.098C89.2227 467.887 89.1499 456.744 89.3209 453.022C89.406 451.091 90.2419 451.811 90.2375 450.011C90.2359 449.653 90.2189 449.248 90.1902 448.805C89.9711 445.432 89.0698 439.853 89.0721 436.095C89.0742 432.244 90.0414 425.751 89.9051 422.79C89.4206 412.126 88.0237 400.51 88.4367 389.146C88.5532 386.006 89.6366 381.969 89.6091 380.986C89.5522 379.065 88.5147 378.493 88.3857 377.203C87.7346 370.651 89.0065 360.438 89.0805 354.015C89.324 333.087 89.0109 310.917 89.3457 290.079C89.5481 276.914 89.5699 255.036 90.3832 242.882C90.5579 240.261 91.5756 240.96 91.5914 238.759C91.6084 236.319 90.9317 234.997 90.8862 233.857C90.556 225.963 90.067 208.538 90.8184 201.086C90.9619 199.666 91.7289 198.636 91.7334 197.786C91.737 197.356 91.2308 196.384 91.1921 195.034C90.8499 183.109 91.2505 174.415 91.5451 162.731C92.0869 140.353 91.59 114.423 92.3679 90.9151C92.395 90.0638 92.4519 89.2569 92.5274 88.5L94.1098 92.1378C91.5914 89.2703 90.3026 86.9251 89.8606 86.5186C88.6998 85.4459 87.437 85.317 84.9974 83.2395C76.9 76.3169 67.0992 65.8089 59.5593 59.051C55.8359 55.7104 50.3235 51.5449 46.6774 48.2382C43.7641 45.5984 37.319 38.8972 35.8431 37.9253C34.9465 37.3325 34.1578 37.4596 33.1987 36.6267ZM103.694 138.524C102.125 137.823 103.512 145.183 104.324 142.422C104.505 141.8 104.1 138.705 103.694 138.524ZM102.132 483.153C102.724 483.086 103.316 483.018 103.908 482.951C103.663 481.985 103.418 481.019 103.172 480.053C102.816 480.595 102.459 481.139 102.103 481.682C102.113 482.172 102.123 482.663 102.132 483.153Z" fill="white"/>
</svg>
