<svg width="1745" height="20" viewBox="0 0 1745 20" fill="none" xmlns="http://www.w3.org/2000/svg">
<path d="M1659.46 3.60984C1661.54 3.57228 1664.48 3.9966 1666.93 4.05144C1677.2 4.2904 1681.01 4.59781 1690.31 4.8638C1704.09 5.23287 1745 5.46596 1745 7.45874C1745 7.45879 1745 7.45884 1745 7.45889C1745 7.47877 1745 7.49885 1744.99 7.51914C1744.84 7.90249 1741.36 8.30809 1740.85 8.75233C1740.33 9.19692 1740.72 12.054 1735.78 12.2747C1728.61 12.578 1711.42 11.952 1707.6 12.0059C1704.99 12.0512 1701.77 12.3746 1698.43 12.4595C1687.66 12.7374 1682.02 12.5429 1672.32 13.5245C1668.44 13.1028 1664.55 12.6659 1660.67 12.214C1655.61 12.4775 1647.93 11.8847 1644.85 11.9354C1642.33 11.9799 1640.85 12.3879 1638.22 12.4259C1635.27 12.4717 1630.74 12.0626 1625.37 12.1607C1616.57 12.3198 1615 13.4372 1609.72 13.6287C1604.25 13.8301 1595.73 13.2785 1588.75 13.7449C1587.87 13.8811 1587 14.0179 1586.12 14.1554C1586.75 14.442 1587.37 14.7274 1588 15.0116C1584.48 15.1878 1582.97 14.6028 1579.74 14.6234C1575.93 14.6473 1573.99 15.2488 1571.43 15.2753C1569.33 15.2967 1566.49 14.8546 1563.77 14.911C1559.81 14.9917 1560.68 15.674 1558.54 15.8284C1557.69 15.8863 1541.95 16.4629 1541.07 16.4814C1534.31 16.5931 1533.73 15.6087 1528.34 15.5745C1513.41 15.4795 1498.08 16.4596 1484.27 16.943C1478.1 17.1562 1471.67 17.1654 1465.52 17.0527C1475.2 14.169 1453.76 12.1114 1461.78 16.4869C1454.94 15.9163 1450.09 17.1682 1443.6 17.0284C1439.41 16.9346 1436.5 16.3266 1430.51 16.3931C1419.88 16.5052 1408.25 18.4888 1405.2 15.1254C1392.72 15.8132 1381.91 14.614 1377.41 17.7292C1374.19 17.9497 1365.95 16.1664 1362.34 15.9316C1358.93 15.7223 1332.74 15.012 1328.45 14.9784C1324.17 14.9514 1316.67 14.9329 1313.06 15.2379C1308.53 15.6076 1305.36 19.067 1297.29 15.0923C1287.91 15.4611 1284.56 15.3655 1275.83 14.9265C1274.25 14.8472 1274.08 14.2392 1273.15 14.2419C1271.25 14.2484 1268.02 14.7116 1264.62 14.7804C1259.04 14.8941 1255.85 13.6075 1256.48 15.5869C1252.8 15.9352 1249.12 16.2859 1245.44 16.6389C1244.14 16.2598 1242.85 15.8797 1241.56 15.4985C1239.6 15.9277 1237.63 16.3586 1235.66 16.791C1237.97 13.8729 1224.12 15.643 1228.62 17.304C1221.49 16.7357 1214.35 16.1579 1207.22 15.5713C1208.21 12.201 1191.55 15.2268 1192.96 17.0768C1192.14 17.0776 1191.32 17.0785 1190.51 17.0793C1183.36 16.2042 1176.8 16.9722 1168.09 16.3921C1159.38 15.8082 1160.2 15.468 1157.55 13.8836C1155.5 13.9792 1153.45 14.0751 1151.4 14.1712C1140.64 18.5885 1142.54 10.9709 1124.13 14.3888C1118.24 11.6143 1103.74 13.09 1094.12 13.9652C1093 14.0664 1092.98 14.614 1091.49 14.7859C1087.85 15.2002 1078.55 14.5112 1078.87 16.2861C1075.65 15.7801 1072.43 15.2722 1069.21 14.7624C1066.58 15.0909 1063.95 15.4202 1061.32 15.7501C1061.33 16.3075 1061.35 16.865 1061.36 17.4224C1056.06 15.5349 1047.74 16.2805 1043.63 15.8324C1042.81 15.7413 1042.64 14.9684 1040.1 14.7611C1037.13 14.5148 1031.6 14.7519 1028.06 14.5141C1026.68 15.3759 1025.31 16.2387 1023.93 17.1023C1017.61 17.5824 1015.38 15.3097 1011.67 15.1369C1011 15.1071 998.796 15.2864 998.139 15.3359C992.756 15.7289 994.281 17.6779 978.713 17.2822C975.941 17.2104 973.699 16.5362 971.194 16.5118C966.767 16.4673 953.429 18.0202 952.38 19.4457C947.012 17.6714 932.648 18.4128 928.417 17.9002C927.14 17.7424 926.852 16.6049 922.927 16.3649C919.745 16.1691 911.55 17.0851 907.514 16.9342C903.23 16.7698 901.701 15.8126 899.781 15.7455C897.968 15.683 896.296 16.4566 893.825 16.4527C886.111 16.4277 879.126 15.1833 873.029 15.1604C872.936 15.16 872.843 15.1599 872.75 15.16C864.047 15.1726 856.345 17.4242 849.046 18.4272C847.214 18.2782 845.415 17.7862 843.496 17.781C819.746 17.7 792.956 17.254 769.135 16.738C758.077 16.4978 730.578 13.3997 737.918 18.5187C734.075 19.4045 706.133 17.2881 700.818 17.2483C695.504 17.2064 691.292 18.1015 687.116 18.1031C674.512 18.1064 665.636 17.4377 650.295 18.1666C646.332 18.3573 642.087 19.3958 639.74 19.3737C636.914 19.3449 633.872 18.3169 630.211 18.2395C621.483 18.0634 605.217 18.3305 596.844 18.1214C595.315 18.0812 594.778 17.2024 592.591 16.9209C584.076 15.822 574.532 15.8873 576.221 18.6628C565.307 17.0414 555.211 18.4275 545.096 18.4558C523.711 18.5138 484.755 17.6808 466.125 18.6373C454.377 19.2392 454.678 20.3751 437.383 19.2508C433.543 19.0025 429.721 18.6808 425.065 18.3889C414.15 17.6923 404.137 15.6138 395.817 17.9798C383.695 17.2585 374.04 17.6065 365.045 15.5321C363.985 16.0076 362.925 16.4815 361.865 16.9537C360.378 16.9537 358.892 16.9537 357.406 16.9535C356.942 16.4936 356.479 16.0343 356.015 15.5757C345.368 15.3929 331.86 17.1254 322.848 17.0208C307.737 16.86 268.818 15.8189 254.49 15.1666C246.883 14.8203 246.474 15.6562 242.119 13.892C240.417 14.0009 238.716 14.1087 237.015 14.2155C235.95 14.5834 234.885 14.9494 233.82 15.3135C224.061 15.2351 212.486 14.5649 203.189 14.4934C186.247 14.377 160.808 15.0272 143.795 14.2636C139.529 14.0735 134.197 13.3819 130.02 13.3554C123.94 13.3155 122.462 14.3386 114.747 14.2676C101.45 14.1276 76.6859 12.767 64.1176 12.7504C60.3846 12.7393 58.6429 13.0489 56.0653 13.0557C45.2569 13.0858 36.3831 12.9724 26.0191 13.2988C14.8909 12.4042 15.8522 11.4876 12.4035 10.5243C9.78987 9.79016 1.77558 8.20274 0.637905 7.62756C-0.16124 7.21728 2.82251 6.64758 1.70267 6.1962C15.0353 5.65391 20.6366 5.97402 31.4627 6.59369C51.4558 6.373 71.4489 6.15344 91.442 5.93562C93.261 6.25315 95.0799 6.57543 96.8989 6.90242C96.8989 6.90316 96.8989 6.9039 96.8989 6.90464C104.577 7.25161 107.831 6.34439 111.972 6.10159C151.615 3.7132 229.641 4.52975 273.283 4.65708C282.688 4.6643 313.28 3.78712 319.733 4.56111C321.404 4.76325 321.869 5.53693 323.646 5.56262C339.527 5.02516 355.407 4.46452 371.288 3.88416C403.944 4.98869 437.705 3.77687 470.61 3.39028C559.636 2.40047 647.774 1.26674 735.343 1.34495C752.266 1.36299 773.743 0.561406 790.311 1.03839C797.226 1.23598 800.106 2.88704 809.19 1.64692C809.286 2.09262 809.381 2.53834 809.476 2.98407C817.404 2.4407 822.469 1.42149 831.357 1.31297C838.842 1.22273 858.643 1.14986 865.257 1.32085C868.687 1.40602 867.409 2.24185 870.607 2.2375C871.243 2.23591 871.962 2.21894 872.75 2.19017C878.743 1.97105 888.658 1.06978 895.336 1.07206C902.18 1.07416 913.718 2.04135 918.98 1.90513C937.93 1.42064 958.572 0.023653 978.767 0.436675C984.345 0.553176 991.52 1.63655 993.267 1.60912C996.68 1.55218 997.696 0.514747 999.989 0.385707C1011.63 -0.265361 1029.78 1.00651 1041.19 1.08049C1078.38 1.32398 1117.78 1.01095 1154.81 1.34575C1178.21 1.54806 1217.08 1.56992 1238.68 2.3832C1243.34 2.5579 1242.1 3.57559 1246.01 3.59144C1250.34 3.60841 1252.69 2.93168 1254.72 2.88616C1268.75 2.556 1299.71 2.06696 1312.95 2.81839C1315.48 2.96191 1317.31 3.72885 1318.82 3.73338C1319.58 3.73705 1321.31 3.23079 1323.71 3.19208C1344.9 2.84988 1360.35 3.25051 1381.11 3.54506C1420.88 4.08693 1466.96 3.59005 1508.73 4.36789C1517.83 4.53637 1524.07 5.74754 1525.35 5.74119C1528.16 5.73458 1529.96 4.96791 1535.65 4.82453C1554.56 4.36821 1580.04 5.37361 1598.02 5.17693C1606.91 5.08231 1619.13 4.37136 1627.87 4.30468C1634.86 4.24961 1651.35 4.75793 1654.45 4.46264C1656.33 4.28511 1657.21 3.65435 1659.46 3.60984ZM1424.13 15.6941C1425.37 14.1251 1412.3 15.5119 1417.2 16.3241C1418.31 16.5049 1423.81 16.1004 1424.13 15.6941ZM811.712 14.1325C811.832 14.7244 811.952 15.3165 812.072 15.9085C813.789 15.6633 815.505 15.4179 817.223 15.1723C816.258 14.8158 815.293 14.4593 814.328 14.103C813.456 14.1128 812.584 14.1226 811.712 14.1325Z" fill="white"/>
</svg>
