<svg width="2505" height="1255" viewBox="0 0 2505 1255" fill="none" xmlns="http://www.w3.org/2000/svg">
<path d="M33.1987 52.6267C32.3171 51.8565 31.3983 50.4201 30.4259 49.439C26.359 45.3222 25.0012 43.6367 21.3555 39.8755C15.9326 34.3172 -0.749882 18.4515 0.608327 16.9933C0.608361 16.9933 0.608396 16.9932 0.60843 16.9932C0.622003 16.9787 0.637296 16.9655 0.654405 16.9537C0.974787 16.7283 2.68376 17.7665 3.19919 17.6396C3.71454 17.5121 5.50325 15.2737 7.68825 17.0082C10.8449 19.5355 17.4945 26.5881 19.1045 28.0149C20.211 28.9842 21.7557 29.9817 23.1889 31.2014C27.813 35.1307 30.0008 37.4355 34.6653 40.4408C35.9759 42.2386 37.2762 44.0476 38.5662 45.8675C40.8309 47.618 43.587 50.9967 44.8883 52.1402C45.9579 53.0761 46.8451 53.3452 47.9541 54.3268C49.2002 55.4255 50.7869 57.4635 53.0635 59.451C56.7946 62.7106 58.2011 62.4939 60.5052 64.3795C62.8965 66.3328 66.0257 70.003 69.2197 72.342C69.6733 72.5786 70.1273 72.8146 70.5817 73.0502C70.5186 72.5997 70.4548 72.1501 70.3901 71.7013C71.9588 72.9224 72.183 73.9309 73.5281 75.1563C75.1105 76.5984 76.3196 76.903 77.3916 77.8657C78.2695 78.6547 79.1386 80.0689 80.2965 81.071C81.9835 82.5328 82.0918 81.7011 83.0753 82.4066C83.4652 82.6908 90.3366 88.3064 90.7147 88.6334C93.5705 91.1422 93.1414 92.0879 95.3346 94.1785C97.4079 96.1516 99.5819 98.0547 101.787 99.8995L103.847 101.907L103.789 104.5C104.085 110.059 104.628 115.556 104.943 120.681C105.156 124.152 105.165 127.773 105.053 131.234C102.169 125.783 100.111 137.847 104.487 133.335C103.916 137.186 105.168 139.916 105.028 143.566C104.935 145.927 104.327 147.561 104.393 150.932C104.505 156.914 106.489 163.457 103.125 165.178C103.813 172.2 102.614 178.282 105.729 180.813C105.95 182.624 104.166 187.264 103.932 189.295C103.722 191.216 103.012 205.953 102.978 208.364C102.951 210.775 102.933 214.995 103.238 217.026C103.608 219.577 107.067 221.359 103.092 225.901C103.461 231.182 103.365 233.063 102.927 237.975C102.847 238.864 102.239 238.964 102.242 239.484C102.248 240.554 102.712 242.375 102.78 244.285C102.894 247.426 101.608 249.218 103.587 248.868C103.935 250.939 104.286 253.01 104.639 255.081C104.26 255.808 103.88 256.534 103.499 257.261C103.928 258.368 104.359 259.475 104.791 260.582C101.873 259.282 103.643 267.075 105.304 264.544C104.736 268.559 104.158 272.573 103.571 276.588C100.201 276.028 103.227 285.402 105.077 284.613C105.078 285.073 105.078 285.532 105.079 285.991C104.204 290.013 104.972 293.706 104.392 298.608C103.808 303.509 103.468 303.049 101.884 304.54C101.979 305.693 102.075 306.846 102.171 308C106.589 314.052 98.9709 312.982 102.389 323.346C99.6143 326.658 101.09 334.82 101.965 340.232C102.066 340.862 102.614 340.872 102.786 341.711C103.2 343.762 102.511 348.994 104.286 348.815C103.78 350.627 103.272 352.438 102.762 354.249C103.091 355.73 103.42 357.21 103.75 358.691C104.308 358.683 104.865 358.676 105.422 358.668C103.535 361.649 104.28 366.334 103.832 368.644C103.741 369.104 102.968 369.204 102.761 370.633C102.515 372.304 102.752 375.417 102.514 377.407C103.376 378.181 104.239 378.955 105.102 379.729C105.582 383.289 103.31 384.541 103.137 386.631C103.107 387.008 103.286 393.874 103.336 394.244C103.729 397.273 105.678 396.415 105.282 405.176C105.21 406.736 104.536 407.997 104.512 409.407C104.467 411.898 106.02 419.404 107.446 419.994C105.671 423.015 106.413 431.098 105.9 433.479C105.742 434.198 104.605 434.36 104.365 436.569C104.169 438.359 105.085 442.971 104.934 445.242C104.77 447.653 103.813 448.514 103.745 449.594C103.683 450.614 104.457 451.555 104.453 452.945C104.428 457.286 103.183 461.217 103.16 464.648C103.16 464.7 103.16 464.753 103.16 464.805C103.173 469.703 105.424 474.037 106.427 478.145C106.278 479.175 105.786 480.187 105.781 481.268C105.7 494.632 105.254 509.708 104.738 523.113C104.498 529.336 101.4 544.811 106.519 540.68C107.405 542.843 105.288 558.567 105.248 561.558C105.206 564.548 106.101 566.918 106.103 569.269C106.106 576.361 105.438 581.356 106.167 589.989C106.357 592.219 107.396 594.608 107.374 595.928C107.345 597.519 106.317 599.231 106.24 601.291C106.063 606.203 106.331 615.356 106.121 620.068C106.081 620.928 105.202 621.23 104.921 622.461C103.822 627.253 103.887 632.624 106.663 631.673C105.041 637.815 106.427 643.496 106.456 649.188C106.514 661.223 105.681 683.144 106.637 693.628C107.239 700.239 108.375 700.07 107.251 709.802C107.003 711.963 106.681 714.114 106.389 716.734C105.692 722.876 103.614 728.511 105.98 733.193C105.259 740.015 105.607 745.448 103.532 750.509C104.008 751.106 104.481 751.703 104.954 752.299C104.954 753.136 104.954 753.972 104.954 754.808C104.494 755.069 104.034 755.33 103.576 755.591C103.393 761.583 105.125 769.184 105.021 774.256C104.86 782.759 103.819 804.66 103.167 812.723C102.82 817.004 103.656 817.234 101.892 819.685C102.001 820.642 102.109 821.599 102.216 822.557C102.583 823.156 102.949 823.755 103.314 824.354C103.235 829.846 102.565 836.36 102.493 841.592C102.377 851.126 103.027 865.442 102.264 875.015C102.12 876.846 101.68 879.026 101.471 881L101.419 882.995L100 884.085C99.4816 884.421 98.9922 884.762 98.5544 885.108C95.8712 887.231 95.8692 888.549 92.4514 891.228C86.5495 895.83 74.866 903.546 69.3606 907.986C67.7215 909.3 67.1549 910.158 66.0323 911.076C61.3257 914.929 57.3746 917.985 53.0488 921.91C47.6203 925.158 47.4635 924.105 45.3492 924.579C43.7443 924.934 39.241 926.54 38.3814 926.496C37.7737 926.461 38.7196 924.961 37.9458 925.007C43.4335 919.862 46.084 918.126 51.2074 914.772C59.8096 907.517 68.4126 900.263 77.0166 893.011C78.0117 892.613 79.0099 892.219 80.0111 891.829C80.0115 891.829 80.012 891.83 80.0125 891.83C83.5878 889.38 84.4394 887.522 86.0969 885.866C88.5875 883.386 91.5313 880.623 94.8008 877.669L93.2128 881C91.8769 857.327 92.5914 822.858 92.6571 802.147C92.6643 796.855 91.7871 779.639 92.5611 776.008C92.7633 775.068 93.5369 774.806 93.5626 773.806C93.0252 764.87 92.4645 755.933 91.8842 746.997C92.9887 728.62 91.7769 709.621 91.3903 691.104C90.4005 641.006 89.2667 591.408 89.345 542.129C89.363 532.606 88.5614 520.52 89.0384 511.197C89.236 507.306 90.887 505.684 89.6469 500.573C90.0926 500.519 90.5383 500.465 90.9841 500.412C90.4407 495.951 89.4215 493.1 89.313 488.098C89.2227 483.887 89.1499 472.744 89.3209 469.022C89.406 467.091 90.2419 467.811 90.2375 466.011C90.2359 465.653 90.2189 465.248 90.1902 464.805C89.9711 461.432 89.0698 455.853 89.0721 452.095C89.0742 448.244 90.0414 441.751 89.9051 438.79C89.4206 428.126 88.0237 416.51 88.4367 405.146C88.5532 402.006 89.6366 397.969 89.6091 396.986C89.5522 395.065 88.5147 394.493 88.3857 393.203C87.7346 386.651 89.0065 376.438 89.0805 370.015C89.324 349.087 89.0109 326.917 89.3457 306.079C89.5481 292.914 89.5699 271.036 90.3832 258.882C90.5579 256.261 91.5756 256.96 91.5914 254.759C91.6084 252.319 90.9317 250.997 90.8862 249.857C90.556 241.963 90.067 224.538 90.8184 217.086C90.9619 215.666 91.7289 214.636 91.7334 213.786C91.737 213.356 91.2308 212.384 91.1921 211.034C90.8499 199.109 91.2505 190.415 91.5451 178.731C92.0869 156.353 91.59 130.423 92.3679 106.915C92.395 106.064 92.4519 105.257 92.5274 104.5L94.1098 108.138C91.5914 105.27 90.3026 102.925 89.8606 102.519C88.6998 101.446 87.437 101.317 84.9974 99.2395C76.9 92.3169 67.0992 81.8089 59.5593 75.051C55.8359 71.7104 50.3235 67.5449 46.6774 64.2382C43.7641 61.5984 37.319 54.8972 35.8431 53.9253C34.9465 53.3325 34.1578 53.4596 33.1987 52.6267ZM103.694 154.524C102.125 153.823 103.512 161.183 104.324 158.422C104.505 157.8 104.1 154.705 103.694 154.524ZM102.132 499.153C102.724 499.086 103.316 499.018 103.908 498.951C103.663 497.985 103.418 497.019 103.172 496.053C102.816 496.595 102.459 497.139 102.103 497.682C102.113 498.172 102.123 498.663 102.132 499.153Z" fill="white"/>
<path d="M2269.25 47.4978C2268.74 46.4282 2268.45 44.7263 2267.94 43.4246C2265.8 37.9682 2265.21 35.8581 2263.32 30.9012C2260.49 23.5615 2251.31 2.12569 2253.13 1.32234C2253.13 1.32232 2253.13 1.3223 2253.13 1.32228C2253.15 1.31425 2253.17 1.30827 2253.19 1.30422C2253.57 1.22457 2254.74 2.87644 2255.27 2.96681C2255.79 3.05669 2258.32 1.704 2259.66 4.19324C2261.58 7.8093 2264.95 17.0288 2265.88 19.0009C2266.52 20.3456 2267.56 21.8935 2268.4 23.6022C2271.13 29.1098 2272.25 32.1287 2275.37 36.7962C2275.88 38.9913 2276.37 41.1924 2276.85 43.3997C2278.25 45.9359 2279.47 50.1794 2280.23 51.7643C2280.85 53.0633 2281.56 53.6706 2282.2 55.028C2282.92 56.549 2283.58 59.078 2284.91 61.8387C2287.07 66.3653 2288.45 66.7321 2289.84 69.4094C2291.28 72.1845 2292.73 76.8488 2294.77 80.3054C2295.09 80.7077 2295.42 81.1097 2295.74 81.5114C2295.86 81.0685 2295.98 80.626 2296.1 80.184C2297.06 81.9487 2296.88 82.9738 2297.64 84.6523C2298.53 86.6273 2299.53 87.3976 2300.14 88.7224C2300.64 89.8078 2300.89 91.4692 2301.57 92.8651C2302.55 94.9007 2302.98 94.1736 2303.61 95.2243C2303.86 95.645 2308 103.622 2308.22 104.078C2309.87 107.555 2309.11 108.259 2310.31 111.081C2313.65 118.91 2318.07 126.512 2321.68 133.523C2323.3 136.655 2324.78 140.009 2326.09 143.262C2321.23 139.371 2324.27 151.383 2326.43 145.438C2327.48 149.238 2329.74 151.264 2331.1 154.705C2331.98 156.931 2332.09 158.691 2333.52 161.789C2336.07 167.29 2340.55 172.557 2338.18 175.507C2341.67 181.739 2343.06 187.861 2346.94 188.952C2347.88 190.542 2348.14 195.562 2348.76 197.54C2349.35 199.405 2354.71 213.353 2355.66 215.602C2356.62 217.848 2358.33 221.768 2359.44 223.527C2360.82 225.743 2364.71 226.002 2362.93 231.814C2365.42 236.561 2366.1 238.344 2367.7 243.074C2367.99 243.93 2367.47 244.268 2367.69 244.749C2368.13 245.738 2369.3 247.239 2370.14 248.983C2371.53 251.849 2371.08 254.029 2372.75 252.907C2373.91 254.687 2375.08 256.465 2376.25 258.243C2376.2 259.069 2376.15 259.896 2376.09 260.723C2376.94 261.576 2377.78 262.429 2378.63 263.282C2375.43 263.251 2380.23 269.763 2380.72 266.748C2381.84 270.699 2382.95 274.653 2384.05 278.611C2380.73 279.45 2387.33 286.922 2388.7 285.445C2388.89 285.87 2389.08 286.296 2389.26 286.721C2390.1 290.802 2392.31 293.916 2393.78 298.694C2395.25 303.473 2394.75 303.184 2393.91 305.204C2394.47 306.235 2395.02 307.265 2395.58 308.296C2402.1 312.127 2394.69 314.204 2402.04 322.436C2400.86 326.623 2405.54 333.596 2408.55 338.26C2408.9 338.803 2409.4 338.593 2409.9 339.301C2411.12 341.035 2412.62 346.163 2414.17 345.282C2414.45 347.165 2414.72 349.049 2415 350.934C2415.9 352.174 2416.81 353.414 2417.71 354.653C2418.22 354.422 2418.73 354.19 2419.23 353.959C2418.72 357.483 2421.32 361.525 2421.85 363.848C2421.95 364.311 2421.29 364.714 2421.68 366.123C2422.14 367.771 2423.62 370.562 2424.22 372.503C2425.23 372.843 2426.25 373.183 2427.26 373.522L2427.89 376.5C2427.96 376.564 2428.03 376.628 2428.1 376.692C2428.58 380.298 2426.31 381.565 2426.14 383.683C2426.11 384.064 2426.29 391.019 2426.34 391.394C2426.73 394.462 2428.68 393.593 2428.28 402.466C2428.21 404.046 2427.54 405.324 2427.51 406.753C2427.47 409.276 2429.02 416.878 2430.45 417.476C2428.67 420.536 2429.41 428.723 2428.9 431.135C2428.74 431.863 2427.6 432.027 2427.36 434.264C2427.17 436.078 2428.09 440.749 2427.93 443.049C2427.77 445.491 2426.81 446.363 2426.75 447.457C2426.68 448.49 2427.46 449.443 2427.45 450.852C2427.43 455.249 2426.18 459.23 2426.16 462.705C2426.16 462.759 2426.16 462.812 2426.16 462.865C2426.17 467.825 2428.42 472.215 2429.43 476.376C2429.28 477.42 2428.79 478.445 2428.78 479.539C2428.7 493.076 2428.25 508.347 2427.74 521.924C2427.5 528.227 2424.4 543.901 2429.52 539.718C2430.4 541.908 2428.29 557.835 2428.25 560.865C2428.21 563.893 2429.1 566.294 2429.1 568.675C2429.11 575.859 2428.44 580.918 2429.17 589.663C2429.36 591.921 2430.4 594.341 2430.37 595.678C2430.34 597.289 2429.32 599.023 2429.24 601.11C2429.06 606.085 2429.33 615.356 2429.12 620.129C2429.08 621.001 2428.2 621.307 2427.92 622.553C2426.82 627.407 2426.89 632.847 2429.66 631.884C2428.04 638.105 2429.43 643.86 2429.46 649.625C2429.51 661.815 2428.68 684.019 2429.64 694.638C2430.24 701.334 2431.38 701.163 2430.25 711.021C2430 713.209 2429.68 715.388 2429.39 718.042C2428.69 724.263 2426.61 729.971 2428.98 734.713C2428.72 737.133 2428.61 739.381 2428.47 741.5L2428.35 740.117C2428.77 744.034 2429.05 747.528 2428.31 751.042C2428.88 751.555 2429.45 752.068 2430.02 752.581C2430.17 753.415 2430.32 754.25 2430.46 755.084C2430.06 755.424 2429.65 755.764 2429.24 756.104C2430.12 762.112 2433.16 769.394 2433.95 774.471C2435.28 782.981 2438.11 805.009 2438.89 813.165C2439.3 817.495 2440.16 817.58 2438.85 820.331C2439.13 821.267 2439.4 822.203 2439.68 823.14C2440.15 823.674 2440.61 824.208 2441.08 824.742C2441.96 830.234 2442.45 836.848 2443.3 842.079C2444.86 851.609 2448.02 865.777 2448.95 875.459C2449.08 876.772 2449.09 878.286 2449.14 879.771L2447.69 877.272C2448.53 878.208 2449.38 879.112 2450.21 879.821C2452.85 882.068 2454.15 881.82 2457.49 884.688C2463.23 889.643 2473.21 899.716 2478.7 904.31C2480.33 905.68 2481.29 906.076 2482.43 907.011C2487.18 910.928 2491 914.25 2495.75 917.777C2500.05 922.521 2499.04 922.876 2499.94 924.873C2500.61 926.39 2503.11 930.532 2503.24 931.389C2503.33 931.996 2501.66 931.346 2501.86 932.101C2495.67 927.658 2493.42 925.37 2489.07 920.947C2480.17 913.829 2471.27 906.709 2462.37 899.588C2461.78 898.681 2461.19 897.77 2460.6 896.856C2460.6 896.855 2460.6 896.855 2460.6 896.854C2457.46 893.788 2455.45 893.3 2453.48 891.977C2450.14 889.725 2446.32 886.969 2442.2 883.865L2441.03 882.941L2440.69 881.26C2435.34 857.936 2430.17 824.602 2426.68 804.44C2425.75 799.159 2421.86 782.139 2421.99 778.382C2422.02 777.409 2422.74 777.014 2422.58 776.012C2420.48 767.191 2418.36 758.374 2416.22 749.56C2415.94 747.184 2415.63 744.803 2415.28 742.42L2415.2 741.5C2415.7 725.15 2414.72 708.431 2414.39 692.082C2413.4 641.337 2412.27 591.099 2412.34 541.186C2412.36 531.54 2411.56 519.298 2412.04 509.854C2412.24 505.913 2413.89 504.271 2412.65 499.093C2413.09 499.039 2413.54 498.984 2413.98 498.93C2413.44 494.412 2412.42 491.524 2412.31 486.458C2412.22 482.192 2412.15 470.906 2412.32 467.136C2412.41 465.181 2413.24 465.909 2413.24 464.086C2413.24 463.724 2413.22 463.313 2413.19 462.865C2412.97 459.448 2412.07 453.797 2412.07 449.991C2412.07 446.09 2413.04 439.513 2412.91 436.514C2412.42 425.712 2411.02 413.947 2411.44 402.436C2411.55 399.256 2412.64 395.166 2412.61 394.171C2412.55 392.226 2411.51 391.646 2411.39 390.34C2411.01 386.484 2411.28 381.378 2411.59 376.5L2412.34 380.091C2411.13 376.78 2409.98 373.57 2408.91 371.062C2400.59 351.562 2391.26 331.135 2383.06 311.682C2377.87 299.396 2368.97 279.105 2364.75 267.51C2363.84 265.009 2365.06 265.247 2364.17 263.201C2363.19 260.932 2362.04 259.979 2361.53 258.94C2358.01 251.755 2350.45 235.798 2348.09 228.586C2347.65 227.213 2347.93 225.949 2347.59 225.159C2347.41 224.759 2346.55 224.062 2345.97 222.826C2340.79 211.909 2337.61 203.687 2333.11 192.736C2324.47 171.772 2313.44 147.934 2304.56 125.827C2302.62 121.011 2302.3 117.267 2302 116.602C2301.35 115.139 2300.23 114.51 2298.79 111.6C2294.03 101.917 2289.1 88.2233 2284.79 78.9176C2282.67 74.3192 2279.21 68.2341 2277.14 63.6982C2275.49 60.0761 2272.16 51.2648 2271.18 49.7685C2270.59 48.8574 2269.81 48.6567 2269.25 47.4978ZM2334.35 165.4C2332.63 165.383 2336.9 171.648 2336.52 168.761C2336.43 168.111 2334.8 165.405 2334.35 165.4ZM2425.13 497.656C2425.72 497.587 2426.32 497.519 2426.91 497.451C2426.66 496.472 2426.42 495.493 2426.17 494.515C2425.82 495.065 2425.46 495.615 2425.1 496.165C2425.11 496.662 2425.12 497.159 2425.13 497.656Z" fill="white"/>
<path d="M2043.46 1238.61C2045.54 1238.57 2048.48 1239 2050.93 1239.05C2061.2 1239.29 2065.01 1239.6 2074.31 1239.86C2088.09 1240.23 2129 1240.47 2129 1242.46C2129 1242.46 2129 1242.46 2129 1242.46C2129 1242.48 2129 1242.5 2128.99 1242.52C2128.84 1242.9 2125.36 1243.31 2124.85 1243.75C2124.33 1244.2 2124.72 1247.05 2119.78 1247.27C2112.61 1247.58 2095.42 1246.95 2091.6 1247.01C2088.99 1247.05 2085.77 1247.37 2082.43 1247.46C2071.66 1247.74 2066.02 1247.54 2056.32 1248.52C2052.44 1248.1 2048.55 1247.67 2044.67 1247.21C2039.61 1247.48 2031.93 1246.88 2028.85 1246.94C2026.33 1246.98 2024.85 1247.39 2022.22 1247.43C2019.27 1247.47 2014.74 1247.06 2009.37 1247.16C2000.57 1247.32 1999 1248.44 1993.72 1248.63C1988.25 1248.83 1979.73 1248.28 1972.75 1248.74C1971.87 1248.88 1971 1249.02 1970.12 1249.16C1970.75 1249.44 1971.37 1249.73 1972 1250.01C1968.48 1250.19 1966.97 1249.6 1963.74 1249.62C1959.93 1249.65 1957.99 1250.25 1955.43 1250.28C1953.33 1250.3 1950.49 1249.85 1947.77 1249.91C1943.81 1249.99 1944.68 1250.67 1942.54 1250.83C1941.69 1250.89 1925.95 1251.46 1925.07 1251.48C1918.31 1251.59 1917.73 1250.61 1912.34 1250.57C1897.41 1250.48 1882.08 1251.46 1868.27 1251.94C1862.1 1252.16 1855.67 1252.17 1849.52 1252.05C1859.2 1249.17 1837.76 1247.11 1845.78 1251.49C1838.94 1250.92 1834.09 1252.17 1827.6 1252.03C1823.41 1251.93 1820.5 1251.33 1814.51 1251.39C1803.88 1251.51 1792.25 1253.49 1789.2 1250.13C1776.72 1250.81 1765.91 1249.61 1761.41 1252.73C1758.19 1252.95 1749.95 1251.17 1746.34 1250.93C1742.93 1250.72 1716.74 1250.01 1712.45 1249.98C1708.17 1249.95 1700.67 1249.93 1697.06 1250.24C1692.53 1250.61 1689.36 1254.07 1681.29 1250.09C1671.91 1250.46 1668.56 1250.37 1659.83 1249.93C1658.25 1249.85 1658.08 1249.24 1657.15 1249.24C1655.25 1249.25 1652.02 1249.71 1648.62 1249.78C1643.04 1249.89 1639.85 1248.61 1640.48 1250.59C1636.8 1250.94 1633.12 1251.29 1629.44 1251.64C1628.14 1251.26 1626.85 1250.88 1625.56 1250.5C1623.6 1250.93 1621.63 1251.36 1619.66 1251.79C1621.97 1248.87 1608.12 1250.64 1612.62 1252.3C1605.49 1251.74 1598.35 1251.16 1591.22 1250.57C1592.21 1247.2 1575.55 1250.23 1576.96 1252.08C1576.14 1252.08 1575.32 1252.08 1574.51 1252.08C1567.36 1251.2 1560.8 1251.97 1552.09 1251.39C1543.38 1250.81 1544.2 1250.47 1541.55 1248.88C1539.5 1248.98 1537.45 1249.08 1535.4 1249.17C1524.64 1253.59 1526.54 1245.97 1508.13 1249.39C1502.24 1246.61 1487.74 1248.09 1478.12 1248.97C1477 1249.07 1476.98 1249.61 1475.49 1249.79C1471.85 1250.2 1462.55 1249.51 1462.87 1251.29C1459.65 1250.78 1456.43 1250.27 1453.21 1249.76C1450.58 1250.09 1447.95 1250.42 1445.32 1250.75C1445.33 1251.31 1445.35 1251.86 1445.36 1252.42C1440.06 1250.53 1431.74 1251.28 1427.63 1250.83C1426.81 1250.74 1426.64 1249.97 1424.1 1249.76C1421.13 1249.51 1415.6 1249.75 1412.06 1249.51C1410.68 1250.38 1409.31 1251.24 1407.93 1252.1C1401.61 1252.58 1399.38 1250.31 1395.67 1250.14C1395 1250.11 1382.8 1250.29 1382.14 1250.34C1376.76 1250.73 1378.28 1252.68 1362.71 1252.28C1359.94 1252.21 1357.7 1251.54 1355.19 1251.51C1350.77 1251.47 1337.43 1253.02 1336.38 1254.45C1331.01 1252.67 1316.65 1253.41 1312.42 1252.9C1311.14 1252.74 1310.85 1251.6 1306.93 1251.36C1303.74 1251.17 1295.55 1252.09 1291.51 1251.93C1287.23 1251.77 1285.7 1250.81 1283.78 1250.75C1281.97 1250.68 1280.3 1251.46 1277.83 1251.45C1270.11 1251.43 1263.13 1250.18 1257.03 1250.16C1256.94 1250.16 1256.84 1250.16 1256.75 1250.16C1248.05 1250.17 1240.35 1252.42 1233.05 1253.43C1231.21 1253.28 1229.42 1252.79 1227.5 1252.78C1203.75 1252.7 1176.96 1252.25 1153.14 1251.74C1142.08 1251.5 1114.58 1248.4 1121.92 1253.52C1118.07 1254.4 1090.13 1252.29 1084.82 1252.25C1079.5 1252.21 1075.29 1253.1 1071.12 1253.1C1058.51 1253.11 1049.64 1252.44 1034.29 1253.17C1030.33 1253.36 1026.09 1254.4 1023.74 1254.37C1020.91 1254.34 1017.87 1253.32 1014.21 1253.24C1005.48 1253.06 989.217 1253.33 980.844 1253.12C979.315 1253.08 978.778 1252.2 976.591 1251.92C968.076 1250.82 958.532 1250.89 960.221 1253.66C949.307 1252.04 939.211 1253.43 929.096 1253.46C907.711 1253.51 868.755 1252.68 850.125 1253.64C838.377 1254.24 838.678 1255.38 821.383 1254.25C817.543 1254 813.721 1253.68 809.065 1253.39C798.15 1252.69 788.137 1250.61 779.817 1252.98C767.695 1252.26 758.04 1252.61 749.045 1250.53C747.985 1251.01 746.925 1251.48 745.865 1251.95C744.378 1251.95 742.892 1251.95 741.406 1251.95C740.942 1251.49 740.479 1251.03 740.015 1250.58C729.368 1250.39 715.86 1252.13 706.848 1252.02C691.737 1251.86 652.818 1250.82 638.49 1250.17C630.883 1249.82 630.474 1250.66 626.119 1248.89C624.417 1249 622.716 1249.11 621.015 1249.22C619.95 1249.58 618.885 1249.95 617.82 1250.31C608.061 1250.24 596.486 1249.56 587.189 1249.49C570.247 1249.38 544.808 1250.03 527.795 1249.26C523.529 1249.07 518.197 1248.38 514.02 1248.36C507.94 1248.32 506.462 1249.34 498.747 1249.27C485.45 1249.13 460.686 1247.77 448.118 1247.75C444.385 1247.74 442.643 1248.05 440.065 1248.06C429.257 1248.09 420.383 1247.97 410.019 1248.3C398.891 1247.4 399.852 1246.49 396.404 1245.52C393.79 1244.79 385.776 1243.2 384.638 1242.63C383.839 1242.22 386.823 1241.65 385.703 1241.2C399.035 1240.65 404.637 1240.97 415.463 1241.59C435.456 1241.37 455.449 1241.15 475.442 1240.94C477.261 1241.25 479.08 1241.58 480.899 1241.9C480.899 1241.9 480.899 1241.9 480.899 1241.9C488.577 1242.25 491.831 1241.34 495.972 1241.1C535.615 1238.71 613.641 1239.53 657.283 1239.66C666.688 1239.66 697.28 1238.79 703.733 1239.56C705.404 1239.76 705.869 1240.54 707.646 1240.56C723.527 1240.03 739.407 1239.46 755.288 1238.88C787.944 1239.99 821.705 1238.78 854.61 1238.39C943.636 1237.4 1031.77 1236.27 1119.34 1236.34C1136.27 1236.36 1157.74 1235.56 1174.31 1236.04C1181.23 1236.24 1184.11 1237.89 1193.19 1236.65C1193.29 1237.09 1193.38 1237.54 1193.48 1237.98C1201.4 1237.44 1206.47 1236.42 1215.36 1236.31C1222.84 1236.22 1242.64 1236.15 1249.26 1236.32C1252.69 1236.41 1251.41 1237.24 1254.61 1237.24C1255.24 1237.24 1255.96 1237.22 1256.75 1237.19C1262.74 1236.97 1272.66 1236.07 1279.34 1236.07C1286.18 1236.07 1297.72 1237.04 1302.98 1236.91C1321.93 1236.42 1342.57 1235.02 1362.77 1235.44C1368.35 1235.55 1375.52 1236.64 1377.27 1236.61C1380.68 1236.55 1381.7 1235.51 1383.99 1235.39C1395.63 1234.73 1413.78 1236.01 1425.19 1236.08C1462.38 1236.32 1501.78 1236.01 1538.81 1236.35C1562.21 1236.55 1601.08 1236.57 1622.68 1237.38C1627.34 1237.56 1626.1 1238.58 1630.01 1238.59C1634.34 1238.61 1636.69 1237.93 1638.72 1237.89C1652.75 1237.56 1683.71 1237.07 1696.95 1237.82C1699.48 1237.96 1701.31 1238.73 1702.82 1238.73C1703.58 1238.74 1705.31 1238.23 1707.71 1238.19C1728.9 1237.85 1744.35 1238.25 1765.11 1238.55C1804.88 1239.09 1850.96 1238.59 1892.73 1239.37C1901.83 1239.54 1908.07 1240.75 1909.35 1240.74C1912.16 1240.73 1913.96 1239.97 1919.65 1239.82C1938.56 1239.37 1964.04 1240.37 1982.02 1240.18C1990.91 1240.08 2003.13 1239.37 2011.87 1239.3C2018.86 1239.25 2035.35 1239.76 2038.45 1239.46C2040.33 1239.29 2041.21 1238.65 2043.46 1238.61ZM1808.13 1250.69C1809.37 1249.13 1796.3 1250.51 1801.2 1251.32C1802.31 1251.5 1807.81 1251.1 1808.13 1250.69ZM1195.71 1249.13C1195.83 1249.72 1195.95 1250.32 1196.07 1250.91C1197.79 1250.66 1199.51 1250.42 1201.22 1250.17C1200.26 1249.82 1199.29 1249.46 1198.33 1249.1C1197.46 1249.11 1196.58 1249.12 1195.71 1249.13Z" fill="white"/>
</svg>
