<svg width="1325" height="609" viewBox="0 0 1325 609" fill="none" xmlns="http://www.w3.org/2000/svg">
<path d="M4.22712 569.087C4.23494 570.057 4.14654 571.426 4.13512 572.571C4.08533 577.365 4.02129 579.141 3.96588 583.479C3.88899 589.911 3.84043 608.999 3.42526 609C3.42526 609 3.42526 609 3.42526 609C3.42525 609 3.42524 609 3.42523 609C3.42523 609 3.42523 609 3.42523 609C3.42109 609 3.41691 608.998 3.41268 608.994C3.33281 608.927 3.24831 607.304 3.15576 607.063C3.06314 606.823 2.46792 607.003 2.42193 604.697C2.35876 601.353 2.48916 593.333 2.47794 591.55C2.4685 590.33 2.40114 588.83 2.38344 587.271C2.32554 582.244 2.36607 579.614 2.16157 575.086C2.24941 573.275 2.34043 571.463 2.43458 569.652C2.37969 567.289 2.50319 563.707 2.49263 562.271C2.48336 561.093 2.39835 560.403 2.39044 559.175C2.38089 557.798 2.46613 555.684 2.44568 553.179C2.41254 549.073 2.17974 548.342 2.13986 545.879C2.0979 543.324 2.21281 539.351 2.11564 536.091C2.08727 535.682 2.05876 535.274 2.03012 534.865C1.97043 535.158 1.91097 535.451 1.85175 535.744C1.81504 534.102 1.93691 533.396 1.93263 531.887C1.92764 530.112 1.80234 529.206 1.79681 528.012C1.79235 527.033 1.88445 525.706 1.87272 524.438C1.8559 522.588 1.71376 522.992 1.68159 521.997C1.66951 521.6 1.54939 514.257 1.54554 513.843C1.52228 510.692 1.72736 510.418 1.73447 507.906C1.75427 500.938 1.55008 493.785 1.44937 487.34C1.40495 484.462 1.40305 481.459 1.42651 478.59C2.02729 483.11 2.45595 473.107 1.54439 476.848C1.66327 473.655 1.40245 471.391 1.43158 468.364C1.45113 466.407 1.57779 465.052 1.56393 462.257C1.54059 457.297 1.12732 451.871 1.82805 450.444C1.68474 444.622 1.93458 439.579 1.28558 437.48C1.23966 435.979 1.61116 432.131 1.66009 430.447C1.70369 428.855 1.85166 416.635 1.85867 414.636C1.86429 412.637 1.86815 409.137 1.8046 407.453C1.72759 405.338 1.00688 403.86 1.83494 400.094C1.75809 395.716 1.77802 394.156 1.86947 390.083C1.886 389.346 2.01267 389.262 2.01211 388.832C2.01075 387.944 1.91426 386.435 1.89992 384.851C1.87624 382.246 2.14427 380.76 1.73189 381.05C1.65933 379.333 1.58627 377.616 1.51274 375.899C1.59171 375.296 1.6709 374.694 1.75031 374.091C1.66089 373.173 1.57113 372.255 1.48105 371.337C2.08897 372.416 1.72022 365.954 1.37417 368.052C1.49256 364.723 1.61293 361.394 1.73514 358.066C2.43729 358.53 1.80691 350.757 1.42151 351.411C1.42133 351.03 1.42115 350.65 1.42097 350.269C1.6033 346.934 1.44328 343.872 1.56415 339.807C1.6858 335.743 1.75667 336.125 2.08676 334.889C2.06683 333.932 2.04685 332.976 2.02683 332.02C1.10655 327.001 2.69356 327.888 1.9815 319.295C2.55953 316.549 2.25208 309.781 2.06974 305.293C2.04866 304.771 1.93459 304.762 1.89877 304.067C1.81245 302.367 1.95601 298.028 1.58624 298.176C1.69165 296.674 1.79747 295.173 1.90366 293.671C1.83522 292.443 1.76663 291.216 1.69789 289.988C1.58176 289.994 1.46563 290 1.34951 290.007C1.74273 287.535 1.5874 283.651 1.68076 281.734C1.69974 281.353 1.86074 281.271 1.90394 280.086C1.95526 278.7 1.90586 276.119 1.9554 274.468C1.77585 273.827 1.59611 273.185 1.41619 272.543C1.31617 269.591 1.78964 268.554 1.82564 266.82C1.83185 266.508 1.79451 260.814 1.78418 260.508C1.70231 257.996 1.29628 258.707 1.3787 251.444C1.39367 250.15 1.53412 249.104 1.53921 247.935C1.54848 245.869 1.22495 239.646 0.927982 239.156C1.29763 236.651 1.14316 229.949 1.24997 227.975C1.28282 227.379 1.5198 227.244 1.56982 225.413C1.61061 223.928 1.41976 220.104 1.4512 218.221C1.48547 216.222 1.68487 215.509 1.69886 214.613C1.71188 213.767 1.55071 212.987 1.55151 211.834C1.55673 208.235 1.81598 204.975 1.82076 202.13C1.82084 202.087 1.82086 202.043 1.82084 202C1.8182 197.939 1.34911 194.345 1.14016 190.939C1.17121 190.085 1.2737 189.245 1.27479 188.35C1.29167 177.268 1.38458 164.767 1.49207 153.652C1.54212 148.493 2.18757 135.661 1.12109 139.086C0.936552 137.293 1.37748 124.255 1.38577 121.775C1.3945 119.295 1.20803 117.33 1.20769 115.381C1.20699 109.5 1.34631 105.359 1.19445 98.2003C1.15473 96.3514 0.938382 94.3704 0.94297 93.2755C0.948972 91.9568 1.16315 90.5374 1.17926 88.8289C1.21596 84.7564 1.1603 77.1667 1.20388 73.2596C1.21225 72.5462 1.39534 72.2956 1.45398 71.2754C1.68291 67.3022 1.66931 62.8487 1.09108 63.6367C1.42888 58.5441 1.14011 53.8332 1.13422 49.1138C1.12212 39.135 1.29566 20.9578 1.0964 12.2648C0.997639 7.94168 0.829056 7.11542 0.877732 3L0.885729 0.869795L3 0.877732C4.10255 0.89074 5.44122 0.91932 7.14647 0.968591C8.93789 1.02031 10.7214 1.08732 12.8941 1.14815C17.9872 1.29328 22.6594 1.72629 26.5414 1.23338C32.1978 1.38364 36.7028 1.31114 40.8997 1.74331C41.3945 1.64424 41.8892 1.54552 42.384 1.44715C43.0774 1.44714 43.7709 1.44715 44.4644 1.44718C44.6808 1.543 44.8971 1.63868 45.1134 1.73422C50.0814 1.77231 56.3843 1.41138 60.5896 1.43316C67.6402 1.46667 85.8002 1.68356 92.4859 1.81946C96.0352 1.8916 96.2263 1.71746 98.2584 2.08499C99.0523 2.06232 99.8461 2.03985 100.64 2.0176C101.137 1.94095 101.634 1.8647 102.131 1.78885C106.684 1.80519 112.085 1.94482 116.424 1.9597C124.329 1.98397 136.199 1.8485 144.137 2.00758C146.128 2.04718 148.616 2.19127 150.565 2.19679C153.402 2.20511 154.091 1.99197 157.691 2.00675C163.896 2.03593 175.451 2.31937 181.315 2.32283C183.057 2.32515 183.87 2.26065 185.073 2.25923C190.116 2.25296 194.257 2.27658 199.093 2.20859C204.285 2.39496 203.837 2.58592 205.446 2.7866C206.665 2.93955 210.405 3.27026 210.936 3.39009C211.309 3.47557 209.916 3.59425 210.439 3.68829C204.218 3.80127 201.604 3.73458 196.553 3.60548C187.224 3.65146 177.895 3.6972 168.566 3.74258C167.717 3.67643 166.868 3.60928 166.019 3.54116C166.019 3.54101 166.019 3.54085 166.019 3.5407C162.437 3.46842 160.918 3.65742 158.986 3.708C140.488 4.20558 104.081 4.03547 83.7169 4.00894C79.3286 4.00744 65.0538 4.19018 62.0428 4.02894C61.2632 3.98682 61.0464 3.82564 60.2169 3.82029C52.807 3.93226 45.397 4.04906 37.987 4.16997C26.4871 3.9981 14.6938 4.09465 3 4.19224L4.19224 3C4.22351 6.8009 4.25405 10.5913 4.27286 14.3576C4.47907 55.8982 4.71526 97.024 4.69897 137.884C4.69521 145.781 4.86221 155.802 4.76283 163.533C4.72167 166.76 4.3777 168.104 4.63606 172.342C4.5432 172.387 4.45035 172.431 4.35749 172.476C4.47069 176.175 4.68302 178.539 4.70563 182.686C4.72443 186.178 4.73961 195.418 4.70399 198.503C4.68625 200.104 4.51211 199.508 4.51302 201C4.51335 201.297 4.51689 201.633 4.52288 202C4.56853 204.797 4.7563 209.423 4.75582 212.539C4.75538 215.732 4.55388 221.116 4.58227 223.571C4.6832 232.414 4.97424 242.045 4.88819 251.468C4.86392 254.071 4.63822 257.419 4.64393 258.235C4.65579 259.827 4.87193 260.301 4.89881 261.371C5.03445 266.804 4.76948 275.273 4.75407 280.598C4.70334 297.951 4.76855 316.334 4.6988 333.612C4.65665 344.529 4.6521 362.669 4.48267 372.747C4.44627 374.92 4.23425 374.341 4.23095 376.166C4.22742 378.189 4.3684 379.285 4.37788 380.23C4.44667 386.776 4.54855 401.224 4.392 407.404C4.3621 408.581 4.20232 409.435 4.20138 410.139C4.20062 410.496 4.30608 411.302 4.31415 412.422C4.38544 422.309 4.30198 429.518 4.24061 439.207C4.12772 457.762 4.23124 479.262 4.06919 498.755C4.03409 503.002 3.78176 505.914 3.78309 506.511C3.78446 507.822 3.94419 508.661 3.97406 511.315C4.06912 520.14 3.85967 532.026 3.90064 540.42C3.92035 544.567 4.06847 550.266 4.08236 554.347C4.09383 557.606 3.98793 565.304 4.04945 566.749C4.08644 567.628 4.21784 568.034 4.22712 569.087ZM1.70955 459.279C2.03644 459.859 1.74752 453.757 1.57832 456.046C1.54065 456.562 1.62492 459.129 1.70955 459.279ZM2.0349 173.519C1.91157 173.575 1.78824 173.631 1.6649 173.687C1.71599 174.488 1.76711 175.289 1.81827 176.09C1.89254 175.64 1.96681 175.19 2.04105 174.74C2.039 174.333 2.03695 173.926 2.0349 173.519Z" fill="white"/>
<path d="M1320.77 569.087C1320.77 570.057 1320.85 571.426 1320.86 572.571C1320.91 577.365 1320.98 579.141 1321.03 583.479C1321.11 589.911 1321.16 608.999 1321.57 609C1321.57 609 1321.57 609 1321.57 609C1321.57 609 1321.57 609 1321.57 609C1321.57 609 1321.57 609 1321.57 609C1321.58 609 1321.58 608.998 1321.59 608.994C1321.67 608.927 1321.75 607.304 1321.84 607.063C1321.94 606.823 1322.53 607.003 1322.58 604.697C1322.64 601.353 1322.51 593.333 1322.52 591.55C1322.53 590.33 1322.6 588.83 1322.62 587.271C1322.67 582.244 1322.63 579.614 1322.84 575.086C1322.75 573.275 1322.66 571.463 1322.57 569.652C1322.62 567.289 1322.5 563.707 1322.51 562.271C1322.52 561.093 1322.6 560.403 1322.61 559.175C1322.62 557.798 1322.53 555.684 1322.55 553.179C1322.59 549.073 1322.82 548.342 1322.86 545.879C1322.9 543.324 1322.79 539.351 1322.88 536.091C1322.91 535.682 1322.94 535.274 1322.97 534.865C1323.03 535.158 1323.09 535.451 1323.15 535.744C1323.18 534.102 1323.06 533.396 1323.07 531.887C1323.07 530.112 1323.2 529.206 1323.2 528.012C1323.21 527.033 1323.12 525.706 1323.13 524.438C1323.14 522.588 1323.29 522.992 1323.32 521.997C1323.33 521.6 1323.45 514.257 1323.45 513.843C1323.48 510.692 1323.27 510.418 1323.27 507.906C1323.25 500.938 1323.45 493.785 1323.55 487.34C1323.6 484.462 1323.6 481.459 1323.57 478.59C1322.97 483.11 1322.54 473.107 1323.46 476.848C1323.34 473.655 1323.6 471.391 1323.57 468.364C1323.55 466.407 1323.42 465.052 1323.44 462.257C1323.46 457.297 1323.87 451.871 1323.17 450.444C1323.32 444.622 1323.07 439.579 1323.71 437.48C1323.76 435.979 1323.39 432.131 1323.34 430.447C1323.3 428.855 1323.15 416.635 1323.14 414.636C1323.14 412.637 1323.13 409.137 1323.2 407.453C1323.27 405.338 1323.99 403.86 1323.17 400.094C1323.24 395.716 1323.22 394.156 1323.13 390.083C1323.11 389.346 1322.99 389.262 1322.99 388.832C1322.99 387.944 1323.09 386.435 1323.1 384.851C1323.12 382.246 1322.86 380.76 1323.27 381.05C1323.34 379.333 1323.41 377.616 1323.49 375.899C1323.41 375.296 1323.33 374.694 1323.25 374.091C1323.34 373.173 1323.43 372.255 1323.52 371.337C1322.91 372.416 1323.28 365.954 1323.63 368.052C1323.51 364.723 1323.39 361.394 1323.26 358.066C1322.56 358.53 1323.19 350.757 1323.58 351.411C1323.58 351.03 1323.58 350.65 1323.58 350.269C1323.4 346.934 1323.56 343.872 1323.44 339.807C1323.31 335.743 1323.24 336.125 1322.91 334.889C1322.93 333.932 1322.95 332.976 1322.97 332.02C1323.89 327.001 1322.31 327.888 1323.02 319.295C1322.44 316.549 1322.75 309.781 1322.93 305.293C1322.95 304.771 1323.07 304.762 1323.1 304.067C1323.19 302.367 1323.04 298.028 1323.41 298.176C1323.31 296.674 1323.2 295.173 1323.1 293.671C1323.16 292.443 1323.23 291.216 1323.3 289.988C1323.42 289.994 1323.53 290 1323.65 290.007C1323.26 287.535 1323.41 283.651 1323.32 281.734C1323.3 281.353 1323.14 281.271 1323.1 280.086C1323.04 278.7 1323.09 276.119 1323.04 274.468C1323.22 273.827 1323.4 273.185 1323.58 272.543C1323.68 269.591 1323.21 268.554 1323.17 266.82C1323.17 266.508 1323.21 260.814 1323.22 260.508C1323.3 257.996 1323.7 258.707 1323.62 251.444C1323.61 250.15 1323.47 249.104 1323.46 247.935C1323.45 245.869 1323.78 239.646 1324.07 239.156C1323.7 236.651 1323.86 229.949 1323.75 227.975C1323.72 227.379 1323.48 227.244 1323.43 225.413C1323.39 223.928 1323.58 220.104 1323.55 218.221C1323.51 216.222 1323.32 215.509 1323.3 214.613C1323.29 213.767 1323.45 212.987 1323.45 211.834C1323.44 208.235 1323.18 204.975 1323.18 202.13C1323.18 202.087 1323.18 202.043 1323.18 202C1323.18 197.939 1323.65 194.345 1323.86 190.939C1323.83 190.085 1323.73 189.245 1323.73 188.35C1323.71 177.268 1323.62 164.767 1323.51 153.652C1323.46 148.493 1322.81 135.661 1323.88 139.086C1324.06 137.293 1323.62 124.255 1323.61 121.775C1323.61 119.295 1323.79 117.33 1323.79 115.381C1323.79 109.5 1323.65 105.359 1323.81 98.2003C1323.85 96.3514 1324.06 94.3704 1324.06 93.2755C1324.05 91.9568 1323.84 90.5374 1323.82 88.8289C1323.78 84.7564 1323.84 77.1667 1323.8 73.2596C1323.79 72.5462 1323.6 72.2956 1323.55 71.2754C1323.32 67.3022 1323.33 62.8487 1323.91 63.6367C1323.57 58.5441 1323.86 53.8332 1323.87 49.1138C1323.88 39.135 1323.7 20.9578 1323.9 12.2648C1324 7.94168 1324.17 7.11542 1324.12 3L1324.11 0.869795L1322 0.877732C1320.9 0.89074 1319.56 0.91932 1317.85 0.968591C1316.06 1.02031 1314.28 1.08732 1312.11 1.14815C1307.01 1.29328 1302.34 1.72629 1298.46 1.23338C1292.8 1.38364 1288.3 1.31114 1284.1 1.74331C1283.61 1.64424 1283.11 1.54552 1282.62 1.44715C1281.92 1.44714 1281.23 1.44715 1280.54 1.44718C1280.32 1.543 1280.1 1.63868 1279.89 1.73422C1274.92 1.77231 1268.62 1.41138 1264.41 1.43316C1257.36 1.46667 1239.2 1.68356 1232.51 1.81946C1228.96 1.8916 1228.77 1.71746 1226.74 2.08499C1225.95 2.06232 1225.15 2.03985 1224.36 2.0176C1223.86 1.94095 1223.37 1.8647 1222.87 1.78885C1218.32 1.80519 1212.91 1.94482 1208.58 1.9597C1200.67 1.98397 1188.8 1.8485 1180.86 2.00758C1178.87 2.04718 1176.38 2.19127 1174.44 2.19679C1171.6 2.20511 1170.91 1.99197 1167.31 2.00675C1161.1 2.03593 1149.55 2.31937 1143.68 2.32283C1141.94 2.32515 1141.13 2.26065 1139.93 2.25923C1134.88 2.25296 1130.74 2.27658 1125.91 2.20859C1120.71 2.39496 1121.16 2.58592 1119.55 2.7866C1118.33 2.93955 1114.6 3.27026 1114.06 3.39009C1113.69 3.47557 1115.08 3.59425 1114.56 3.68829C1120.78 3.80127 1123.4 3.73458 1128.45 3.60548C1137.78 3.65146 1147.11 3.6972 1156.43 3.74258C1157.28 3.67643 1158.13 3.60928 1158.98 3.54116C1158.98 3.54101 1158.98 3.54085 1158.98 3.5407C1162.56 3.46842 1164.08 3.65742 1166.01 3.708C1184.51 4.20558 1220.92 4.03547 1241.28 4.00894C1245.67 4.00744 1259.95 4.19018 1262.96 4.02894C1263.74 3.98682 1263.95 3.82564 1264.78 3.82029C1272.19 3.93226 1279.6 4.04906 1287.01 4.16997C1298.51 3.9981 1310.31 4.09465 1322 4.19224L1320.81 3C1320.78 6.8009 1320.75 10.5913 1320.73 14.3576C1320.52 55.8982 1320.28 97.024 1320.3 137.884C1320.3 145.781 1320.14 155.802 1320.24 163.533C1320.28 166.76 1320.62 168.104 1320.36 172.342C1320.46 172.387 1320.55 172.431 1320.64 172.476C1320.53 176.175 1320.32 178.539 1320.29 182.686C1320.28 186.178 1320.26 195.418 1320.3 198.503C1320.31 200.104 1320.49 199.508 1320.49 201C1320.49 201.297 1320.48 201.633 1320.48 202C1320.43 204.797 1320.24 209.423 1320.24 212.539C1320.24 215.732 1320.45 221.116 1320.42 223.571C1320.32 232.414 1320.03 242.045 1320.11 251.468C1320.14 254.071 1320.36 257.419 1320.36 258.235C1320.34 259.827 1320.13 260.301 1320.1 261.371C1319.97 266.804 1320.23 275.273 1320.25 280.598C1320.3 297.951 1320.23 316.334 1320.3 333.612C1320.34 344.529 1320.35 362.669 1320.52 372.747C1320.55 374.92 1320.77 374.341 1320.77 376.166C1320.77 378.189 1320.63 379.285 1320.62 380.23C1320.55 386.776 1320.45 401.224 1320.61 407.404C1320.64 408.581 1320.8 409.435 1320.8 410.139C1320.8 410.496 1320.69 411.302 1320.69 412.422C1320.61 422.309 1320.7 429.518 1320.76 439.207C1320.87 457.762 1320.77 479.262 1320.93 498.755C1320.97 503.002 1321.22 505.914 1321.22 506.511C1321.22 507.822 1321.06 508.661 1321.03 511.315C1320.93 520.14 1321.14 532.026 1321.1 540.42C1321.08 544.567 1320.93 550.266 1320.92 554.347C1320.91 557.606 1321.01 565.304 1320.95 566.749C1320.91 567.628 1320.78 568.034 1320.77 569.087ZM1323.29 459.279C1322.96 459.859 1323.25 453.757 1323.42 456.046C1323.46 456.562 1323.38 459.129 1323.29 459.279ZM1322.97 173.519C1323.09 173.575 1323.21 173.631 1323.34 173.687C1323.28 174.488 1323.23 175.289 1323.18 176.09C1323.11 175.64 1323.03 175.19 1322.96 174.74C1322.96 174.333 1322.96 173.926 1322.97 173.519Z" fill="white"/>
</svg>
