<svg width="280" height="448" viewBox="0 0 280 448" fill="none" xmlns="http://www.w3.org/2000/svg">
<rect width="280" height="448" fill="#2D1515" fill-opacity="0.01"/>
<path d="M20.4963 418.988C20.5263 419.425 20.3642 420.043 20.3556 420.56C20.3181 422.723 20.2057 423.525 20.142 425.483C20.0473 428.385 20.2604 437 19.134 437C19.134 437 19.134 437 19.1339 437C19.1229 437 19.1117 436.999 19.1004 436.998C18.8858 436.967 18.6516 436.235 18.4089 436.126C18.1661 436.017 16.5988 436.099 16.5107 435.058C16.3946 433.549 16.7965 429.93 16.7786 429.125C16.7664 428.575 16.6239 427.897 16.5986 427.194C16.5171 424.926 16.6212 423.739 16.2342 421.695C16.4382 420.878 16.6421 420.06 16.8461 419.243C16.7515 418.176 17.0205 416.56 17.0057 415.912C16.9935 415.38 16.8322 415.069 16.8247 414.515C16.8154 413.893 16.9895 412.939 16.9633 411.809C16.9211 409.956 16.5003 409.626 16.4469 408.514C16.3916 407.361 16.6203 405.568 16.4722 404.097C16.426 403.913 16.3797 403.728 16.3334 403.544C16.2287 403.676 16.124 403.808 16.0194 403.94C15.9706 403.199 16.1852 402.881 16.189 402.2C16.1937 401.399 15.9904 400.99 15.9913 400.451C15.9922 400.009 16.1553 399.411 16.1451 398.838C16.131 398.003 15.8956 398.186 15.8515 397.736C15.8344 397.557 15.7045 394.244 15.7026 394.057C15.6933 392.635 16.0156 392.511 16.0438 391.377C16.1206 388.233 15.8602 385.005 15.7618 382.096C15.7178 380.797 15.7365 379.442 15.788 378.147C16.6129 380.187 17.2548 375.673 15.9641 377.361C16.1477 375.92 15.7993 374.899 15.8582 373.533C15.8967 372.649 16.0756 372.038 16.0709 370.776C16.0615 368.538 15.5528 366.089 16.4722 365.446C16.3102 362.818 16.6437 360.542 15.832 359.595C15.7824 358.917 16.2659 357.181 16.3316 356.421C16.3934 355.702 16.6117 350.188 16.6239 349.285C16.6361 348.383 16.6494 346.804 16.5781 346.044C16.49 345.09 15.6482 344.422 16.6325 342.723C16.5528 340.747 16.581 340.043 16.6953 338.205C16.716 337.872 16.8621 337.835 16.8623 337.64C16.8623 337.24 16.7543 336.559 16.7411 335.844C16.7195 334.668 17.027 333.998 16.5574 334.129C16.4787 333.354 16.3999 332.579 16.3212 331.804C16.4118 331.532 16.5025 331.26 16.5931 330.988C16.4943 330.574 16.3955 330.16 16.2968 329.745C16.9763 330.232 16.5753 327.316 16.1854 328.263C16.326 326.76 16.4666 325.258 16.6071 323.756C17.3795 323.966 16.6963 320.458 16.2763 320.753C16.2769 320.581 16.2775 320.409 16.2782 320.237C16.4834 318.732 16.3155 317.35 16.4533 315.516C16.5911 313.682 16.6663 313.854 17.0216 313.296C17.0012 312.865 16.9809 312.433 16.9605 312.002C15.9866 309.737 17.6728 310.137 16.9257 306.259C17.5378 305.02 17.2163 301.965 17.0307 299.94C17.0092 299.705 16.8904 299.701 16.8537 299.387C16.7656 298.619 16.9183 296.662 16.5351 296.728C16.646 296.051 16.7569 295.373 16.8678 294.695C16.7981 294.141 16.7284 293.587 16.6587 293.033C16.5391 293.036 16.4195 293.039 16.2998 293.042C16.7075 291.926 16.5509 290.173 16.6483 289.308C16.6681 289.136 16.8331 289.099 16.8781 288.564C16.9316 287.939 16.8827 286.774 16.9343 286.029C16.7515 285.74 16.5687 285.45 16.3859 285.16C16.2867 283.828 16.7692 283.36 16.8067 282.578C16.8132 282.437 16.7786 279.867 16.7683 279.729C16.6866 278.595 16.2756 278.917 16.3636 275.638C16.3795 275.055 16.5218 274.582 16.5275 274.055C16.5378 273.123 16.2152 270.314 15.9171 270.093C16.2902 268.963 16.1377 265.938 16.2455 265.047C16.2786 264.778 16.5163 264.718 16.5669 263.891C16.6081 263.221 16.4178 261.495 16.4497 260.646C16.4843 259.743 16.684 259.421 16.6981 259.017C16.7112 258.635 16.5501 258.283 16.551 257.763C16.5566 256.139 16.816 254.668 16.8208 253.384C16.8283 251.527 16.3511 249.887 16.1393 248.333C16.1702 247.948 16.2726 247.569 16.2736 247.165C16.2886 242.164 16.3765 236.522 16.4787 231.506C16.5256 229.178 17.1732 223.387 16.0926 224.933C15.9034 224.123 16.339 218.239 16.3456 217.12C16.3521 216.001 16.1583 215.114 16.1555 214.235C16.147 211.581 16.2867 209.712 16.1179 206.481C16.0738 205.647 15.8443 204.753 15.8469 204.259C15.8507 203.664 16.0727 203.023 16.0868 202.252C16.1187 200.414 16.0456 196.989 16.0841 195.226C16.0916 194.904 16.2865 194.791 16.3474 194.33C16.5855 192.537 16.5649 190.527 15.9425 190.883C16.2958 188.585 15.9735 186.459 15.9538 184.329C15.9134 179.826 16.0587 171.623 15.7972 167.699C15.6322 165.226 15.3531 165.289 15.594 161.647C15.6474 160.839 15.7194 160.034 15.7832 159.053C15.9331 156.755 16.4488 154.646 15.8274 152.894C15.9886 150.342 15.8743 148.309 16.4057 146.415C16.2783 146.191 16.1508 145.968 16.0233 145.745C16.0202 145.432 16.017 145.119 16.0139 144.806C16.1354 144.708 16.257 144.611 16.3786 144.513C16.4113 142.271 15.9117 139.427 15.9153 137.529C15.9209 134.347 16.115 126.151 16.2791 123.134C16.3662 121.532 16.1058 121.446 16.641 120.529C16.6038 120.171 16.5665 119.813 16.5293 119.454C16.4121 119.23 16.2949 119.006 16.1778 118.782C16.1731 116.727 16.3551 114.289 16.3532 112.331C16.3495 108.764 16.027 103.407 16.2388 99.8245C16.2922 98.9262 16.5339 97.8034 16.5311 96.9238C16.5274 95.6435 16.1264 95.3323 16.1189 93.7077C16.1067 90.9076 16.5726 85.693 16.5369 83.0464C16.5266 82.2603 16.3774 81.8935 16.3615 81.3508C16.293 79.0748 16.3052 77.2062 16.0746 75.0237C16.4589 72.6804 16.955 72.8828 17.4555 72.1566C17.8333 71.6062 18.7088 69.9186 19.0397 69.6791C19.2722 69.5108 19.5712 70.1391 19.8271 69.9033C20.0314 72.7108 19.8064 73.8903 19.4465 76.17C19.4608 80.3801 19.4752 84.5902 19.4895 88.8002C19.3499 89.1833 19.2102 89.5663 19.0705 89.9493C19.0702 89.9493 19.0699 89.9493 19.0696 89.9493C18.9084 91.5661 19.2681 92.2514 19.3498 93.1233C20.1315 101.471 19.5197 117.902 19.4315 127.092C19.4128 129.072 19.601 135.514 19.3742 136.873C19.3151 137.225 19.0997 137.323 19.0904 137.697C19.2184 141.041 19.3465 144.385 19.4746 147.729C19.1399 154.606 19.4163 161.715 19.4679 168.644C19.6075 187.391 19.7773 205.95 19.7257 224.39C19.7154 227.954 19.8768 232.476 19.7727 235.965C19.7296 237.421 19.3837 238.028 19.6415 239.941C19.5483 239.961 19.4551 239.981 19.362 240.001C19.4745 241.67 19.6865 242.737 19.708 244.609C19.7258 246.185 19.7397 250.354 19.7041 251.747C19.6863 252.469 19.5121 252.2 19.513 252.874C19.5158 254.027 19.7566 256.49 19.7566 258.081C19.7566 259.522 19.556 261.952 19.585 263.06C19.6882 267.05 19.9855 271.397 19.9058 275.65C19.8832 276.824 19.6575 278.335 19.6638 278.703C19.6769 279.422 19.8962 279.636 19.9244 280.118C20.0669 282.57 19.8063 286.392 19.7959 288.795C19.7622 296.627 19.8579 304.923 19.8176 312.72C19.7923 317.647 19.8309 325.833 19.6659 330.381C19.6303 331.362 19.39 331.101 19.39 331.924C19.3901 332.837 19.5524 333.332 19.5655 333.759C19.6574 336.712 19.8214 343.233 19.6555 346.022C19.6237 346.553 19.4354 346.938 19.4361 347.256C19.4361 347.417 19.5646 347.781 19.5777 348.286C19.694 352.748 19.619 356.002 19.575 360.374C19.4916 368.748 19.7306 378.451 19.6012 387.247C19.5731 389.164 19.2007 390.478 19.2045 390.748C19.212 391.339 19.4625 391.718 19.5243 392.916C19.7277 396.899 19.4604 402.262 19.586 406.051C19.6478 407.922 19.9657 410.494 20.0361 412.335C20.0923 413.806 19.9676 417.28 20.1072 417.932C20.1915 418.329 20.4624 418.513 20.4963 418.988ZM16.28 369.432C16.713 369.694 16.3531 366.94 16.1207 367.974C16.0683 368.206 16.1676 369.365 16.28 369.432ZM17.0319 240.472C16.9082 240.497 16.7845 240.522 16.6608 240.548C16.7123 240.909 16.7638 241.271 16.8153 241.632C16.8896 241.429 16.964 241.226 17.0384 241.023C17.0362 240.839 17.0341 240.656 17.0319 240.472Z" fill="white"/>
<path d="M11.4963 325.978C11.5263 326.334 11.3642 326.836 11.3556 327.256C11.3181 329.015 11.2058 329.666 11.142 331.258C11.0473 333.617 11.2604 340.62 10.134 340.62C10.134 340.62 10.134 340.62 10.134 340.62C10.1229 340.62 10.1117 340.619 10.1004 340.618C9.88586 340.593 9.6516 339.998 9.40891 339.909C9.16614 339.821 7.59883 339.887 7.51071 339.041C7.3946 337.815 7.79647 334.872 7.77866 334.218C7.76638 333.771 7.6239 333.22 7.5986 332.648C7.51707 330.805 7.62126 329.84 7.23422 328.178C7.43818 327.514 7.64214 326.85 7.8461 326.185C7.75153 325.318 8.02052 324.004 8.00571 323.477C7.99352 323.045 7.83224 322.792 7.82474 322.341C7.81542 321.836 7.98951 321.061 7.96329 320.142C7.92111 318.636 7.50036 318.367 7.44693 317.464C7.39164 316.526 7.62032 315.069 7.47226 313.873C7.42598 313.723 7.37969 313.573 7.3334 313.423C7.22873 313.531 7.12405 313.638 7.01938 313.745C6.97065 313.143 7.18517 312.884 7.18906 312.331C7.19374 311.679 6.99036 311.347 6.9913 310.909C6.99225 310.55 7.15533 310.063 7.14511 309.598C7.13105 308.919 6.89559 309.068 6.85153 308.702C6.83442 308.557 6.70448 305.863 6.7026 305.711C6.69332 304.555 7.01561 304.455 7.04379 303.533C7.12066 300.977 6.86023 298.353 6.76181 295.988C6.71778 294.933 6.73651 293.831 6.78805 292.778C7.6129 294.436 8.25484 290.767 6.96414 292.139C7.14776 290.968 6.79933 290.138 6.85824 289.027C6.89668 288.309 7.07564 287.812 7.07095 286.786C7.06149 284.967 6.55279 282.976 7.47226 282.453C7.31017 280.317 7.6437 278.467 6.832 277.697C6.78241 277.146 7.26589 275.735 7.33157 275.117C7.39344 274.533 7.61175 270.05 7.62393 269.316C7.63611 268.583 7.64937 267.299 7.57815 266.682C7.49004 265.906 6.64825 265.363 7.63248 263.982C7.55283 262.376 7.581 261.803 7.69534 260.309C7.71602 260.039 7.86214 260.008 7.86227 259.85C7.86227 259.525 7.75429 258.971 7.74112 258.39C7.71956 257.434 8.02702 256.889 7.5574 256.995C7.47867 256.366 7.39993 255.736 7.3212 255.106C7.41183 254.885 7.50247 254.664 7.59311 254.443C7.49433 254.106 7.39556 253.769 7.29678 253.432C7.97635 253.828 7.57532 251.457 7.18539 252.227C7.32598 251.006 7.46656 249.785 7.60715 248.563C8.37949 248.734 7.69628 245.882 7.27633 246.122C7.27694 245.983 7.27755 245.843 7.27816 245.703C7.48345 244.48 7.31554 243.356 7.45334 241.865C7.59112 240.374 7.66633 240.514 8.02157 240.061C8.00123 239.71 7.98088 239.359 7.96054 239.008C6.98663 237.167 8.67282 237.493 7.92575 234.34C8.53784 233.333 8.21633 230.85 8.03073 229.204C8.00917 229.012 7.89036 229.009 7.85373 228.754C7.76562 228.13 7.91835 226.538 7.53512 226.593C7.646 226.042 7.75688 225.491 7.86776 224.94C7.79808 224.49 7.7284 224.039 7.65872 223.589C7.53909 223.591 7.41946 223.593 7.29983 223.596C7.70755 222.689 7.55086 221.264 7.64834 220.561C7.6681 220.421 7.83313 220.391 7.87814 219.956C7.93157 219.448 7.88274 218.501 7.93429 217.895C7.75149 217.66 7.56869 217.424 7.38589 217.189C7.28674 216.106 7.76924 215.726 7.80673 215.09C7.81325 214.975 7.77858 212.886 7.76828 212.774C7.68663 211.852 7.27557 212.113 7.36361 209.449C7.37954 208.974 7.52178 208.59 7.52749 208.161C7.5378 207.404 7.21522 205.121 6.91714 204.941C7.29021 204.022 7.13771 201.563 7.24551 200.839C7.27865 200.62 7.51628 200.571 7.56686 199.899C7.6081 199.354 7.41783 197.952 7.44967 197.261C7.48435 196.528 7.68397 196.266 7.69809 195.937C7.71121 195.627 7.55006 195.341 7.55099 194.918C7.55661 193.597 7.81599 192.401 7.82077 191.358C7.82827 189.848 7.35115 188.515 7.13931 187.252C7.17024 186.939 7.27265 186.631 7.27358 186.302C7.28859 182.237 7.3765 177.651 7.47866 173.573C7.52559 171.681 8.17322 166.973 7.09261 168.23C6.90337 167.572 7.33904 162.789 7.34561 161.879C7.3521 160.969 7.15834 160.248 7.15548 159.533C7.14704 157.376 7.28667 155.857 7.11794 153.231C7.07383 152.552 6.84428 151.826 6.84695 151.424C6.8507 150.94 7.07271 150.419 7.08682 149.793C7.11868 148.299 7.04565 145.514 7.08407 144.081C7.09157 143.819 7.28651 143.727 7.34744 143.353C7.5855 141.895 7.56486 140.262 6.94247 140.551C7.29581 138.682 6.9735 136.954 6.95376 135.223C6.91345 131.562 7.05872 124.894 6.7972 121.705C6.63222 119.694 6.35308 119.745 6.59395 116.785C6.64737 116.127 6.71943 115.473 6.78316 114.676C6.93314 112.808 7.44883 111.094 6.82741 109.67C6.98858 107.594 6.87429 105.942 7.40572 104.402C7.27826 104.221 7.1508 104.039 7.02334 103.858C7.02018 103.603 7.01703 103.349 7.01388 103.094C7.13544 103.015 7.257 102.936 7.37856 102.856C7.4113 101.034 6.91166 98.7216 6.9153 97.1788C6.92093 94.5922 7.11504 87.9302 7.27907 85.4775C7.36618 84.1754 7.10583 84.1053 7.64101 83.3598C7.60378 83.0686 7.56655 82.7773 7.52932 82.4861C7.41213 82.3038 7.29494 82.1216 7.17775 81.9393C7.17307 80.2687 7.35509 78.2873 7.35323 76.6958C7.34948 73.7958 7.02695 69.4411 7.23879 66.5289C7.29221 65.7987 7.53388 64.886 7.53115 64.1709C7.5274 63.1302 7.12635 62.8772 7.11885 61.5566C7.10667 59.2804 7.57257 55.0414 7.53695 52.8899C7.52663 52.2509 7.3774 51.9528 7.36147 51.5116C7.29304 49.6614 7.30519 48.1424 7.0746 46.3683C7.45892 44.4634 7.95498 44.628 8.45553 44.0376C8.83331 43.5902 9.70883 42.2184 10.0397 42.0236C10.2722 41.8868 10.5712 42.3976 10.8271 42.2059C11.0314 44.4881 10.8064 45.4469 10.4465 47.3001C10.4608 50.7225 10.4752 54.1449 10.4895 57.5673C10.3499 57.8786 10.2102 58.19 10.0705 58.5014C10.0702 58.5014 10.0699 58.5014 10.0696 58.5014C9.90842 59.8157 10.2681 60.3727 10.3498 61.0815C11.1315 67.8675 10.5197 81.2238 10.4315 88.6945C10.4128 90.3043 10.601 95.5411 10.3742 96.6457C10.3151 96.9317 10.0997 97.0112 10.0904 97.3155C10.2184 100.034 10.3465 102.752 10.4746 105.471C10.1399 111.061 10.4163 116.84 10.4679 122.472C10.6075 137.712 10.7773 152.799 10.7257 167.789C10.7154 170.686 10.8768 174.362 10.7727 177.198C10.7296 178.382 10.3837 178.875 10.6415 180.43C10.5483 180.446 10.4552 180.463 10.362 180.479C10.4745 181.836 10.6865 182.703 10.708 184.224C10.7258 185.506 10.7397 188.895 10.7041 190.027C10.6863 190.614 10.5122 190.396 10.513 190.943C10.5158 191.88 10.7566 193.883 10.7566 195.176C10.7566 196.348 10.556 198.323 10.5851 199.224C10.6882 202.468 10.9855 206.001 10.9058 209.458C10.8833 210.413 10.6575 211.641 10.6638 211.94C10.6769 212.524 10.8962 212.698 10.9244 213.09C11.0669 215.084 10.8063 218.19 10.7959 220.144C10.7622 226.51 10.8579 233.254 10.8176 239.593C10.7923 243.597 10.8309 250.252 10.6659 253.949C10.6303 254.747 10.3901 254.534 10.3901 255.204C10.3901 255.946 10.5524 256.348 10.5655 256.695C10.6574 259.096 10.8215 264.396 10.6556 266.663C10.6237 267.095 10.4354 267.408 10.4361 267.667C10.4361 267.798 10.5646 268.093 10.5777 268.504C10.694 272.132 10.619 274.776 10.575 278.331C10.4916 285.138 10.7306 293.025 10.6012 300.176C10.5731 301.734 10.2008 302.802 10.2045 303.022C10.212 303.502 10.4625 303.81 10.5243 304.784C10.7277 308.021 10.4604 312.382 10.586 315.461C10.6478 316.982 10.9658 319.073 11.0361 320.57C11.0923 321.766 10.9676 324.59 11.1072 325.12C11.1915 325.442 11.4624 325.592 11.4963 325.978ZM7.28 285.694C7.71306 285.907 7.35316 283.668 7.1207 284.508C7.06835 284.697 7.16758 285.639 7.28 285.694ZM8.03195 180.862C7.90825 180.882 7.78455 180.903 7.66085 180.923C7.71233 181.217 7.7638 181.511 7.81527 181.805C7.88963 181.64 7.964 181.475 8.03836 181.309C8.03622 181.16 8.03408 181.011 8.03195 180.862Z" fill="white"/>
</svg>
