<svg width="930" height="273" viewBox="0 0 930 273" fill="none" xmlns="http://www.w3.org/2000/svg">
<path d="M5 5H927V271H5V5Z" fill="black" fill-opacity="0.6"/>
<path d="M663 5C650.55 4.66667 638.1 4.35 625.65 4.05C513.6 1.35 401.55 0 289.5 0C194.667 0 99.8334 0.967012 5 2.90104L2.9447 2.85912L2.90104 5C3.25215 22.2167 3.63514 39.4333 4.05 56.65C4.35 69.1 4.66667 81.55 5 94C5.33333 81.55 5.65 69.1 5.95 56.65C6.36486 39.4333 6.74785 22.2167 7.09896 5L5 7.09896C99.8334 9.03299 194.667 10 289.5 10C401.55 10 513.6 8.65 625.65 5.95C638.1 5.65 650.55 5.33333 663 5Z" fill="white"/>
<path d="M103 267C99.8833 267.333 96.7667 267.65 93.65 267.95C65.6 270.65 37.55 272 9.5 272C8 272 6.5 271.996 5 271.988L0.0373907 272.014L0.0115819 267C0.148246 240.45 1.49439 213.9 4.05 187.35C4.35 184.233 4.66667 181.117 5 178C5.33333 181.117 5.65 184.233 5.95 187.35C8.50561 213.9 9.85175 240.45 9.98842 267L5 262.012C6.5 262.004 8 262 9.5 262C37.55 262 65.6 263.35 93.65 266.05C96.7667 266.35 99.8833 266.667 103 267Z" fill="white"/>
<path d="M446 5C455.5 4.66667 465 4.35 474.5 4.05C560 1.35 645.5 0 731 0C796.333 0 861.667 0.788263 927 2.36479L929.57 2.30277L929.635 5C929.149 25.1667 928.587 45.3333 927.95 65.5C927.65 75 927.333 84.5 927 94C926.667 84.5 926.35 75 926.05 65.5C925.413 45.3333 924.851 25.1667 924.365 5L927 7.63521C861.667 9.21174 796.333 10 731 10C645.5 10 560 8.65 474.5 5.95C465 5.65 455.5 5.33333 446 5Z" fill="white"/>
<path d="M16 267C32.6667 267.333 49.3333 267.65 66 267.95C216 270.65 366 272 516 272C653 272 790 270.874 927 268.622L928.594 268.648L928.622 267C928.408 254 928.184 241 927.95 228C927.65 211.333 927.333 194.667 927 178C926.667 194.667 926.35 211.333 926.05 228C925.816 241 925.592 254 925.378 267L927 265.378C790 263.126 653 262 516 262C366 262 216 263.35 66 266.05C49.3333 266.35 32.6667 266.667 16 267Z" fill="white"/>
</svg>
