<svg width="212" height="192" viewBox="0 0 212 192" fill="none" xmlns="http://www.w3.org/2000/svg">
<mask id="mask0_513_40" style="mask-type:alpha" maskUnits="userSpaceOnUse" x="0" y="0" width="212" height="192">
<rect x="0.794922" y="0.679688" width="211" height="190.64" rx="14" fill="url(#paint0_radial_513_40)"/>
</mask>
<g mask="url(#mask0_513_40)">
<path d="M95.8769 50.8445L104.757 49.8632C105.779 49.7503 106.81 49.7503 107.832 49.8632L116.713 50.8445C118.469 51.0386 120.173 51.5635 121.735 52.3916L129.244 56.3742C129.926 56.736 130.577 57.1535 131.19 57.6226L136.663 61.8093C138.66 63.3364 140.208 65.3727 141.146 67.7045L143.646 73.9206C143.93 74.6249 144.155 75.3511 144.321 76.0919L146.371 85.2688C146.772 87.0606 146.816 88.9137 146.501 90.7225L140.794 123.511C140.559 124.863 140.126 126.173 139.51 127.399L134.309 137.743C133.559 139.235 132.548 140.58 131.325 141.716L125.002 147.584L125.095 155.572C125.15 160.281 127.57 164.648 131.534 167.191L143.071 174.593C146.049 176.503 149.64 177.216 153.122 176.586L168.878 173.737C170.726 173.403 172.623 173.444 174.455 173.858L184.761 176.188C186.673 176.62 188.473 177.449 190.045 178.621L198.259 184.747C200.804 186.646 203.919 187.622 207.093 187.517L221.602 187.036C223.18 186.984 224.755 187.199 226.26 187.672L235.741 190.649C237.098 191.075 238.512 191.292 239.935 191.292H241.913C243.981 191.292 246.023 190.834 247.893 189.951L271.427 178.834C273.198 177.998 275.125 177.542 277.083 177.497L305.352 176.843L331.505 179.733L342.403 181.9L386.544 184.687C387.625 184.755 388.695 184.949 389.732 185.264L412.939 192.316C413.859 192.595 414.81 192.764 415.771 192.817L427.498 193.465C432.761 193.755 435.372 199.984 431.891 203.941C430.871 205.101 429.461 205.846 427.929 206.036L414.798 207.669C413.52 207.828 412.226 207.809 410.953 207.615L385.569 203.731C384.884 203.626 384.19 203.6 383.499 203.653L377.431 204.117C376.113 204.218 375.094 205.317 375.094 206.639C375.094 207.438 375.472 208.189 376.112 208.667L376.972 209.308C377.645 209.81 378.441 210.122 379.277 210.209L389.454 211.274C391.006 211.437 392.511 211.899 393.886 212.635L397.32 214.474C399.682 215.739 401.012 218.338 400.656 220.994C400.181 224.531 396.916 227.005 393.382 226.503L384.539 225.247H354.851C352.407 225.247 350.005 224.607 347.884 223.39L335.468 216.267C333.347 215.05 330.946 214.41 328.501 214.41H312.124C310.057 214.41 308.015 214.868 306.145 215.751L282.17 227.076C280.685 227.777 279.088 228.212 277.451 228.36L267.888 229.225C265.308 229.458 262.714 228.971 260.394 227.817L247.998 221.654C246.061 220.691 243.928 220.19 241.765 220.19H232.703L219.319 222.005C217.602 222.237 215.856 222.149 214.17 221.745L197.837 217.824C196.39 217.477 194.897 217.362 193.413 217.485L180.765 218.534C179.08 218.673 177.435 219.117 175.908 219.843L168.793 223.227C164.284 225.371 161.258 229.755 160.852 234.732L159.453 251.89C159.37 252.908 159.176 253.914 158.874 254.89L153.995 270.658C153.677 271.686 153.241 272.674 152.697 273.603L145.27 286.264C144.01 288.412 143.346 290.857 143.346 293.347V293.836C143.346 297.563 144.831 301.136 147.474 303.763L158.196 314.426C158.948 315.174 159.613 316.005 160.178 316.904L162.222 320.156C162.713 320.938 163.281 321.669 163.916 322.339L185.514 345.118C186.456 346.112 187.247 347.238 187.862 348.462L190.567 353.841L215.994 391.408L227.279 413.853C227.984 415.255 228.449 416.766 228.653 418.322L232.547 448.009C232.651 448.804 232.687 449.606 232.654 450.408L230.589 500.352C230.546 501.408 230.383 502.457 230.103 503.477L222.622 530.755C222.084 532.714 221.98 534.767 222.316 536.771L223.793 545.584C223.921 546.349 223.985 547.123 223.985 547.898V555.74C223.985 557.428 224.29 559.101 224.886 560.68L229.648 573.31C230.227 574.845 231.072 576.267 232.144 577.51L247.239 595.024C247.719 595.58 248.154 596.173 248.54 596.797L263.89 621.603C264.883 623.207 265.542 624.996 265.826 626.861L268.868 646.827C268.974 647.525 269.028 648.23 269.028 648.935V673.556C269.028 674.733 268.879 675.904 268.586 677.044L261.54 704.433C261.206 705.733 261.06 707.074 261.108 708.415L262.401 745.069C262.459 746.725 262.224 748.377 261.705 749.95L249.793 786.051C248.265 790.681 243.939 793.808 239.064 793.808C234.362 793.808 230.152 790.896 228.493 786.497L214.593 749.637C214.077 748.269 213.779 746.828 213.709 745.367L211.723 703.899C211.665 702.677 211.446 701.468 211.073 700.303L207.085 687.838C206.73 686.727 206.236 685.664 205.617 684.675L183.571 649.465C182.911 648.41 182.394 647.271 182.034 646.079L174.736 621.887C174.157 619.97 173.997 617.95 174.266 615.966L178.592 584.003C178.824 582.29 178.737 580.548 178.334 578.866L176.169 569.823C175.606 567.474 174.446 565.31 172.8 563.542L158.657 548.353C157.658 547.28 156.833 546.056 156.214 544.727L143.968 518.449C143.554 517.561 143.235 516.632 143.015 515.676L129.542 457.15L125.955 440.503C124.325 432.941 116.824 428.144 109.263 429.778C107.314 430.2 105.276 430.2 103.326 429.778C95.7653 428.144 88.264 432.941 86.6345 440.503L83.0472 457.15L69.5747 515.676C69.3548 516.632 69.0352 517.561 68.6213 518.449L56.3758 544.727C55.7563 546.056 54.9317 547.28 53.9322 548.353L39.7896 563.542C38.1436 565.31 36.983 567.474 36.4206 569.823L34.2555 578.866C33.8528 580.548 33.7652 582.29 33.9972 584.003L38.3239 615.966C38.5926 617.95 38.4323 619.97 37.8538 621.887L30.5556 646.079C30.196 647.271 29.6789 648.41 29.0182 649.465L6.97231 684.675C6.353 685.664 5.8598 686.727 5.50418 687.838L1.51605 700.303C1.14317 701.468 0.924683 702.677 0.86615 703.899L-1.11957 745.367C-1.18951 746.828 -1.48795 748.269 -2.004 749.637L-15.9037 786.497C-17.5627 790.896 -21.7729 793.808 -26.4746 793.808C-31.35 793.808 -35.6755 790.681 -37.2032 786.051L-49.115 749.95C-49.634 748.377 -49.8698 746.725 -49.8114 745.069L-48.5181 708.415C-48.4707 707.074 -48.6165 705.733 -48.9508 704.433L-55.9966 677.044C-56.2897 675.904 -56.438 674.733 -56.438 673.556V648.935C-56.438 648.23 -56.3847 647.525 -56.2783 646.827L-53.2363 626.861C-52.9521 624.996 -52.2938 623.207 -51.3009 621.603L-35.9503 596.797C-35.564 596.173 -35.1292 595.58 -34.6499 595.024L-19.5541 577.51C-18.4826 576.267 -17.638 574.845 -17.0589 573.31L-12.2964 560.68C-11.701 559.101 -11.396 557.428 -11.396 555.74V547.898C-11.396 547.123 -11.3315 546.349 -11.2034 545.584L-9.72635 536.771C-9.39047 534.767 -9.49487 532.714 -10.0323 530.754L-17.5134 503.477C-17.7931 502.457 -17.9564 501.408 -18 500.352L-20.064 450.408C-20.0971 449.606 -20.0613 448.804 -19.9571 448.009L-16.0631 418.322C-15.8591 416.766 -15.3949 415.255 -14.69 413.853L-3.4046 391.408L22.0224 353.841L24.7272 348.462C25.3423 347.238 26.1335 346.112 27.0757 345.118L48.6737 322.339C49.3089 321.669 49.8763 320.938 50.3676 320.156L52.4118 316.904C52.9763 316.005 53.6411 315.174 54.3933 314.426L65.1158 303.763C67.7582 301.136 69.244 297.563 69.244 293.836V293.11C69.244 290.77 68.6576 288.467 67.5384 286.413L60.3493 273.215C59.9835 272.543 59.6733 271.842 59.4219 271.12L53.8481 255.108C53.4585 253.988 53.2126 252.824 53.1162 251.643L51.7374 234.732C51.3316 229.755 48.3059 225.371 43.7967 223.227L36.6815 219.843C35.1549 219.117 33.5094 218.673 31.8247 218.534L19.1761 217.485C17.6929 217.362 16.1995 217.477 14.7522 217.824L-1.58093 221.745C-3.26637 222.149 -5.01228 222.237 -6.72987 222.005L-20.1138 220.19H-29.1755C-31.3384 220.19 -33.4719 220.691 -35.4086 221.654L-47.805 227.817C-50.1246 228.971 -52.7186 229.458 -55.2986 229.225L-64.8619 228.36C-66.4981 228.212 -68.0955 227.777 -69.5809 227.076L-93.5555 215.751C-95.4251 214.868 -97.4672 214.41 -99.5349 214.41H-115.912C-118.356 214.41 -120.758 215.05 -122.878 216.267L-135.295 223.39C-137.415 224.607 -139.817 225.247 -142.262 225.247H-171.949L-180.792 226.503C-184.326 227.005 -187.592 224.531 -188.066 220.994C-188.422 218.338 -187.093 215.739 -184.73 214.474L-181.297 212.635C-179.921 211.899 -178.416 211.437 -176.865 211.274L-166.687 210.209C-165.852 210.122 -165.056 209.81 -164.382 209.308L-163.522 208.667C-162.882 208.189 -162.505 207.438 -162.505 206.639C-162.505 205.317 -163.523 204.218 -164.841 204.117L-170.91 203.653C-171.601 203.6 -172.295 203.626 -172.98 203.731L-198.364 207.615C-199.637 207.809 -200.93 207.828 -202.208 207.669L-215.339 206.036C-216.872 205.846 -218.281 205.101 -219.301 203.941C-222.783 199.984 -220.171 193.755 -214.909 193.465L-203.181 192.817C-202.221 192.764 -201.27 192.595 -200.35 192.316L-177.142 185.264C-176.105 184.949 -175.036 184.755 -173.954 184.687L-129.813 181.9L-118.916 179.733L-92.7623 176.843L-64.4932 177.497C-62.5352 177.542 -60.6084 177.998 -58.8374 178.834L-35.3033 189.951C-33.4337 190.834 -31.3916 191.292 -29.3239 191.292H-27.3457C-25.923 191.292 -24.5086 191.075 -23.1512 190.649L-13.671 187.672C-12.1651 187.199 -10.5902 186.984 -9.01268 187.036L5.49654 187.517C8.67004 187.622 11.785 186.646 14.3303 184.747L22.5449 178.621C24.1163 177.449 25.9164 176.62 27.8286 176.188L38.1347 173.858C39.9669 173.444 41.8636 173.403 43.7119 173.737L59.4678 176.586C62.9495 177.216 66.5405 176.503 69.5186 174.593L81.0551 167.191C85.0195 164.648 87.4393 160.281 87.4943 155.572L87.5877 147.584L81.2649 141.716C80.0413 140.58 79.0307 139.235 78.2809 137.743L73.0797 127.399C72.4632 126.173 72.0303 124.863 71.795 123.511L66.0884 90.7225C65.7736 88.9137 65.8176 87.0606 66.218 85.2688L68.2687 76.092C68.4343 75.3511 68.6598 74.6249 68.9431 73.9206L71.4435 67.7045C72.3814 65.3727 73.9298 63.3364 75.9261 61.8093L81.3993 57.6226C82.0125 57.1535 82.6635 56.736 83.3456 56.3742L90.8548 52.3916C92.4161 51.5635 94.1202 51.0386 95.8769 50.8445Z" fill="#271E11" fill-opacity="0.71"/>
<path d="M87.5877 147.584L90.312 150.113L98.4417 156.176C100.71 157.868 103.465 158.782 106.295 158.782V158.782V158.782C109.125 158.782 111.879 157.868 114.148 156.176L122.277 150.113L125.002 147.584M87.5877 147.584L87.4943 155.572C87.4393 160.281 85.0195 164.648 81.0552 167.191L69.5185 174.593C66.5405 176.503 62.9495 177.216 59.4678 176.586L43.7119 173.737C41.8636 173.403 39.9669 173.444 38.1347 173.858L27.8286 176.188C25.9164 176.62 24.1163 177.449 22.5449 178.621L14.3303 184.747C11.785 186.646 8.67004 187.622 5.49653 187.517L-9.01268 187.036C-10.5902 186.984 -12.1651 187.199 -13.671 187.672L-23.1512 190.649C-24.5086 191.075 -25.923 191.292 -27.3457 191.292H-29.3239C-31.3916 191.292 -33.4337 190.834 -35.3034 189.951L-58.8374 178.834C-60.6084 177.998 -62.5352 177.542 -64.4932 177.497L-92.7623 176.843L-118.916 179.733L-129.813 181.9L-173.954 184.687C-175.036 184.755 -176.105 184.949 -177.142 185.264L-200.35 192.316C-201.27 192.595 -202.221 192.764 -203.181 192.817L-214.909 193.465C-220.171 193.755 -222.783 199.984 -219.301 203.941V203.941C-218.281 205.101 -216.872 205.846 -215.339 206.036L-202.208 207.669C-200.93 207.828 -199.637 207.809 -198.364 207.615L-172.98 203.731C-172.295 203.626 -171.601 203.6 -170.91 203.653L-164.841 204.117C-163.523 204.218 -162.505 205.317 -162.505 206.639V206.639C-162.505 207.438 -162.882 208.189 -163.522 208.667L-164.382 209.308C-165.056 209.81 -165.852 210.122 -166.687 210.209L-176.865 211.274C-178.416 211.437 -179.921 211.899 -181.297 212.635L-184.73 214.474C-187.093 215.739 -188.422 218.338 -188.066 220.994V220.994C-187.592 224.531 -184.326 227.005 -180.792 226.503L-171.949 225.247H-142.262C-139.817 225.247 -137.415 224.607 -135.295 223.39L-122.878 216.267C-120.758 215.05 -118.356 214.41 -115.912 214.41H-99.5349C-97.4672 214.41 -95.4251 214.868 -93.5554 215.751L-69.5809 227.076C-68.0955 227.777 -66.4981 228.212 -64.8619 228.36L-55.2986 229.225C-52.7186 229.458 -50.1246 228.971 -47.805 227.817L-35.4086 221.654C-33.4719 220.691 -31.3384 220.19 -29.1755 220.19H-20.1138L-6.72987 222.005C-5.01228 222.237 -3.26637 222.149 -1.58094 221.745L14.7522 217.824C16.1995 217.477 17.6929 217.362 19.1761 217.485L31.8247 218.534C33.5094 218.673 35.1549 219.117 36.6815 219.843L43.7967 223.227C48.3059 225.371 51.3316 229.755 51.7374 234.732L53.1162 251.643C53.2125 252.824 53.4585 253.988 53.8481 255.108L59.4219 271.12C59.6733 271.842 59.9835 272.543 60.3493 273.215L67.5384 286.413C68.6576 288.467 69.244 290.77 69.244 293.11V293.836C69.244 297.563 67.7582 301.136 65.1158 303.763L54.3933 314.426C53.6411 315.174 52.9763 316.005 52.4118 316.904L50.3676 320.156C49.8763 320.938 49.3089 321.669 48.6737 322.339L27.0757 345.118C26.1335 346.112 25.3423 347.238 24.7272 348.462L22.0224 353.841L-3.4046 391.408L-14.69 413.853C-15.3949 415.255 -15.8591 416.766 -16.0631 418.322L-19.9571 448.009C-20.0613 448.804 -20.0971 449.606 -20.064 450.408L-18 500.352C-17.9564 501.408 -17.7931 502.457 -17.5134 503.477L-10.0323 530.754C-9.49488 532.714 -9.39047 534.767 -9.72635 536.771L-11.2034 545.584C-11.3315 546.349 -11.3959 547.123 -11.3959 547.898V555.74C-11.3959 557.428 -11.701 559.101 -12.2964 560.68L-17.0589 573.31C-17.638 574.845 -18.4826 576.267 -19.5541 577.51L-34.6499 595.024C-35.1292 595.58 -35.564 596.173 -35.9504 596.797L-51.3009 621.603C-52.2938 623.207 -52.9521 624.996 -53.2363 626.861L-56.2783 646.827C-56.3847 647.525 -56.438 648.23 -56.438 648.935V673.556C-56.438 674.733 -56.2897 675.904 -55.9966 677.044L-48.9508 704.433C-48.6165 705.733 -48.4707 707.074 -48.5181 708.415L-49.8114 745.069C-49.8698 746.725 -49.634 748.377 -49.115 749.95L-37.2032 786.051C-35.6755 790.681 -31.35 793.808 -26.4746 793.808V793.808C-21.7729 793.808 -17.5627 790.896 -15.9037 786.497L-2.00399 749.637C-1.48795 748.269 -1.18952 746.828 -1.11956 745.367L0.866152 703.899C0.924676 702.677 1.14317 701.468 1.51605 700.303L5.50418 687.838C5.8598 686.727 6.353 685.664 6.9723 684.675L29.0182 649.465C29.6789 648.41 30.196 647.271 30.5556 646.079L37.8538 621.887C38.4322 619.97 38.5925 617.95 38.3239 615.966L33.9972 584.003C33.7652 582.29 33.8528 580.548 34.2555 578.866L36.4206 569.823C36.983 567.474 38.1437 565.31 39.7897 563.542L53.9322 548.353C54.9317 547.28 55.7563 546.056 56.3758 544.727L68.6213 518.449C69.0353 517.561 69.3548 516.632 69.5747 515.676L83.0472 457.15L86.6345 440.503C88.264 432.941 95.7653 428.144 103.326 429.778V429.778C105.276 430.2 107.314 430.2 109.263 429.778V429.778C116.824 428.144 124.325 432.941 125.955 440.503L129.542 457.15L143.015 515.676C143.235 516.632 143.554 517.561 143.968 518.449L156.214 544.727C156.833 546.056 157.658 547.28 158.657 548.353L172.8 563.542C174.446 565.31 175.606 567.474 176.169 569.823L178.334 578.866C178.737 580.548 178.824 582.29 178.592 584.003L174.266 615.966C173.997 617.95 174.157 619.97 174.736 621.887L182.034 646.079C182.394 647.271 182.911 648.41 183.571 649.465L205.617 684.675C206.236 685.664 206.73 686.727 207.085 687.838L211.073 700.303C211.446 701.468 211.665 702.677 211.723 703.899L213.709 745.367C213.779 746.828 214.077 748.269 214.593 749.637L228.493 786.497C230.152 790.896 234.362 793.808 239.064 793.808V793.808C243.939 793.808 248.265 790.681 249.793 786.051L261.705 749.95C262.224 748.377 262.459 746.725 262.401 745.069L261.108 708.415C261.06 707.074 261.206 705.733 261.54 704.433L268.586 677.044C268.879 675.904 269.028 674.733 269.028 673.556V648.935C269.028 648.23 268.974 647.525 268.868 646.827L265.826 626.861C265.542 624.996 264.883 623.207 263.89 621.603L248.54 596.797C248.153 596.173 247.719 595.58 247.239 595.024L232.144 577.51C231.072 576.267 230.227 574.845 229.648 573.31L224.886 560.68C224.29 559.101 223.985 557.428 223.985 555.74V547.898C223.985 547.123 223.921 546.349 223.793 545.584L222.316 536.771C221.98 534.767 222.084 532.714 222.622 530.755L230.103 503.477C230.383 502.457 230.546 501.408 230.589 500.352L232.653 450.408C232.687 449.606 232.651 448.804 232.547 448.009L228.653 418.322C228.449 416.766 227.984 415.255 227.279 413.853L215.994 391.408L190.567 353.841L187.862 348.462C187.247 347.238 186.456 346.112 185.514 345.118L163.916 322.339C163.281 321.669 162.713 320.938 162.222 320.156L160.178 316.904C159.613 316.005 158.948 315.174 158.196 314.426L147.474 303.763C144.831 301.136 143.346 297.563 143.346 293.836V293.347C143.346 290.857 144.01 288.412 145.27 286.264L152.697 273.603C153.241 272.674 153.677 271.686 153.995 270.658L158.874 254.89C159.176 253.914 159.37 252.908 159.453 251.89L160.852 234.732C161.258 229.755 164.284 225.371 168.793 223.227L175.908 219.843C177.435 219.117 179.08 218.673 180.765 218.534L193.413 217.485C194.897 217.362 196.39 217.477 197.837 217.824L214.17 221.745C215.856 222.149 217.602 222.237 219.319 222.005L232.703 220.19H241.765C243.928 220.19 246.061 220.691 247.998 221.654L260.394 227.817C262.714 228.971 265.308 229.458 267.888 229.225L277.451 228.36C279.088 228.212 280.685 227.777 282.17 227.076L306.145 215.751C308.015 214.868 310.057 214.41 312.124 214.41H328.501C330.946 214.41 333.347 215.05 335.468 216.267L347.884 223.39C350.005 224.607 352.407 225.247 354.851 225.247H384.539L393.382 226.503C396.916 227.005 400.181 224.531 400.656 220.994V220.994C401.012 218.338 399.682 215.739 397.32 214.474L393.886 212.635C392.511 211.899 391.006 211.437 389.454 211.274L379.277 210.209C378.441 210.122 377.645 209.81 376.972 209.308L376.112 208.667C375.472 208.189 375.094 207.438 375.094 206.639V206.639C375.094 205.317 376.113 204.218 377.431 204.117L383.499 203.653C384.19 203.6 384.884 203.626 385.569 203.731L410.953 207.615C412.226 207.809 413.52 207.828 414.798 207.669L427.929 206.036C429.461 205.846 430.871 205.101 431.891 203.941V203.941C435.372 199.984 432.761 193.755 427.498 193.465L415.771 192.817C414.81 192.764 413.859 192.595 412.939 192.316L389.732 185.264C388.695 184.949 387.625 184.755 386.544 184.687L342.403 181.9L331.505 179.733L305.352 176.843L277.083 177.497C275.125 177.542 273.198 177.998 271.427 178.834L247.893 189.951C246.023 190.834 243.981 191.292 241.913 191.292H239.935C238.512 191.292 237.098 191.075 235.741 190.649L226.26 187.672C224.755 187.199 223.18 186.984 221.602 187.036L207.093 187.517C203.919 187.622 200.804 186.646 198.259 184.747L190.045 178.621C188.473 177.449 186.673 176.62 184.761 176.188L174.455 173.858C172.623 173.444 170.726 173.403 168.878 173.737L153.122 176.586C149.64 177.216 146.049 176.503 143.071 174.593L131.534 167.191C127.57 164.648 125.15 160.281 125.095 155.572L125.002 147.584M87.5877 147.584L81.2649 141.716C80.0413 140.58 79.0307 139.235 78.2809 137.743L73.0797 127.399C72.4632 126.173 72.0303 124.863 71.795 123.511L66.0884 90.7225C65.7736 88.9137 65.8176 87.0606 66.218 85.2688L68.2687 76.092C68.4343 75.3511 68.6598 74.6249 68.9431 73.9206L71.4435 67.7045C72.3814 65.3727 73.9298 63.3364 75.9261 61.8093L81.3992 57.6226C82.0125 57.1535 82.6635 56.736 83.3456 56.3742L90.8548 52.3916C92.4161 51.5635 94.1202 51.0386 95.8769 50.8445L104.757 49.8632C105.779 49.7503 106.81 49.7503 107.832 49.8632L116.713 50.8445C118.469 51.0386 120.173 51.5635 121.735 52.3916L129.244 56.3742C129.926 56.736 130.577 57.1535 131.19 57.6226L136.663 61.8093C138.66 63.3364 140.208 65.3727 141.146 67.7045L143.646 73.9206C143.93 74.6249 144.155 75.3511 144.321 76.0919L146.371 85.2688C146.772 87.0606 146.816 88.9137 146.501 90.7225L140.794 123.511C140.559 124.863 140.126 126.173 139.51 127.399L134.309 137.743C133.559 139.235 132.548 140.58 131.325 141.716L125.002 147.584" stroke="white" stroke-width="4"/>
</g>
<defs>
<radialGradient id="paint0_radial_513_40" cx="0" cy="0" r="1" gradientUnits="userSpaceOnUse" gradientTransform="translate(106.295 104.979) rotate(90) scale(86.3407 95.5616)">
<stop offset="0.947115" stop-color="#D9D9D9"/>
<stop offset="1" stop-color="#737373" stop-opacity="0"/>
</radialGradient>
</defs>
</svg>
