<svg width="170" height="198" viewBox="0 0 170 198" fill="none" xmlns="http://www.w3.org/2000/svg">
<mask id="mask0_513_34" style="mask-type:alpha" maskUnits="userSpaceOnUse" x="0" y="0" width="170" height="198">
<rect x="0.794922" y="0.5" width="169" height="197" rx="84.5" fill="url(#paint0_radial_513_34)"/>
</mask>
<g mask="url(#mask0_513_34)">
<path d="M84.1299 26.1846L84.2524 26.171C85.2775 26.0573 86.3121 26.0573 87.3372 26.171L87.4598 26.1846C89.221 26.3798 90.9291 26.9076 92.4935 27.7399L92.9256 27.9699C93.464 28.2563 93.9841 28.5918 94.468 28.9631C96.0217 30.1555 97.247 31.7598 97.9758 33.5777C98.1956 34.1257 98.3705 34.6907 98.4989 35.267L98.6657 36.0159C99.0636 37.8024 99.1074 39.6496 98.7945 41.4529L97.4559 49.1692C97.2219 50.518 96.7913 51.8251 96.178 53.049L95.827 53.7493C95.0797 55.2404 94.0719 56.5859 92.8513 57.7225L91.9902 58.5243C92.0275 61.7196 93.6672 64.7255 96.3543 66.4551C98.3814 67.7598 100.828 68.2463 103.2 67.816L104.835 67.5194C106.56 67.2066 108.33 67.2451 110.039 67.6327L110.531 67.7442C111.988 68.0747 113.361 68.7084 114.557 69.604C116.497 71.0552 118.873 71.8021 121.294 71.7216L122.41 71.6845C123.973 71.6325 125.534 71.8461 127.026 72.3161L128.411 72.7526C129.029 72.9472 129.673 73.0462 130.32 73.0462C131.261 73.0462 132.19 72.8372 133.041 72.4342L138.681 69.7613C140.456 68.9202 142.388 68.462 144.352 68.4165L151.719 68.2455L160.381 69.2057L163.99 69.9258L177.515 70.7825C178.599 70.8512 179.672 71.046 180.712 71.3629L187.348 73.3857C187.654 73.479 187.971 73.5352 188.29 73.5529L192.167 73.7678C193.914 73.8646 194.782 75.9314 193.628 77.2469C193.289 77.6333 192.82 77.8819 192.31 77.9455L188.874 78.3741C187.848 78.502 186.809 78.4873 185.787 78.3305L178.287 77.1792C178.059 77.1443 177.828 77.1356 177.599 77.1532L175.593 77.3071C175.155 77.3408 174.817 77.7062 174.817 78.1458C174.817 78.4108 174.942 78.6604 175.154 78.8192L175.437 79.0314C175.661 79.1987 175.926 79.3024 176.203 79.3316L179.569 79.685C180.085 79.7392 180.585 79.8933 181.042 80.1388L182.176 80.7478C182.959 81.1687 183.4 82.0308 183.282 82.9123C183.125 84.0886 182.039 84.9112 180.864 84.7438L178.276 84.3749C178.055 84.3435 177.832 84.3277 177.609 84.3277H170.486C168.121 84.3277 165.798 83.7069 163.749 82.5274C161.7 81.3479 159.377 80.7272 157.012 80.7272H156.071C153.998 80.7272 151.95 81.1878 150.076 82.0758L145.148 84.4109C143.924 84.9909 142.608 85.3504 141.259 85.4727C139.132 85.6657 136.993 85.2629 135.081 84.3094L134.586 84.0626C132.721 83.1319 130.664 82.6474 128.579 82.6474H127.659L124.973 83.0129C123.25 83.2473 121.498 83.1586 119.808 82.7516L117.58 82.215C116.128 81.8655 114.63 81.7504 113.142 81.8741L111.089 82.0448C110.114 82.1258 109.162 82.3833 108.278 82.8047C105.68 84.0447 103.937 86.5738 103.704 89.4439L103.474 92.2697C103.397 93.213 103.218 94.1451 102.939 95.0495L101.91 98.3848C101.594 99.4113 101.16 100.398 100.618 101.325L98.7354 104.545C98.2966 105.295 98.0654 106.149 98.0654 107.018C98.0654 108.319 98.5832 109.568 99.5046 110.487L102.5 113.476C103.071 114.044 103.574 114.676 104.002 115.359C104.374 115.953 104.804 116.508 105.285 117.018L111.084 123.154C112.024 124.148 112.813 125.274 113.426 126.497L113.704 127.053L122.125 139.535L125.156 145.582C125.857 146.982 126.319 148.488 126.522 150.04L127.503 157.546C127.607 158.339 127.643 159.139 127.61 159.938L127.003 174.675C126.959 175.728 126.797 176.773 126.519 177.79L124.861 183.855C124.327 185.809 124.223 187.856 124.557 189.854L124.581 189.996C124.708 190.759 124.772 191.53 124.772 192.303V192.438C124.772 194.12 125.075 195.789 125.667 197.364L126.066 198.424C126.642 199.958 127.484 201.379 128.552 202.622L131.994 206.628C132.472 207.184 132.905 207.777 133.29 208.402L136.989 214.397C137.977 215.999 138.632 217.784 138.914 219.645L139.53 223.701C139.636 224.397 139.689 225.099 139.689 225.803V232.101C139.689 233.274 139.542 234.442 139.25 235.578L137.543 242.235C137.211 243.531 137.066 244.867 137.113 246.204L137.436 255.376C137.494 257.026 137.26 258.673 136.744 260.242L133.316 270.663C132.812 272.196 131.38 273.232 129.766 273.232C128.209 273.232 126.815 272.267 126.267 270.81L122.178 259.931C121.665 258.565 121.368 257.129 121.299 255.672L120.769 244.584C120.711 243.366 120.494 242.16 120.123 240.998L119.53 239.138C119.177 238.029 118.686 236.968 118.069 235.98L112.049 226.334C111.391 225.28 110.876 224.143 110.519 222.953L109.043 218.046C108.468 216.134 108.309 214.121 108.576 212.142L109.567 204.794C109.757 203.386 109.686 201.954 109.356 200.572C108.894 198.638 107.941 196.857 106.589 195.4L104.141 192.762C103.144 191.689 102.322 190.465 101.705 189.136L98.6849 182.634C98.273 181.747 97.9552 180.82 97.7365 179.867L93.494 161.378L92.3061 155.848C91.7666 153.336 89.2904 151.738 86.7795 152.283C86.1306 152.424 85.4591 152.424 84.8102 152.283C82.2992 151.738 79.8231 153.336 79.2835 155.848L78.0956 161.378L73.8531 179.867C73.6345 180.82 73.3166 181.747 72.9048 182.634L69.8843 189.136C69.2672 190.465 68.4453 191.689 67.4487 192.762L65.0005 195.4C63.6484 196.857 62.6954 198.638 62.234 200.572C61.9041 201.954 61.8324 203.386 62.0224 204.794L63.014 212.142C63.281 214.121 63.1216 216.134 62.5466 218.046L61.071 222.953C60.7132 224.143 60.1986 225.28 59.5407 226.334L53.5206 235.98C52.904 236.968 52.4131 238.029 52.0592 239.139L51.4663 240.998C51.0956 242.16 50.8785 243.366 50.8203 244.584L50.291 255.672C50.2215 257.129 49.9249 258.565 49.4118 259.931L45.3223 270.81C44.7745 272.267 43.3807 273.232 41.8238 273.232C40.2095 273.232 38.7777 272.196 38.2733 270.663L34.8459 260.242C34.33 258.673 34.0957 257.026 34.1537 255.376L34.4763 246.204C34.5233 244.867 34.3785 243.531 34.0462 242.235L32.3393 235.578C32.048 234.442 31.9006 233.274 31.9006 232.101V225.803C31.9006 225.099 31.9536 224.397 32.0593 223.701L32.6753 219.645C32.9579 217.784 33.6129 215.999 34.6011 214.397L38.2995 208.402C38.6845 207.777 39.118 207.184 39.596 206.628L43.0381 202.622C44.1059 201.379 44.9473 199.958 45.5239 198.424L45.9225 197.364C46.5145 195.789 46.8177 194.12 46.8177 192.438V192.303C46.8177 191.53 46.8817 190.759 47.0091 189.996L47.0329 189.854C47.3667 187.856 47.2629 185.809 46.7287 183.855L45.0707 177.79C44.7927 176.773 44.6304 175.728 44.587 174.675L43.98 159.938C43.9471 159.139 43.9826 158.339 44.0863 157.546L45.0676 150.04C45.2705 148.488 45.7322 146.982 46.4334 145.582L49.4643 139.535L57.8853 127.053L58.164 126.497C58.7769 125.274 59.5657 124.148 60.5052 123.154L66.3042 117.018C66.7856 116.508 67.2155 115.953 67.5876 115.359C68.0152 114.676 68.5189 114.044 69.0891 113.476L72.0485 110.523C72.9933 109.581 73.5243 108.301 73.5243 106.966C73.5243 106.129 73.315 105.305 72.9154 104.569L70.9436 100.937C70.5794 100.267 70.2708 99.5674 70.0206 98.8464L68.7595 95.2118C68.4086 94.2006 68.1872 93.149 68.1005 92.0822L67.8861 89.4439C67.6528 86.5738 65.91 84.0447 63.3112 82.8047C62.4281 82.3833 61.4758 82.1258 60.5006 82.0448L58.4473 81.8741C56.9594 81.7504 55.4613 81.8655 54.0098 82.215L51.7816 82.7516C50.0911 83.1586 48.3397 83.2473 46.6168 83.0129L43.9305 82.6474H43.0108C40.9257 82.6474 38.8691 83.1319 37.0033 84.0626L36.5085 84.3094C34.5971 85.2629 32.4581 85.6657 30.3308 85.4727C28.9819 85.3504 27.6652 84.9909 26.4412 84.4109L21.5135 82.0758C19.6397 81.1878 17.5919 80.7272 15.5183 80.7272H14.5773C12.2129 80.7272 9.88988 81.3479 7.84064 82.5274C5.7914 83.7069 3.46841 84.3277 1.10398 84.3277H-6.01955C-6.24271 84.3277 -6.46559 84.3435 -6.68653 84.3749L-9.27438 84.7438C-10.4493 84.9112 -11.5355 84.0886 -11.6927 82.9123C-11.8105 82.0308 -11.3698 81.1687 -10.5865 80.7478L-9.45281 80.1389C-8.99578 79.8933 -8.49532 79.7392 -7.97935 79.685L-4.61365 79.3316C-4.33594 79.3024 -4.07128 79.1987 -3.8477 79.0314L-3.56412 78.8192C-3.35188 78.6604 -3.22692 78.4108 -3.22692 78.1458C-3.22692 77.7062 -3.56539 77.3408 -4.00366 77.3071L-6.0094 77.1532C-6.23885 77.1356 -6.46957 77.1443 -6.69703 77.1792L-14.1978 78.3305C-15.2198 78.4873 -16.2585 78.502 -17.2844 78.3741L-20.7206 77.9455C-21.2307 77.8819 -21.6997 77.6333 -22.0386 77.2469C-23.1924 75.9314 -22.3242 73.8646 -20.5771 73.7678L-16.7006 73.5529C-16.3809 73.5352 -16.0645 73.479 -15.7582 73.3857L-9.12241 71.3629C-8.08281 71.046 -7.00985 70.8512 -5.9252 70.7825L7.60004 69.9258L11.209 69.2057L19.8706 68.2455L27.238 68.4165C29.2016 68.462 31.1336 68.9202 32.9085 69.7613L38.549 72.4342C39.3993 72.8372 40.3284 73.0462 41.2693 73.0462C41.9169 73.0462 42.5606 72.9472 43.1782 72.7526L44.5637 72.3161C46.0556 71.8461 47.6164 71.6325 49.1797 71.6845L50.2954 71.7216C52.7164 71.8021 55.0926 71.0552 57.0322 69.604C58.2291 68.7084 59.6011 68.0747 61.059 67.7442L61.5506 67.6327C63.2599 67.2451 65.0298 67.2066 66.7543 67.5194L68.3892 67.816C70.7613 68.2463 73.2082 67.7598 75.2354 66.4551C77.9225 64.7255 79.5621 61.7196 79.5994 58.5243L78.7383 57.7225C77.5177 56.5859 76.51 55.2404 75.7627 53.7493L75.4117 53.049C74.7983 51.8251 74.3678 50.518 74.1338 49.1692L72.7951 41.4529C72.4822 39.6496 72.526 37.8024 72.9239 36.016L73.0908 35.2671C73.2191 34.6907 73.3941 34.1257 73.6138 33.5776C74.3427 31.7598 75.5679 30.1555 77.1217 28.9631C77.6055 28.5918 78.1256 28.2563 78.664 27.9699L79.0962 27.7399C80.6605 26.9076 82.3687 26.3798 84.1299 26.1846Z" fill="#271E11" fill-opacity="0.71"/>
<path d="M79.5994 58.5243L80.5016 59.3644L83.1954 61.3799C83.9457 61.9413 84.8577 62.2448 85.7948 62.2448V62.2448V62.2448C86.732 62.2448 87.6439 61.9413 88.3943 61.3799L91.088 59.3644L91.9902 58.5243M79.5994 58.5243V58.5243C79.5621 61.7196 77.9225 64.7255 75.2354 66.4551V66.4551C73.2082 67.7598 70.7613 68.2462 68.3892 67.816L66.7543 67.5194C65.0298 67.2066 63.2599 67.2451 61.5506 67.6327L61.059 67.7442C59.6011 68.0747 58.2291 68.7084 57.0322 69.604V69.604C55.0926 71.0552 52.7164 71.8021 50.2954 71.7216L49.1797 71.6845C47.6164 71.6325 46.0556 71.8461 44.5637 72.3161L43.1782 72.7526C42.5606 72.9472 41.9169 73.0462 41.2693 73.0462V73.0462C40.3284 73.0462 39.3993 72.8372 38.549 72.4342L32.9085 69.7613C31.1336 68.9202 29.2016 68.462 27.238 68.4165L19.8706 68.2455L11.209 69.2057L7.60005 69.9258L-5.9252 70.7825C-7.00985 70.8512 -8.08281 71.046 -9.12241 71.3629L-15.7582 73.3857C-16.0645 73.479 -16.3809 73.5352 -16.7006 73.5529L-20.5771 73.7678C-22.3242 73.8646 -23.1924 75.9314 -22.0386 77.2469V77.2469C-21.6997 77.6333 -21.2307 77.8819 -20.7206 77.9455L-17.2844 78.3741C-16.2585 78.502 -15.2198 78.4873 -14.1978 78.3305L-6.69704 77.1792C-6.46957 77.1443 -6.23885 77.1356 -6.0094 77.1532L-4.00366 77.3071C-3.56539 77.3408 -3.22692 77.7062 -3.22692 78.1458V78.1458C-3.22692 78.4108 -3.35188 78.6604 -3.56412 78.8192L-3.8477 79.0314C-4.07128 79.1987 -4.33594 79.3024 -4.61365 79.3316L-7.97935 79.685C-8.49532 79.7392 -8.99578 79.8933 -9.45281 80.1388L-10.5865 80.7478C-11.3698 81.1687 -11.8105 82.0308 -11.6927 82.9123V82.9123C-11.5355 84.0886 -10.4493 84.9112 -9.27438 84.7438L-6.68652 84.3749C-6.46559 84.3435 -6.24271 84.3277 -6.01955 84.3277H1.10398C3.46841 84.3277 5.7914 83.7069 7.84064 82.5274V82.5274C9.88989 81.348 12.2129 80.7272 14.5773 80.7272H15.5183C17.5919 80.7272 19.6397 81.1878 21.5135 82.0758L26.4412 84.4109C27.6652 84.9909 28.9819 85.3504 30.3308 85.4727V85.4727C32.4581 85.6657 34.5971 85.2629 36.5085 84.3094L37.0033 84.0626C38.8691 83.1319 40.9257 82.6474 43.0108 82.6474H43.9305L46.6168 83.0129C48.3397 83.2473 50.0911 83.1586 51.7816 82.7516L54.0098 82.215C55.4613 81.8655 56.9594 81.7504 58.4473 81.874L60.5006 82.0448C61.4758 82.1258 62.4281 82.3833 63.3112 82.8047V82.8047C65.9101 84.0447 67.6528 86.5738 67.8861 89.4439L68.1005 92.0822C68.1872 93.149 68.4086 94.2006 68.7595 95.2118L70.0206 98.8464C70.2708 99.5674 70.5794 100.267 70.9436 100.937L72.9154 104.569C73.315 105.305 73.5243 106.129 73.5243 106.966V106.966C73.5243 108.301 72.9933 109.581 72.0485 110.523L69.0891 113.476C68.5189 114.044 68.0152 114.676 67.5876 115.359V115.359C67.2155 115.953 66.7856 116.508 66.3042 117.018L60.5052 123.154C59.5657 124.148 58.7769 125.274 58.164 126.497L57.8853 127.053L49.4643 139.535L46.4334 145.582C45.7322 146.982 45.2705 148.488 45.0676 150.04L44.0863 157.546C43.9826 158.339 43.9471 159.139 43.98 159.938L44.587 174.675C44.6304 175.728 44.7927 176.773 45.0707 177.79L46.7287 183.855C47.2629 185.809 47.3667 187.856 47.0329 189.854L47.0091 189.996C46.8817 190.759 46.8177 191.53 46.8177 192.303V192.438C46.8177 194.12 46.5145 195.789 45.9225 197.364L45.5239 198.424C44.9473 199.958 44.106 201.379 43.0381 202.622L39.596 206.628C39.118 207.184 38.6845 207.777 38.2995 208.402L34.6011 214.397C33.6129 215.999 32.9579 217.784 32.6753 219.645L32.0593 223.701C31.9536 224.397 31.9006 225.099 31.9006 225.803V232.101C31.9006 233.274 32.048 234.442 32.3393 235.578L34.0462 242.235C34.3785 243.531 34.5233 244.867 34.4763 246.204L34.1537 255.376C34.0957 257.026 34.33 258.673 34.8459 260.242L38.2733 270.663C38.7777 272.196 40.2095 273.232 41.8238 273.232V273.232C43.3807 273.232 44.7745 272.267 45.3223 270.81L49.4118 259.931C49.9248 258.565 50.2215 257.129 50.291 255.672L50.8203 244.584C50.8785 243.366 51.0956 242.16 51.4663 240.998L52.0592 239.139C52.4131 238.029 52.904 236.968 53.5206 235.98L59.5407 226.334C60.1986 225.28 60.7132 224.143 61.071 222.953L62.5466 218.046C63.1216 216.134 63.281 214.121 63.014 212.142L62.0224 204.794C61.8324 203.386 61.9041 201.954 62.234 200.572V200.572C62.6954 198.638 63.6484 196.857 65.0005 195.4L67.4487 192.762C68.4453 191.689 69.2672 190.465 69.8843 189.136L72.9048 182.634C73.3166 181.747 73.6345 180.82 73.8531 179.867L78.0956 161.378L79.2835 155.848C79.8231 153.336 82.2992 151.738 84.8102 152.283V152.283C85.4591 152.424 86.1306 152.424 86.7795 152.283V152.283C89.2904 151.738 91.7666 153.336 92.3061 155.848L93.494 161.378L97.7365 179.867C97.9552 180.82 98.273 181.747 98.6849 182.634L101.705 189.136C102.322 190.465 103.144 191.689 104.141 192.762L106.589 195.4C107.941 196.857 108.894 198.638 109.356 200.572V200.572C109.686 201.954 109.757 203.386 109.567 204.794L108.576 212.142C108.309 214.121 108.468 216.134 109.043 218.046L110.519 222.953C110.876 224.143 111.391 225.28 112.049 226.334L118.069 235.98C118.686 236.968 119.177 238.029 119.53 239.138L120.123 240.998C120.494 242.16 120.711 243.366 120.769 244.584L121.299 255.672C121.368 257.129 121.665 258.565 122.178 259.931L126.267 270.81C126.815 272.267 128.209 273.232 129.766 273.232V273.232C131.38 273.232 132.812 272.196 133.316 270.663L136.744 260.242C137.26 258.673 137.494 257.026 137.436 255.376L137.113 246.204C137.066 244.867 137.211 243.531 137.543 242.235L139.25 235.578C139.542 234.442 139.689 233.274 139.689 232.101V225.803C139.689 225.099 139.636 224.397 139.53 223.701L138.914 219.645C138.632 217.784 137.977 215.999 136.989 214.397L133.29 208.402C132.905 207.777 132.472 207.184 131.994 206.628L128.552 202.622C127.484 201.379 126.642 199.958 126.066 198.424L125.667 197.364C125.075 195.789 124.772 194.12 124.772 192.438V192.303C124.772 191.53 124.708 190.759 124.581 189.996L124.557 189.854C124.223 187.856 124.327 185.809 124.861 183.855L126.519 177.79C126.797 176.773 126.959 175.728 127.003 174.675L127.61 159.938C127.643 159.139 127.607 158.339 127.503 157.546L126.522 150.04C126.319 148.488 125.857 146.982 125.156 145.582L122.125 139.535L113.704 127.053L113.426 126.497C112.813 125.274 112.024 124.148 111.084 123.154L105.285 117.018C104.804 116.508 104.374 115.953 104.002 115.359V115.359C103.574 114.676 103.071 114.044 102.5 113.476L99.5046 110.487C98.5832 109.568 98.0654 108.319 98.0654 107.018V107.018C98.0654 106.149 98.2966 105.295 98.7354 104.545L100.618 101.325C101.16 100.398 101.594 99.4113 101.91 98.3848L102.939 95.0495C103.218 94.1451 103.397 93.213 103.474 92.2697L103.704 89.4439C103.937 86.5738 105.68 84.0447 108.278 82.8047V82.8047C109.162 82.3833 110.114 82.1258 111.089 82.0448L113.142 81.874C114.63 81.7504 116.128 81.8655 117.58 82.215L119.808 82.7516C121.498 83.1586 123.25 83.2473 124.973 83.0129L127.659 82.6474H128.579C130.664 82.6474 132.721 83.1319 134.586 84.0626L135.081 84.3094C136.993 85.2629 139.132 85.6657 141.259 85.4727V85.4727C142.608 85.3504 143.924 84.9909 145.148 84.4109L150.076 82.0758C151.95 81.1878 153.998 80.7272 156.071 80.7272H157.012C159.377 80.7272 161.7 81.348 163.749 82.5274V82.5274C165.798 83.7069 168.121 84.3277 170.486 84.3277H177.609C177.832 84.3277 178.055 84.3435 178.276 84.3749L180.864 84.7438C182.039 84.9112 183.125 84.0886 183.282 82.9123V82.9123C183.4 82.0308 182.959 81.1687 182.176 80.7478L181.042 80.1388C180.585 79.8933 180.085 79.7392 179.569 79.685L176.203 79.3316C175.926 79.3024 175.661 79.1987 175.437 79.0314L175.154 78.8192C174.942 78.6604 174.817 78.4108 174.817 78.1458V78.1458C174.817 77.7062 175.155 77.3408 175.593 77.3071L177.599 77.1532C177.828 77.1356 178.059 77.1443 178.287 77.1792L185.787 78.3305C186.809 78.4873 187.848 78.502 188.874 78.3741L192.31 77.9455C192.82 77.8819 193.289 77.6333 193.628 77.2469V77.2469C194.782 75.9314 193.914 73.8646 192.167 73.7678L188.29 73.5529C187.971 73.5352 187.654 73.479 187.348 73.3857L180.712 71.3629C179.672 71.046 178.599 70.8512 177.515 70.7825L163.99 69.9258L160.381 69.2057L151.719 68.2455L144.352 68.4165C142.388 68.462 140.456 68.9202 138.681 69.7613L133.041 72.4342C132.19 72.8372 131.261 73.0462 130.32 73.0462V73.0462C129.673 73.0462 129.029 72.9472 128.411 72.7526L127.026 72.3161C125.534 71.8461 123.973 71.6325 122.41 71.6845L121.294 71.7216C118.873 71.8021 116.497 71.0552 114.557 69.604V69.604C113.361 68.7084 111.988 68.0747 110.531 67.7442L110.039 67.6327C108.33 67.2451 106.56 67.2066 104.835 67.5194L103.2 67.816C100.828 68.2462 98.3814 67.7598 96.3543 66.4551V66.4551C93.6671 64.7255 92.0275 61.7196 91.9902 58.5243V58.5243M79.5994 58.5243L78.7383 57.7225C77.5177 56.5859 76.51 55.2404 75.7627 53.7493L75.4117 53.049C74.7983 51.8251 74.3678 50.518 74.1338 49.1692L72.7951 41.4529C72.4822 39.6496 72.526 37.8024 72.9239 36.016L73.0908 35.2671C73.2191 34.6907 73.3941 34.1257 73.6138 33.5776V33.5776C74.3427 31.7598 75.5679 30.1555 77.1217 28.9631V28.9631C77.6055 28.5918 78.1256 28.2563 78.664 27.9699L79.0962 27.7399C80.6605 26.9076 82.3687 26.3798 84.1299 26.1846L84.2524 26.171C85.2775 26.0573 86.3121 26.0573 87.3372 26.171L87.4598 26.1846C89.221 26.3798 90.9291 26.9076 92.4935 27.7399L92.9256 27.9699C93.464 28.2563 93.9841 28.5918 94.468 28.9631V28.9631C96.0217 30.1555 97.247 31.7598 97.9758 33.5777V33.5777C98.1956 34.1257 98.3705 34.6907 98.4989 35.267L98.6657 36.0159C99.0636 37.8024 99.1074 39.6496 98.7945 41.4529L97.4559 49.1692C97.2219 50.518 96.7913 51.8251 96.178 53.049L95.827 53.7493C95.0797 55.2404 94.0719 56.5859 92.8513 57.7225L91.9902 58.5243" stroke="white" stroke-width="4"/>
</g>
<defs>
<radialGradient id="paint0_radial_513_34" cx="0" cy="0" r="1" gradientUnits="userSpaceOnUse" gradientTransform="translate(85.2949 108.279) rotate(90) scale(89.221 76.5398)">
<stop offset="0.947115" stop-color="#D9D9D9"/>
<stop offset="1" stop-color="#737373" stop-opacity="0"/>
</radialGradient>
</defs>
</svg>
