<svg width="286" height="181" viewBox="0 0 286 181" fill="none" xmlns="http://www.w3.org/2000/svg">
<path d="M271.976 0.00886684C272.317 -0.0630972 272.798 0.326017 273.201 0.346514C274.885 0.436496 275.509 0.706229 277.033 0.859211C279.293 1.08644 286 0.575019 286 3.27832C286 3.27839 286 3.27846 286 3.27852C286 3.30503 285.999 3.33184 285.998 3.35897C285.975 3.87398 285.404 4.4362 285.319 5.01864C285.235 5.60131 285.298 9.36285 284.488 9.57432C283.313 9.85299 280.495 8.88851 279.869 8.93125C279.44 8.96071 278.913 9.30266 278.365 9.36338C276.599 9.55907 275.675 9.30901 274.084 10.2379C273.448 9.74839 272.811 9.25889 272.175 8.76939C271.345 8.99635 270.086 8.35077 269.582 8.38633C269.168 8.41557 268.925 8.80266 268.494 8.82065C268.01 8.84302 267.267 8.4252 266.387 8.48813C264.945 8.58937 264.688 9.59916 263.822 9.7274C262.925 9.8601 261.529 9.31127 260.383 9.6666C260.24 9.77769 260.096 9.88877 259.952 9.99986C260.055 10.2511 260.158 10.5023 260.261 10.7535C259.684 10.8705 259.436 10.3556 258.906 10.3463C258.283 10.335 257.964 10.8232 257.545 10.8209C257.201 10.8186 256.735 10.4272 256.289 10.4518C255.639 10.4855 255.781 11.0506 255.431 11.1564C255.292 11.1974 252.712 11.5093 252.566 11.5138C251.459 11.5361 251.363 10.7626 250.48 10.6949C248.032 10.5105 245.519 11.1355 243.255 11.3717C242.243 11.4774 241.188 11.4324 240.18 11.3087C241.768 9.32908 238.254 7.78842 239.568 10.8861C238.446 10.4454 237.651 11.2816 236.588 11.1402C235.9 11.048 235.424 10.6185 234.442 10.6297C232.699 10.6524 230.793 11.8733 230.291 9.6666C228.246 10.0556 226.474 9.25515 225.736 11.2032C225.209 11.3222 223.857 10.1619 223.265 10.0043C222.706 9.85577 218.412 9.33184 217.71 9.30259C217.007 9.27335 215.778 9.24154 215.186 9.41245C214.443 9.62392 213.924 11.6442 212.601 9.28208C211.062 9.47323 210.514 9.40563 209.083 9.1312C208.824 9.08158 208.795 8.73088 208.644 8.73057C208.332 8.73057 207.801 8.98973 207.245 9.02134C206.33 9.07308 205.808 8.33518 205.91 9.46226C205.306 9.65122 204.703 9.84019 204.1 10.0292C203.888 9.81162 203.676 9.59409 203.465 9.37656C203.142 9.61363 202.819 9.85069 202.497 10.0877C202.876 8.45679 200.605 9.41925 201.343 10.3551C200.173 10.0177 199.003 9.68028 197.834 9.34287C197.997 7.48924 195.266 9.12896 195.496 10.1368C195.362 10.1354 195.228 10.1339 195.094 10.1324C193.923 9.63975 192.847 10.0427 191.419 9.71201C189.991 9.38133 190.125 9.20084 189.691 8.34824C189.355 8.39707 189.019 8.4459 188.683 8.49473C186.919 10.8321 187.231 6.78524 184.212 8.57822C183.247 7.10919 180.869 7.88084 179.292 8.32627C179.109 8.37801 179.106 8.66315 178.861 8.75107C178.264 8.96252 176.74 8.59598 176.792 9.51572C176.264 9.24961 175.736 8.9835 175.209 8.71738C174.777 8.88462 174.346 9.05186 173.915 9.21909C173.917 9.5062 173.919 9.79331 173.921 10.0804C173.053 9.1019 171.688 9.47796 171.015 9.244C170.881 9.19657 170.852 8.80052 170.435 8.69248C169.949 8.56425 169.042 8.68145 168.462 8.55771C168.236 8.99644 168.011 9.43516 167.785 9.87388C166.748 10.1118 166.384 8.95384 165.775 8.86387C165.665 8.84823 163.664 8.93142 163.557 8.95615C162.674 9.15212 162.924 10.1386 160.372 9.92735C159.918 9.88912 159.55 9.54776 159.139 9.53404C158.414 9.50929 156.227 10.2835 156.055 10.9989C155.175 10.1035 152.82 10.4695 152.126 10.2108C151.917 10.1313 151.87 9.56095 151.226 9.43955C150.704 9.34057 149.361 9.79723 148.699 9.7208C147.997 9.63758 147.746 9.15848 147.432 9.12461C147.134 9.09312 146.86 9.47988 146.455 9.47764C145.191 9.46414 144.045 8.84163 143.046 8.83018C141.6 8.81218 140.323 9.95725 139.114 10.4657C138.814 10.3914 138.519 10.1457 138.204 10.1434C134.31 10.1074 129.918 9.89643 126.013 9.65122C124.2 9.5386 119.692 7.98429 120.895 10.5777C120.265 11.0319 115.684 9.98631 114.813 9.97056C113.942 9.95496 113.251 10.42 112.566 10.4269C110.5 10.4471 109.045 10.112 106.53 10.5169C105.88 10.6228 105.184 11.1737 104.8 11.1673C104.336 11.1583 103.837 10.6255 103.237 10.5917C101.806 10.5152 99.1397 10.6904 97.7669 10.5982C97.5162 10.5802 97.4282 10.1124 97.0697 9.96617C95.6738 9.3948 94.109 9.44436 94.3859 10.9381C92.5966 10.0901 90.9414 10.8636 89.2832 10.911C85.7772 11.0077 79.3906 10.6591 76.3363 11.2867C74.4104 11.6827 74.4597 12.3526 71.6242 11.7745C70.9948 11.6463 70.3682 11.4734 69.6048 11.3204C67.8153 10.9605 66.1737 9.72283 64.8098 11.2142C62.8224 10.8274 61.2396 11.1017 59.765 9.82627C59.5911 10.1322 59.4173 10.4381 59.2435 10.744C58.9998 10.7516 58.7562 10.7591 58.5125 10.7667C58.4365 10.475 58.3605 10.1832 58.2845 9.89146C56.539 9.81289 54.3244 11.012 52.8469 11.0033C50.3696 10.9898 43.9891 10.5239 41.6401 10.1302C40.393 9.92117 40.3259 10.546 39.6119 9.26157C39.333 9.35093 39.0541 9.44029 38.7751 9.52964C38.6006 9.81089 38.426 10.0921 38.2514 10.3734C36.6515 10.3846 34.7538 9.94778 33.2295 9.95225C30.4521 9.96125 26.2814 10.7353 23.4923 10.2269C22.793 10.0987 21.9188 9.5187 21.2339 9.52525C20.2372 9.53425 19.9949 10.4968 18.7301 10.5148C16.5501 10.544 12.4902 9.42584 10.4297 9.51133C9.81771 9.53609 9.53217 9.89423 9.10959 9.93247C7.33762 10.0967 5.88282 10.0675 4.1837 10.621C2.3593 9.69859 2.5169 8.50805 1.95151 7.30674C1.52302 6.40005 0.209123 4.29881 0.0226087 3.50472C-0.108406 2.94683 0.380761 2.22917 0.19717 1.61507C2.38297 1.12466 3.30127 1.66454 5.07615 2.5284C8.35389 2.49398 11.6316 2.45956 14.9094 2.42513C15.2076 2.76034 15.5058 3.09554 15.804 3.43075C15.804 3.43148 15.804 3.43221 15.804 3.43295C17.0628 3.8198 17.5963 2.95654 18.2751 2.76058C24.7743 0.884365 37.5662 2.35282 44.7211 2.56429C46.2629 2.60927 51.2784 2.15758 52.3363 2.70199C52.6102 2.84377 52.6864 3.36065 52.9778 3.38314C55.5813 3.07577 58.1848 2.76839 60.7883 2.46102C66.1421 3.26414 71.677 2.60087 77.0716 2.47713C91.6669 2.14194 106.117 1.73451 120.473 1.85824C123.247 1.88298 126.768 1.49573 129.485 1.74544C130.618 1.84898 131.091 2.67902 132.58 2.06039C132.595 2.28402 132.611 2.50765 132.627 2.73129C133.926 2.46131 134.757 1.95245 136.214 1.90072C137.441 1.85798 140.687 1.82477 141.771 1.91024C142.334 1.95298 142.124 2.37085 142.649 2.36874C143.546 2.36199 145.464 1.78428 146.703 1.78426C147.825 1.78426 149.716 2.26562 150.579 2.19588C153.686 1.94842 157.07 1.23489 160.381 1.42611C161.295 1.48021 162.472 2.02204 162.758 2.00692C163.318 1.97543 163.484 1.4491 163.86 1.38143C165.769 1.0395 168.744 1.66497 170.615 1.68978C176.712 1.77077 183.171 1.54104 189.242 1.63778C193.078 1.69851 199.451 1.60588 202.992 2.00179C203.756 2.08728 203.552 2.6639 204.193 2.6639C204.904 2.66378 205.289 2.27425 205.621 2.24276C207.921 2.02228 212.998 1.62853 215.169 2.02669C215.582 2.10314 215.882 2.55495 216.13 2.55331C216.255 2.55331 216.539 2.24498 216.932 2.21346C220.406 1.9345 222.939 2.11432 226.343 2.22005C232.862 2.42025 240.416 1.84665 247.265 2.15707C248.757 2.22456 249.781 3.11821 249.991 3.10922C250.451 3.09119 250.746 2.49011 251.678 2.34164C254.779 1.85361 258.955 2.49502 261.904 2.19369C263.361 2.04523 265.364 1.2822 266.797 1.11336C267.943 0.978399 270.647 1.27771 271.155 0.942707C271.464 0.740313 271.607 0.0902471 271.976 0.00886684ZM233.395 10.128C233.599 9.08869 231.455 9.95244 232.259 10.5104C232.441 10.636 233.342 10.3978 233.395 10.128ZM132.993 8.32334C133.013 8.62022 133.033 8.91709 133.052 9.21397C133.334 9.09043 133.615 8.9669 133.897 8.84336C133.738 8.66489 133.58 8.48643 133.422 8.30796C133.279 8.31309 133.136 8.31821 132.993 8.32334Z" fill="white"/>
<path d="M50.2402 95.008C49.7355 94.6507 49.3343 93.7857 48.7848 93.3005C46.4788 91.2875 45.7181 90.3992 43.491 88.6987C43.4725 88.6847 43.4537 88.6707 43.4347 88.6566C39.9749 85.5037 29.1229 81.4988 29.6859 79.0869C29.6859 79.0869 29.6859 79.0868 29.6859 79.0867C29.6944 79.0616 29.7041 79.0366 29.7152 79.0117C29.9245 78.5369 31.1482 78.3636 31.4996 77.8726C31.8499 77.382 32.9844 73.7779 34.64 74.1731C37.0694 74.706 42.013 78.2013 43.0951 78.8811C43.8805 79.3041 44.9965 79.5885 45.9735 80.1484C46.8364 80.6422 47.5512 81.0963 48.202 81.5056C50.0062 82.6521 51.3783 83.5712 53.6941 84.5418C54.4345 85.7554 55.1319 86.981 55.7861 88.2156C57.2282 89.1761 58.6339 91.449 59.3664 92.1652C59.9756 92.7517 60.5991 92.8479 61.213 93.4905C61.9031 94.2119 62.6012 95.6261 63.7818 96.9825C65.7005 99.2201 66.8044 99.067 67.9556 100.461C68.2848 100.866 68.6127 101.372 68.9436 101.931C69.7284 103.272 70.6072 104.923 71.7435 106.078C71.9963 106.242 72.247 106.402 72.4993 106.563C72.5875 106.255 72.6766 105.948 72.7664 105.641C73.5047 106.474 73.3719 107.168 73.9686 107.998C74.6759 108.98 75.434 109.177 75.9212 109.828C76.318 110.358 76.5547 111.315 77.1019 111.983C77.8995 112.957 78.1788 112.394 78.6776 112.86C78.8659 113.055 82.2354 116.748 82.4276 116.954C83.8085 118.591 83.3377 119.229 84.3946 120.582C87.3361 124.332 91.0759 127.559 94.2556 130.606C95.6767 131.969 97.0601 133.483 98.3388 134.974C94.7532 134.128 98.454 140.129 98.8684 136.121C100.087 137.992 101.776 138.499 103.148 140.05C104.039 141.055 104.4 142.009 105.792 143.328C106.377 143.882 107.035 144.406 107.671 144.897C109.825 146.585 111.738 148.106 111.073 149.821C114.224 152.478 116.056 155.537 118.46 155.193C119.264 155.845 120.293 158.515 121.006 159.421C121.639 160.343 127.385 166.216 128.466 166.938C129.49 167.778 131.341 169.11 132.347 169.52C133.661 170.066 135.265 168.724 136.349 171.79C138.894 172.61 139.712 172.9 141.991 173.418C142.403 173.496 142.437 173.845 142.688 173.853C143.207 173.866 144.06 173.588 144.928 173.42C146.341 173.146 147.374 173.51 146.866 172.504C146.915 172.477 146.963 172.449 147.012 172.42C147.66 172.01 148.311 171.469 148.949 170.84C149.342 170.843 149.748 170.825 150.164 170.786C150.458 170.272 150.735 169.743 150.999 169.202C151.57 170.921 153.936 167.377 152.302 167.635C153.725 166.632 155.148 165.473 156.573 164.253C156.895 163.972 157.217 163.695 157.541 163.42C158.681 164.879 161.234 159.734 160.225 159.369C160.418 159.173 160.611 158.978 160.806 158.783C162.847 157.424 164.16 155.609 166.563 153.916C168.97 152.245 168.891 152.58 170.108 152.665C170.597 152.192 171.087 151.725 171.584 151.26C172.93 147.211 174.874 150.749 178.696 145.756C181.117 145.816 184.574 142.524 187.002 140.455C187.282 140.214 187.133 139.97 187.498 139.634C188.394 138.807 191.172 137.519 190.605 136.791C191.647 136.463 192.683 136.145 193.722 135.832C194.371 135.247 195.027 134.661 195.681 134.081C195.531 133.836 195.381 133.591 195.231 133.346C197.222 133.304 199.381 131.616 200.659 131.154C200.914 131.062 201.16 131.377 201.934 131.059C202.834 130.692 204.342 129.7 205.407 129.242C205.447 129.103 205.488 128.964 205.529 128.824C205.653 128.367 205.772 127.911 205.886 127.455C207.448 126.267 208.638 126.877 209.674 126.325C209.871 126.241 213.001 124.026 213.145 123.869C214.401 122.708 213.466 122.263 217.428 119.42C218.129 118.908 218.895 118.723 219.511 118.229C220.617 117.365 223.282 113.998 223.044 113.236C224.909 112.783 228.017 109.382 229.172 108.627C229.523 108.402 229.983 108.753 230.981 107.963C231.785 107.331 233.368 105.162 234.357 104.304C235.402 103.402 236.102 103.388 236.566 102.983C237.006 102.598 237.124 101.943 237.703 101.381C239.497 99.6502 241.577 98.4977 243.005 97.1403C245.084 95.1645 246.145 92.581 247.566 90.5632C248.055 90.21 248.663 89.981 249.123 89.5598C254.056 85.0448 259.764 80.2949 265.317 76.1221C265.378 76.086 265.323 76.119 265.187 76.3273C265.067 76.4812 264.691 77.2703 264.815 78.0749C264.907 78.8576 265.343 79.3747 265.455 79.4703C265.584 79.5901 265.614 79.5801 265.544 79.528C264.205 78.3406 254.978 75.4299 257.052 78.3741C255.843 78.5765 247.141 76.5322 245.44 76.4047C243.639 76.2263 242.417 76.593 241.029 76.49C236.973 76.1962 234.203 75.6732 229.178 75.7876C227.889 75.82 226.546 76.2993 225.782 76.2527C224.875 76.1959 223.9 75.6123 222.699 75.5194C219.982 75.306 214.655 75.25 211.974 75.0557C211.476 75.0183 211.319 74.5439 210.604 74.3703C207.882 73.6943 204.819 73.6403 205.304 75.1514C201.686 74.1792 198.594 74.8583 195.208 74.8095C188.342 74.7033 175.762 74.0828 169.676 74.61C165.918 74.9415 165.949 75.6101 160.372 74.9479C159.145 74.8016 157.917 74.6112 156.406 74.4376C152.817 74.0289 149.671 72.7534 146.938 74.2143C142.948 73.7831 139.915 74.0283 136.984 72.7265C136.636 73.0293 136.288 73.3321 135.939 73.635C135.454 73.6384 134.967 73.6418 134.48 73.6452C134.33 73.3522 134.18 73.0592 134.03 72.7662C130.617 72.6589 126.234 73.8269 123.276 73.7999C118.45 73.7526 105.807 73.2323 101.147 72.8293C98.7034 72.6138 98.566 73.2385 97.1598 71.951C96.6084 72.0391 96.0559 72.1274 95.5025 72.2157C95.1557 72.4963 94.8085 72.7769 94.461 73.0575C91.2378 73.063 87.5787 72.6222 84.5406 72.6252C83.2736 72.6266 81.8551 72.6688 80.3495 72.7269C75.365 72.9214 69.4948 73.2902 65.248 72.8988C63.8289 72.7706 62.1532 72.1906 60.7696 72.1971C58.839 72.2061 58.305 73.1686 55.8262 73.1866C51.506 73.2159 43.4849 72.0977 39.4118 72.1832C38.2232 72.208 37.622 72.5661 36.8109 72.6043C33.284 72.7686 30.4452 72.7394 27.0711 73.2928C23.4659 72.3705 23.7765 71.1799 22.6564 69.9786C21.8095 69.0719 19.2148 66.9707 18.8454 66.1766C18.5866 65.6187 19.5531 64.901 19.1903 64.2869C23.51 63.7965 25.3246 64.3364 28.8307 65.2003C35.3289 65.1659 41.7748 65.1314 48.2748 65.097C48.8866 65.4322 49.4363 65.7674 50.0355 66.1026C50.0355 66.1034 50.0355 66.1041 50.0355 66.1048C52.5266 66.4917 53.605 65.6284 54.9203 65.4325C61.2957 64.5025 70.7117 64.3942 80.3495 64.5474C90.2157 64.7025 100.077 65.1494 107.283 65.2826C110.303 65.3362 120.288 64.9336 122.33 65.4926C122.865 65.6377 123.01 66.1554 123.58 66.1815C128.82 65.9072 133.866 65.6387 139.078 65.3801C149.669 66.2824 160.607 65.7583 171.274 65.8276C200.277 66.1845 228.707 65.9448 257.509 69.6245C259.814 69.9833 262.127 70.2947 264.896 70.9493C266.216 71.2852 267.614 71.618 269.349 72.5284C270.227 73.1767 271.695 73.3792 272.722 76.6748C273.106 78.2123 272.462 80.0402 271.907 80.7902C271.421 81.5228 270.891 82.0221 270.368 82.4421C269.411 83.1989 268.502 83.9047 267.622 84.5602C265.848 85.8881 264.6 85.8437 262.802 88.1961C262.633 88.0465 262.464 87.8969 262.295 87.7474C260.537 89.6175 259.668 91.058 257.581 93.0034C255.821 94.6246 251.201 98.9788 249.609 100.396C248.781 101.127 248.795 100.536 248.05 101.253C246.779 102.479 244.471 105.524 242.722 107.232C241.143 108.774 238.113 111.056 236.925 112.296C232.655 116.758 228.16 121.972 222.722 126.071C221.224 127.208 218.962 128.223 218.496 128.578C217.588 129.28 217.612 129.906 217.013 130.41C215.053 132.059 212.011 133.811 209.14 135.232C207.645 135.972 206.236 136.675 205.101 137.315C194.674 143.187 184.063 149.954 175.072 157.265C171.361 160.242 166.412 164.866 162.456 169.349C160.148 171.953 157.726 174.376 155.425 176.038C153.987 177.049 154.026 176.302 152.789 177.128C151.383 178.017 150.638 178.762 149.826 179.113C149.681 179.175 149.53 179.236 149.373 179.296C146.714 180.417 142.013 181.081 137.875 180.067C133.714 179.142 130.298 177.167 128.469 175.805C127.755 175.27 127.46 174.528 127.035 174.24C126.819 174.092 126.144 174.003 125.453 173.538C119.409 169.377 115.912 165.535 111.211 160.631C108.21 157.477 105.076 154.174 101.794 151.127C94.9436 144.789 88.0223 137.931 82.1164 130.974C80.1789 128.693 79.5282 126.55 79.249 126.239C78.638 125.551 77.7957 125.494 76.482 124.154C72.0997 119.7 67.4837 112.644 63.8932 107.887C63.4878 107.355 63.0227 106.785 62.5348 106.203C60.9814 104.371 58.9802 102.523 57.5751 101.044C56.1709 99.4761 52.9147 95.6961 51.9732 95.3319C51.4208 95.0917 50.7904 95.3939 50.2402 95.008ZM106.923 145.098C106.67 145.22 106.712 145.454 106.903 145.711C107.502 146.494 109.436 147.569 108.854 146.416C108.731 146.169 107.904 145.508 107.363 145.223C107.16 145.119 106.996 145.063 106.923 145.098ZM258.094 83.9856C257.87 83.7866 257.646 83.5876 257.422 83.3887C257.076 83.8512 256.734 84.3121 256.396 84.7715C256.749 84.6999 257.103 84.6284 257.458 84.5569C257.669 84.3667 257.881 84.1763 258.094 83.9856Z" fill="white"/>
<path d="M234.72 96.4169C234.817 96.2795 234.954 96.196 235.075 96.1493C235.032 96.374 235.206 96.4129 235.268 96.2566C235.529 95.6388 235.684 94.3895 235.719 93.3448C235.754 92.2471 235.724 91.0912 235.456 89.4289C235.4 89.0866 235.325 88.697 235.229 88.2699C235.27 88.4088 235.365 88.6695 235.567 88.9497C235.763 89.2306 236.058 89.4769 236.246 89.5794C236.648 89.7833 236.453 89.6163 235.934 89.5825C235.415 89.5304 234.636 89.5357 233.703 89.5686C232.69 89.5682 231.895 89.7582 229.68 89.4432L230.471 89.5111C230.373 89.4596 230.065 89.4337 229.461 89.7207C228.492 89.6674 226.781 92.8378 225.785 92.3254C225.785 92.3254 225.785 92.3254 225.785 92.3254C225.76 92.3169 225.735 92.3068 225.711 92.2952C225.232 92.0772 225.165 90.6278 224.723 90.2086C224.322 89.7623 220.544 88.5846 221.759 86.0318C222.222 85.1212 223.409 83.666 224.885 82.8047C226.293 81.9186 228.415 81.1405 230.512 81.2897C230.619 81.292 230.936 81.3156 231.042 81.3352C231.054 81.394 231.54 81.4599 231.962 81.4852C232.405 81.5143 232.878 81.5275 233.32 81.5398C234.207 81.5613 234.981 81.5893 235.417 81.5852C236.674 81.6428 238.477 81.0695 241.035 82.6425C242.345 83.5023 243.232 85.0226 243.513 86.2198C244.377 89.715 244.832 91.915 245.297 96.2837C244.68 98.0322 243.856 99.9567 242.113 101.574C241.862 101.784 241.608 101.976 241.354 102.151C239.608 104.402 236.384 105.543 235.359 106.294C234.492 106.897 234.196 107.552 233.326 108.166C232.707 108.606 231.787 109.046 230.784 109.678C230.197 110.049 229.563 110.486 228.934 111.002C226.092 113.333 226.188 114.544 224.49 116.005C222.716 117.524 219.517 119.266 217.053 121.256C216.788 121.556 216.486 121.875 216.2 122.174C216.576 122.243 216.961 122.301 217.347 122.356C215.976 123.329 215.145 123.252 213.446 123.987C212.372 124.391 211.511 124.919 209.648 124.993C208.792 125.015 207.274 124.763 206.022 123.68C205.411 123.158 204.964 122.553 204.648 121.924C204.372 121.377 204.206 120.825 204.118 120.331C204.034 119.867 204.015 119.382 204.038 118.972C204.06 118.605 204.113 118.246 204.189 117.892C204.463 116.587 204.716 116.363 204.877 115.994C205.046 115.668 205.179 115.386 205.258 115.094C205.595 113.782 204.953 113.93 205.015 113.187C205.133 112.987 205.516 107.049 205.465 106.65C205.596 103.993 206.36 103.792 206.47 101.618C206.644 97.6605 206.294 93.6075 205.853 89.661C205.815 89.3397 205.774 89.0361 205.728 88.7731C205.686 88.5227 205.624 88.2543 205.61 88.3043C205.61 88.325 205.612 88.3707 205.649 88.5112C205.708 88.6677 205.693 88.8459 206.16 89.6074C206.468 89.997 206.778 90.73 208.482 91.493C209.259 91.8282 210.465 91.946 211.293 91.7678C212.146 91.6058 212.719 91.2935 213.091 91.059C213.837 90.5616 214.034 90.2724 214.223 90.0637C214.387 89.8649 214.469 89.74 214.527 89.6544C214.734 89.3275 214.695 89.381 214.691 89.4276C214.675 89.4889 214.636 89.6098 214.589 89.7552C214.457 90.1863 214.327 90.6685 214.201 91.1765C213.68 93.284 213.111 95.8819 212.43 98.405C211.376 93.9794 207.905 102.519 211.671 99.8735C210.586 102.648 210.876 104.948 209.838 107.733C209.145 109.529 208.321 110.642 207.189 113.192C206.981 113.653 206.774 114.118 206.564 114.588C204.739 118.661 202.908 122.627 200.599 122.481C197.788 127.191 194.116 130.193 194.165 133.001C193.199 134.195 190.015 135.995 187.604 137.185C187.478 137.245 187.236 137.365 186.924 137.488C186.844 137.519 186.758 137.551 186.663 137.584C186.555 137.622 186.416 137.668 186.269 137.708C186.121 137.749 185.957 137.789 185.769 137.822C185.583 137.854 185.378 137.887 185.034 137.899C184.399 137.903 183.492 137.877 182.354 137.113C181.223 136.297 180.821 135.321 180.626 134.544C180.49 133.97 180.486 133.419 180.51 133.065C180.533 132.736 180.581 132.434 180.643 132.138C181.491 129.011 182.879 127.208 183.903 125.085C184.955 123.072 185.741 121.297 185.984 120.682C186.111 120.364 186.255 119.994 186.403 119.592C186.952 118.129 187.503 116.038 187.645 114.881C187.873 113.035 186.179 111.425 189.11 108.637C189.605 104.817 189.875 103.482 190.615 99.9611C190.744 99.3308 191.1 99.2962 191.146 98.9176C191.237 98.1516 191.128 96.7889 191.213 95.43C191.356 93.1544 192.1 91.987 190.972 92.1778C190.898 91.4719 190.802 90.7653 190.666 90.2935C190.632 90.1676 190.595 90.08 190.568 90.0629C190.554 90.0517 190.544 90.0704 190.55 90.1352C190.557 90.1937 190.564 90.3144 190.721 90.6472C190.809 90.8189 190.889 90.9839 191.15 91.2982C191.465 91.6715 192.062 92.1811 192.92 92.4221C194.711 92.9148 195.975 91.9756 196.204 91.7942C196.501 91.5637 196.625 91.4145 196.701 91.3363C196.761 91.2761 196.78 91.2651 196.793 91.2664C196.667 91.2226 196.466 91.3226 196.24 91.516C196.09 91.6382 195.934 91.7833 195.775 91.938C195.705 92.7301 195.635 93.5702 195.568 94.4093C194.379 92.9233 193.264 98.6526 194.795 97.2282C193.727 99.3381 192.664 101.468 191.598 103.6C191.303 104.202 190.999 104.789 190.69 105.367C189.163 104.317 187.848 111.419 189.003 111.272C188.863 111.585 188.725 111.892 188.587 112.203C186.945 114.716 186.245 117.31 184.802 120.448C183.405 123.603 183.396 123.25 182.287 124.047C182.228 124.35 182.172 124.653 182.12 124.955C182.032 125.464 181.947 125.981 181.865 126.499C183.157 131.355 179.692 129.674 179.29 137.855C177.195 139.843 175.543 146.322 171.361 149.343C170.919 149.683 171.054 149.942 170.427 150.381C169.853 150.773 168.891 151.207 167.876 151.534C166.513 151.984 165.122 152.571 165.408 153.089C164.098 153.286 162.792 153.515 161.46 153.773C160.527 154.337 159.589 154.915 158.657 155.499C158.775 155.761 158.894 156.022 159.012 156.284C156.618 156.246 153.587 158.01 151.908 158.494C151.572 158.59 151.348 158.257 150.323 158.588C149.13 158.971 147.017 160.007 145.558 160.459C145.178 161.086 144.781 161.714 144.374 162.339C141.82 163.552 140.469 162.754 138.764 163.087C138.595 163.094 137.216 163.562 135.205 163.554C134.251 163.541 132.808 163.309 131.691 162.395C130.575 161.485 130.288 160.469 130.225 160.355C130.141 160.146 130.075 159.946 130.02 159.755C129.639 158.538 129.312 158.086 129.029 156.898C128.826 155.739 128.405 153.715 129.977 149.876C130.605 148.466 131.536 147.566 132.353 146.503C132.895 145.792 133.85 144.546 135.024 143.402C136.54 141.833 137.996 140.073 137.915 139.557C140.247 138.896 144.145 134.88 145.238 133.859C145.597 133.556 146.127 133.86 147.098 132.785C147.439 132.401 147.886 131.66 148.269 130.846C148.983 129.426 149.824 128.051 150.432 127.286C151.587 125.848 152.329 125.657 152.811 125.04C153.262 124.464 153.326 123.702 153.845 122.909C155.465 120.462 157.083 118.373 157.76 116.145C157.956 115.501 158.075 114.865 158.14 114.218C158.563 111.065 158.74 108.356 159.122 105.91C159.434 105.22 159.898 104.604 160.134 103.874C160.812 101.773 161.434 99.6157 161.63 97.7845C161.731 96.8862 161.686 96.0829 161.573 95.6853C161.435 95.2719 161.478 95.3194 161.223 95.1166C161.78 95.4256 162.215 95.4162 162.332 95.4069C162.466 95.3925 162.397 95.3826 162.269 95.4172C161.999 95.4828 161.508 95.6829 160.984 95.9445C157.242 97.7782 153.967 99.5663 151.449 101.846C149.894 103.157 147.411 105.748 146.547 108.262C145.675 110.673 145.615 112.634 147.141 111.547C147.363 112.736 143.544 124.93 141.867 127.08C140.736 129.315 140.025 131.251 138.826 132.857C136.59 135.802 134.357 137.786 131.75 139.899C130.11 141.213 128.322 142.56 126.137 144.113C124.691 145.147 123.269 146.568 122.296 147.063C121.116 147.661 119.648 147.801 117.921 148.434C117.35 148.638 116.703 148.873 115.778 149.099C115.253 149.207 114.829 149.357 113.636 149.35C113.464 149.345 113.277 149.332 113.071 149.305C112.866 149.278 112.648 149.244 112.31 149.151C111.986 149.059 111.643 148.938 111.222 148.708C110.745 148.446 110.215 148.045 109.769 147.489C109.31 146.926 108.965 146.191 108.819 145.513C108.677 144.854 108.684 144.387 108.726 143.931C108.779 143.454 108.85 143.201 108.926 142.942C109.003 142.689 109.089 142.47 109.177 142.274C110.798 138.662 113.025 134.798 114.608 132.555C114.867 132.187 115.183 132.089 115.56 131.86C115.741 131.764 115.937 131.633 116.145 131.413C118.516 128.933 120.384 125.474 118.744 125.344C121.655 121.944 122.815 117.884 124.451 114.15C125.09 112.691 125.816 111.009 126.551 109.187C129.95 102.323 133.422 98.1649 131.801 95.9896C132.017 96.84 133.611 98.2163 134.577 98.3003C135.53 98.4788 135.789 98.3324 135.905 98.3295C136.087 98.2828 135.762 98.4166 135.484 98.6143C134.075 99.5227 132.918 100.462 132.027 101.328C129.069 104.442 129.723 104.544 125.127 109.457C124.106 110.596 123.051 111.764 121.756 113.276C121.719 113.318 121.683 113.361 121.646 113.403C118.665 116.841 115.204 119.47 114.15 123.152C110.474 126.993 108.315 130.434 103.186 132.456C102.695 133.074 102.291 133.78 100.673 134.388C100.137 134.473 99.2972 134.513 98.4443 134.314C97.5244 134.117 96.5263 133.58 95.8703 132.956C94.4646 131.576 94.2579 130.46 94.0494 129.72C94.2134 129.114 94.4715 128.757 94.7322 128.385C94.7214 128.226 94.7141 128.068 94.71 127.909C94.5917 123.197 93.9178 117.391 94.6093 113.403C95.2275 110.341 95.947 105.083 99.7534 99.4358C103.788 94.0785 108.162 89.6058 110.499 87.2006C111.322 86.3714 111.79 85.7863 112.157 85.3447C112.259 85.2217 112.32 85.1486 112.41 85.0462C112.468 84.9828 112.6 84.829 112.53 84.9327C112.507 84.9657 112.477 85.0015 112.375 85.1556C112.354 85.1884 112.374 85.1563 112.307 85.2631C112.262 85.3378 112.204 85.4316 112.116 85.6114C112.032 85.8086 111.888 86.0166 111.752 86.7661C111.703 87.1499 111.613 87.7296 111.907 88.6754C112.155 89.6096 113.223 90.8458 114.311 91.2068C115.388 91.6038 116.114 91.4824 116.558 91.4084C117.01 91.3177 117.258 91.2101 117.449 91.1274C118.137 90.7942 118.177 90.6947 118.308 90.608C118.364 90.563 118.381 90.5479 118.379 90.5498C118.382 90.5471 118.385 90.5445 118.388 90.542C118.4 90.5318 118.411 90.5225 118.421 90.514C118.459 90.48 118.484 90.457 118.502 90.4391C118.572 90.3704 118.565 90.37 118.558 90.3721C118.544 90.3746 118.51 90.3949 118.465 90.425C118.385 90.4737 118.303 90.5156 118.184 90.5819C117.864 90.7409 117.463 90.8587 116.876 90.9687C116.47 91.535 116.079 92.0985 115.688 92.6731C115.616 93.1777 115.54 93.6903 115.475 94.1957C112.908 97.1508 109.712 100.676 107.118 103.818C104.607 106.63 101.344 111.634 94.5249 113.257C89.6646 114.129 85.824 114.182 81.4197 112.894C81.1796 112.812 80.9428 112.724 80.7044 112.625C79.5882 112.153 78.0384 111.275 76.9203 109.501C75.7907 107.702 75.8216 105.798 75.8771 104.746C75.8911 104.469 75.9067 104.202 75.9203 103.946C76.0863 101.667 75.8954 100.606 76.135 98.8061C76.3335 97.7859 76.7858 96.625 77.5814 95.4924C81.0074 90.9775 86.0554 88.7487 85.7896 86.3085C85.7745 87.3357 86.607 88.4633 87.0729 88.7225C87.5592 89.0505 87.7757 89.0643 87.8966 89.0935C88.1202 89.1214 88.0235 89.0717 87.9128 89.0661C87.6627 89.0434 87.2435 89.0943 86.8655 89.1915C85.9883 89.4301 85.1752 89.6268 84.478 89.8016C82.8437 90.2023 82.1603 90.6851 81.0378 90.9222C76.3501 91.8703 72.5447 92.1796 68.0329 92.9274C63.1198 92.1469 63.5518 90.8681 62.1067 89.6457C60.9866 88.7418 57.8252 86.2983 57.8133 85.3989C57.7071 84.8082 58.7297 84.2832 58.5108 83.614C62.9765 83.7209 65.5856 84.0669 69.9219 84.7312C75.015 84.3782 80.2801 83.7548 84.8322 82.4204C85.7099 82.1588 86.6098 81.9587 87.7188 81.9149C88.2858 81.9037 88.8822 81.9003 89.7702 82.1314C90.2151 82.2621 90.7689 82.4303 91.488 82.9842C92.2039 83.483 93.078 84.8528 93.0608 86.0881C93.1922 88.5792 92.2318 91.2615 90.9015 93.0863C90.0459 93.7183 89.1896 94.1806 88.3588 94.5608C88.3582 94.5603 88.3577 94.5598 88.3572 94.5593C85.5947 96.7527 85.1865 98.1195 84.439 99.3015C83.9765 100.018 83.6875 100.69 83.6286 101.205C83.3612 102.42 83.2038 103.679 83.2816 104.773C83.3007 105.047 83.3487 105.191 83.3661 105.172C83.3875 105.159 83.3355 104.974 83.2565 104.857C83.0617 104.602 83.2189 104.786 83.7657 104.907C85.9348 105.408 90.0333 105.441 92.9014 104.926C99.0537 103.698 105.662 91.7428 112.693 85.3148C112.821 85.1861 112.877 85.1323 113.025 84.9859C113.101 84.9137 113.093 84.9119 113.356 84.6742C113.376 84.6575 113.398 84.6387 113.424 84.6161C113.492 84.5774 113.238 84.7116 113.946 84.2485C114.198 84.1484 114.347 83.8721 115.664 83.7535C116.292 83.7052 117.684 83.9595 118.575 85.0488C119.45 86.1214 119.448 87.1259 119.427 87.6173C119.325 88.6283 119.139 88.7939 119.059 89.0111C118.967 89.1962 118.91 89.2843 118.865 89.3568C118.787 89.48 118.751 89.5275 118.716 89.5756C118.65 89.6638 118.615 89.7069 118.58 89.7498C118.521 89.8212 118.509 89.8344 118.474 89.875C118.247 90.1357 118.074 90.3235 117.89 90.5258C117.526 90.9259 117.172 91.313 116.825 91.6928C116.127 92.4586 115.447 93.2076 114.793 93.9367C113.484 95.3944 112.259 96.7901 111.15 98.0972C110.153 99.2844 108.231 101.68 106.57 104.138C104.564 107.149 103.604 112.194 103.013 113.558C102.753 114.178 102.211 114.273 102.074 114.974C101.612 119.188 101.519 123.545 101.826 127.697C101.843 127.854 101.872 127.941 101.882 127.926C101.881 127.908 101.905 127.716 101.552 127.252C101.221 126.749 100.183 126.324 99.7669 126.366C99.3037 126.365 99.2376 126.428 99.2392 126.404C99.3957 126.303 100.219 125.639 100.852 124.97C105.942 120.651 110.469 114.377 114.782 108.372C118.4 103.215 122.42 97.3306 128.147 93.2121C129.098 92.5131 130.08 91.8571 131.085 91.2461C131.824 90.8112 132.582 90.3703 133.821 90.0366C134.454 89.8924 135.245 89.7029 136.498 89.9797C137.771 90.1905 139.299 91.5777 139.666 92.6804C143.356 101.728 135.929 108.383 134.611 112.424C131.268 120.813 127.392 128.831 122.297 136.493C120.306 139.446 118.462 142.685 117.046 145.815C117.136 145.568 117.285 145.386 117.329 144.491C117.46 143.811 116.71 141.916 115.768 141.392C115.289 141.055 115.007 140.962 114.737 140.87C114.465 140.786 114.296 140.762 114.17 140.745C113.903 140.713 113.795 140.722 113.723 140.724C113.492 140.745 113.746 140.715 113.957 140.645C114.415 140.508 115.035 140.267 115.64 140.002C116.867 139.464 118.135 138.807 119.378 138.102C121.862 136.687 124.27 135.072 126.453 133.309C133.615 127.746 136.625 120.403 138.41 110.583C138.745 109.148 139.122 107.557 139.697 105.855C141.98 98.4981 148.858 92.8997 154.074 90.3708C155.373 89.7046 156.382 89.4232 157.385 89.06C158.02 88.8198 158.693 88.5401 159.654 88.2045C160.144 88.0408 160.702 87.852 161.52 87.7226C162.316 87.6206 163.555 87.4678 165.155 88.2656C165.264 88.3161 165.373 88.3691 165.483 88.4247C165.424 88.6519 165.36 88.877 165.292 89.0997C170.268 92.5119 169.991 97.0489 169.421 101.015C168.859 104.716 165.816 112.616 165.226 114.853C165.069 115.373 164.936 115.558 164.808 115.688C164.625 115.94 164.467 116.085 164.257 116.902C163.744 119.393 161.955 124.863 159.916 127.678C158.396 129.978 155.616 132.849 154.605 134.555C154.378 134.927 154.171 135.26 153.995 135.548C150.348 141.473 145.045 145.916 140.247 149.938C139.157 150.867 138.385 151.904 137.838 153.114C137.183 154.393 136.571 156.537 136.662 157.057C136.723 157.636 136.971 157.931 137.182 158.121C137.239 157.843 137.183 157.304 136.701 156.764C136.34 156.364 135.923 156.143 135.695 156.055C135.474 155.968 135.403 155.965 135.441 155.958C135.519 155.952 135.944 155.924 136.437 155.833C137.45 155.655 138.805 155.286 140.161 154.861C142.895 154.002 145.767 152.922 147.935 151.989C153.551 149.584 159.259 146.813 165.736 144.699C172.013 143.116 173.409 132.868 175.492 123.586C175.506 123.528 175.52 123.469 175.534 123.411C177.045 116.488 181.504 107.785 184.262 100.913C185.773 96.9299 187.193 93.2486 188.482 90.3124C188.983 89.1821 189.326 88.9801 189.672 88.6236C189.798 88.4769 189.926 88.317 190.071 88.1034C190.207 87.9188 190.396 87.5618 190.765 87.0377C190.929 86.8097 191.185 86.4785 191.567 86.1574C191.87 85.8693 193.35 84.8507 195.118 85.492C195.931 85.7789 196.477 86.3256 196.737 86.655C196.949 86.9187 197.085 87.1516 197.192 87.3569C197.297 87.5612 197.373 87.7467 197.431 87.9034C197.474 88.0166 197.51 88.1221 197.543 88.2224C197.607 88.423 197.655 88.6036 197.697 88.7758C197.735 88.9281 197.763 89.037 197.791 89.1611C197.846 89.394 197.895 89.6582 197.932 89.8151C198.086 90.5685 198.189 91.0705 198.203 91.5733C198.391 98.067 196.692 111 194.826 116.606C194.486 117.668 193.839 118.325 193.657 118.975C193.566 119.29 193.652 120.126 193.334 121.187C193.252 121.46 193.169 121.724 193.084 121.982C191.649 126.637 188.925 131.487 188.28 133.553C188.278 133.559 188.281 133.54 188.285 133.485C188.287 133.434 188.297 133.339 188.279 133.118C188.269 133.011 188.251 132.88 188.214 132.721C188.178 132.559 188.09 132.264 187.941 131.974C187.698 131.421 186.875 130.545 186.004 130.269C185.223 129.994 184.665 130.062 184.383 130.101C184.12 130.144 183.965 130.2 183.882 130.233C183.739 130.292 183.758 130.297 183.804 130.27C184.05 130.14 184.634 129.692 185.158 129.228C186.234 128.279 187.382 127.104 188.539 125.826C192.426 121.473 196.268 116.243 199.001 110.796C202.561 103.797 202.936 95.702 206.004 86.4111C206.077 86.2278 206.157 86.0254 206.264 85.7789C206.383 85.5202 206.472 85.2749 206.815 84.7272C206.908 84.5867 207.014 84.4259 207.227 84.1783C207.437 83.9573 207.688 83.6113 208.512 83.1679C208.924 82.9585 209.557 82.7237 210.362 82.7242C211.175 82.7215 211.933 82.9876 212.469 83.3207C213.436 83.9507 213.676 84.4548 213.883 84.7658C214.243 85.4072 214.281 85.6394 214.37 85.9109C214.437 86.1419 214.478 86.3281 214.511 86.4953C214.728 87.7012 214.734 88.3866 214.778 89.1992C214.837 90.6098 214.878 91.9767 214.902 93.3294C214.971 97.2266 214.059 99.8992 214.067 100.441C214.074 101.643 214.682 102.418 214.74 104.884C214.781 107.042 214.679 109.446 214.348 111.977C214.179 113.248 213.951 114.562 213.619 115.904C213.454 116.571 213.256 117.26 213.034 117.929C212.928 118.25 212.806 118.592 212.712 118.857C212.615 119.099 212.558 119.392 212.626 118.998C212.609 119.08 212.62 119.106 212.602 118.937C212.575 118.804 212.553 118.328 212.013 117.657C211.473 116.977 210.564 116.688 210.244 116.678C209.878 116.647 209.827 116.692 209.842 116.686C210.018 116.68 210.932 116.297 211.655 115.883C213.195 115.021 214.736 113.926 216.074 112.881C218.916 110.665 222.414 106.925 225.261 104.521C225.536 104.288 225.882 104.01 226.248 103.724C229.178 101.419 233.954 98.7487 234.297 98.0004C234.657 97.4669 234.452 96.7923 234.72 96.4169ZM205.421 115.612C204.816 114.66 202.611 120.089 204.202 118.509C204.57 118.169 205.605 115.869 205.421 115.612ZM162.581 94.0651C162.39 94.2937 162.192 94.5157 161.986 94.7305C162.217 94.7953 162.465 94.9432 162.701 95.261C162.804 95.0057 162.886 94.7495 162.929 94.4797C162.826 94.3225 162.713 94.189 162.581 94.0651Z" fill="white"/>
</svg>
