<svg width="228" height="44" viewBox="0 0 228 44" fill="none" xmlns="http://www.w3.org/2000/svg">
<g clip-path="url(#clip0_651_34)">
<path d="M2 2H226V42H2V2Z" fill="#271E11"/>
<path d="M0.502217 27.8898C0.484226 27.2605 0.581504 26.3723 0.586629 25.6299C0.609124 22.5202 0.676557 21.3678 0.714803 18.5542C0.771611 14.3823 0.643755 2.00046 1.31958 2.00015C1.31956 2.00015 1.3196 2.00015 1.31958 2.00015C1.32621 2.00015 1.33296 2.00134 1.33974 2.00375C1.46849 2.04715 1.60905 3.10028 1.75466 3.25656C1.90033 3.41259 2.84071 3.29558 2.89358 4.79135C2.96325 6.9601 2.72213 12.1627 2.73281 13.3194C2.74018 14.1102 2.82567 15.0837 2.84085 16.0949C2.88977 19.3552 2.82725 21.0611 3.05947 23.9985C2.9371 25.1734 2.81472 26.3483 2.69235 27.5233C2.74909 29.0562 2.58769 31.3796 2.59658 32.3109C2.60389 33.075 2.70066 33.5227 2.70516 34.319C2.71075 35.2122 2.6063 36.5838 2.62203 38.2084C2.64166 40.274 2.79792 41.0227 2.88202 42.0002L2 41.1182C2.28286 41.0938 2.58487 41.0755 2.94349 41.0684C4.60065 41.0352 7.17769 41.1724 9.29214 41.0835C9.55733 41.0558 9.82255 41.028 10.0877 41.0002C9.89775 40.9374 9.70772 40.8746 9.51773 40.8118C10.5827 40.7826 11.0407 40.9113 12.0193 40.9136C13.1708 40.9164 13.7582 40.7944 14.533 40.795C15.1677 40.7955 16.0283 40.8934 16.8513 40.8873C18.0512 40.8788 17.7887 40.7375 18.4344 40.7111C18.6921 40.7008 23.4549 40.6229 23.7236 40.6218C25.7672 40.6162 25.9451 40.8096 27.5747 40.8265C32.0943 40.8726 36.7339 40.7163 40.9145 40.6573C42.7813 40.6309 44.7291 40.6421 46.5904 40.673C43.6586 41.1679 50.1469 41.5531 47.7204 40.7787C49.7914 40.8888 51.2597 40.6798 53.2231 40.7151C54.4929 40.7382 55.3717 40.8456 57.1849 40.8428C60.4022 40.8371 63.9215 40.5319 64.8468 41.0835C68.6236 40.9863 71.8947 41.1864 73.256 40.6994C74.2299 40.6696 76.7257 40.9597 77.818 40.9991C78.8511 41.0363 86.7775 41.1672 88.0741 41.1746C89.3709 41.1819 91.6408 41.1898 92.7329 41.1471C94.105 41.0942 95.0637 40.5891 97.5065 41.1797C100.347 41.1319 101.359 41.1488 104 41.2174C104.478 41.2298 104.532 41.3175 104.812 41.3176C105.387 41.3176 106.367 41.2528 107.394 41.2449C109.083 41.2319 110.048 41.4164 109.859 41.1346C110.973 41.0874 112.087 41.0402 113.201 40.9929C113.592 41.0473 113.982 41.1017 114.373 41.1561C114.969 41.0968 115.564 41.0375 116.16 40.9783C115.46 41.386 119.652 41.1454 118.291 40.9114C120.45 40.9958 122.609 41.0801 124.768 41.1645C124.467 41.6279 129.509 41.218 129.085 40.966C129.332 40.9664 129.579 40.9667 129.826 40.9671C131.989 41.0903 133.975 40.9895 136.611 41.0722C139.248 41.1549 139 41.2 139.802 41.4131C140.422 41.4009 141.043 41.3887 141.663 41.3765C144.918 40.7922 144.343 41.8039 149.917 41.3556C151.698 41.7229 156.088 41.53 158.999 41.4186C159.338 41.4057 159.343 41.3344 159.794 41.3124C160.897 41.2596 163.712 41.3512 163.615 41.1213C164.59 41.1878 165.564 41.2543 166.538 41.3209C167.334 41.279 168.13 41.2372 168.927 41.1954C168.923 41.1236 168.919 41.0519 168.915 40.9801C170.518 41.2247 173.038 41.1307 174.28 41.1892C174.528 41.2011 174.581 41.3001 175.35 41.3271C176.248 41.3591 177.923 41.3298 178.994 41.3608C179.41 41.2511 179.826 41.1414 180.242 41.0317C182.157 40.9722 182.83 41.2617 183.954 41.2842C184.157 41.2881 187.85 41.2673 188.049 41.2612C189.678 41.2122 189.217 40.9655 193.929 41.0184C194.768 41.0279 195.446 41.1133 196.205 41.1167C197.544 41.1229 201.581 40.9293 201.899 40.7505C203.523 40.9743 207.871 40.8828 209.152 40.9475C209.538 40.9674 209.625 41.11 210.813 41.1403C211.776 41.1651 214.257 41.0509 215.478 41.07C216.775 41.0908 217.238 41.2106 217.819 41.219C218.367 41.2269 218.873 41.1302 219.621 41.1308C221.956 41.1342 224.07 41.2898 225.915 41.2927C225.944 41.2927 225.972 41.2927 226 41.2927L225.293 42.0002C225.291 39.3662 225.009 37.035 224.884 34.8257C224.902 34.2715 224.964 33.727 224.964 33.1459C224.973 25.9578 225.026 17.8492 225.087 10.6396C225.106 8.44049 225.28 4.09323 225.213 2.00015L226 2.78703C224.907 2.82183 224.429 2.92222 225.191 3.14458C224.028 3.25813 215.571 2.99673 213.962 2.99279C212.354 2.98889 211.079 3.10515 209.815 3.10686C206 3.11193 203.314 3.02815 198.67 3.12939C197.471 3.15585 196.186 3.29359 195.476 3.29199C194.621 3.28974 193.7 3.15653 192.592 3.14806C189.95 3.12894 185.027 3.17276 182.493 3.14971C182.03 3.14521 181.867 3.02825 181.206 2.99169C178.628 2.84885 175.74 2.86124 176.251 3.23467C172.948 3.02266 169.892 3.21605 166.831 3.2279C160.358 3.25208 148.567 3.16492 142.928 3.32183C139.373 3.42082 139.464 3.58831 134.229 3.44378C133.067 3.41173 131.91 3.36849 130.501 3.33025C127.198 3.24027 124.167 2.93086 121.649 3.3037C117.98 3.207 115.058 3.27558 112.335 2.95672C112.014 3.0332 111.693 3.10967 111.373 3.18615C110.923 3.18804 110.473 3.18993 110.023 3.19183C109.883 3.11889 109.742 3.04595 109.602 2.97301C106.38 2.95337 102.291 3.25316 99.5635 3.25097C94.9901 3.24759 83.2107 3.13113 78.874 3.03271C76.5717 2.98044 76.4478 3.13666 75.1297 2.81554C74.6148 2.83788 74.0998 2.86022 73.5848 2.88256C73.2626 2.95287 72.9403 3.02319 72.618 3.0935C69.6643 3.09631 66.1608 2.98709 63.3468 2.98821C58.2193 2.99046 50.5196 3.18398 45.3704 3.05688C44.0793 3.02482 42.4654 2.87982 41.2011 2.88146C39.361 2.88371 38.9137 3.12434 36.5786 3.12884C32.554 3.13615 25.0589 2.85661 21.2548 2.87798C20.125 2.88417 19.5979 2.97371 18.8177 2.98327C15.5464 3.02432 12.8606 3.01703 9.72376 3.15539C6.35562 2.9248 6.64659 2.62716 5.60278 2.32683C4.81172 2.10016 2.38607 1.57485 2.04174 1.37633C1.79987 1.23686 2.70294 1.05744 2.36401 0.903921C6.39933 0.781318 8.09464 0.916288 11.3713 1.13225C17.4226 1.12365 23.4738 1.11504 29.525 1.10643C30.0755 1.19023 30.6261 1.27404 31.1766 1.35784C31.1766 1.35765 31.1766 1.35802 31.1766 1.35784C33.5005 1.45455 34.4854 1.23928 35.7387 1.1903C47.7372 0.721244 71.3529 1.08836 84.562 1.14122C87.4085 1.15247 96.6678 1.03954 98.6209 1.17565C99.1266 1.21109 99.2672 1.34031 99.8052 1.34594C104.612 1.26909 109.418 1.19225 114.225 1.11541C124.109 1.31619 134.327 1.15037 144.286 1.11943C171.231 1.03563 197.907 0.93378 224.411 0.964712C224.928 0.965336 225.458 0.964913 226 0.963711L227.031 0.957856L227.036 2.00015C227.047 6.82958 227.12 12.5397 227.064 17.0487C227.038 19.1415 226.83 20.0135 226.985 22.7629C226.929 22.7917 226.873 22.8206 226.817 22.8495C226.885 25.2488 227.012 26.7821 227.025 29.472C227.036 31.7373 227.044 37.7305 227.022 39.7322C227.012 40.7705 226.907 40.3837 226.908 41.3516C226.908 41.544 226.91 41.7619 226.914 42.0002L226.919 42.9087L226 42.9139C224.186 42.9413 221.185 43.0541 219.164 43.0541C217.092 43.0541 213.6 42.9338 212.008 42.9512C206.272 43.0131 200.025 43.1915 193.912 43.1437C192.224 43.1301 190.052 42.9947 189.524 42.9985C188.491 43.0063 188.183 43.1379 187.489 43.1548C183.965 43.2403 178.472 43.084 175.018 43.0778C163.762 43.0575 151.837 43.1149 140.63 43.0908C133.549 43.0756 121.782 43.0987 115.245 42.9998C113.836 42.9784 114.211 42.8342 113.028 42.8342C111.715 42.8343 111.004 42.9316 110.391 42.9395C106.146 42.9946 96.7734 43.0931 92.7651 42.9935C92.0017 42.9744 91.4478 42.8615 90.9907 42.8619C90.7593 42.8619 90.2366 42.939 89.5103 42.9468C83.0967 43.0166 78.4205 42.9716 72.1361 42.9452C60.1002 42.8951 46.1543 43.0385 33.5105 42.9609C30.7556 42.9441 28.8664 42.7206 28.4791 42.7229C27.629 42.7274 27.0848 42.8777 25.3632 42.9148C19.6387 43.0368 11.9292 42.8764 6.48439 42.9518C5.15307 42.9701 3.57518 43.0262 2 43.0832L0.923232 43.0893L0.917044 42.0002C0.858872 40.3927 0.799659 38.7881 0.77834 37.4511C0.7446 35.3368 0.819427 30.3436 0.735677 29.4065C0.685078 28.8364 0.522562 28.5726 0.502217 27.8898ZM59.1165 40.9682C58.7399 41.228 62.6983 41.0121 61.2133 40.8726C60.8788 40.8412 59.2139 40.9007 59.1165 40.9682ZM225.419 23.5262C225.345 23.5625 225.271 23.5987 225.197 23.635C225.227 24.1547 225.258 24.6743 225.289 25.194C225.334 24.9019 225.378 24.6099 225.423 24.3178C225.422 24.0539 225.42 23.7901 225.419 23.5262Z" fill="white"/>
</g>
<defs>
<clipPath id="clip0_651_34">
<rect width="228" height="44" fill="white"/>
</clipPath>
</defs>
</svg>
