<svg width="151" height="206" viewBox="0 0 151 206" fill="none" xmlns="http://www.w3.org/2000/svg">
<mask id="mask0_513_37" style="mask-type:alpha" maskUnits="userSpaceOnUse" x="0" y="0" width="151" height="206">
<rect width="150.104" height="206" rx="5" fill="url(#paint0_radial_513_37)"/>
</mask>
<g mask="url(#mask0_513_37)">
<path d="M64.2715 -29.6653L63.1015 -36.4098C62.7886 -38.2131 62.8324 -40.0602 63.2303 -41.8467L63.3372 -42.3266C63.4556 -42.8581 63.6169 -43.3791 63.8195 -43.8845C64.4916 -45.5607 65.6215 -47.0402 67.0542 -48.1397C67.5004 -48.4821 67.98 -48.7914 68.4765 -49.0556L68.8115 -49.2338C70.296 -50.0237 71.917 -50.5245 73.5883 -50.7098C74.5612 -50.8177 75.543 -50.8177 76.5158 -50.7098C78.1872 -50.5245 79.8082 -50.0237 81.2927 -49.2338L81.6276 -49.0556C82.1241 -48.7914 82.6037 -48.4821 83.0499 -48.1397C84.4826 -47.0402 85.6125 -45.5607 86.2846 -43.8844C86.4872 -43.3791 86.6485 -42.8581 86.7669 -42.3266L86.8738 -41.8467C87.2718 -40.0602 87.3155 -38.2131 87.0027 -36.4097L85.8326 -29.6653C85.5986 -28.3165 85.1681 -27.0094 84.5547 -25.7856L84.3911 -25.459C83.6438 -23.9679 82.636 -22.6224 81.4154 -21.4858L80.7651 -20.8803C80.7994 -17.9337 82.3114 -15.1619 84.7893 -13.567C86.6586 -12.3639 88.915 -11.9153 91.1024 -12.3121L92.61 -12.5856C94.2003 -12.874 95.8324 -12.8385 97.4085 -12.4811L97.8618 -12.3783C99.2062 -12.0735 100.471 -11.4892 101.575 -10.6633C103.364 -9.32509 105.555 -8.63631 107.787 -8.71055L108.816 -8.74477C110.258 -8.79271 111.697 -8.59578 113.073 -8.16236L114.35 -7.75986C114.92 -7.58044 115.513 -7.48914 116.111 -7.48914C116.978 -7.48914 117.835 -7.68188 118.619 -8.05344L123.611 -10.4189C125.386 -11.26 127.318 -11.7182 129.281 -11.7637L135.843 -11.916L143.83 -11.0306L147.158 -10.3666L159.503 -9.58462C160.588 -9.51592 161.661 -9.32115 162.7 -9.00424L168.698 -7.17607C168.98 -7.08998 169.272 -7.0382 169.567 -7.02187L173.141 -6.82374C174.752 -6.73445 175.553 -4.82861 174.489 -3.61553C174.177 -3.25917 173.744 -3.02991 173.274 -2.97126L170.105 -2.57611C169.159 -2.45813 168.201 -2.47165 167.259 -2.61629L160.342 -3.67789C160.132 -3.71009 159.92 -3.71814 159.708 -3.7019L157.858 -3.55997C157.454 -3.52895 157.142 -3.19197 157.142 -2.78664C157.142 -2.54221 157.257 -2.31208 157.453 -2.16563L157.715 -1.96997C157.921 -1.81571 158.165 -1.72007 158.421 -1.69317L161.525 -1.36725C162 -1.31728 162.462 -1.17514 162.883 -0.948742L163.929 -0.387169C164.651 0.000888824 165.057 0.795937 164.949 1.60873C164.804 2.6935 163.802 3.45203 162.719 3.29762L160.332 2.95751C160.129 2.92847 159.923 2.9139 159.717 2.9139H153.148C150.968 2.9139 148.826 2.34146 146.936 1.25384C145.047 0.166218 142.905 -0.406219 140.724 -0.406219H140.102C138.028 -0.406219 135.98 0.0544167 134.106 0.942406L129.784 2.9907C128.655 3.52555 127.441 3.85701 126.197 3.96981C124.236 4.14772 122.263 3.77629 120.501 2.89708L120.044 2.6695C118.324 1.81126 116.427 1.36451 114.505 1.36451H113.657L111.383 1.67388C109.66 1.90827 107.908 1.81966 106.218 1.41258L104.533 1.00684C103.081 0.657295 101.583 0.542194 100.095 0.66589L98.3767 0.808762C97.4775 0.883518 96.5994 1.12096 95.785 1.50951C93.3885 2.65296 91.7815 4.98517 91.5664 7.63175L91.3546 10.2375C91.2839 11.1074 91.1185 11.9669 90.8612 12.8009L89.9498 15.7562C89.6332 16.7827 89.1995 17.7694 88.6572 18.6967L86.985 21.5566C86.5804 22.2486 86.3672 23.0358 86.3672 23.8373C86.3672 25.0376 86.8447 26.1885 87.6944 27.0361L90.457 29.7922C90.9828 30.3168 91.4473 30.8993 91.8416 31.5287C92.1847 32.0765 92.5811 32.5889 93.0251 33.0586L98.2622 38.6001C99.2017 39.5942 99.9905 40.7206 100.603 41.9434L100.788 42.3127L108.554 53.8224L111.266 59.2344C111.967 60.6336 112.429 62.1405 112.632 63.6923L113.501 70.3387C113.604 71.1313 113.64 71.9313 113.607 72.7299L113.056 86.1025C113.013 87.1559 112.851 88.201 112.573 89.218L111.102 94.5985C110.592 96.4618 110.493 98.4134 110.812 100.319C110.933 101.046 110.994 101.782 110.994 102.519C110.994 104.127 111.284 105.723 111.85 107.228L112.119 107.946C112.696 109.48 113.537 110.9 114.605 112.143L117.598 115.626C118.076 116.183 118.509 116.776 118.894 117.4L122.143 122.667C123.131 124.269 123.786 126.054 124.069 127.915L124.591 131.354C124.697 132.049 124.75 132.752 124.75 133.456V139.043C124.75 140.216 124.602 141.384 124.311 142.521L122.81 148.374C122.478 149.669 122.333 151.006 122.38 152.343L122.665 160.449C122.723 162.099 122.489 163.747 121.973 165.315L118.873 174.74C118.408 176.154 117.088 177.11 115.599 177.11C114.164 177.11 112.878 176.22 112.373 174.876L108.662 165.004C108.149 163.639 107.853 162.202 107.783 160.745L107.31 150.835C107.252 149.616 107.035 148.411 106.664 147.248L106.202 145.801C105.848 144.691 105.358 143.63 104.741 142.642L99.3391 133.987C98.6812 132.933 98.1666 131.796 97.8088 130.606L96.558 126.446C95.983 124.534 95.8237 122.521 96.0907 120.543L96.9734 114C97.1487 112.701 97.0825 111.381 96.7783 110.107C96.3528 108.324 95.4741 106.681 94.2272 105.338L92.0868 103.031C91.0902 101.958 90.2683 100.734 89.6511 99.4056L86.9867 93.6695C86.5748 92.7828 86.257 91.8555 86.0383 90.9026L82.1517 73.9645L81.0564 68.8649C80.5588 66.5485 78.2755 65.0758 75.96 65.578C75.3617 65.7077 74.7425 65.7077 74.1441 65.578C71.8287 65.0758 69.5453 66.5485 69.0478 68.8649L67.9524 73.9645L64.0658 90.9026C63.8472 91.8555 63.5293 92.7828 63.1175 93.6695L60.453 99.4056C59.8358 100.734 59.014 101.958 58.0174 103.031L55.8769 105.338C54.6301 106.681 53.7513 108.324 53.3258 110.107C53.0216 111.381 52.9555 112.701 53.1307 114L54.0135 120.543C54.2805 122.521 54.1211 124.534 53.5462 126.446L52.2953 130.606C51.9375 131.796 51.4229 132.933 50.7651 133.987L45.3632 142.642C44.7466 143.63 44.2557 144.691 43.9018 145.801L43.44 147.248C43.0694 148.411 42.8522 149.616 42.794 150.835L42.321 160.745C42.2514 162.202 41.9548 163.639 41.4417 165.004L37.731 174.876C37.2258 176.22 35.9405 177.11 34.5048 177.11C33.0163 177.11 31.6959 176.154 31.2309 174.74L28.131 165.315C27.6151 163.747 27.3808 162.099 27.4388 160.449L27.7239 152.343C27.7709 151.006 27.6261 149.669 27.2938 148.374L25.793 142.521C25.5017 141.384 25.3543 140.216 25.3543 139.043V133.456C25.3543 132.752 25.4074 132.049 25.513 131.354L26.0353 127.914C26.318 126.054 26.9729 124.269 27.9611 122.667L31.2099 117.4C31.595 116.776 32.0285 116.183 32.5064 115.626L35.4989 112.143C36.5668 110.9 37.4081 109.48 37.9847 107.946L38.2544 107.228C38.8201 105.723 39.1099 104.127 39.1099 102.519C39.1099 101.782 39.171 101.046 39.2924 100.319C39.6107 98.4134 39.5117 96.4618 39.0024 94.5985L37.5315 89.218C37.2535 88.2011 37.0912 87.1559 37.0478 86.1025L36.497 72.7299C36.4641 71.9313 36.4996 71.1313 36.6033 70.3387L37.4722 63.6923C37.6751 62.1405 38.1368 60.6336 38.838 59.2344L41.5504 53.8224L49.3157 42.3127L49.5008 41.9434C50.1137 40.7206 50.9024 39.5942 51.8419 38.6001L57.0791 33.0586C57.523 32.5889 57.9194 32.0765 58.2625 31.5287C58.6569 30.8993 59.1214 30.3168 59.6472 29.7922L62.3761 27.0697C63.2473 26.2005 63.737 25.0205 63.737 23.7899C63.737 23.0177 63.544 22.2579 63.1755 21.5793L61.3998 18.3088C61.0357 17.6381 60.727 16.9388 60.4768 16.2178L59.3432 12.9505C59.0196 12.0181 58.8155 11.0484 58.7355 10.0647L58.5378 7.63176C58.3227 4.98518 56.7156 2.65296 54.3191 1.50951C53.5048 1.12095 52.6266 0.883518 51.7274 0.808762L50.0089 0.66589C48.521 0.542194 47.0229 0.657295 45.5713 1.00684L43.8865 1.41258C42.196 1.81966 40.4445 1.90827 38.7216 1.67388L36.4475 1.36451H35.5994C33.6767 1.36451 31.7802 1.81126 30.0597 2.6695L29.6035 2.89708C27.8409 3.77629 25.8684 4.14772 23.9068 3.96981C22.6629 3.85701 21.4487 3.52555 20.3201 2.99071L15.9976 0.942406C14.1238 0.0544167 12.076 -0.406219 10.0024 -0.406219H9.3799C7.19958 -0.406219 5.05746 0.166218 3.16779 1.25384C1.27811 2.34146 -0.864 2.9139 -3.04432 2.9139H-9.61318C-9.81897 2.9139 -10.0245 2.92847 -10.2282 2.95751L-12.6146 3.29762C-13.6981 3.45203 -14.6996 2.6935 -14.8446 1.60873C-14.9532 0.795937 -14.5469 0.00088501 -13.8245 -0.387173L-12.7791 -0.948738C-12.3577 -1.17513 -11.8962 -1.31728 -11.4204 -1.36725L-8.31675 -1.69317C-8.06067 -1.72007 -7.81662 -1.81571 -7.61045 -1.96997L-7.34894 -2.16563C-7.15323 -2.31208 -7.038 -2.54221 -7.038 -2.78664C-7.038 -3.19197 -7.35011 -3.52895 -7.75426 -3.55997L-9.60382 -3.7019C-9.81541 -3.71814 -10.0282 -3.71009 -10.2379 -3.67789L-17.1547 -2.61629C-18.097 -2.47165 -19.0548 -2.45813 -20.0009 -2.57611L-23.1696 -2.97126C-23.6399 -3.02991 -24.0724 -3.25917 -24.385 -3.61553C-25.4489 -4.82861 -24.6483 -6.73445 -23.0372 -6.82374L-19.4625 -7.02187C-19.1677 -7.0382 -18.876 -7.08998 -18.5936 -7.17607L-12.5963 -9.00424C-11.5567 -9.32115 -10.4837 -9.51592 -9.39907 -9.58462L2.94592 -10.3666L6.2739 -11.0306L14.261 -11.916L20.8229 -11.7637C22.7865 -11.7182 24.7185 -11.26 26.4934 -10.4189L31.4851 -8.05344C32.2691 -7.68188 33.1259 -7.48914 33.9936 -7.48914C34.5907 -7.48914 35.1843 -7.58044 35.7538 -7.75986L37.0314 -8.16236C38.4071 -8.59578 39.8464 -8.79271 41.288 -8.74477L42.3168 -8.71055C44.5493 -8.63631 46.7405 -9.32509 48.529 -10.6633C49.6328 -11.4892 50.898 -12.0735 52.2423 -12.3783L52.6956 -12.4811C54.2718 -12.8385 55.9039 -12.874 57.4941 -12.5856L59.0017 -12.3121C61.1891 -11.9153 63.4455 -12.3639 65.3148 -13.567C67.7927 -15.1619 69.3047 -17.9337 69.339 -20.8803L68.6888 -21.4858C67.4681 -22.6224 66.4604 -23.9679 65.7131 -25.459L65.5494 -25.7856C64.9361 -27.0094 64.5055 -28.3165 64.2715 -29.6653Z" fill="#271E11" fill-opacity="0.71"/>
<path d="M69.339 -20.8803L70.171 -20.1056L72.655 -18.247C73.3469 -17.7293 74.1879 -17.4495 75.0521 -17.4495V-17.4495V-17.4495C75.9162 -17.4495 76.7572 -17.7293 77.4491 -18.247L79.9331 -20.1056L80.7651 -20.8803M69.339 -20.8803V-20.8803C69.3047 -17.9337 67.7927 -15.1619 65.3148 -13.567V-13.567C63.4455 -12.3639 61.1891 -11.9153 59.0017 -12.3121L57.4941 -12.5856C55.9039 -12.874 54.2718 -12.8385 52.6956 -12.4811L52.2423 -12.3783C50.898 -12.0735 49.6328 -11.4892 48.529 -10.6633V-10.6633C46.7405 -9.32509 44.5493 -8.63631 42.3168 -8.71055L41.288 -8.74477C39.8464 -8.79271 38.4071 -8.59578 37.0314 -8.16236L35.7538 -7.75986C35.1843 -7.58044 34.5907 -7.48914 33.9936 -7.48914V-7.48914C33.1259 -7.48914 32.2691 -7.68188 31.4851 -8.05343L26.4934 -10.4189C24.7185 -11.26 22.7865 -11.7182 20.8229 -11.7637L14.261 -11.916L6.2739 -11.0306L2.94592 -10.3666L-9.39907 -9.58462C-10.4837 -9.51592 -11.5567 -9.32115 -12.5963 -9.00424L-18.5936 -7.17607C-18.876 -7.08998 -19.1677 -7.0382 -19.4625 -7.02187L-23.0372 -6.82374C-24.6483 -6.73445 -25.4489 -4.82861 -24.385 -3.61553V-3.61553C-24.0724 -3.25917 -23.6399 -3.02992 -23.1696 -2.97126L-20.0009 -2.57611C-19.0548 -2.45813 -18.097 -2.47165 -17.1547 -2.61629L-10.2379 -3.67789C-10.0282 -3.71009 -9.81541 -3.71814 -9.60382 -3.7019L-7.75426 -3.55997C-7.35011 -3.52895 -7.038 -3.19197 -7.038 -2.78664V-2.78664C-7.038 -2.54221 -7.15323 -2.31207 -7.34894 -2.16564L-7.61045 -1.96997C-7.81662 -1.81571 -8.06066 -1.72007 -8.31675 -1.69317L-11.4204 -1.36725C-11.8962 -1.31728 -12.3577 -1.17513 -12.7791 -0.948739L-13.8245 -0.387173C-14.5469 0.000885953 -14.9532 0.795936 -14.8446 1.60873V1.60873C-14.6996 2.6935 -13.6981 3.45203 -12.6146 3.29762L-10.2282 2.95751C-10.0245 2.92847 -9.81897 2.9139 -9.61318 2.9139H-3.04432C-0.864001 2.9139 1.27811 2.34147 3.16779 1.25384V1.25384C5.05747 0.166216 7.19958 -0.40622 9.3799 -0.40622H10.0024C12.076 -0.40622 14.1238 0.0544168 15.9976 0.942405L20.3201 2.99071C21.4487 3.52555 22.6629 3.857 23.9068 3.96982V3.96982C25.8684 4.14772 27.8409 3.77629 29.6035 2.89708L30.0597 2.6695C31.7802 1.81125 33.6767 1.36451 35.5994 1.36451H36.4475L38.7216 1.67388C40.4445 1.90827 42.196 1.81966 43.8865 1.41258L45.5713 1.00684C47.0229 0.657297 48.521 0.542193 50.0089 0.665891L51.7274 0.808762C52.6266 0.883518 53.5048 1.12095 54.3191 1.50951V1.50951C56.7156 2.65296 58.3227 4.98518 58.5378 7.63176L58.7355 10.0647C58.8155 11.0484 59.0196 12.0181 59.3432 12.9505L60.4768 16.2178C60.727 16.9388 61.0357 17.6381 61.3998 18.3088L63.1755 21.5793C63.544 22.2579 63.737 23.0177 63.737 23.7899V23.7899C63.737 25.0205 63.2473 26.2005 62.3761 27.0697L59.6472 29.7922C59.1214 30.3168 58.6569 30.8993 58.2625 31.5287V31.5287C57.9194 32.0765 57.523 32.5889 57.0791 33.0586L51.8419 38.6001C50.9024 39.5942 50.1137 40.7206 49.5008 41.9434L49.3157 42.3127L41.5504 53.8224L38.838 59.2344C38.1368 60.6336 37.6751 62.1405 37.4722 63.6923L36.6033 70.3387C36.4996 71.1313 36.4641 71.9313 36.497 72.7299L37.0478 86.1025C37.0912 87.1559 37.2535 88.2011 37.5315 89.2181L39.0024 94.5985C39.5117 96.4618 39.6107 98.4134 39.2924 100.319V100.319C39.171 101.046 39.1099 101.782 39.1099 102.519V102.519C39.1099 104.127 38.8201 105.723 38.2544 107.228L37.9847 107.946C37.4081 109.48 36.5668 110.9 35.4989 112.143L32.5064 115.626C32.0285 116.183 31.595 116.776 31.2099 117.4L27.9611 122.667C26.9729 124.269 26.318 126.054 26.0353 127.914L25.513 131.354C25.4074 132.049 25.3543 132.752 25.3543 133.456V139.043C25.3543 140.216 25.5017 141.384 25.793 142.521L27.2938 148.374C27.6261 149.669 27.7709 151.006 27.7239 152.343L27.4388 160.449C27.3808 162.099 27.6151 163.747 28.131 165.315L31.2309 174.74C31.6959 176.154 33.0163 177.11 34.5048 177.11V177.11C35.9405 177.11 37.2258 176.22 37.731 174.876L41.4417 165.004C41.9548 163.639 42.2514 162.202 42.321 160.745L42.794 150.835C42.8522 149.616 43.0694 148.411 43.44 147.248L43.9018 145.801C44.2557 144.691 44.7466 143.63 45.3632 142.642L50.7651 133.987C51.4229 132.933 51.9375 131.796 52.2953 130.606L53.5462 126.446C54.1212 124.534 54.2805 122.521 54.0135 120.543L53.1307 114C52.9555 112.701 53.0216 111.381 53.3258 110.107V110.107C53.7513 108.324 54.6301 106.681 55.8769 105.338L58.0174 103.031C59.014 101.958 59.8358 100.734 60.453 99.4056L63.1175 93.6695C63.5293 92.7828 63.8472 91.8555 64.0658 90.9026L67.9524 73.9645L69.0478 68.8649C69.5453 66.5485 71.8287 65.0758 74.1441 65.578V65.578C74.7425 65.7077 75.3617 65.7077 75.96 65.578V65.578C78.2755 65.0758 80.5588 66.5485 81.0564 68.8649L82.1518 73.9645L86.0383 90.9026C86.257 91.8555 86.5748 92.7828 86.9867 93.6695L89.6511 99.4056C90.2683 100.734 91.0902 101.958 92.0868 103.031L94.2272 105.338C95.4741 106.681 96.3528 108.324 96.7783 110.107V110.107C97.0825 111.381 97.1487 112.701 96.9734 114L96.0906 120.543C95.8237 122.521 95.983 124.534 96.558 126.446L97.8088 130.606C98.1666 131.796 98.6812 132.933 99.3391 133.987L104.741 142.642C105.358 143.63 105.848 144.691 106.202 145.801L106.664 147.248C107.035 148.411 107.252 149.616 107.31 150.835L107.783 160.745C107.853 162.202 108.149 163.639 108.662 165.004L112.373 174.876C112.878 176.22 114.164 177.11 115.599 177.11V177.11C117.088 177.11 118.408 176.154 118.873 174.74L121.973 165.315C122.489 163.747 122.723 162.099 122.665 160.449L122.38 152.343C122.333 151.006 122.478 149.669 122.81 148.374L124.311 142.521C124.602 141.384 124.75 140.216 124.75 139.043V133.456C124.75 132.752 124.697 132.049 124.591 131.354L124.069 127.915C123.786 126.054 123.131 124.269 122.143 122.667L118.894 117.4C118.509 116.776 118.076 116.183 117.598 115.626L114.605 112.143C113.537 110.9 112.696 109.48 112.119 107.946L111.85 107.228C111.284 105.723 110.994 104.127 110.994 102.519V102.519C110.994 101.782 110.933 101.046 110.812 100.319V100.319C110.493 98.4134 110.592 96.4618 111.102 94.5985L112.573 89.218C112.851 88.2011 113.013 87.1559 113.056 86.1025L113.607 72.7299C113.64 71.9313 113.604 71.1313 113.501 70.3387L112.632 63.6923C112.429 62.1405 111.967 60.6336 111.266 59.2344L108.554 53.8224L100.788 42.3127L100.603 41.9434C99.9905 40.7206 99.2017 39.5942 98.2622 38.6001L93.0251 33.0586C92.5811 32.5889 92.1847 32.0765 91.8416 31.5287V31.5287C91.4473 30.8993 90.9828 30.3168 90.457 29.7922L87.6944 27.0361C86.8447 26.1885 86.3672 25.0376 86.3672 23.8373V23.8373C86.3672 23.0358 86.5804 22.2486 86.985 21.5566L88.6573 18.6967C89.1995 17.7694 89.6332 16.7827 89.9498 15.7562L90.8612 12.8009C91.1185 11.9669 91.2839 11.1074 91.3546 10.2375L91.5664 7.63175C91.7815 4.98517 93.3885 2.65296 95.785 1.50952V1.50952C96.5994 1.12096 97.4775 0.883518 98.3767 0.808762L100.095 0.665891C101.583 0.542193 103.081 0.657297 104.533 1.00684L106.218 1.41258C107.908 1.81966 109.66 1.90827 111.383 1.67388L113.657 1.36451H114.505C116.427 1.36451 118.324 1.81126 120.044 2.6695L120.501 2.89708C122.263 3.77629 124.236 4.14772 126.197 3.96982V3.96982C127.441 3.857 128.655 3.52555 129.784 2.99071L134.106 0.942406C135.98 0.0544173 138.028 -0.40622 140.102 -0.40622H140.724C142.905 -0.40622 145.047 0.166216 146.936 1.25384V1.25384C148.826 2.34147 150.968 2.9139 153.148 2.9139H159.717C159.923 2.9139 160.129 2.92847 160.332 2.95751L162.719 3.29762C163.802 3.45203 164.804 2.6935 164.949 1.60873V1.60873C165.057 0.795936 164.651 0.000886946 163.929 -0.38717L162.883 -0.94874C162.462 -1.17513 162 -1.31728 161.525 -1.36725L158.421 -1.69317C158.165 -1.72007 157.921 -1.81571 157.715 -1.96997L157.453 -2.16564C157.257 -2.31207 157.142 -2.54221 157.142 -2.78664V-2.78664C157.142 -3.19197 157.454 -3.52895 157.858 -3.55997L159.708 -3.7019C159.92 -3.71814 160.132 -3.71009 160.342 -3.67789L167.259 -2.61629C168.201 -2.47165 169.159 -2.45813 170.105 -2.57611L173.274 -2.97126C173.744 -3.02992 174.177 -3.25917 174.489 -3.61553V-3.61553C175.553 -4.82861 174.752 -6.73445 173.141 -6.82374L169.567 -7.02187C169.272 -7.0382 168.98 -7.08998 168.698 -7.17607L162.7 -9.00424C161.661 -9.32115 160.588 -9.51592 159.503 -9.58462L147.158 -10.3666L143.83 -11.0306L135.843 -11.916L129.281 -11.7637C127.318 -11.7182 125.386 -11.26 123.611 -10.4189L118.619 -8.05344C117.835 -7.68188 116.978 -7.48914 116.111 -7.48914V-7.48914C115.513 -7.48914 114.92 -7.58044 114.35 -7.75986L113.073 -8.16236C111.697 -8.59578 110.258 -8.79271 108.816 -8.74477L107.787 -8.71055C105.555 -8.63631 103.364 -9.32509 101.575 -10.6633V-10.6633C100.471 -11.4892 99.2062 -12.0735 97.8618 -12.3783L97.4085 -12.4811C95.8324 -12.8385 94.2003 -12.874 92.61 -12.5856L91.1024 -12.3121C88.915 -11.9153 86.6586 -12.3639 84.7893 -13.567V-13.567C82.3114 -15.1619 80.7994 -17.9337 80.7651 -20.8803V-20.8803M69.339 -20.8803L68.6888 -21.4858C67.4681 -22.6224 66.4604 -23.9679 65.7131 -25.459L65.5494 -25.7856C64.9361 -27.0094 64.5055 -28.3165 64.2715 -29.6653L63.1015 -36.4098C62.7886 -38.2131 62.8324 -40.0602 63.2303 -41.8467L63.3372 -42.3266C63.4556 -42.8581 63.6169 -43.3791 63.8195 -43.8845V-43.8845C64.4916 -45.5607 65.6215 -47.0402 67.0542 -48.1397V-48.1397C67.5004 -48.4821 67.98 -48.7914 68.4765 -49.0556L68.8115 -49.2338C70.296 -50.0237 71.917 -50.5245 73.5883 -50.7098V-50.7098C74.5612 -50.8177 75.543 -50.8177 76.5158 -50.7098V-50.7098C78.1872 -50.5245 79.8082 -50.0237 81.2927 -49.2338L81.6276 -49.0556C82.1241 -48.7914 82.6037 -48.4821 83.0499 -48.1397V-48.1397C84.4826 -47.0402 85.6125 -45.5607 86.2846 -43.8844V-43.8844C86.4872 -43.3791 86.6485 -42.8581 86.7669 -42.3266L86.8738 -41.8467C87.2718 -40.0602 87.3155 -38.2131 87.0027 -36.4097L85.8326 -29.6653C85.5986 -28.3165 85.1681 -27.0094 84.5547 -25.7856L84.3911 -25.459C83.6438 -23.9679 82.636 -22.6224 81.4154 -21.4858L80.7651 -20.8803" stroke="white" stroke-width="4"/>
</g>
<defs>
<radialGradient id="paint0_radial_513_37" cx="0" cy="0" r="1" gradientUnits="userSpaceOnUse" gradientTransform="translate(75.0518 112.703) rotate(90) scale(93.2971 67.9817)">
<stop offset="0.947115" stop-color="#D9D9D9"/>
<stop offset="1" stop-color="#737373" stop-opacity="0"/>
</radialGradient>
</defs>
</svg>
