<svg width="147" height="112" viewBox="0 0 147 112" fill="none" xmlns="http://www.w3.org/2000/svg">
<path opacity="0.9" d="M101.755 17.8086C104.468 4.29815 120.287 -1.83118 131.395 6.32422C136.232 9.87595 139.089 15.5192 139.089 21.5205V57.2246C139.089 59.9463 139.319 62.6634 139.774 65.3467L143.625 88.0186C144.06 90.5781 143.935 93.2014 143.259 95.708C141.143 103.551 134.03 109 125.907 109H97.75C94.7823 109 91.8219 108.696 88.916 108.094L79.1035 106.059C72.8111 104.754 66.3222 104.712 60.0137 105.937L48.3369 108.203C45.6059 108.733 42.8299 109 40.0479 109H24.7412C20.7768 109 16.8303 108.458 13.0127 107.39L7.62695 105.881L6.95312 108.288L7.40039 105.829C3.95334 105.202 1.78801 101.75 2.72363 98.374L4.69727 91.2529C5.94072 86.7661 9.53864 83.3185 14.0742 82.2666L21.293 80.5918C23.2743 80.1323 25.2048 79.4737 27.0537 78.626L41.9736 71.7842C44.4569 70.6455 46.8401 69.2996 49.0967 67.7598L70.2188 53.3447L85.8164 44.8643C93.2904 40.7997 98.5778 33.6302 100.253 25.2891L101.755 17.8086Z" fill="#271E11" fill-opacity="0.71" stroke="white" stroke-width="5"/>
</svg>
