<svg width="266" height="271" viewBox="0 0 266 271" fill="none" xmlns="http://www.w3.org/2000/svg">
<path d="M6 5H261V265.554H6V5Z" fill="#271E11" fill-opacity="0.71"/>
<path d="M0.00886684 55.5587C-0.0630972 54.3298 0.326017 52.5952 0.346514 51.1455C0.436496 45.0725 0.706229 42.8222 0.859211 37.3276C1.08644 29.1804 0.575019 5.00059 3.27832 5C3.27839 5 3.27846 5 3.27852 5C3.30503 5.00001 3.33184 5.00229 3.35897 5.00702C3.87398 5.09179 4.4362 7.14837 5.01864 7.45358C5.60131 7.7583 9.36285 7.52976 9.57432 10.4508C9.85299 14.6861 8.88851 24.8458 8.93125 27.1047C8.96071 28.649 9.30266 30.5502 9.36338 32.5249C9.55907 38.8918 9.30901 42.2233 10.2379 47.9595C9.74839 50.254 9.25889 52.5484 8.76939 54.8429C8.99635 57.8365 8.35077 62.3737 8.38633 64.1925C8.41557 65.6846 8.80266 66.559 8.82065 68.1141C8.84302 69.8582 8.4252 72.5368 8.48813 75.7094C8.58937 80.9106 9.59916 81.836 9.7274 84.9568C9.8601 88.1929 9.31127 93.2256 9.6666 97.3548C9.77769 97.8727 9.88877 98.3906 9.99986 98.9085C10.2511 98.5374 10.5023 98.1664 10.7535 97.7953C10.8705 99.8751 10.3556 100.77 10.3463 102.681C10.335 104.929 10.8232 106.076 10.8209 107.589C10.8186 108.829 10.4272 110.509 10.4518 112.117C10.4855 114.46 11.0506 113.947 11.1564 115.208C11.1974 115.711 11.5093 125.013 11.5138 125.537C11.5361 129.528 10.7626 129.876 10.6949 133.058C10.5105 141.884 11.1355 150.945 11.3717 159.109C11.4774 162.754 11.4324 166.558 11.3087 170.193C9.32908 164.468 7.78842 177.138 10.8861 172.4C10.4454 176.444 11.2816 179.312 11.1402 183.146C11.048 185.625 10.6185 187.342 10.6297 190.883C10.6524 197.165 11.8733 204.038 9.6666 205.845C10.0556 213.221 9.25515 219.609 11.2032 222.267C11.3222 224.169 10.1619 229.043 10.0043 231.176C9.85577 233.193 9.33184 248.672 9.30259 251.205C9.27335 253.737 9.24154 258.17 9.41245 260.303C9.55062 262.053 10.4609 263.459 10.4166 265.554L6 261.138C7.11148 261.161 8.41693 261.453 10.0706 262.272C15.617 262.081 17.5932 262.149 22.7518 262.423C23.6857 262.473 23.7913 262.823 24.3369 262.824C25.4609 262.824 27.3731 262.564 29.3795 262.533C32.6788 262.481 34.5617 263.219 34.1939 262.092C36.3691 261.903 38.5442 261.714 40.7194 261.525C41.4824 261.743 42.2456 261.96 43.0086 262.178C44.1716 261.941 45.3346 261.704 46.4975 261.466C45.1316 263.097 53.3167 262.135 50.659 261.199C54.8756 261.537 59.0922 261.874 63.3088 262.211C62.7203 264.065 72.567 262.425 71.738 261.417C72.2205 261.419 72.703 261.42 73.1855 261.422C77.4094 261.914 81.2884 261.511 86.437 261.842C91.5851 262.173 91.102 262.353 92.6675 263.206C93.8789 263.157 95.0904 263.108 96.3019 263.059C102.659 260.722 101.535 264.769 112.421 262.976C115.899 264.445 124.472 263.673 130.156 263.228C130.818 263.176 130.829 262.891 131.71 262.803C133.864 262.592 139.36 262.958 139.172 262.038C141.074 262.305 142.977 262.571 144.879 262.837C146.434 262.67 147.989 262.502 149.544 262.335C149.536 262.048 149.528 261.761 149.52 261.474C152.652 262.452 157.572 262.076 159.999 262.31C160.482 262.358 160.586 262.754 162.088 262.862C163.842 262.99 167.112 262.873 169.203 262.996C170.016 262.558 170.829 262.119 171.642 261.68C175.381 261.442 176.695 262.6 178.891 262.69C179.286 262.706 186.499 262.623 186.888 262.598C190.069 262.402 189.168 261.416 198.369 261.627C200.008 261.665 201.333 262.006 202.814 262.02C205.43 262.045 213.313 261.271 213.933 260.555C217.107 261.451 225.597 261.085 228.097 261.343C228.852 261.423 229.023 261.993 231.342 262.115C233.223 262.214 238.067 261.757 240.452 261.833C242.984 261.917 243.888 262.396 245.023 262.43C246.094 262.461 247.083 262.074 248.543 262.077C253.103 262.09 257.231 262.713 260.835 262.724C260.89 262.724 260.945 262.724 261 262.724L258.17 265.554C258.164 260.41 257.037 255.858 256.534 251.543C256.609 250.461 256.854 249.398 256.857 248.263C256.893 234.226 257.104 218.391 257.349 204.311C257.461 197.775 259.016 181.522 256.422 185.86C255.968 183.589 257.014 167.073 257.029 163.931C257.045 160.791 256.58 158.301 256.573 155.833C256.553 148.383 256.888 143.137 256.483 134.069C256.377 131.727 255.826 129.218 255.833 127.831C255.842 126.16 256.374 124.363 256.408 122.198C256.485 117.04 256.31 107.426 256.402 102.476C256.42 101.573 256.888 101.255 257.034 99.963C257.605 94.9301 257.556 89.2887 256.062 90.2869C256.91 83.836 256.136 77.8686 256.089 71.8905C255.992 59.2502 256.341 36.2249 255.713 25.2132C255.317 18.2699 254.647 18.4475 255.225 8.22491C255.285 7.16485 255.355 6.10698 255.428 5L261 10.5722C259.737 10.4891 258.411 10.4019 256.944 10.3204C250.493 9.96048 244.574 8.72283 239.657 10.2142C232.492 9.82742 226.785 10.1017 221.469 8.82627C220.842 9.13218 220.216 9.43809 219.589 9.744C218.711 9.75157 217.832 9.75914 216.954 9.7667C216.68 9.47496 216.406 9.18321 216.132 8.89146C209.838 8.81289 201.854 10.012 196.528 10.0033C187.596 9.98978 164.593 9.52392 156.124 9.13023C151.628 8.92117 151.386 9.54602 148.812 8.26157C147.806 8.35093 146.801 8.44029 145.795 8.52964C145.166 8.81089 144.536 9.09214 143.907 9.37339C138.139 9.38464 131.297 8.94778 125.802 8.95225C115.788 8.96125 100.752 9.73531 90.6963 9.22691C88.1749 9.0987 85.0232 8.5187 82.5542 8.52525C78.9607 8.53425 78.0873 9.49675 73.5271 9.51475C65.6676 9.544 51.0306 8.42584 43.602 8.51133C41.3955 8.53609 40.3661 8.89423 38.8426 8.93247C32.4541 9.0967 27.2092 9.06754 21.0834 9.62095C14.5059 8.69859 15.0741 7.50805 13.0357 6.30674C11.4909 5.40005 6.75395 3.29881 6.08151 2.50472C5.60917 1.94683 7.37275 1.22917 6.71085 0.615072C14.5913 0.12466 17.902 0.664539 24.3009 1.5284C36.1181 1.49398 47.9352 1.45956 59.7524 1.42513C60.8275 1.76034 61.9026 2.09554 62.9778 2.43075C62.9778 2.43148 62.9778 2.43221 62.9778 2.43295C67.516 2.8198 69.4394 1.95654 71.8869 1.76058C95.3182 -0.115635 141.436 1.35282 167.232 1.56429C172.791 1.60927 190.873 1.15758 194.687 1.70199C195.674 1.84377 195.949 2.36065 197 2.38314C206.386 2.07577 215.772 1.76839 225.159 1.46102C236.95 1.95165 248.985 1.89502 261 1.74846L264.213 1.71106L264.252 5C264.345 12.6525 264.475 20.2966 264.523 27.8643C264.858 80.4844 265.265 132.579 265.142 184.338C265.117 194.341 265.504 207.035 265.255 216.827C265.151 220.915 264.321 222.617 264.94 227.986C264.716 228.043 264.492 228.099 264.269 228.156C264.539 232.841 265.048 235.835 265.099 241.089C265.142 245.512 265.175 257.216 265.09 261.125C265.047 263.153 264.629 262.397 264.631 264.288C264.632 264.663 264.641 265.089 264.655 265.554L264.697 269.166L261 269.209C257.458 269.319 251.597 269.77 247.65 269.77C243.605 269.77 236.785 269.289 233.675 269.358C222.474 269.606 210.274 270.319 198.338 270.128C195.04 270.074 190.799 269.532 189.767 269.547C187.75 269.579 187.149 270.105 185.794 270.173C178.912 270.515 168.184 269.889 161.439 269.864C139.457 269.783 116.171 270.013 94.2841 269.916C80.4566 269.856 57.478 269.948 44.7118 269.552C41.9588 269.467 42.6927 268.89 40.3811 268.89C37.8181 268.89 36.43 269.28 35.2323 269.311C28.4496 269.492 14.9668 269.788 6 269.672L1.93068 269.719L1.88221 265.554C1.90803 263.56 1.95426 261.79 2.02669 260.366C2.10314 258.875 2.55495 257.793 2.55331 256.9C2.55331 256.449 2.24498 255.428 2.21346 254.009C1.9345 241.485 2.11432 232.353 2.22005 220.08C2.42025 196.576 1.84665 169.341 2.15707 144.65C2.22456 139.27 3.11821 135.581 3.10922 134.824C3.09119 133.164 2.49011 132.101 2.34164 128.739C1.85361 117.56 2.49502 102.504 2.19369 91.8717C2.04523 86.6186 1.2822 79.4 1.11336 74.2305C0.978399 70.1016 1.27771 60.3506 0.942707 58.5206C0.740313 57.4072 0.0902471 56.8921 0.00886684 55.5587ZM10.128 194.655C9.08869 193.919 9.95244 201.649 10.5104 198.749C10.636 198.096 10.3978 194.845 10.128 194.655ZM258.677 229.477C258.38 229.548 258.083 229.619 257.786 229.69C257.91 230.704 258.033 231.719 258.157 232.734C258.335 232.164 258.514 231.593 258.692 231.023C258.687 230.508 258.682 229.992 258.677 229.477Z" fill="white"/>
<path d="M61.4239 143.36C61.2323 143.45 60.9617 142.964 60.7356 142.938C59.7884 142.825 59.4374 142.488 58.5803 142.297C57.3096 142.013 53.5382 142.652 53.5381 139.273C53.5381 139.273 53.5381 139.273 53.5381 139.273C53.5381 139.24 53.5384 139.206 53.5392 139.172C53.5524 138.529 53.8732 137.826 53.9208 137.098C53.9683 136.369 53.9327 131.668 54.3883 131.403C55.0489 131.055 56.6335 132.26 56.9858 132.207C57.2267 132.17 57.5233 131.743 57.8313 131.667C58.8243 131.422 59.3439 131.735 60.2386 130.574C60.5965 131.186 60.9543 131.797 61.3123 132.409C61.7792 132.126 62.4869 132.933 62.7705 132.888C63.0033 132.852 63.1396 132.368 63.3822 132.345C63.6543 132.317 64.072 132.84 64.5669 132.761C65.3781 132.634 65.5225 131.372 66.0092 131.212C66.514 131.046 67.2989 131.732 67.943 131.288C68.0237 131.149 68.1045 131.01 68.1853 130.871C68.1274 130.557 68.0696 130.243 68.0117 129.929C68.3361 129.783 68.4756 130.427 68.7736 130.438C69.1244 130.452 69.3033 129.842 69.5393 129.845C69.7326 129.848 69.9948 130.337 70.2454 130.306C70.6109 130.264 70.531 129.558 70.7276 129.426C70.8061 129.374 72.2568 128.984 72.3387 128.979C72.9612 128.951 73.0154 129.918 73.5117 130.002C74.8883 130.233 76.3015 129.452 77.5749 129.156C78.1435 129.024 78.7368 129.081 79.3038 129.235C78.4108 131.71 80.387 133.636 79.6479 129.763C80.2788 130.314 80.726 129.269 81.324 129.446C81.7108 129.561 81.9785 130.098 82.5308 130.084C83.5107 130.056 84.5827 128.529 84.8645 131.288C86.0149 130.802 87.0113 131.802 87.4259 129.367C87.7226 129.218 88.4828 130.669 88.8155 130.866C89.1301 131.051 91.5445 131.706 91.9394 131.743C92.3344 131.779 93.0258 131.819 93.3585 131.606C93.7764 131.341 94.0684 128.816 94.8125 131.768C95.6775 131.53 95.9858 131.614 96.7904 131.957C96.9361 132.019 96.9525 132.457 97.0376 132.458C97.2129 132.458 97.5112 132.134 97.8241 132.094C98.3387 132.03 98.6324 132.952 98.575 131.543C98.9143 131.307 99.2536 131.071 99.5928 130.835C99.7119 131.107 99.8309 131.378 99.9499 131.65C100.131 131.354 100.313 131.058 100.494 130.761C100.281 132.8 101.558 131.597 101.143 130.427C101.801 130.849 102.459 131.271 103.116 131.693C103.024 134.01 104.56 131.96 104.431 130.7C104.506 130.702 104.581 130.704 104.657 130.706C105.315 131.321 105.921 130.818 106.724 131.231C107.527 131.644 107.451 131.87 107.695 132.936C107.884 132.875 108.073 132.814 108.262 132.753C109.254 129.831 109.078 134.89 110.776 132.648C111.319 134.485 112.656 133.52 113.543 132.963C113.646 132.899 113.648 132.542 113.785 132.432C114.121 132.168 114.978 132.626 114.949 131.476C115.245 131.809 115.542 132.142 115.839 132.474C116.081 132.265 116.324 132.056 116.567 131.847C116.565 131.488 116.564 131.129 116.563 130.771C117.051 131.994 117.819 131.524 118.197 131.816C118.273 131.875 118.289 132.37 118.523 132.505C118.797 132.666 119.307 132.519 119.633 132.674C119.76 132.126 119.886 131.577 120.013 131.029C120.596 130.731 120.801 132.179 121.144 132.291C121.206 132.311 122.331 132.207 122.391 132.176C122.887 131.931 122.747 130.698 124.182 130.962C124.437 131.01 124.644 131.436 124.875 131.454C125.283 131.484 126.513 130.517 126.61 129.622C127.105 130.742 128.429 130.284 128.819 130.608C128.937 130.707 128.963 131.42 129.325 131.572C129.618 131.695 130.374 131.125 130.746 131.22C131.141 131.324 131.282 131.923 131.459 131.965C131.626 132.005 131.78 131.521 132.008 131.524C132.719 131.541 133.363 132.319 133.925 132.333C134.738 132.356 135.456 130.925 136.136 130.289C136.305 130.382 136.471 130.689 136.648 130.692C138.837 130.737 141.307 131.001 143.503 131.307C144.522 131.448 147.057 133.391 146.381 130.149C146.735 129.581 149.311 130.888 149.801 130.908C150.291 130.927 150.679 130.346 151.064 130.338C152.226 130.312 153.044 130.731 154.459 130.225C154.824 130.093 155.215 129.404 155.432 129.412C155.692 129.423 155.973 130.089 156.31 130.132C157.115 130.227 158.614 130.008 159.386 130.123C159.527 130.146 159.577 130.731 159.778 130.913C160.563 131.628 161.443 131.566 161.288 129.698C162.294 130.759 163.225 129.792 164.157 129.732C166.129 129.611 169.72 130.047 171.437 129.263C172.52 128.768 172.493 127.93 174.087 128.653C174.441 128.813 174.793 129.029 175.223 129.221C176.229 129.67 177.152 131.218 177.919 129.353C179.037 129.837 179.927 129.494 180.756 131.088C180.854 130.706 180.951 130.323 181.049 129.941C181.186 129.932 181.323 129.922 181.46 129.913C181.503 130.277 181.546 130.642 181.588 131.007C182.57 131.105 183.815 129.606 184.646 129.617C186.039 129.634 189.627 130.216 190.948 130.708C191.649 130.97 191.687 130.189 192.088 131.794C192.245 131.682 192.402 131.571 192.559 131.459C192.657 131.107 192.755 130.756 192.854 130.404C193.753 130.39 194.82 130.936 195.677 130.931C197.239 130.92 199.585 129.952 201.153 130.587C201.546 130.748 202.038 131.473 202.423 131.465C202.983 131.453 203.12 130.25 203.831 130.228C205.057 130.191 207.34 131.589 208.498 131.482C208.843 131.451 209.003 131.003 209.241 130.956C210.237 130.75 211.055 130.787 212.011 130.095C213.037 131.248 212.948 132.736 213.266 134.238C213.507 135.371 214.246 137.998 214.351 138.99C214.424 139.688 214.149 140.585 214.252 141.352C213.023 141.965 212.507 141.29 211.509 140.211C209.666 140.254 207.823 140.297 205.979 140.34C205.812 139.921 205.644 139.502 205.476 139.083C205.476 139.082 205.476 139.081 205.476 139.08C204.768 138.596 204.468 139.675 204.087 139.92C200.432 142.266 193.239 140.43 189.215 140.166C188.348 140.11 185.528 140.674 184.933 139.994C184.779 139.816 184.736 139.17 184.572 139.142C183.108 139.526 181.644 139.911 180.18 140.295C177.17 139.291 174.057 140.12 171.024 140.275C162.817 140.694 154.691 141.203 146.618 141.048C145.058 141.017 143.078 141.501 141.551 141.189C140.913 141.06 140.648 140.022 139.81 140.796C139.801 140.516 139.793 140.237 139.784 139.957C139.053 140.294 138.586 140.931 137.767 140.995C137.077 141.049 135.251 141.09 134.642 140.983C134.325 140.93 134.443 140.408 134.148 140.41C133.644 140.419 132.565 141.141 131.868 141.141C131.238 141.141 130.174 140.539 129.689 140.626C127.942 140.936 126.039 141.827 124.177 141.588C123.663 141.521 123.001 140.844 122.84 140.862C122.526 140.902 122.432 141.56 122.221 141.644C121.147 142.072 119.474 141.29 118.422 141.259C114.993 141.158 111.361 141.445 107.947 141.324C105.791 141.248 102.207 141.364 100.216 140.869C99.7862 140.762 99.9006 140.041 99.5401 140.041C99.1403 140.041 98.9238 140.528 98.737 140.568C97.4438 140.843 94.5891 141.335 93.3683 140.838C93.1357 140.742 92.967 140.177 92.8278 140.179C92.7573 140.179 92.5981 140.565 92.3769 140.604C90.4233 140.953 88.999 140.728 87.0848 140.596C83.4187 140.346 79.171 141.063 75.3197 140.675C74.4806 140.59 73.9052 139.473 73.7872 139.485C73.5283 139.507 73.3625 140.258 72.8381 140.444C71.0944 141.054 68.7462 140.252 67.0877 140.629C66.2684 140.815 65.1425 141.768 64.3362 141.979C63.6922 142.148 62.1713 141.774 61.8859 142.193C61.7122 142.446 61.6319 143.258 61.4239 143.36ZM83.1191 130.711C83.0044 132.01 84.2101 130.931 83.7578 130.233C83.6559 130.076 83.1488 130.374 83.1191 130.711ZM139.578 132.967C139.567 132.596 139.556 132.225 139.545 131.854C139.386 132.008 139.228 132.162 139.07 132.317C139.159 132.54 139.248 132.763 139.337 132.986C139.417 132.98 139.497 132.973 139.578 132.967Z" fill="white"/>
</svg>
