<svg width="216" height="210" viewBox="0 0 216 210" fill="none" xmlns="http://www.w3.org/2000/svg">
<path d="M71.9792 4.2158C72.7328 3.89334 73.9442 3.92204 74.8636 3.67246C78.7416 2.6471 80.2422 2.56706 83.8108 1.97156C89.0326 0.76966 104.907 -0.658637 104.879 2.27832C104.879 2.27839 104.879 2.27846 104.879 2.27852C104.879 2.30503 104.877 2.33184 104.874 2.35897C104.817 2.87201 103.508 3.44283 103.327 4.03033C103.146 4.61852 103.332 8.36537 101.591 8.6293C99.0718 8.93578 92.8785 8.56539 91.52 8.84261C90.5995 8.99871 89.5127 9.50853 88.3486 9.77111C84.6187 10.6327 82.5759 10.8497 79.4996 12.6361C78.045 12.5273 76.59 12.4491 75.11 12.4104C73.4495 13.1718 70.651 13.5018 69.6244 13.9462C68.7867 14.3034 68.438 14.8602 67.5759 15.237C66.6124 15.6619 64.9428 15.9236 63.2248 16.8066C60.41 18.2706 60.3915 19.4493 58.8051 20.4467C57.1629 21.4864 54.2682 22.5517 52.3779 24.2162C52.1777 24.4792 51.9792 24.7428 51.7825 25.0071C52.1067 25.0932 52.4298 25.1809 52.7519 25.2702C51.7857 26.0461 51.0573 25.9193 50.1138 26.5649C49.0066 27.3282 48.7437 28.1282 48.0225 28.6615C47.4316 29.0989 46.3975 29.3957 45.6599 30.011C44.5873 30.9082 45.1838 31.1588 44.6725 31.7125C44.4391 31.9068 40.5144 35.7661 40.3209 36.0075C38.6282 37.6396 37.945 37.2391 36.5671 38.5428C32.7582 42.1828 29.811 46.7807 27.2563 50.8622C26.1079 52.6888 24.8526 54.5418 23.6402 56.3216C23.7143 52.3479 18.486 58.1316 22.6117 57.2309C21.0226 59.0964 20.9537 60.9984 19.8186 62.9603C19.0876 64.2387 18.2581 64.969 17.4188 66.9074C15.9188 70.3602 15.7575 74.5811 13.333 74.9219C12.3189 79.2315 10.6751 82.8068 12.2447 84.7684C12.111 85.8906 10.4344 88.5006 10.0858 89.7589C9.63617 90.8924 8.19863 100.131 8.23768 101.671C8.18993 102.555 8.14568 103.829 8.16806 105C8.1833 105.849 8.23145 106.636 8.31536 107.175C8.57151 108.808 10.6093 109.768 8.47071 112.799C8.94677 116.104 9.02974 117.302 9.23001 120.419C9.27097 120.985 8.93648 121.106 8.99139 121.433C9.10561 122.108 9.56465 123.203 9.83657 124.381C10.2862 126.327 9.84553 127.604 10.8888 127.13C11.3715 128.361 11.8786 129.578 12.4104 130.785C12.3234 131.284 12.2403 131.784 12.1611 132.286C12.5863 132.892 13.0157 133.486 13.4534 134.081C11.6296 133.797 14.1233 138.188 14.4917 136.358C14.9959 138.841 15.6064 141.325 16.3192 143.79C14.4438 144.228 18.4964 148.977 19.1929 148.033C19.3214 148.291 19.451 148.549 19.5818 148.807C20.3067 151.281 21.7922 153.126 23.1407 155.92C24.5183 158.713 24.2365 158.553 24.0566 159.823C24.5124 160.407 24.9743 160.984 25.4422 161.556C29.6031 163.252 25.895 165.258 31.5919 169.189C31.8633 171.772 36.0928 175.106 38.9627 177.079C39.2956 177.312 39.4921 177.106 39.9483 177.399C41.0477 178.125 43.3737 180.546 43.8721 179.753C44.5906 180.684 45.3296 181.605 46.0889 182.516C46.9428 182.954 47.7989 183.378 48.6605 183.788C48.8236 183.552 48.9867 183.315 49.1499 183.079C50.1057 184.979 52.8054 186.31 53.9275 187.27C54.1507 187.463 53.995 187.836 54.7191 188.401C55.5632 189.064 57.3434 189.955 58.4044 190.667C59.0477 190.517 59.6869 190.361 60.3223 190.199C62.4145 191.019 62.6242 192.394 63.7906 193.044C63.9897 193.182 68.0331 194.859 68.2658 194.901C70.1341 195.413 69.9505 194.402 75.0935 196.367C76.0169 196.708 76.6759 197.268 77.5262 197.534C79.0299 198.04 83.8151 198.42 84.3216 197.772C85.9664 199.09 91.0477 199.585 92.4883 199.996C92.9262 200.13 92.9532 200.716 94.3345 200.992C95.4581 201.224 98.3884 201.01 99.8245 201.149C101.333 201.307 101.864 201.796 102.55 201.848C103.199 201.894 103.802 201.518 104.686 201.522C104.751 201.523 104.815 201.523 104.879 201.524C107.646 201.565 110.155 202.159 112.352 202.17C112.386 202.17 112.42 202.17 112.455 202.17C115.602 202.162 118.295 200.896 120.809 200.174C121.458 200.193 122.106 200.377 122.787 200.307C131.153 199.484 140.46 197.391 148.399 194.422C152.116 193.214 161.547 189.937 157.983 188.882C159.005 187.959 167.881 183.602 169.354 182.365C170.881 181.258 171.766 179.969 172.9 179.035C176.302 176.19 178.881 174.317 182.303 170.102C183.181 169.008 183.755 167.526 184.293 166.909C184.944 166.168 186.041 165.692 186.876 164.707C188.896 162.381 192.054 157.597 193.647 155.12C193.944 154.671 194.443 154.754 194.967 154.165C197.019 151.871 198.53 148.798 196.924 148.653C199.445 145.624 200.19 142.023 201.398 138.706C204.2 131.749 207.334 118.313 206.933 111.725C206.829 108.533 206.375 107.893 206.461 105C206.48 104.134 206.537 103.072 206.623 101.685C206.705 100.354 206.807 99.0045 206.832 97.3717C206.893 93.5709 207.591 89.8321 205.579 87.2337C205.161 82.9843 204.022 79.7998 204.304 76.3946C203.9 76.1254 203.495 75.8606 203.089 75.6001C202.92 75.1052 202.748 74.6121 202.572 74.121C202.795 73.8725 203.017 73.6227 203.239 73.3717C202.083 69.7553 199.099 65.8362 197.702 63.0287C195.607 58.1548 188.406 46.4924 185.181 42.5319C183.569 40.3588 183.003 40.6964 182.886 38.6838C182.404 38.303 181.92 37.9273 181.433 37.5568C180.967 37.4825 180.501 37.4121 180.037 37.3455C177.604 34.9169 174.831 31.8677 172.24 29.8226C167.56 26.0069 159.555 21.8626 154.36 18.8562C153.066 18.0801 151.586 16.7677 150.208 16.1911C148.208 15.3638 147.369 16.0535 144.816 15.1369C140.459 13.4925 132.212 10.2434 127.732 9.71358C126.411 9.53086 125.756 9.80425 124.845 9.72372C121.021 9.40525 117.874 9.15773 114.215 9.63686C113.503 9.45585 112.927 9.27575 112.455 9.09122C110.263 8.26407 110.31 7.289 109.27 6.30674C108.306 5.40005 105.349 3.29881 104.93 2.50472C104.635 1.94683 105.736 1.22917 105.323 0.615072C108.44 0.304197 110.412 0.40733 112.455 0.744556C113.691 0.939892 114.941 1.23121 116.436 1.60365C124.059 1.85676 131.658 2.94804 139.058 4.87434C139.645 5.37684 140.223 5.88422 140.793 6.39619C140.792 6.39689 140.792 6.3976 140.792 6.3983C143.46 7.57603 144.89 7.16081 146.449 7.48891C161.921 9.80459 186.486 29.0607 195.401 43.1932C197.657 45.9754 204.134 55.7675 204.615 58.2939C204.776 58.9268 204.392 59.3148 204.669 59.929C207.589 65.1925 210.055 70.7395 212.017 76.4884C214.043 85.7767 215.624 95.3401 215.824 105C215.887 108.041 215.817 111.049 215.587 114.048C213.24 148.072 192.658 179.953 163.018 196.064C157.358 199.24 149.863 202.868 143.678 204.497C141.104 205.178 139.829 204.696 136.607 206.118C136.52 205.909 136.433 205.7 136.346 205.49C133.463 206.438 131.665 207.321 128.285 207.903C125.477 208.452 117.862 209.141 115.337 209.051C114.019 209.039 114.503 208.612 113.277 208.628C113.033 208.631 112.757 208.641 112.455 208.655C110.46 208.754 107.289 209.131 104.879 209.203C104.605 209.211 104.34 209.215 104.088 209.213C101.445 209.216 97.055 208.484 95.0555 208.345C87.8299 207.929 79.8093 207.06 72.4407 204.444C70.4007 203.732 68.007 202.258 67.3791 202.025C66.1481 201.58 65.5901 201.918 64.7466 201.643C60.4284 200.271 54.4426 196.516 50.7429 194.179C38.5381 186.723 27.1266 176.273 19.1033 164.463C13.806 157.164 7.22286 143.561 5.40228 135.423C4.97055 133.689 5.65987 133.984 5.25639 132.549C4.81791 130.952 4.22963 130.178 4.0155 129.432C2.36735 124.312 0.475446 112.483 0.932309 107.379C0.9873 106.409 1.43488 105.703 1.43229 105.125C1.43224 105.089 1.42753 105.047 1.41925 105C1.36048 104.665 1.1212 104.054 1.10689 103.247C1.01705 95.1306 1.93363 89.2016 3.7771 81.4771C7.26353 66.6964 14.7232 50.1663 25.4079 38.1555C27.7129 35.5262 30.0219 34.4272 30.344 34.0697C31.0683 33.2891 31.1037 32.3713 32.5548 30.7417C37.3645 25.2688 45.5489 19.8041 51.3097 16.0664C54.1268 14.1713 57.9299 11.2906 60.947 9.73062C63.3286 8.41859 69.3968 6.38694 70.4272 5.72342C71.0501 5.29416 71.1642 4.56852 71.9792 4.2158ZM16.0815 68.7853C15.2655 67.9765 14.3959 72.6323 15.5424 71.2002C15.7925 70.8786 16.2833 68.9923 16.0815 68.7853ZM134.272 200.231C134.164 199.952 134.057 199.672 133.949 199.391C133.378 199.648 132.803 199.899 132.224 200.145C132.6 200.249 132.977 200.351 133.355 200.452C133.661 200.38 133.967 200.306 134.272 200.231Z" fill="white"/>
<path d="M95.729 35.2148C96.0167 35.0475 96.5605 35.2884 96.9267 35.2045C98.4723 34.8631 99.0996 34.9948 100.511 34.8608C102.565 34.5414 108.776 33.6824 108.736 36.4746C108.736 36.4747 108.736 36.4747 108.736 36.4748C108.736 36.5013 108.736 36.5281 108.734 36.5553C108.712 37.0696 108.227 37.6349 108.168 38.2191C108.109 38.8036 108.204 42.5601 107.625 42.7887C106.792 43.0758 104.641 42.3098 104.169 42.4317C103.855 42.5034 103.519 42.8985 103.131 43.0255C101.894 43.4384 101.152 43.3504 100.278 44.5389C99.7102 44.1841 99.1263 43.8435 98.5257 43.5186C98.0025 43.9167 96.9046 43.6205 96.5531 43.794C96.269 43.9329 96.2398 44.3599 95.9483 44.4969C95.6244 44.6522 94.9428 44.4841 94.3624 44.8207C93.4142 45.3755 93.7026 46.3719 93.2068 46.7753C92.6968 47.1934 91.5306 47.2276 91.0076 47.9816C90.9782 48.1316 90.9501 48.2814 90.9231 48.431C91.1218 48.6018 91.3193 48.7736 91.5154 48.9466C91.2364 49.2636 90.8079 48.9296 90.4871 49.135C90.1102 49.3779 90.2074 49.9083 89.9672 50.0786C89.7704 50.2178 89.2713 50.1 89.0325 50.314C88.6853 50.6242 89.115 51.0076 88.989 51.2417C88.9271 51.3276 87.7641 52.723 87.7041 52.8003C87.157 53.3299 86.5776 52.8171 86.082 53.2077C84.7096 54.3037 84.0181 56.0812 83.2905 57.4787C82.9616 58.1058 82.516 58.6791 82.0368 59.2041C80.9871 57.161 78.3032 58.5395 81.4517 59.3431C80.6598 59.7926 81.1057 60.7008 80.6373 61.2813C80.334 61.661 79.7952 61.7684 79.5076 62.4036C78.9887 63.5521 79.6717 65.2015 77.4767 64.7909C77.3398 66.3034 76.2338 67.3596 77.9965 68.3416C78.0217 68.7141 76.6804 69.3925 76.4464 69.7908C76.1884 70.1375 75.2513 73.1895 75.2248 73.7198C75.1564 74.238 75.0889 75.1437 75.2561 75.5846C75.3219 75.7636 75.5789 75.9261 75.8164 76.0926C76.3135 76.4471 76.7211 76.7836 75.1508 77.4989C75.3955 78.6275 75.3612 79.0184 75.207 80.1077C75.1805 80.3044 74.8355 80.3697 74.8495 80.4826C74.8793 80.7162 75.1892 81.0704 75.2859 81.4748C75.4446 82.1367 74.7982 82.657 75.8902 82.3719C76.1581 82.7698 76.4341 83.1632 76.7164 83.5443C76.539 83.7422 76.3632 83.9426 76.1892 84.1456C76.476 84.3186 76.7643 84.487 77.0538 84.6502C75.3997 84.8072 76.7916 86.167 77.5365 85.374C77.4507 86.2702 77.4035 87.1825 77.3975 88.1088C75.6119 88.6671 77.9294 89.9752 78.7814 89.378C78.8191 89.4666 78.8573 89.555 78.8958 89.6432C78.8007 90.6197 79.5084 91.1447 79.7199 92.2078C79.9453 93.279 79.7508 93.2827 79.1878 94.0045C79.3621 94.1974 79.5382 94.3878 79.716 94.5756C82.3849 94.3729 78.8917 96.5032 81.7369 97.2794C81.0271 98.7705 82.8488 99.7204 84.0018 100.244C84.1364 100.308 84.3413 100.11 84.5328 100.178C84.9921 100.348 85.5758 101.398 86.1702 100.691C86.2756 101.148 86.3921 101.608 86.5202 102.068C86.8751 102.151 87.2296 102.229 87.5829 102.299C87.7621 102.075 87.9414 101.851 88.1207 101.626C87.9952 102.788 89.0412 103.103 89.3083 103.574C89.3619 103.67 89.1501 104.007 89.3465 104.274C89.5756 104.589 90.2087 104.868 90.5139 105.203C90.8912 104.922 91.2638 104.636 91.6313 104.346C92.3921 104.527 92.0496 105.659 92.4093 105.961C92.4706 106.022 93.8362 106.633 93.9227 106.639C94.6051 106.74 94.8371 105.799 96.4538 106.699C96.7437 106.856 96.8714 107.271 97.1502 107.389C97.6438 107.611 99.4016 107.36 99.7068 106.695C100.047 107.742 101.787 107.79 102.22 108.129C102.351 108.236 102.272 108.805 102.716 109.01C103.079 109.18 104.121 108.88 104.586 109.011C105.082 109.156 105.221 109.65 105.448 109.707C105.665 109.759 105.9 109.392 106.196 109.416C107.12 109.499 107.941 110.146 108.702 110.159C108.713 110.159 108.725 110.159 108.736 110.159C109.821 110.152 110.708 108.979 111.509 108.407C111.728 108.463 111.96 108.688 112.187 108.666C114.981 108.422 118.115 107.883 120.86 107.059C122.118 106.744 125.832 106.567 123.821 104.683C124.007 104.12 127.323 103.317 127.846 102.909C128.37 102.553 128.485 101.881 128.862 101.574C129.993 100.642 131.021 100.191 131.992 98.6229C132.24 98.2154 132.166 97.4814 132.348 97.2875C132.57 97.0544 133.202 97.1408 133.504 96.8341C134.228 96.1098 135.214 94.4817 135.81 93.7118C135.922 93.5728 136.349 93.7741 136.612 93.6325C137.641 93.0808 138.157 92.0279 136.748 91.4913C138.104 90.7857 137.928 89.3549 138.321 88.2755C139.239 86.0107 140.643 81.66 140.17 79.4524C139.896 78.0773 139.249 78.1076 139.858 76.1784C139.866 76.1498 139.875 76.1213 139.884 76.0926C140.009 75.6863 140.162 75.2727 140.285 74.7729C140.597 73.5369 141.697 72.1843 140.08 71.4445C140.257 70.0031 139.755 69.0008 140.721 67.6555C140.393 67.611 140.065 67.5701 139.738 67.533C139.685 67.3691 139.631 67.2058 139.575 67.0432C139.84 66.9098 140.104 66.7751 140.368 66.639C140.082 65.3823 138.401 64.3152 137.998 63.3843C137.4 61.763 135.507 57.6594 134.705 56.1084C134.313 55.266 133.802 55.6386 134.451 54.4112C134.25 54.3112 134.048 54.2137 133.846 54.1186C133.55 54.2076 133.256 54.2995 132.963 54.3943C132.198 53.5522 131.538 52.2781 130.705 51.5428C129.194 50.1692 126.338 49.0665 124.858 47.6709C124.488 47.3121 124.201 46.5001 123.746 46.2788C123.084 45.9594 122.515 46.751 121.69 46.4046C120.3 45.7924 117.854 43.8095 116.326 43.5733C115.882 43.4964 115.602 43.804 115.296 43.7806C114.013 43.6918 112.963 43.5131 111.706 43.9517C110.492 42.9253 110.64 41.7587 110.264 40.5352C109.987 39.6113 108.934 37.4915 108.756 36.701C108.639 36.1428 109.077 35.4264 108.916 34.8117C110.906 34.3432 111.759 34.9518 113.227 35.9719C116.12 36.2574 118.988 36.858 121.761 37.7639C121.904 38.1666 122.04 38.5696 122.169 38.9727C122.169 38.9734 122.168 38.9741 122.168 38.9748C123.055 39.7109 123.793 39.087 124.426 39.1402C130.756 39.3706 139.37 48.1588 142.289 53.7058C143.063 54.8154 145.597 58.5502 145.428 59.66C145.398 59.9394 144.951 60.2081 145.031 60.4491C146.209 62.4029 147.229 64.4838 148.065 66.6637C148.278 69.8234 148.749 72.9196 148.919 76.0926C149.008 77.7425 149.013 79.3917 148.857 81.0265C147.726 93.9678 139.768 106.203 128.233 112.212C126.04 113.391 123.22 114.985 120.778 115.452C119.761 115.648 119.149 114.963 118.004 115.872C117.939 115.657 117.875 115.442 117.812 115.227C116.752 115.744 116.119 116.388 114.822 116.639C113.745 116.872 110.814 117.151 109.843 117.064C109.336 117.033 109.517 116.612 109.05 116.619C108.957 116.621 108.852 116.63 108.736 116.644C107.861 116.758 106.39 117.156 105.397 117.071C104.385 116.998 102.758 116.302 101.992 116.236C99.228 116.032 96.0238 115.899 93.2774 114.584C92.52 114.225 91.7682 113.292 91.5332 113.197C91.0659 113.014 90.7021 113.421 90.3632 113.33C88.629 112.874 86.5899 110.94 85.2376 109.946C80.7522 106.754 76.4821 102.586 73.6658 97.8356C71.8036 94.9027 69.4591 89.5417 69.1324 86.3216C69.0472 85.6362 69.6519 85.6774 69.5226 85.1258C69.3829 84.5145 68.9347 84.2551 68.8462 83.971C68.2464 82.1945 67.4925 78.2739 67.776 76.0926C67.8 75.8717 67.8316 75.6697 67.8709 75.4907C67.9529 75.1192 68.4126 74.8656 68.4186 74.6477C68.4225 74.5373 68.1233 74.2756 68.1103 73.9226C68.0156 70.8029 68.5568 68.5414 69.4198 65.6274C71.0451 60.0689 73.7597 53.6471 78.1039 49.2339C79.0417 48.269 80.3243 48.2543 80.4426 48.1197C80.713 47.8228 80.4696 47.2108 80.973 46.5309C82.6541 44.2438 86.061 42.5116 88.1761 40.9575C89.2135 40.1691 90.4787 38.6573 91.6209 37.9659C92.5244 37.3881 94.9525 36.7909 95.291 36.3412C95.4957 36.0588 95.4199 35.3989 95.729 35.2148ZM78.7416 62.8754C77.843 62.3198 78.0329 64.1023 78.7746 63.7727C78.9375 63.7021 78.9709 63.0203 78.7416 62.8754ZM116.281 109.84C116.202 109.554 116.123 109.267 116.045 108.981C115.869 109.146 115.688 109.311 115.506 109.473C115.657 109.625 115.811 109.775 115.966 109.925C116.071 109.897 116.176 109.869 116.281 109.84Z" fill="white"/>
<path d="M183.624 169.764C183.676 170.04 183.26 170.395 183.216 170.713C183.027 172.047 182.722 172.523 182.48 173.725C182.121 175.506 182.239 180.88 179.543 180.682C179.543 180.682 179.543 180.682 179.543 180.682C179.516 180.68 179.49 180.677 179.463 180.674C178.951 180.618 178.423 180.123 177.847 180.013C177.271 179.903 173.516 179.677 173.352 179.017C173.143 178.062 174.27 175.891 174.264 175.389C174.26 175.046 173.95 174.601 173.921 174.161C173.829 172.742 174.133 172.025 173.299 170.691C173.825 170.22 174.35 169.75 174.876 169.279C174.698 168.602 175.415 167.648 175.409 167.244C175.404 166.913 175.033 166.691 175.04 166.347C175.046 165.96 175.506 165.4 175.495 164.695C175.478 163.54 174.486 163.261 174.409 162.563C174.329 161.839 174.958 160.769 174.671 159.832C174.666 159.826 174.661 159.82 174.656 159.814L174.823 161.211C174.688 161.139 174.554 161.068 174.421 160.998C174.207 161.152 173.992 161.307 173.778 161.462C173.527 161.062 173.959 160.728 173.84 160.335C173.695 159.86 173.16 159.798 173.057 159.484C172.971 159.224 173.232 158.774 173.093 158.449C172.896 157.983 172.399 158.276 172.213 158.063C172.138 157.959 171.183 156.243 171.137 156.15C170.823 155.386 171.517 155.041 171.338 154.411C170.853 152.695 169.428 151.164 168.754 150.67C168.703 150.629 168.658 150.591 168.586 150.513C168.508 150.424 168.413 150.334 168.112 149.897C168.431 150.358 168.468 150.365 168.52 150.433C168.562 150.479 168.56 150.476 168.553 150.469C168.544 150.459 168.52 150.432 168.487 150.395C168.413 150.313 168.331 150.221 168.26 150.136C168.185 150.047 168.091 149.935 168.004 149.827C167.934 149.736 167.858 149.636 167.779 149.53C170.017 148.944 169.16 145.969 167.726 148.89C167.417 147.981 166.375 148.146 165.871 147.475C165.553 147.048 165.549 146.455 164.992 145.95C163.962 145.019 162.039 144.908 163.239 143.014C161.782 142.204 161.28 140.67 159.542 141.726C159.146 141.528 159.14 139.962 158.892 139.529C158.655 139.113 156.474 136.48 156.065 136.089C155.664 135.699 154.956 135.04 154.488 134.861C153.901 134.633 152.282 135.903 153.024 133.429C151.975 132.784 151.691 132.455 151.003 131.517C150.878 131.348 151.085 131.064 150.994 130.987C150.805 130.829 150.317 130.759 149.96 130.503C149.373 130.083 149.521 129.25 148.867 130.172C148.379 130.015 147.896 129.863 147.41 129.712C147.418 129.437 147.425 129.163 147.432 128.889C147.085 128.913 146.74 128.939 146.395 128.967C147.65 127.88 145.655 127.519 145.525 128.613C145.015 127.776 144.516 126.956 143.991 126.127C145.226 124.734 142.519 124.74 142.065 125.663C141.984 125.6 141.902 125.538 141.821 125.476C141.396 124.547 140.489 124.384 139.781 123.486C139.074 122.594 139.277 122.52 139.463 121.616C139.216 121.51 138.973 121.408 138.735 121.311C136.38 122.591 138.678 119.197 135.842 119.694C135.905 118.508 134.766 118.104 133.991 118.265L133.955 118.257C133.548 118.276 133.146 118.322 132.794 118.357C132.64 118.372 132.569 118.648 132.358 118.687C131.845 118.777 130.752 118.13 130.572 119.033C130.227 118.673 129.883 118.314 129.538 117.954C129.164 118.034 128.789 118.114 128.415 118.194C128.348 118.473 128.281 118.752 128.214 119.031C127.776 117.915 126.629 118.019 126.163 117.663C126.071 117.591 126.144 117.201 125.847 117.016C125.501 116.799 124.77 116.739 124.351 116.508C124.071 116.89 123.791 117.273 123.511 117.656C122.651 117.688 122.646 116.494 122.196 116.29C122.115 116.254 120.546 115.952 120.456 115.955C119.726 115.977 119.683 116.982 117.757 116.288C117.414 116.164 117.211 115.762 116.896 115.67C116.754 115.629 116.524 115.619 116.257 115.64L117.135 115.747C116.395 115.991 115.404 116.556 115.302 117.088C114.6 116.192 112.722 116.558 112.168 116.3C112.001 116.22 111.963 115.65 111.45 115.528C111.034 115.429 109.962 115.886 109.434 115.81C108.874 115.726 108.674 115.247 108.423 115.213C108.186 115.182 107.967 115.569 107.644 115.567C106.635 115.553 105.721 114.931 104.924 114.919C103.771 114.901 102.752 116.046 101.787 116.555C101.548 116.48 101.312 116.235 101.061 116.232C98.1534 116.199 94.897 116.012 91.937 115.787L92.8236 115.679C92.6239 115.712 92.4255 115.745 92.2285 115.778C90.7974 116.015 86.933 115.369 88.4868 117.656C88.1077 118.218 84.309 118.079 83.6304 118.23C82.9519 118.382 82.5286 118.965 81.9999 119.103C80.4044 119.518 79.1971 119.471 77.3462 120.345C76.8684 120.572 76.4614 121.24 76.1619 121.307C75.8009 121.387 75.2869 120.965 74.8139 121.047C73.8601 121.216 72.2637 121.73 71.1378 121.988L71.233 121.964C71.0528 122.009 70.887 122.047 70.7405 122.074C70.5663 122.106 70.3757 121.673 70.0877 121.607C68.9662 121.345 67.8996 121.794 68.6073 123.126C67.1368 122.761 66.339 123.95 65.3444 124.494C63.1851 125.583 59.2298 127.869 58.0217 129.808C57.2513 131.008 57.7397 131.443 55.9127 132.424C55.5107 132.645 55.0717 132.847 54.5865 133.14C53.4601 133.812 51.7085 133.954 52.2326 135.672C51.0177 136.553 50.5497 137.643 48.8782 137.794C49.0518 138.078 49.2269 138.36 49.4037 138.641C49.3063 138.794 49.2097 138.946 49.1141 139.099C48.8417 138.981 48.569 138.863 48.2958 138.745C47.488 139.785 47.6199 141.828 47.0597 142.764C46.0776 144.311 43.4977 148.339 42.4478 149.837C41.8701 150.631 42.4383 150.9 41.0402 150.909C41.0383 151.145 41.0385 151.378 41.0408 151.609C41.2507 151.838 41.462 152.066 41.6745 152.291C41.2306 153.419 40.3258 154.596 39.9546 155.697C39.7126 156.413 39.5221 157.353 39.3644 158.284C39.2808 158.766 39.2149 159.208 39.1389 159.677C39.1107 159.872 39.0665 160.131 39.0438 160.294C39.0351 160.362 39.0142 160.489 39.0109 160.528C39.0088 160.549 39.0071 160.57 39.0112 160.55C39.0142 160.512 39.0366 160.469 39.0425 160.084C39.0417 160.787 38.9952 161.345 38.8738 161.89C38.7519 162.42 38.1877 163.1 38.2125 163.626C38.2495 164.39 39.2174 164.531 39.2878 165.483C39.3966 167.121 38.5812 170.295 38.8984 171.847C38.9881 172.309 39.3739 172.465 39.4602 172.776C39.8271 174.071 39.9963 175.156 40.7999 176.27C40.1876 177.783 39.0163 177.955 37.95 178.663C37.1438 179.194 35.383 180.757 34.6646 181.129C34.1565 181.386 33.3542 181.174 32.8031 181.487C31.8397 179.788 32.1909 178.866 32.7339 177.232C32.1531 174.537 31.7381 171.824 31.4499 169.116C31.7604 168.836 32.0722 168.558 32.3858 168.289C32.3865 168.289 32.3873 168.289 32.388 168.289C32.6876 167.227 31.8001 166.856 31.5687 166.303C30.8806 164.681 30.5378 162.413 30.4844 160.084C31.6564 152.6 34.6692 148.393 36.6051 144.443C37.1715 143.296 38.7538 139.385 39.7009 138.902C39.9381 138.777 40.4153 138.985 40.5573 138.79C41.3963 136.776 42.3254 134.793 43.3721 132.835C46.6656 129.677 49.2692 125.788 52.7853 122.7C57.4041 118.627 62.9372 115.39 68.9884 113.64L69.0707 113.618C74.7388 112.082 80.3969 110.608 86.0692 109.272C87.5547 108.923 89.2679 108.315 90.8978 107.881L91.937 107.755C92.697 107.741 93.432 107.757 94.1051 107.834C95.0095 107.938 95.3863 108.768 96.5744 108.149C96.5869 108.373 96.5994 108.597 96.6118 108.82C97.6487 108.55 98.3112 108.041 99.4737 107.99C100.453 107.947 103.042 107.914 103.907 107.999C104.356 108.042 104.189 108.46 104.607 108.458C105.323 108.451 106.853 107.873 107.842 107.873C108.737 107.873 110.246 108.354 110.934 108.285C112.908 108.088 115.022 107.595 117.135 107.499L118.236 107.633C118.767 107.739 119.291 107.87 119.804 108.037C120.499 108.265 121.28 109.016 121.506 109.056C121.947 109.133 122.202 108.654 122.509 108.66C124.07 108.694 126.224 109.87 127.667 110.253C130.202 110.925 132.841 111.529 135.467 112.14L135.387 112.121C139.054 113.118 140.791 114.484 142.873 115.825C145.607 117.679 149.785 120.789 151.773 122.915C152.203 123.372 151.711 123.716 152.117 124.046C152.561 124.407 153.048 124.303 153.276 124.45C154.862 125.458 158.254 127.817 159.312 129.269C159.516 129.546 159.402 130.046 159.554 130.175C159.63 130.241 160.004 130.159 160.263 130.343C162.556 131.976 163.965 133.471 165.926 135.387C168.947 138.399 171.729 140.281 175.905 144.702C175.794 144.546 175.938 144.74 176.061 144.899C176.192 145.07 176.332 145.263 176.464 145.457C176.725 145.838 176.952 146.215 177.153 146.577C177.558 147.306 177.871 147.988 178.15 148.667C178.649 149.894 178.139 151.032 178.217 151.191C178.377 151.536 179.03 151.541 179.453 152.218C180.623 154.097 181.151 156.816 181.875 158.944L182.044 160.357C182.02 160.788 182.013 161.201 182.034 161.59C182.097 162.76 182.741 164.409 182.826 165.562C182.893 166.483 182.436 168.613 182.741 169.042C182.925 169.302 183.565 169.464 183.624 169.764ZM164.722 145.012C165.554 144.366 163.72 143.845 163.811 144.689C163.834 144.882 164.511 145.184 164.722 145.012ZM96.9043 114.412C96.9199 114.709 96.9356 115.006 96.9513 115.303C97.1758 115.179 97.4004 115.056 97.625 114.932C97.4988 114.754 97.3725 114.575 97.2463 114.397C97.1323 114.402 97.0183 114.407 96.9043 114.412Z" fill="white"/>
</svg>
