<svg width="252" height="932" viewBox="0 0 252 932" fill="none" xmlns="http://www.w3.org/2000/svg">
<path d="M17.2511 46.4978C16.7392 45.4282 16.4537 43.7263 15.9407 42.4246C13.8001 36.9682 13.2072 34.8581 11.3159 29.9012C8.48852 22.5615 -0.691966 1.12569 1.13172 0.322343C1.13176 0.322323 1.13181 0.322303 1.13185 0.322282C1.15004 0.314251 1.16935 0.308271 1.18973 0.30422C1.57352 0.224573 2.74375 1.87644 3.2689 1.96681C3.79421 2.05669 6.32038 0.704002 7.65723 3.19324C9.58018 6.8093 12.9544 16.0288 13.8813 18.0009C14.5226 19.3456 15.5573 20.8935 16.4021 22.6022C19.13 28.1098 20.2463 31.1287 23.3732 35.7962C23.8787 37.9913 24.3702 40.1924 24.848 42.3997C26.2522 44.9359 27.4723 49.1794 28.2253 50.7643C28.8457 52.0633 29.5589 52.6706 30.1978 54.028C30.9174 55.549 31.5835 58.078 32.9059 60.8387C35.0721 65.3653 36.4545 65.7321 37.842 68.4094C39.2836 71.1845 40.734 75.8488 42.7651 79.3054C43.0909 79.7077 43.4174 80.1097 43.7444 80.5114C43.8625 80.0685 43.9795 79.626 44.0956 79.184C45.0648 80.9487 44.8769 81.9738 45.6382 83.6523C46.5337 85.6273 47.5298 86.3976 48.1419 87.7224C48.6431 88.8078 48.8914 90.4692 49.5673 91.8651C50.5515 93.9007 50.9769 93.1736 51.6081 94.2243C51.8566 94.645 55.9978 102.622 56.2186 103.078C57.8712 106.555 57.1053 107.259 58.3104 110.081C61.6524 117.91 66.0694 125.512 69.6836 132.523C71.295 135.655 72.7811 139.009 74.0903 142.262C69.2266 138.371 72.2659 150.383 74.4296 144.438C75.4786 148.238 77.7385 150.264 79.1001 153.705C79.9776 155.931 80.0879 157.691 81.5244 160.789C84.0679 166.29 88.5535 171.557 86.1771 174.507C89.672 180.739 91.0562 186.861 94.9402 187.952C95.8808 189.542 96.1422 194.562 96.756 196.54C97.3482 198.405 102.712 212.353 103.665 214.602C104.624 216.848 106.329 220.768 107.437 222.527C108.816 224.743 112.71 225.002 110.925 230.814C113.418 235.561 114.098 237.344 115.7 242.074C115.99 242.93 115.475 243.268 115.689 243.749C116.132 244.738 117.299 246.239 118.141 247.983C119.527 250.849 119.081 253.029 120.75 251.907C121.914 253.687 123.08 255.465 124.248 257.243C124.197 258.069 124.146 258.896 124.093 259.723C124.938 260.576 125.784 261.429 126.632 262.282C123.43 262.251 128.23 268.763 128.718 265.748C129.836 269.699 130.945 273.653 132.047 277.611C128.733 278.45 135.328 285.922 136.699 284.445C136.888 284.87 137.076 285.296 137.264 285.721C138.104 289.802 140.314 292.916 141.783 297.694C143.249 302.473 142.75 302.184 141.908 304.204C142.466 305.235 143.024 306.265 143.583 307.296C150.096 311.127 142.687 313.204 150.044 321.436C148.856 325.623 153.538 332.596 156.547 337.26C156.897 337.803 157.402 337.593 157.902 338.301C159.118 340.035 160.622 345.163 162.174 344.282C162.45 346.165 162.724 348.049 162.996 349.934C163.901 351.174 164.807 352.414 165.713 353.653C166.22 353.422 166.727 353.19 167.234 352.959C166.723 356.483 169.317 360.525 169.85 362.848C169.954 363.311 169.287 363.714 169.681 365.123C170.137 366.771 171.624 369.562 172.219 371.503C173.234 371.843 174.249 372.183 175.265 372.522L175.891 375.5C175.961 375.564 176.032 375.628 176.102 375.692C176.582 379.298 174.31 380.565 174.137 382.683C174.107 383.064 174.286 390.019 174.336 390.394C174.729 393.462 176.678 392.593 176.282 401.466C176.21 403.046 175.536 404.324 175.512 405.753C175.467 408.276 177.02 415.878 178.446 416.476C176.671 419.536 177.413 427.723 176.9 430.135C176.742 430.863 175.605 431.027 175.365 433.264C175.169 435.078 176.085 439.749 175.934 442.049C175.77 444.491 174.813 445.363 174.745 446.457C174.683 447.49 175.457 448.443 175.453 449.852C175.428 454.249 174.183 458.23 174.16 461.705C174.16 461.759 174.16 461.812 174.16 461.865C174.173 466.825 176.424 471.215 177.427 475.376C177.278 476.42 176.786 477.445 176.781 478.539C176.7 492.076 176.254 507.347 175.738 520.924C175.498 527.227 172.4 542.901 177.519 538.718C178.405 540.908 176.288 556.835 176.248 559.865C176.206 562.893 177.101 565.294 177.103 567.675C177.106 574.859 176.438 579.918 177.167 588.663C177.357 590.921 178.396 593.341 178.374 594.678C178.345 596.289 177.317 598.023 177.24 600.11C177.063 605.085 177.331 614.356 177.121 619.129C177.081 620.001 176.202 620.307 175.921 621.553C174.822 626.407 174.887 631.847 177.663 630.884C176.041 637.105 177.427 642.86 177.456 648.625C177.514 660.815 176.681 683.019 177.637 693.638C178.239 700.334 179.375 700.163 178.251 710.021C178.003 712.209 177.681 714.388 177.389 717.042C176.692 723.263 174.614 728.971 176.98 733.713C176.725 736.133 176.606 738.381 176.466 740.5L176.345 739.117C176.774 743.034 177.053 746.528 176.307 750.042C176.88 750.555 177.452 751.068 178.022 751.581C178.169 752.415 178.316 753.25 178.463 754.084C178.056 754.424 177.649 754.764 177.243 755.104C178.117 761.112 181.159 768.394 181.948 773.471C183.285 781.981 186.11 804.009 186.886 812.165C187.297 816.495 188.161 816.58 186.854 819.331C187.13 820.267 187.404 821.203 187.678 822.14C188.146 822.674 188.611 823.208 189.075 823.742C189.964 829.234 190.449 835.848 191.298 841.079C192.86 850.609 196.017 864.777 196.949 874.459C197.077 875.772 197.088 877.286 197.135 878.771L195.685 876.272C196.53 877.208 197.381 878.112 198.213 878.821C200.851 881.068 202.153 880.82 205.488 883.688C211.225 888.643 221.206 898.716 226.703 903.31C228.331 904.68 229.292 905.076 230.426 906.011C235.182 909.928 238.997 913.25 243.747 916.777C248.052 921.521 247.044 921.876 247.939 923.873C248.615 925.39 251.111 929.532 251.242 930.389C251.33 930.996 249.658 930.346 249.86 931.101C243.671 926.658 241.421 924.37 237.074 919.947C228.172 912.829 219.271 905.709 210.371 898.588C209.777 897.681 209.186 896.77 208.598 895.856C208.599 895.855 208.599 895.855 208.6 895.854C205.457 892.788 203.451 892.3 201.482 890.977C198.14 888.725 194.323 885.969 190.2 882.865L189.029 881.941L188.689 880.26C183.338 856.936 178.17 823.602 174.676 803.44C173.753 798.159 169.862 781.139 169.986 777.382C170.02 776.409 170.736 776.014 170.585 775.012C168.484 766.191 166.361 757.374 164.218 748.56C163.941 746.184 163.626 743.803 163.279 741.42L163.199 740.5C163.703 724.15 162.721 707.431 162.39 691.082C161.4 640.337 160.267 590.099 160.345 540.186C160.363 530.54 159.561 518.298 160.038 508.854C160.236 504.913 161.887 503.271 160.647 498.093C161.093 498.039 161.538 497.984 161.984 497.93C161.441 493.412 160.421 490.524 160.313 485.458C160.223 481.192 160.15 469.906 160.321 466.136C160.406 464.181 161.242 464.909 161.238 463.086C161.236 462.724 161.219 462.313 161.19 461.865C160.971 458.448 160.07 452.797 160.072 448.991C160.074 445.09 161.041 438.513 160.905 435.514C160.421 424.712 159.024 412.947 159.437 401.436C159.553 398.256 160.637 394.166 160.609 393.171C160.552 391.226 159.515 390.646 159.386 389.34C159.007 385.484 159.279 380.378 159.586 375.5L160.342 379.091C159.127 375.78 157.977 372.57 156.907 370.062C148.59 350.562 139.257 330.135 131.06 310.682C125.874 298.396 116.966 278.105 112.751 266.51C111.842 264.009 113.058 264.247 112.175 262.201C111.194 259.932 110.036 258.979 109.529 257.94C106.006 250.755 98.4474 234.798 96.0942 227.586C95.6463 226.213 95.928 224.949 95.5854 224.159C95.4132 223.759 94.5533 223.062 93.9668 221.826C88.7877 210.909 85.6066 202.687 81.1083 191.736C72.4728 170.772 61.4375 146.934 52.5567 124.827C50.6209 120.011 50.2961 116.267 49.9964 115.602C49.3454 114.139 48.2309 113.51 46.7934 110.6C42.0327 100.917 37.1038 87.2233 32.7929 77.9176C30.6655 73.3192 27.2103 67.2341 25.141 62.6982C23.4865 59.0761 20.1635 50.2648 19.1823 48.7685C18.5873 47.8574 17.8098 47.6567 17.2511 46.4978ZM82.3501 164.4C80.6283 164.383 84.9007 170.648 84.5175 167.761C84.4292 167.111 82.7958 164.405 82.3501 164.4ZM173.132 496.656C173.724 496.587 174.316 496.519 174.908 496.451C174.663 495.472 174.418 494.493 174.172 493.515C173.816 494.065 173.459 494.615 173.103 495.165C173.113 495.662 173.123 496.159 173.132 496.656Z" fill="white"/>
</svg>
